<?xml version="1.0" encoding="utf-8"?>
<!-- Generator: Adobe Illustrator 27.9.0, SVG Export Plug-In . SVG Version: 6.00 Build 0)  -->
<svg version="1.1" id="Layer_1" xmlns="http://www.w3.org/2000/svg" xmlns:xlink="http://www.w3.org/1999/xlink" x="0px" y="0px"
	 viewBox="0 0 595.28 185.82" style="enable-background:new 0 0 595.28 185.82;" xml:space="preserve">
<style type="text/css">
	.st0{fill:#B7762A;}
	.st1{fill:url(#SVGID_1_);}
	.st2{fill:url(#SVGID_00000176042522181651826330000002264144526828612788_);}
	.st3{fill:url(#SVGID_00000165951027130689811510000010498528057292201350_);}
	.st4{fill:url(#SVGID_00000067935295515648231630000008853523642693915012_);}
	.st5{fill:url(#SVGID_00000111903627656311624460000001046811682972639146_);}
	.st6{fill:url(#SVGID_00000107579563495918327440000008908101836703376770_);}
</style>
<g>
	<path class="st0" d="M36,153.13c-7.77-3.38-13.94-8.26-18.53-14.63c-2.62-3.64-4.3-7.25-5.05-10.83c-0.73-3.58-0.45-6.71,0.88-9.4
		c-1.06-1.33-1.74-2.2-2.03-2.6c-1.51-2.1-2.61-4.05-3.29-5.84c-0.69-1.79-0.94-3.36-0.76-4.7c0.18-1.35,0.78-2.39,1.83-3.13
		c1.26-0.91,2.9-1.14,4.89-0.69c2,0.45,4.09,1.48,6.25,3.09c2.15,1.61,4.09,3.59,5.8,5.97c0.78,1.09,1.51,2.28,2.18,3.63
		c4.47,1.98,8.11,4.92,10.94,8.84c1.84,2.57,3.05,5.04,3.6,7.45c0.56,2.4,0.48,4.62-0.24,6.67c1.22,1.04,2.31,2.05,3.26,3.03
		c0.94,0.98,1.77,1.96,2.46,2.93c1.63,2.26,2.48,4.45,2.54,6.55c0.06,2.09-0.68,3.71-2.22,4.82c-2.15,1.55-5.11,1.63-8.85,0.23
		c0.52,1.94,1.2,3.91,2.07,5.91c0.87,2,1.78,3.67,2.74,5c1.37,1.91,2.92,3.43,4.65,4.58c1.73,1.15,3.44,1.79,5.11,1.94
		c1.68,0.14,3.17-0.26,4.48-1.19c0.91-0.66,1.54-1.51,1.91-2.55c0.36-1.04,0.45-2.15,0.23-3.36c-0.21-1.2-0.73-2.36-1.53-3.47
		c-1.36-1.89-3.06-2.98-5.1-3.26c0.28,1.01,0.05,1.79-0.7,2.32c-0.44,0.32-0.91,0.45-1.39,0.39c-0.49-0.06-0.86-0.29-1.16-0.7
		c-0.31-0.42-0.42-0.91-0.31-1.43c0.11-0.53,0.37-0.93,0.79-1.24c0.71-0.51,1.59-0.7,2.67-0.57c1.07,0.14,2.14,0.56,3.23,1.26
		c1.08,0.7,2.02,1.59,2.79,2.67c0.87,1.21,1.43,2.5,1.67,3.89c0.26,1.38,0.15,2.7-0.3,3.92c-0.45,1.23-1.19,2.22-2.21,2.95
		c-1.58,1.14-3.4,1.59-5.45,1.35c-2.05-0.22-4.15-1.1-6.3-2.63c-2.15-1.53-4.15-3.59-6.03-6.2C39.6,161.42,37.76,157.76,36,153.13z
		 M25.07,113.02c-0.71-1.46-1.51-2.8-2.37-4c-1.42-1.97-2.94-3.57-4.56-4.79c-1.61-1.22-3.18-1.97-4.68-2.27
		c-1.51-0.29-2.78-0.07-3.8,0.66c-1.3,0.94-1.77,2.47-1.43,4.58c0.36,2.12,1.45,4.45,3.28,6.99c0.67,0.93,1.46,1.92,2.39,2.97
		c0.78-1.26,1.61-2.22,2.51-2.86c1.13-0.82,2.45-1.34,3.95-1.54C21.88,112.56,23.44,112.64,25.07,113.02z M25.44,113.95
		c-3.45-0.91-6.28-0.55-8.51,1.05c-0.82,0.59-1.64,1.52-2.48,2.8c1.81,1.89,3.83,3.5,6.05,4.82c0.6-1,1.22-1.73,1.82-2.16
		c1.47-1.06,3.38-1.3,5.74-0.74C27.34,117.76,26.45,115.84,25.44,113.95z M32.61,140.85c-1.76-0.51-3.52-1.4-5.25-2.69
		c-1.73-1.29-3.25-2.83-4.55-4.63c-2.61-3.62-3.49-6.92-2.65-9.86c-2.33-1.45-4.4-3.05-6.18-4.82c-1.07,2.66-1.25,5.66-0.51,9.01
		c0.73,3.36,2.31,6.72,4.75,10.11c4.26,5.93,10.08,10.61,17.42,14.07C34.68,148.95,33.68,145.22,32.61,140.85z M34.21,130.95
		c3.14,2.16,5.66,4.02,7.56,5.56c0.4-1.2,0.56-2.52,0.46-3.97c-0.1-1.45-0.47-2.95-1.09-4.49c-0.63-1.54-1.48-3.06-2.56-4.56
		c-2.57-3.57-5.81-6.35-9.74-8.35c0.89,1.76,1.71,3.59,2.42,5.53c1.95,1.03,3.54,2.41,4.79,4.13c1.15,1.6,1.88,3.38,2.18,5.32
		l-0.72,0.18c-0.39-1.79-1.11-3.42-2.18-4.91c-1.04-1.45-2.27-2.57-3.69-3.35C32.74,125.09,33.59,128.06,34.21,130.95z
		 M30.42,128.93c-0.55-2.96-1.23-5.66-2.02-8.11c-2.31-0.77-4.17-0.64-5.6,0.39c-0.67,0.48-1.19,1.13-1.56,1.94
		c0.85,0.59,2.51,1.66,4.99,3.17C28.78,127.96,30.18,128.82,30.42,128.93z M32.46,139.94c-0.18-0.88-0.76-4.07-1.76-9.56
		c-0.62-0.41-1.24-0.79-1.85-1.16c-0.6-0.37-1.22-0.74-1.86-1.12c-0.65-0.39-1.28-0.77-1.92-1.17c-0.63-0.39-1.24-0.75-1.83-1.09
		c-0.58-0.38-1.36-0.91-2.34-1.61c-0.68,2.44,0.19,5.33,2.61,8.69c1.19,1.63,2.55,3.06,4.12,4.28
		C29.21,138.44,30.83,139.34,32.46,139.94z M36.35,140.4c1.41-0.02,2.53-0.33,3.38-0.95c0.62-0.44,1.16-1.12,1.66-2.04
		c-1.69-1.52-3.97-3.19-6.82-4.99c0.06,0.24,0.13,0.52,0.21,0.82c0.09,0.3,0.16,0.6,0.22,0.86c0.06,0.26,0.13,0.6,0.19,1
		C35.78,137.35,36.17,139.12,36.35,140.4z M39.31,153.55c1.55,0.59,3.05,0.88,4.48,0.88c1.43-0.01,2.57-0.32,3.4-0.93
		c1.37-0.98,2.01-2.48,1.92-4.5c-0.1-2.01-0.88-4.03-2.37-6.1c-1.43-1.99-2.97-3.68-4.63-5.08c-0.57,1.01-1.22,1.76-1.92,2.27
		c-0.86,0.62-2.08,1-3.66,1.16C37.46,145.65,38.39,149.76,39.31,153.55z"/>
	<path class="st0" d="M41.52,21.3c1.88-2.6,3.89-4.67,6.03-6.2c2.15-1.53,4.24-2.41,6.3-2.63c2.05-0.23,3.87,0.22,5.45,1.35
		c1.02,0.73,1.76,1.72,2.21,2.95c0.45,1.23,0.56,2.54,0.3,3.92c-0.24,1.39-0.8,2.68-1.67,3.89c-0.77,1.07-1.71,1.96-2.79,2.67
		c-1.08,0.7-2.16,1.11-3.23,1.26c-1.07,0.13-1.96-0.07-2.67-0.57c-0.43-0.31-0.68-0.72-0.79-1.24c-0.1-0.52,0-1.01,0.31-1.43
		c0.29-0.41,0.67-0.64,1.16-0.7c0.49-0.06,0.95,0.07,1.39,0.39c0.75,0.53,0.98,1.31,0.7,2.32c2.04-0.28,3.74-1.37,5.1-3.26
		c0.8-1.11,1.32-2.27,1.53-3.47c0.21-1.21,0.13-2.32-0.23-3.36c-0.37-1.04-1-1.89-1.91-2.55c-1.3-0.93-2.79-1.33-4.48-1.19
		c-1.68,0.15-3.39,0.79-5.11,1.94c-1.74,1.15-3.28,2.67-4.65,4.58c-0.96,1.34-1.87,3-2.74,5c-0.87,2-1.55,3.97-2.07,5.91
		c3.74-1.4,6.69-1.32,8.85,0.23c1.53,1.11,2.28,2.72,2.22,4.82c-0.06,2.1-0.9,4.29-2.54,6.55c-0.69,0.97-1.52,1.94-2.46,2.93
		c-0.95,0.98-2.03,1.99-3.26,3.03c0.72,2.05,0.8,4.27,0.24,6.67c-0.56,2.41-1.76,4.88-3.6,7.45c-2.83,3.92-6.47,6.87-10.94,8.84
		c-0.68,1.35-1.41,2.54-2.18,3.63c-1.71,2.38-3.65,4.36-5.8,5.97c-2.16,1.61-4.24,2.64-6.25,3.09c-2,0.45-3.63,0.21-4.89-0.69
		c-1.04-0.75-1.65-1.79-1.83-3.13c-0.18-1.34,0.07-2.91,0.76-4.7c0.68-1.79,1.78-3.74,3.29-5.84c0.29-0.4,0.97-1.27,2.03-2.6
		c-1.33-2.7-1.62-5.83-0.88-9.4c0.74-3.58,2.43-7.19,5.05-10.83C22.06,40.53,28.24,35.65,36,32.27
		C37.76,27.64,39.6,23.98,41.52,21.3z M20.38,72.64c-1.5-0.2-2.82-0.72-3.95-1.54c-0.9-0.64-1.73-1.59-2.51-2.86
		c-0.93,1.05-1.73,2.04-2.39,2.97c-1.84,2.54-2.93,4.87-3.28,6.99c-0.35,2.11,0.13,3.64,1.43,4.58c1.02,0.74,2.29,0.96,3.8,0.66
		c1.5-0.29,3.07-1.04,4.68-2.27c1.61-1.22,3.14-2.83,4.56-4.79c0.86-1.21,1.66-2.54,2.37-4.01C23.44,72.76,21.88,72.84,20.38,72.64z
		 M28.07,65.68c-2.35,0.56-4.26,0.32-5.74-0.74c-0.61-0.43-1.22-1.16-1.82-2.16c-2.22,1.33-4.24,2.94-6.05,4.82
		c0.83,1.27,1.66,2.2,2.48,2.8c2.23,1.6,5.06,1.95,8.51,1.05C26.45,69.56,27.34,67.64,28.07,65.68z M35.64,33.36
		c-7.34,3.46-13.15,8.15-17.42,14.07c-2.44,3.39-4.02,6.75-4.75,10.11c-0.74,3.35-0.56,6.35,0.51,9.01
		c1.77-1.76,3.84-3.36,6.18-4.82c-0.84-2.94,0.04-6.24,2.65-9.86c1.3-1.8,2.82-3.35,4.55-4.63c1.73-1.29,3.49-2.18,5.25-2.69
		C33.68,40.18,34.68,36.45,35.64,33.36z M31.64,63.36c1.42-0.78,2.65-1.9,3.69-3.35c1.07-1.49,1.79-3.13,2.18-4.91l0.72,0.18
		c-0.3,1.95-1.03,3.72-2.18,5.32c-1.25,1.73-2.84,3.1-4.79,4.13c-0.72,1.94-1.53,3.78-2.42,5.53c3.92-2,7.17-4.78,9.74-8.35
		c1.09-1.5,1.93-3.02,2.56-4.56c0.63-1.54,1-3.04,1.09-4.49c0.1-1.46-0.06-2.78-0.46-3.97c-1.9,1.54-4.42,3.4-7.56,5.56
		C33.59,57.34,32.74,60.31,31.64,63.36z M26.22,59.07c-2.47,1.52-4.14,2.58-4.99,3.17c0.38,0.81,0.9,1.46,1.56,1.94
		c1.43,1.03,3.3,1.16,5.6,0.39c0.79-2.44,1.47-5.15,2.02-8.11C30.18,56.58,28.78,57.44,26.22,59.07z M27.64,48.19
		c-1.57,1.23-2.93,2.65-4.12,4.28c-2.42,3.37-3.29,6.26-2.61,8.69c0.98-0.7,1.76-1.24,2.34-1.61c0.59-0.34,1.2-0.71,1.83-1.09
		c0.63-0.39,1.27-0.78,1.92-1.17c0.65-0.38,1.26-0.75,1.86-1.12c0.61-0.37,1.22-0.75,1.85-1.16c1-5.48,1.58-8.67,1.76-9.56
		C30.83,46.06,29.21,46.96,27.64,48.19z M35.2,50.31c-0.06,0.4-0.13,0.74-0.19,1c-0.06,0.26-0.13,0.56-0.22,0.86
		c-0.08,0.3-0.15,0.58-0.21,0.82c2.85-1.81,5.13-3.47,6.82-4.99c-0.5-0.92-1.05-1.6-1.66-2.04c-0.85-0.62-1.98-0.93-3.38-0.95
		C36.17,46.28,35.78,48.05,35.2,50.31z M36.54,44.15c1.58,0.16,2.79,0.54,3.66,1.16c0.7,0.51,1.35,1.27,1.92,2.27
		c1.66-1.41,3.2-3.1,4.63-5.08c1.48-2.07,2.27-4.09,2.37-6.1c0.09-2.02-0.55-3.52-1.92-4.5c-0.84-0.61-1.97-0.91-3.4-0.93
		c-1.43-0.01-2.93,0.28-4.48,0.88C38.39,35.64,37.46,39.75,36.54,44.15z"/>
	<path class="st0" d="M549.65,164.1c-1.88,2.6-3.89,4.67-6.03,6.2c-2.15,1.53-4.24,2.41-6.3,2.63c-2.05,0.23-3.87-0.22-5.45-1.35
		c-1.02-0.73-1.76-1.72-2.21-2.95c-0.45-1.23-0.56-2.54-0.3-3.92c0.24-1.39,0.8-2.68,1.67-3.89c0.77-1.07,1.71-1.96,2.79-2.67
		c1.08-0.7,2.16-1.11,3.23-1.26c1.07-0.13,1.96,0.06,2.67,0.57c0.43,0.31,0.68,0.72,0.79,1.24c0.1,0.52,0,1.01-0.31,1.43
		c-0.29,0.41-0.67,0.64-1.16,0.7c-0.49,0.07-0.95-0.06-1.39-0.39c-0.75-0.53-0.98-1.31-0.7-2.32c-2.04,0.28-3.74,1.37-5.1,3.26
		c-0.8,1.11-1.32,2.27-1.53,3.47c-0.21,1.2-0.13,2.32,0.23,3.36c0.37,1.04,1,1.89,1.91,2.55c1.3,0.93,2.79,1.33,4.48,1.19
		c1.68-0.15,3.39-0.79,5.11-1.94c1.74-1.15,3.28-2.67,4.65-4.58c0.96-1.33,1.87-3,2.74-5c0.87-2,1.55-3.97,2.07-5.91
		c-3.74,1.4-6.69,1.32-8.85-0.23c-1.53-1.11-2.28-2.72-2.22-4.82c0.06-2.1,0.9-4.29,2.54-6.55c0.69-0.97,1.52-1.94,2.46-2.93
		c0.95-0.98,2.03-1.99,3.26-3.03c-0.72-2.05-0.8-4.27-0.24-6.67c0.56-2.41,1.76-4.88,3.6-7.45c2.83-3.92,6.47-6.87,10.94-8.84
		c0.68-1.35,1.41-2.54,2.18-3.63c1.71-2.38,3.64-4.36,5.8-5.97c2.16-1.61,4.24-2.64,6.25-3.09c2-0.45,3.63-0.21,4.89,0.69
		c1.04,0.75,1.65,1.79,1.83,3.13c0.18,1.34-0.07,2.91-0.76,4.7c-0.68,1.79-1.78,3.74-3.29,5.84c-0.29,0.4-0.97,1.27-2.03,2.6
		c1.33,2.7,1.62,5.83,0.88,9.4c-0.74,3.58-2.43,7.19-5.05,10.83c-4.59,6.37-10.76,11.25-18.53,14.63
		C553.41,157.76,551.57,161.42,549.65,164.1z M570.79,112.76c1.5,0.2,2.82,0.72,3.95,1.54c0.9,0.64,1.73,1.6,2.51,2.86
		c0.93-1.05,1.73-2.04,2.39-2.97c1.84-2.54,2.93-4.87,3.28-6.99c0.35-2.11-0.13-3.64-1.43-4.58c-1.02-0.74-2.29-0.96-3.8-0.66
		c-1.5,0.29-3.07,1.04-4.68,2.27c-1.61,1.22-3.14,2.83-4.56,4.79c-0.86,1.21-1.66,2.54-2.37,4
		C567.73,112.64,569.29,112.56,570.79,112.76z M563.1,119.72c2.35-0.56,4.26-0.32,5.74,0.74c0.61,0.43,1.22,1.16,1.82,2.16
		c2.22-1.33,4.24-2.94,6.05-4.82c-0.83-1.27-1.66-2.2-2.48-2.8c-2.23-1.6-5.06-1.96-8.51-1.05
		C564.72,115.84,563.84,117.76,563.1,119.72z M555.53,152.04c7.34-3.46,13.15-8.15,17.42-14.07c2.44-3.38,4.02-6.75,4.75-10.11
		c0.74-3.35,0.56-6.35-0.51-9.01c-1.77,1.76-3.84,3.36-6.18,4.82c0.84,2.94-0.04,6.24-2.65,9.86c-1.3,1.8-2.82,3.35-4.55,4.63
		c-1.73,1.29-3.49,2.18-5.25,2.69C557.49,145.22,556.49,148.95,555.53,152.04z M559.54,122.04c-1.42,0.78-2.65,1.9-3.69,3.35
		c-1.07,1.49-1.79,3.13-2.18,4.91l-0.72-0.18c0.3-1.95,1.03-3.72,2.18-5.32c1.25-1.73,2.84-3.1,4.79-4.13
		c0.72-1.94,1.53-3.78,2.43-5.53c-3.92,2-7.17,4.78-9.74,8.35c-1.09,1.5-1.93,3.02-2.56,4.56c-0.63,1.54-0.99,3.04-1.09,4.49
		c-0.1,1.46,0.06,2.78,0.46,3.97c1.9-1.54,4.42-3.4,7.56-5.56C557.58,128.06,558.43,125.09,559.54,122.04z M564.95,126.33
		c2.47-1.52,4.13-2.58,4.99-3.17c-0.38-0.81-0.9-1.46-1.56-1.94c-1.43-1.03-3.3-1.16-5.6-0.39c-0.79,2.44-1.47,5.15-2.02,8.11
		C560.99,128.82,562.39,127.96,564.95,126.33z M563.53,137.21c1.57-1.23,2.93-2.65,4.12-4.28c2.42-3.37,3.29-6.26,2.61-8.69
		c-0.98,0.7-1.76,1.24-2.34,1.61c-0.59,0.34-1.2,0.71-1.83,1.09c-0.63,0.39-1.27,0.78-1.92,1.17c-0.65,0.38-1.26,0.75-1.86,1.12
		c-0.61,0.37-1.22,0.75-1.85,1.16c-0.99,5.48-1.58,8.67-1.76,9.56C560.34,139.34,561.96,138.44,563.53,137.21z M555.97,135.09
		c0.06-0.4,0.13-0.74,0.19-1c0.06-0.26,0.13-0.56,0.22-0.86c0.08-0.3,0.15-0.58,0.21-0.82c-2.85,1.81-5.13,3.47-6.82,4.99
		c0.5,0.92,1.05,1.6,1.66,2.04c0.85,0.62,1.98,0.93,3.38,0.95C555,139.12,555.39,137.35,555.97,135.09z M554.63,141.25
		c-1.58-0.16-2.79-0.54-3.66-1.16c-0.7-0.51-1.35-1.27-1.92-2.27c-1.66,1.41-3.2,3.1-4.63,5.08c-1.48,2.07-2.27,4.09-2.37,6.1
		c-0.09,2.02,0.55,3.52,1.92,4.5c0.84,0.61,1.97,0.91,3.4,0.93c1.43,0.01,2.93-0.28,4.48-0.88
		C552.78,149.76,553.71,145.65,554.63,141.25z"/>
	<path class="st0" d="M555.17,32.27c7.77,3.38,13.94,8.26,18.53,14.63c2.62,3.64,4.3,7.25,5.05,10.83c0.73,3.58,0.45,6.71-0.88,9.4
		c1.06,1.33,1.74,2.2,2.03,2.6c1.51,2.1,2.61,4.05,3.29,5.84c0.69,1.79,0.94,3.36,0.76,4.7c-0.18,1.35-0.78,2.39-1.83,3.13
		c-1.26,0.91-2.9,1.14-4.89,0.69c-2-0.45-4.09-1.48-6.25-3.09c-2.15-1.61-4.09-3.59-5.8-5.97c-0.78-1.09-1.51-2.28-2.18-3.63
		c-4.47-1.98-8.11-4.92-10.94-8.84c-1.84-2.57-3.04-5.04-3.6-7.45c-0.56-2.4-0.48-4.62,0.24-6.67c-1.22-1.04-2.31-2.05-3.26-3.03
		c-0.94-0.98-1.77-1.96-2.46-2.93c-1.63-2.26-2.47-4.45-2.54-6.55c-0.06-2.09,0.68-3.71,2.22-4.82c2.15-1.55,5.11-1.63,8.85-0.23
		c-0.52-1.94-1.21-3.91-2.07-5.91c-0.87-2-1.78-3.67-2.74-5c-1.37-1.91-2.91-3.43-4.65-4.58c-1.73-1.15-3.44-1.79-5.11-1.94
		c-1.68-0.14-3.17,0.26-4.48,1.19c-0.91,0.66-1.54,1.51-1.91,2.55c-0.36,1.04-0.45,2.15-0.23,3.36c0.21,1.2,0.73,2.36,1.53,3.47
		c1.36,1.89,3.06,2.98,5.1,3.26c-0.28-1.01-0.05-1.79,0.7-2.32c0.44-0.32,0.91-0.45,1.39-0.39c0.49,0.06,0.86,0.29,1.16,0.7
		c0.31,0.42,0.42,0.91,0.31,1.43c-0.11,0.53-0.37,0.93-0.79,1.24c-0.71,0.51-1.59,0.7-2.67,0.57c-1.07-0.14-2.14-0.56-3.23-1.26
		c-1.08-0.7-2.02-1.59-2.79-2.67c-0.87-1.21-1.43-2.5-1.67-3.89c-0.26-1.38-0.15-2.7,0.3-3.92c0.45-1.23,1.19-2.22,2.21-2.95
		c1.58-1.14,3.4-1.59,5.45-1.35c2.05,0.22,4.15,1.1,6.3,2.63c2.15,1.53,4.15,3.59,6.03,6.2C551.57,23.98,553.41,27.64,555.17,32.27z
		 M566.1,72.38c0.71,1.46,1.51,2.8,2.37,4.01c1.42,1.97,2.94,3.57,4.56,4.79c1.61,1.22,3.17,1.97,4.68,2.27
		c1.51,0.29,2.78,0.07,3.8-0.66c1.3-0.94,1.77-2.47,1.43-4.58c-0.36-2.11-1.45-4.45-3.28-6.99c-0.67-0.93-1.47-1.92-2.39-2.97
		c-0.78,1.26-1.61,2.21-2.51,2.86c-1.13,0.82-2.45,1.34-3.95,1.54C569.29,72.84,567.73,72.76,566.1,72.38z M565.73,71.45
		c3.45,0.91,6.28,0.55,8.51-1.05c0.82-0.59,1.64-1.52,2.48-2.8c-1.81-1.89-3.83-3.5-6.05-4.82c-0.6,1-1.22,1.73-1.82,2.16
		c-1.47,1.06-3.38,1.3-5.74,0.74C563.84,67.64,564.72,69.56,565.73,71.45z M558.56,44.55c1.76,0.51,3.52,1.4,5.25,2.69
		c1.73,1.29,3.25,2.83,4.55,4.63c2.61,3.62,3.49,6.92,2.65,9.86c2.33,1.45,4.4,3.05,6.18,4.82c1.07-2.66,1.25-5.66,0.51-9.01
		c-0.73-3.36-2.31-6.72-4.75-10.11c-4.26-5.93-10.08-10.61-17.42-14.07C556.49,36.45,557.49,40.18,558.56,44.55z M556.97,54.45
		c-3.14-2.16-5.66-4.02-7.56-5.56c-0.4,1.2-0.56,2.52-0.46,3.97c0.1,1.45,0.47,2.95,1.09,4.49c0.63,1.54,1.48,3.06,2.56,4.56
		c2.57,3.57,5.81,6.35,9.74,8.35c-0.89-1.76-1.71-3.59-2.43-5.53c-1.95-1.03-3.54-2.41-4.79-4.13c-1.15-1.6-1.88-3.38-2.18-5.32
		l0.72-0.18c0.39,1.79,1.11,3.42,2.18,4.91c1.04,1.45,2.27,2.57,3.69,3.35C558.43,60.31,557.58,57.34,556.97,54.45z M560.75,56.47
		c0.55,2.96,1.23,5.66,2.02,8.11c2.31,0.77,4.17,0.64,5.6-0.39c0.67-0.48,1.19-1.13,1.56-1.94c-0.85-0.59-2.51-1.66-4.99-3.17
		C562.39,57.44,560.99,56.58,560.75,56.47z M558.71,45.46c0.18,0.88,0.77,4.07,1.76,9.56c0.62,0.41,1.24,0.79,1.85,1.16
		c0.6,0.37,1.22,0.74,1.86,1.12c0.65,0.39,1.28,0.77,1.92,1.17c0.63,0.39,1.24,0.75,1.83,1.09c0.58,0.38,1.36,0.91,2.34,1.61
		c0.68-2.44-0.19-5.33-2.61-8.69c-1.19-1.63-2.55-3.06-4.12-4.28C561.96,46.96,560.34,46.06,558.71,45.46z M554.82,45
		c-1.41,0.02-2.53,0.33-3.38,0.95c-0.62,0.44-1.16,1.12-1.66,2.04c1.69,1.52,3.97,3.19,6.82,4.99c-0.06-0.24-0.13-0.52-0.21-0.82
		c-0.09-0.3-0.16-0.6-0.22-0.86c-0.06-0.26-0.13-0.6-0.19-1C555.39,48.05,555,46.28,554.82,45z M551.86,31.85
		c-1.55-0.59-3.05-0.88-4.48-0.88c-1.43,0.01-2.57,0.32-3.4,0.93c-1.37,0.98-2.01,2.48-1.92,4.5c0.1,2.01,0.88,4.03,2.37,6.1
		c1.43,1.98,2.97,3.68,4.63,5.08c0.57-1.01,1.22-1.76,1.92-2.27c0.86-0.62,2.08-1,3.66-1.16C553.71,39.75,552.78,35.64,551.86,31.85
		z"/>
	<path class="st0" d="M66.06,7.31c-0.33-0.52-0.16-1.21,0.37-1.53l0,0c8.26-5.04,17.5-5.77,23.52-5.77l0,0L502.71,0
		c6.01,0.01,15.26,0.74,23.51,5.78l0,0c0.52,0.32,0.69,1,0.36,1.53l0,0c-0.32,0.52-1,0.68-1.53,0.37l0,0
		c-7.67-4.71-16.52-5.45-22.34-5.45l0,0H89.94c-5.84,0-14.68,0.75-22.35,5.45l0,0C67.4,7.79,67.2,7.84,67,7.84l0,0
		C66.63,7.84,66.26,7.65,66.06,7.31L66.06,7.31z"/>
	<path class="st0" d="M66.43,180.04c-0.53-0.32-0.69-1.01-0.37-1.53l0,0c0.32-0.52,1-0.7,1.52-0.37l0,0
		c7.68,4.71,16.52,5.45,22.35,5.45l0,0l412.78-0.01c5.83,0.01,14.68-0.74,22.35-5.44l0,0c0.53-0.32,1.21-0.16,1.52,0.37l0,0
		c0.32,0.52,0.16,1.21-0.37,1.53l0,0c-8.25,5.04-17.5,5.77-23.51,5.77l0,0l-412.78,0.01C83.93,185.81,74.67,185.07,66.43,180.04
		L66.43,180.04z"/>
</g>
<g>
	<linearGradient id="SVGID_1_" gradientUnits="userSpaceOnUse" x1="7.1707" y1="137.0367" x2="61.9552" y2="137.0367">
		<stop  offset="0" style="stop-color:#914F23"/>
		<stop  offset="0.4286" style="stop-color:#F6E296"/>
		<stop  offset="0.8187" style="stop-color:#FBCA60"/>
		<stop  offset="1" style="stop-color:#914F23"/>
	</linearGradient>
	<path class="st1" d="M36,153.13c-7.77-3.38-13.94-8.26-18.53-14.63c-2.62-3.64-4.3-7.25-5.05-10.83c-0.73-3.58-0.45-6.71,0.88-9.4
		c-1.06-1.33-1.74-2.2-2.03-2.6c-1.51-2.1-2.61-4.05-3.29-5.84c-0.69-1.79-0.94-3.36-0.76-4.7c0.18-1.35,0.78-2.39,1.83-3.13
		c1.26-0.91,2.9-1.14,4.89-0.69c2,0.45,4.09,1.48,6.25,3.09c2.15,1.61,4.09,3.59,5.8,5.97c0.78,1.09,1.51,2.28,2.18,3.63
		c4.47,1.98,8.11,4.92,10.94,8.84c1.84,2.57,3.05,5.04,3.6,7.45c0.56,2.4,0.48,4.62-0.24,6.67c1.22,1.04,2.31,2.05,3.26,3.03
		c0.94,0.98,1.77,1.96,2.46,2.93c1.63,2.26,2.48,4.45,2.54,6.55c0.06,2.09-0.68,3.71-2.22,4.82c-2.15,1.55-5.11,1.63-8.85,0.23
		c0.52,1.94,1.2,3.91,2.07,5.91c0.87,2,1.78,3.67,2.74,5c1.37,1.91,2.92,3.43,4.65,4.58c1.73,1.15,3.44,1.79,5.11,1.94
		c1.68,0.14,3.17-0.26,4.48-1.19c0.91-0.66,1.54-1.51,1.91-2.55c0.36-1.04,0.45-2.15,0.23-3.36c-0.21-1.2-0.73-2.36-1.53-3.47
		c-1.36-1.89-3.06-2.98-5.1-3.26c0.28,1.01,0.05,1.79-0.7,2.32c-0.44,0.32-0.91,0.45-1.39,0.39c-0.49-0.06-0.86-0.29-1.16-0.7
		c-0.31-0.42-0.42-0.91-0.31-1.43c0.11-0.53,0.37-0.93,0.79-1.24c0.71-0.51,1.59-0.7,2.67-0.57c1.07,0.14,2.14,0.56,3.23,1.26
		c1.08,0.7,2.02,1.59,2.79,2.67c0.87,1.21,1.43,2.5,1.67,3.89c0.26,1.38,0.15,2.7-0.3,3.92c-0.45,1.23-1.19,2.22-2.21,2.95
		c-1.58,1.14-3.4,1.59-5.45,1.35c-2.05-0.22-4.15-1.1-6.3-2.63c-2.15-1.53-4.15-3.59-6.03-6.2C39.6,161.42,37.76,157.76,36,153.13z
		 M25.07,113.02c-0.71-1.46-1.51-2.8-2.37-4c-1.42-1.97-2.94-3.57-4.56-4.79c-1.61-1.22-3.18-1.97-4.68-2.27
		c-1.51-0.29-2.78-0.07-3.8,0.66c-1.3,0.94-1.77,2.47-1.43,4.58c0.36,2.12,1.45,4.45,3.28,6.99c0.67,0.93,1.46,1.92,2.39,2.97
		c0.78-1.26,1.61-2.22,2.51-2.86c1.13-0.82,2.45-1.34,3.95-1.54C21.88,112.56,23.44,112.64,25.07,113.02z M25.44,113.95
		c-3.45-0.91-6.28-0.55-8.51,1.05c-0.82,0.59-1.64,1.52-2.48,2.8c1.81,1.89,3.83,3.5,6.05,4.82c0.6-1,1.22-1.73,1.82-2.16
		c1.47-1.06,3.38-1.3,5.74-0.74C27.34,117.76,26.45,115.84,25.44,113.95z M32.61,140.85c-1.76-0.51-3.52-1.4-5.25-2.69
		c-1.73-1.29-3.25-2.83-4.55-4.63c-2.61-3.62-3.49-6.92-2.65-9.86c-2.33-1.45-4.4-3.05-6.18-4.82c-1.07,2.66-1.25,5.66-0.51,9.01
		c0.73,3.36,2.31,6.72,4.75,10.11c4.26,5.93,10.08,10.61,17.42,14.07C34.68,148.95,33.68,145.22,32.61,140.85z M34.21,130.95
		c3.14,2.16,5.66,4.02,7.56,5.56c0.4-1.2,0.56-2.52,0.46-3.97c-0.1-1.45-0.47-2.95-1.09-4.49c-0.63-1.54-1.48-3.06-2.56-4.56
		c-2.57-3.57-5.81-6.35-9.74-8.35c0.89,1.76,1.71,3.59,2.42,5.53c1.95,1.03,3.54,2.41,4.79,4.13c1.15,1.6,1.88,3.38,2.18,5.32
		l-0.72,0.18c-0.39-1.79-1.11-3.42-2.18-4.91c-1.04-1.45-2.27-2.57-3.69-3.35C32.74,125.09,33.59,128.06,34.21,130.95z
		 M30.42,128.93c-0.55-2.96-1.23-5.66-2.02-8.11c-2.31-0.77-4.17-0.64-5.6,0.39c-0.67,0.48-1.19,1.13-1.56,1.94
		c0.85,0.59,2.51,1.66,4.99,3.17C28.78,127.96,30.18,128.82,30.42,128.93z M32.46,139.94c-0.18-0.88-0.76-4.07-1.76-9.56
		c-0.62-0.41-1.24-0.79-1.85-1.16c-0.6-0.37-1.22-0.74-1.86-1.12c-0.65-0.39-1.28-0.77-1.92-1.17c-0.63-0.39-1.24-0.75-1.83-1.09
		c-0.58-0.38-1.36-0.91-2.34-1.61c-0.68,2.44,0.19,5.33,2.61,8.69c1.19,1.63,2.55,3.06,4.12,4.28
		C29.21,138.44,30.83,139.34,32.46,139.94z M36.35,140.4c1.41-0.02,2.53-0.33,3.38-0.95c0.62-0.44,1.16-1.12,1.66-2.04
		c-1.69-1.52-3.97-3.19-6.82-4.99c0.06,0.24,0.13,0.52,0.21,0.82c0.09,0.3,0.16,0.6,0.22,0.86c0.06,0.26,0.13,0.6,0.19,1
		C35.78,137.35,36.17,139.12,36.35,140.4z M39.31,153.55c1.55,0.59,3.05,0.88,4.48,0.88c1.43-0.01,2.57-0.32,3.4-0.93
		c1.37-0.98,2.01-2.48,1.92-4.5c-0.1-2.01-0.88-4.03-2.37-6.1c-1.43-1.99-2.97-3.68-4.63-5.08c-0.57,1.01-1.22,1.76-1.92,2.27
		c-0.86,0.62-2.08,1-3.66,1.16C37.46,145.65,38.39,149.76,39.31,153.55z"/>
	
		<linearGradient id="SVGID_00000103982395610938031110000015808745478522516663_" gradientUnits="userSpaceOnUse" x1="7.1707" y1="48.3631" x2="61.9552" y2="48.3631">
		<stop  offset="0" style="stop-color:#914F23"/>
		<stop  offset="0.4286" style="stop-color:#F6E296"/>
		<stop  offset="0.8187" style="stop-color:#FBCA60"/>
		<stop  offset="1" style="stop-color:#914F23"/>
	</linearGradient>
	<path style="fill:url(#SVGID_00000103982395610938031110000015808745478522516663_);" d="M41.52,21.3c1.88-2.6,3.89-4.67,6.03-6.2
		c2.15-1.53,4.24-2.41,6.3-2.63c2.05-0.23,3.87,0.22,5.45,1.35c1.02,0.73,1.76,1.72,2.21,2.95c0.45,1.23,0.56,2.54,0.3,3.92
		c-0.24,1.39-0.8,2.68-1.67,3.89c-0.77,1.07-1.71,1.96-2.79,2.67c-1.08,0.7-2.16,1.11-3.23,1.26c-1.07,0.13-1.96-0.07-2.67-0.57
		c-0.43-0.31-0.68-0.72-0.79-1.24c-0.1-0.52,0-1.01,0.31-1.43c0.29-0.41,0.67-0.64,1.16-0.7c0.49-0.06,0.95,0.07,1.39,0.39
		c0.75,0.53,0.98,1.31,0.7,2.32c2.04-0.28,3.74-1.37,5.1-3.26c0.8-1.11,1.32-2.27,1.53-3.47c0.21-1.21,0.13-2.32-0.23-3.36
		c-0.37-1.04-1-1.89-1.91-2.55c-1.3-0.93-2.79-1.33-4.48-1.19c-1.68,0.15-3.39,0.79-5.11,1.94c-1.74,1.15-3.28,2.67-4.65,4.58
		c-0.96,1.34-1.87,3-2.74,5c-0.87,2-1.55,3.97-2.07,5.91c3.74-1.4,6.69-1.32,8.85,0.23c1.53,1.11,2.28,2.72,2.22,4.82
		c-0.06,2.1-0.9,4.29-2.54,6.55c-0.69,0.97-1.52,1.94-2.46,2.93c-0.95,0.98-2.03,1.99-3.26,3.03c0.72,2.05,0.8,4.27,0.24,6.67
		c-0.56,2.41-1.76,4.88-3.6,7.45c-2.83,3.92-6.47,6.87-10.94,8.84c-0.68,1.35-1.41,2.54-2.18,3.63c-1.71,2.38-3.65,4.36-5.8,5.97
		c-2.16,1.61-4.24,2.64-6.25,3.09c-2,0.45-3.63,0.21-4.89-0.69c-1.04-0.75-1.65-1.79-1.83-3.13c-0.18-1.34,0.07-2.91,0.76-4.7
		c0.68-1.79,1.78-3.74,3.29-5.84c0.29-0.4,0.97-1.27,2.03-2.6c-1.33-2.7-1.62-5.83-0.88-9.4c0.74-3.58,2.43-7.19,5.05-10.83
		C22.06,40.53,28.24,35.65,36,32.27C37.76,27.64,39.6,23.98,41.52,21.3z M20.38,72.64c-1.5-0.2-2.82-0.72-3.95-1.54
		c-0.9-0.64-1.73-1.59-2.51-2.86c-0.93,1.05-1.73,2.04-2.39,2.97c-1.84,2.54-2.93,4.87-3.28,6.99c-0.35,2.11,0.13,3.64,1.43,4.58
		c1.02,0.74,2.29,0.96,3.8,0.66c1.5-0.29,3.07-1.04,4.68-2.27c1.61-1.22,3.14-2.83,4.56-4.79c0.86-1.21,1.66-2.54,2.37-4.01
		C23.44,72.76,21.88,72.84,20.38,72.64z M28.07,65.68c-2.35,0.56-4.26,0.32-5.74-0.74c-0.61-0.43-1.22-1.16-1.82-2.16
		c-2.22,1.33-4.24,2.94-6.05,4.82c0.83,1.27,1.66,2.2,2.48,2.8c2.23,1.6,5.06,1.95,8.51,1.05C26.45,69.56,27.34,67.64,28.07,65.68z
		 M35.64,33.36c-7.34,3.46-13.15,8.15-17.42,14.07c-2.44,3.39-4.02,6.75-4.75,10.11c-0.74,3.35-0.56,6.35,0.51,9.01
		c1.77-1.76,3.84-3.36,6.18-4.82c-0.84-2.94,0.04-6.24,2.65-9.86c1.3-1.8,2.82-3.35,4.55-4.63c1.73-1.29,3.49-2.18,5.25-2.69
		C33.68,40.18,34.68,36.45,35.64,33.36z M31.64,63.36c1.42-0.78,2.65-1.9,3.69-3.35c1.07-1.49,1.79-3.13,2.18-4.91l0.72,0.18
		c-0.3,1.95-1.03,3.72-2.18,5.32c-1.25,1.73-2.84,3.1-4.79,4.13c-0.72,1.94-1.53,3.78-2.42,5.53c3.92-2,7.17-4.78,9.74-8.35
		c1.09-1.5,1.93-3.02,2.56-4.56c0.63-1.54,1-3.04,1.09-4.49c0.1-1.46-0.06-2.78-0.46-3.97c-1.9,1.54-4.42,3.4-7.56,5.56
		C33.59,57.34,32.74,60.31,31.64,63.36z M26.22,59.07c-2.47,1.52-4.14,2.58-4.99,3.17c0.38,0.81,0.9,1.46,1.56,1.94
		c1.43,1.03,3.3,1.16,5.6,0.39c0.79-2.44,1.47-5.15,2.02-8.11C30.18,56.58,28.78,57.44,26.22,59.07z M27.64,48.19
		c-1.57,1.23-2.93,2.65-4.12,4.28c-2.42,3.37-3.29,6.26-2.61,8.69c0.98-0.7,1.76-1.24,2.34-1.61c0.59-0.34,1.2-0.71,1.83-1.09
		c0.63-0.39,1.27-0.78,1.92-1.17c0.65-0.38,1.26-0.75,1.86-1.12c0.61-0.37,1.22-0.75,1.85-1.16c1-5.48,1.58-8.67,1.76-9.56
		C30.83,46.06,29.21,46.96,27.64,48.19z M35.2,50.31c-0.06,0.4-0.13,0.74-0.19,1c-0.06,0.26-0.13,0.56-0.22,0.86
		c-0.08,0.3-0.15,0.58-0.21,0.82c2.85-1.81,5.13-3.47,6.82-4.99c-0.5-0.92-1.05-1.6-1.66-2.04c-0.85-0.62-1.98-0.93-3.38-0.95
		C36.17,46.28,35.78,48.05,35.2,50.31z M36.54,44.15c1.58,0.16,2.79,0.54,3.66,1.16c0.7,0.51,1.35,1.27,1.92,2.27
		c1.66-1.41,3.2-3.1,4.63-5.08c1.48-2.07,2.27-4.09,2.37-6.1c0.09-2.02-0.55-3.52-1.92-4.5c-0.84-0.61-1.97-0.91-3.4-0.93
		c-1.43-0.01-2.93,0.28-4.48,0.88C38.39,35.64,37.46,39.75,36.54,44.15z"/>
	
		<linearGradient id="SVGID_00000165924961602793283430000013889808240145014673_" gradientUnits="userSpaceOnUse" x1="529.2157" y1="137.0367" x2="584" y2="137.0367">
		<stop  offset="0" style="stop-color:#914F23"/>
		<stop  offset="0.4286" style="stop-color:#F6E296"/>
		<stop  offset="0.8187" style="stop-color:#FBCA60"/>
		<stop  offset="1" style="stop-color:#914F23"/>
	</linearGradient>
	<path style="fill:url(#SVGID_00000165924961602793283430000013889808240145014673_);" d="M549.65,164.1
		c-1.88,2.6-3.89,4.67-6.03,6.2c-2.15,1.53-4.24,2.41-6.3,2.63c-2.05,0.23-3.87-0.22-5.45-1.35c-1.02-0.73-1.76-1.72-2.21-2.95
		c-0.45-1.23-0.56-2.54-0.3-3.92c0.24-1.39,0.8-2.68,1.67-3.89c0.77-1.07,1.71-1.96,2.79-2.67c1.08-0.7,2.16-1.11,3.23-1.26
		c1.07-0.13,1.96,0.06,2.67,0.57c0.43,0.31,0.68,0.72,0.79,1.24c0.1,0.52,0,1.01-0.31,1.43c-0.29,0.41-0.67,0.64-1.16,0.7
		c-0.49,0.07-0.95-0.06-1.39-0.39c-0.75-0.53-0.98-1.31-0.7-2.32c-2.04,0.28-3.74,1.37-5.1,3.26c-0.8,1.11-1.32,2.27-1.53,3.47
		c-0.21,1.2-0.13,2.32,0.23,3.36c0.37,1.04,1,1.89,1.91,2.55c1.3,0.93,2.79,1.33,4.48,1.19c1.68-0.15,3.39-0.79,5.11-1.94
		c1.74-1.15,3.28-2.67,4.65-4.58c0.96-1.33,1.87-3,2.74-5c0.87-2,1.55-3.97,2.07-5.91c-3.74,1.4-6.69,1.32-8.85-0.23
		c-1.53-1.11-2.28-2.72-2.22-4.82c0.06-2.1,0.9-4.29,2.54-6.55c0.69-0.97,1.52-1.94,2.46-2.93c0.95-0.98,2.03-1.99,3.26-3.03
		c-0.72-2.05-0.8-4.27-0.24-6.67c0.56-2.41,1.76-4.88,3.6-7.45c2.83-3.92,6.47-6.87,10.94-8.84c0.68-1.35,1.41-2.54,2.18-3.63
		c1.71-2.38,3.64-4.36,5.8-5.97c2.16-1.61,4.24-2.64,6.25-3.09c2-0.45,3.63-0.21,4.89,0.69c1.04,0.75,1.65,1.79,1.83,3.13
		c0.18,1.34-0.07,2.91-0.76,4.7c-0.68,1.79-1.78,3.74-3.29,5.84c-0.29,0.4-0.97,1.27-2.03,2.6c1.33,2.7,1.62,5.83,0.88,9.4
		c-0.74,3.58-2.43,7.19-5.05,10.83c-4.59,6.37-10.76,11.25-18.53,14.63C553.41,157.76,551.57,161.42,549.65,164.1z M570.79,112.76
		c1.5,0.2,2.82,0.72,3.95,1.54c0.9,0.64,1.73,1.6,2.51,2.86c0.93-1.05,1.73-2.04,2.39-2.97c1.84-2.54,2.93-4.87,3.28-6.99
		c0.35-2.11-0.13-3.64-1.43-4.58c-1.02-0.74-2.29-0.96-3.8-0.66c-1.5,0.29-3.07,1.04-4.68,2.27c-1.61,1.22-3.14,2.83-4.56,4.79
		c-0.86,1.21-1.66,2.54-2.37,4C567.73,112.64,569.29,112.56,570.79,112.76z M563.1,119.72c2.35-0.56,4.26-0.32,5.74,0.74
		c0.61,0.43,1.22,1.16,1.82,2.16c2.22-1.33,4.24-2.94,6.05-4.82c-0.83-1.27-1.66-2.2-2.48-2.8c-2.23-1.6-5.06-1.96-8.51-1.05
		C564.72,115.84,563.84,117.76,563.1,119.72z M555.53,152.04c7.34-3.46,13.15-8.15,17.42-14.07c2.44-3.38,4.02-6.75,4.75-10.11
		c0.74-3.35,0.56-6.35-0.51-9.01c-1.77,1.76-3.84,3.36-6.18,4.82c0.84,2.94-0.04,6.24-2.65,9.86c-1.3,1.8-2.82,3.35-4.55,4.63
		c-1.73,1.29-3.49,2.18-5.25,2.69C557.49,145.22,556.49,148.95,555.53,152.04z M559.54,122.04c-1.42,0.78-2.65,1.9-3.69,3.35
		c-1.07,1.49-1.79,3.13-2.18,4.91l-0.72-0.18c0.3-1.95,1.03-3.72,2.18-5.32c1.25-1.73,2.84-3.1,4.79-4.13
		c0.72-1.94,1.53-3.78,2.43-5.53c-3.92,2-7.17,4.78-9.74,8.35c-1.09,1.5-1.93,3.02-2.56,4.56c-0.63,1.54-0.99,3.04-1.09,4.49
		c-0.1,1.46,0.06,2.78,0.46,3.97c1.9-1.54,4.42-3.4,7.56-5.56C557.58,128.06,558.43,125.09,559.54,122.04z M564.95,126.33
		c2.47-1.52,4.13-2.58,4.99-3.17c-0.38-0.81-0.9-1.46-1.56-1.94c-1.43-1.03-3.3-1.16-5.6-0.39c-0.79,2.44-1.47,5.15-2.02,8.11
		C560.99,128.82,562.39,127.96,564.95,126.33z M563.53,137.21c1.57-1.23,2.93-2.65,4.12-4.28c2.42-3.37,3.29-6.26,2.61-8.69
		c-0.98,0.7-1.76,1.24-2.34,1.61c-0.59,0.34-1.2,0.71-1.83,1.09c-0.63,0.39-1.27,0.78-1.92,1.17c-0.65,0.38-1.26,0.75-1.86,1.12
		c-0.61,0.37-1.22,0.75-1.85,1.16c-0.99,5.48-1.58,8.67-1.76,9.56C560.34,139.34,561.96,138.44,563.53,137.21z M555.97,135.09
		c0.06-0.4,0.13-0.74,0.19-1c0.06-0.26,0.13-0.56,0.22-0.86c0.08-0.3,0.15-0.58,0.21-0.82c-2.85,1.81-5.13,3.47-6.82,4.99
		c0.5,0.92,1.05,1.6,1.66,2.04c0.85,0.62,1.98,0.93,3.38,0.95C555,139.12,555.39,137.35,555.97,135.09z M554.63,141.25
		c-1.58-0.16-2.79-0.54-3.66-1.16c-0.7-0.51-1.35-1.27-1.92-2.27c-1.66,1.41-3.2,3.1-4.63,5.08c-1.48,2.07-2.27,4.09-2.37,6.1
		c-0.09,2.02,0.55,3.52,1.92,4.5c0.84,0.61,1.97,0.91,3.4,0.93c1.43,0.01,2.93-0.28,4.48-0.88
		C552.78,149.76,553.71,145.65,554.63,141.25z"/>
	
		<linearGradient id="SVGID_00000005235249631825682890000011128072461412860034_" gradientUnits="userSpaceOnUse" x1="529.2157" y1="48.3631" x2="584" y2="48.3631">
		<stop  offset="0" style="stop-color:#914F23"/>
		<stop  offset="0.4286" style="stop-color:#F6E296"/>
		<stop  offset="0.8187" style="stop-color:#FBCA60"/>
		<stop  offset="1" style="stop-color:#914F23"/>
	</linearGradient>
	<path style="fill:url(#SVGID_00000005235249631825682890000011128072461412860034_);" d="M555.17,32.27
		c7.77,3.38,13.94,8.26,18.53,14.63c2.62,3.64,4.3,7.25,5.05,10.83c0.73,3.58,0.45,6.71-0.88,9.4c1.06,1.33,1.74,2.2,2.03,2.6
		c1.51,2.1,2.61,4.05,3.29,5.84c0.69,1.79,0.94,3.36,0.76,4.7c-0.18,1.35-0.78,2.39-1.83,3.13c-1.26,0.91-2.9,1.14-4.89,0.69
		c-2-0.45-4.09-1.48-6.25-3.09c-2.15-1.61-4.09-3.59-5.8-5.97c-0.78-1.09-1.51-2.28-2.18-3.63c-4.47-1.98-8.11-4.92-10.94-8.84
		c-1.84-2.57-3.04-5.04-3.6-7.45c-0.56-2.4-0.48-4.62,0.24-6.67c-1.22-1.04-2.31-2.05-3.26-3.03c-0.94-0.98-1.77-1.96-2.46-2.93
		c-1.63-2.26-2.47-4.45-2.54-6.55c-0.06-2.09,0.68-3.71,2.22-4.82c2.15-1.55,5.11-1.63,8.85-0.23c-0.52-1.94-1.21-3.91-2.07-5.91
		c-0.87-2-1.78-3.67-2.74-5c-1.37-1.91-2.91-3.43-4.65-4.58c-1.73-1.15-3.44-1.79-5.11-1.94c-1.68-0.14-3.17,0.26-4.48,1.19
		c-0.91,0.66-1.54,1.51-1.91,2.55c-0.36,1.04-0.45,2.15-0.23,3.36c0.21,1.2,0.73,2.36,1.53,3.47c1.36,1.89,3.06,2.98,5.1,3.26
		c-0.28-1.01-0.05-1.79,0.7-2.32c0.44-0.32,0.91-0.45,1.39-0.39c0.49,0.06,0.86,0.29,1.16,0.7c0.31,0.42,0.42,0.91,0.31,1.43
		c-0.11,0.53-0.37,0.93-0.79,1.24c-0.71,0.51-1.59,0.7-2.67,0.57c-1.07-0.14-2.14-0.56-3.23-1.26c-1.08-0.7-2.02-1.59-2.79-2.67
		c-0.87-1.21-1.43-2.5-1.67-3.89c-0.26-1.38-0.15-2.7,0.3-3.92c0.45-1.23,1.19-2.22,2.21-2.95c1.58-1.14,3.4-1.59,5.45-1.35
		c2.05,0.22,4.15,1.1,6.3,2.63c2.15,1.53,4.15,3.59,6.03,6.2C551.57,23.98,553.41,27.64,555.17,32.27z M566.1,72.38
		c0.71,1.46,1.51,2.8,2.37,4.01c1.42,1.97,2.94,3.57,4.56,4.79c1.61,1.22,3.17,1.97,4.68,2.27c1.51,0.29,2.78,0.07,3.8-0.66
		c1.3-0.94,1.77-2.47,1.43-4.58c-0.36-2.11-1.45-4.45-3.28-6.99c-0.67-0.93-1.47-1.92-2.39-2.97c-0.78,1.26-1.61,2.21-2.51,2.86
		c-1.13,0.82-2.45,1.34-3.95,1.54C569.29,72.84,567.73,72.76,566.1,72.38z M565.73,71.45c3.45,0.91,6.28,0.55,8.51-1.05
		c0.82-0.59,1.64-1.52,2.48-2.8c-1.81-1.89-3.83-3.5-6.05-4.82c-0.6,1-1.22,1.73-1.82,2.16c-1.47,1.06-3.38,1.3-5.74,0.74
		C563.84,67.64,564.72,69.56,565.73,71.45z M558.56,44.55c1.76,0.51,3.52,1.4,5.25,2.69c1.73,1.29,3.25,2.83,4.55,4.63
		c2.61,3.62,3.49,6.92,2.65,9.86c2.33,1.45,4.4,3.05,6.18,4.82c1.07-2.66,1.25-5.66,0.51-9.01c-0.73-3.36-2.31-6.72-4.75-10.11
		c-4.26-5.93-10.08-10.61-17.42-14.07C556.49,36.45,557.49,40.18,558.56,44.55z M556.97,54.45c-3.14-2.16-5.66-4.02-7.56-5.56
		c-0.4,1.2-0.56,2.52-0.46,3.97c0.1,1.45,0.47,2.95,1.09,4.49c0.63,1.54,1.48,3.06,2.56,4.56c2.57,3.57,5.81,6.35,9.74,8.35
		c-0.89-1.76-1.71-3.59-2.43-5.53c-1.95-1.03-3.54-2.41-4.79-4.13c-1.15-1.6-1.88-3.38-2.18-5.32l0.72-0.18
		c0.39,1.79,1.11,3.42,2.18,4.91c1.04,1.45,2.27,2.57,3.69,3.35C558.43,60.31,557.58,57.34,556.97,54.45z M560.75,56.47
		c0.55,2.96,1.23,5.66,2.02,8.11c2.31,0.77,4.17,0.64,5.6-0.39c0.67-0.48,1.19-1.13,1.56-1.94c-0.85-0.59-2.51-1.66-4.99-3.17
		C562.39,57.44,560.99,56.58,560.75,56.47z M558.71,45.46c0.18,0.88,0.77,4.07,1.76,9.56c0.62,0.41,1.24,0.79,1.85,1.16
		c0.6,0.37,1.22,0.74,1.86,1.12c0.65,0.39,1.28,0.77,1.92,1.17c0.63,0.39,1.24,0.75,1.83,1.09c0.58,0.38,1.36,0.91,2.34,1.61
		c0.68-2.44-0.19-5.33-2.61-8.69c-1.19-1.63-2.55-3.06-4.12-4.28C561.96,46.96,560.34,46.06,558.71,45.46z M554.82,45
		c-1.41,0.02-2.53,0.33-3.38,0.95c-0.62,0.44-1.16,1.12-1.66,2.04c1.69,1.52,3.97,3.19,6.82,4.99c-0.06-0.24-0.13-0.52-0.21-0.82
		c-0.09-0.3-0.16-0.6-0.22-0.86c-0.06-0.26-0.13-0.6-0.19-1C555.39,48.05,555,46.28,554.82,45z M551.86,31.85
		c-1.55-0.59-3.05-0.88-4.48-0.88c-1.43,0.01-2.57,0.32-3.4,0.93c-1.37,0.98-2.01,2.48-1.92,4.5c0.1,2.01,0.88,4.03,2.37,6.1
		c1.43,1.98,2.97,3.68,4.63,5.08c0.57-1.01,1.22-1.76,1.92-2.27c0.86-0.62,2.08-1,3.66-1.16C553.71,39.75,552.78,35.64,551.86,31.85
		z"/>
	
		<linearGradient id="SVGID_00000030482680912221188700000005048695030393588147_" gradientUnits="userSpaceOnUse" x1="65.8897" y1="3.9205" x2="526.751" y2="3.9205">
		<stop  offset="0" style="stop-color:#914F23"/>
		<stop  offset="0.4286" style="stop-color:#F6E296"/>
		<stop  offset="0.8187" style="stop-color:#FBCA60"/>
		<stop  offset="1" style="stop-color:#914F23"/>
	</linearGradient>
	<path style="fill:url(#SVGID_00000030482680912221188700000005048695030393588147_);" d="M66.06,7.31
		c-0.33-0.52-0.16-1.21,0.37-1.53l0,0c8.26-5.04,17.5-5.77,23.52-5.77l0,0L502.71,0c6.01,0.01,15.26,0.74,23.51,5.78l0,0
		c0.52,0.32,0.69,1,0.36,1.53l0,0c-0.32,0.52-1,0.68-1.53,0.37l0,0c-7.67-4.71-16.52-5.45-22.34-5.45l0,0H89.94
		c-5.84,0-14.68,0.75-22.35,5.45l0,0C67.4,7.79,67.2,7.84,67,7.84l0,0C66.63,7.84,66.26,7.65,66.06,7.31L66.06,7.31z"/>
	
		<linearGradient id="SVGID_00000143616914169866449860000011509114480120374680_" gradientUnits="userSpaceOnUse" x1="65.8943" y1="181.8982" x2="526.748" y2="181.8982">
		<stop  offset="0" style="stop-color:#914F23"/>
		<stop  offset="0.4286" style="stop-color:#F6E296"/>
		<stop  offset="0.8187" style="stop-color:#FBCA60"/>
		<stop  offset="1" style="stop-color:#914F23"/>
	</linearGradient>
	<path style="fill:url(#SVGID_00000143616914169866449860000011509114480120374680_);" d="M66.43,180.04
		c-0.53-0.32-0.69-1.01-0.37-1.53l0,0c0.32-0.52,1-0.7,1.52-0.37l0,0c7.68,4.71,16.52,5.45,22.35,5.45l0,0l412.78-0.01
		c5.83,0.01,14.68-0.74,22.35-5.44l0,0c0.53-0.32,1.21-0.16,1.52,0.37l0,0c0.32,0.52,0.16,1.21-0.37,1.53l0,0
		c-8.25,5.04-17.5,5.77-23.51,5.77l0,0l-412.78,0.01C83.93,185.81,74.67,185.07,66.43,180.04L66.43,180.04z"/>
</g>
</svg>
