<?xml version="1.0" encoding="utf-8"?>
<!-- Generator: Adobe Illustrator 27.9.0, SVG Export Plug-In . SVG Version: 6.00 Build 0)  -->
<svg version="1.1" id="Layer_1" xmlns="http://www.w3.org/2000/svg" xmlns:xlink="http://www.w3.org/1999/xlink" x="0px" y="0px"
	 viewBox="0 0 595.3 84.7" style="enable-background:new 0 0 595.3 84.7;" xml:space="preserve">
<style type="text/css">
	.st0{fill:#B7762A;}
	.st1{opacity:0.51;fill:url(#SVGID_1_);}
	.st2{fill:url(#SVGID_00000039101262418661669130000010377313631458836353_);}
	.st3{opacity:0.51;fill:url(#SVGID_00000044157005354232790660000011738230377829307544_);}
	.st4{fill:url(#SVGID_00000080175827537024396970000015911226440626367646_);}
	.st5{fill:url(#SVGID_00000041270160287046879730000002634523521761989050_);}
	.st6{opacity:0.51;fill:url(#SVGID_00000124146195028071786440000002892725388095351461_);}
</style>
<path class="st0" d="M41.5,21.7c1.9-2.6,3.9-4.7,6-6.2c2.1-1.5,4.2-2.4,6.3-2.6c2-0.2,3.9,0.2,5.5,1.4c1,0.7,1.8,1.7,2.2,2.9
	c0.5,1.2,0.6,2.5,0.3,3.9c-0.2,1.4-0.8,2.7-1.7,3.9c-0.8,1.1-1.7,2-2.8,2.7c-1.1,0.7-2.2,1.1-3.2,1.3c-1.1,0.1-2-0.1-2.7-0.6
	c-0.4-0.3-0.7-0.7-0.8-1.2c-0.1-0.5,0-1,0.3-1.4c0.3-0.4,0.7-0.6,1.2-0.7c0.5-0.1,1,0.1,1.4,0.4c0.8,0.5,1,1.3,0.7,2.3
	c2-0.3,3.7-1.4,5.1-3.3c0.8-1.1,1.3-2.3,1.5-3.5c0.2-1.2,0.1-2.3-0.2-3.4c-0.4-1-1-1.9-1.9-2.6c-1.3-0.9-2.8-1.3-4.5-1.2
	c-1.7,0.2-3.4,0.8-5.1,1.9c-1.7,1.2-3.3,2.7-4.7,4.6c-1,1.3-1.9,3-2.7,5s-1.5,4-2.1,5.9c3.7-1.4,6.7-1.3,8.9,0.2
	c1.5,1.1,2.3,2.7,2.2,4.8c-0.1,2.1-0.9,4.3-2.5,6.6c-0.7,1-1.5,1.9-2.5,2.9c-0.9,1-2,2-3.3,3c0.7,2.1,0.8,4.3,0.2,6.7
	c-0.5,2.4-1.8,4.9-3.6,7.4c-2.8,3.9-6.5,6.9-10.9,8.8c-0.7,1.3-1.4,2.5-2.2,3.6c-1.7,2.4-3.6,4.4-5.8,6c-2.2,1.6-4.2,2.6-6.2,3.1
	c-2,0.4-3.6,0.2-4.9-0.7C8,83.1,7.4,82,7.2,80.7C7,79.3,7.3,77.8,8,76c0.7-1.8,1.8-3.7,3.3-5.8c0.3-0.4,1-1.3,2-2.6
	c-1.3-2.7-1.6-5.8-0.9-9.4c0.8-3.6,2.4-7.2,5.1-10.8c4.6-6.4,10.8-11.2,18.5-14.6C37.8,28.1,39.6,24.4,41.5,21.7z M20.4,73.1
	c-1.5-0.2-2.8-0.7-4-1.5c-0.9-0.6-1.7-1.6-2.5-2.9c-0.9,1.1-1.7,2-2.4,3c-1.8,2.5-2.9,4.9-3.3,7c-0.3,2.1,0.1,3.6,1.4,4.6
	c1,0.7,2.3,1,3.8,0.7c1.5-0.3,3.1-1,4.7-2.3c1.6-1.2,3.1-2.8,4.6-4.8c0.9-1.2,1.7-2.5,2.4-4C23.4,73.2,21.9,73.3,20.4,73.1z
	 M28.1,66.1c-2.4,0.6-4.3,0.3-5.7-0.7c-0.6-0.4-1.2-1.2-1.8-2.2c-2.2,1.3-4.2,2.9-6,4.8c0.8,1.3,1.7,2.2,2.5,2.8
	c2.2,1.6,5.1,2,8.5,1.1C26.5,70,27.3,68.1,28.1,66.1z M35.6,33.8c-7.3,3.5-13.2,8.1-17.4,14.1c-2.4,3.4-4,6.8-4.8,10.1
	c-0.7,3.4-0.6,6.3,0.5,9c1.8-1.8,3.9-3.4,6.2-4.8c-0.8-2.9,0-6.2,2.6-9.9c1.3-1.8,2.8-3.3,4.5-4.6c1.7-1.3,3.5-2.2,5.2-2.7
	C33.7,40.6,34.7,36.9,35.6,33.8z M31.6,63.8c1.4-0.8,2.6-1.9,3.7-3.3c1.1-1.5,1.8-3.1,2.2-4.9l0.7,0.2c-0.3,1.9-1,3.7-2.2,5.3
	c-1.2,1.7-2.8,3.1-4.8,4.1c-0.7,1.9-1.5,3.8-2.4,5.5c3.9-2,7.2-4.8,9.7-8.3c1.1-1.5,1.9-3,2.6-4.6c0.6-1.5,1-3,1.1-4.5
	c0.1-1.4-0.1-2.8-0.5-4c-1.9,1.5-4.4,3.4-7.6,5.6C33.6,57.8,32.7,60.7,31.6,63.8z M26.2,59.5c-2.5,1.5-4.1,2.6-5,3.2
	c0.4,0.8,0.9,1.5,1.6,1.9c1.4,1,3.3,1.2,5.6,0.4c0.8-2.4,1.5-5.2,2-8.1C30.2,57,28.8,57.9,26.2,59.5z M27.6,48.6
	c-1.6,1.2-2.9,2.6-4.1,4.3c-2.4,3.4-3.3,6.2-2.6,8.7c1-0.7,1.8-1.2,2.3-1.6c0.6-0.3,1.2-0.7,1.8-1.1c0.6-0.4,1.3-0.8,1.9-1.2
	c0.6-0.4,1.3-0.8,1.9-1.1c0.6-0.4,1.2-0.8,1.9-1.2c1-5.5,1.6-8.7,1.8-9.6C30.8,46.5,29.2,47.4,27.6,48.6z M35.2,50.7
	c-0.1,0.4-0.1,0.7-0.2,1s-0.1,0.6-0.2,0.9c-0.1,0.3-0.1,0.6-0.2,0.8c2.8-1.8,5.1-3.5,6.8-5c-0.5-0.9-1-1.6-1.7-2
	c-0.9-0.6-2-0.9-3.4-0.9C36.2,46.7,35.8,48.5,35.2,50.7z M36.5,44.6c1.6,0.2,2.8,0.5,3.7,1.2c0.7,0.5,1.3,1.3,1.9,2.3
	c1.7-1.4,3.2-3.1,4.6-5.1c1.5-2.1,2.3-4.1,2.4-6.1c0.1-2-0.5-3.5-1.9-4.5c-0.8-0.6-2-0.9-3.4-0.9c-1.4,0-2.9,0.3-4.5,0.9
	C38.4,36.1,37.5,40.2,36.5,44.6z"/>
<path class="st0" d="M555.2,32.7c7.8,3.4,13.9,8.3,18.5,14.6c2.6,3.6,4.3,7.2,5,10.8c0.7,3.6,0.5,6.7-0.9,9.4c1.1,1.3,1.7,2.2,2,2.6
	c1.5,2.1,2.6,4,3.3,5.8c0.7,1.8,0.9,3.4,0.8,4.7s-0.8,2.4-1.8,3.1c-1.3,0.9-2.9,1.1-4.9,0.7c-2-0.4-4.1-1.5-6.2-3.1s-4.1-3.6-5.8-6
	c-0.8-1.1-1.5-2.3-2.2-3.6c-4.5-2-8.1-4.9-10.9-8.8c-1.8-2.6-3-5-3.6-7.4c-0.6-2.4-0.5-4.6,0.2-6.7c-1.2-1-2.3-2.1-3.3-3
	c-0.9-1-1.8-2-2.5-2.9c-1.6-2.3-2.5-4.4-2.5-6.6c-0.1-2.1,0.7-3.7,2.2-4.8c2.2-1.6,5.1-1.6,8.8-0.2c-0.5-1.9-1.2-3.9-2.1-5.9
	s-1.8-3.7-2.7-5c-1.4-1.9-2.9-3.4-4.7-4.6c-1.7-1.2-3.4-1.8-5.1-1.9c-1.7-0.1-3.2,0.3-4.5,1.2c-0.9,0.7-1.5,1.5-1.9,2.6
	c-0.4,1-0.4,2.2-0.2,3.4s0.7,2.4,1.5,3.5c1.4,1.9,3.1,3,5.1,3.3c-0.3-1,0-1.8,0.7-2.3c0.4-0.3,0.9-0.5,1.4-0.4
	c0.5,0.1,0.9,0.3,1.2,0.7c0.3,0.4,0.4,0.9,0.3,1.4c-0.1,0.5-0.4,0.9-0.8,1.2c-0.7,0.5-1.6,0.7-2.7,0.6c-1.1-0.1-2.1-0.6-3.2-1.3
	c-1.1-0.7-2-1.6-2.8-2.7c-0.9-1.2-1.4-2.5-1.7-3.9c-0.3-1.4-0.2-2.7,0.3-3.9s1.2-2.2,2.2-2.9c1.6-1.1,3.4-1.6,5.5-1.4
	c2.1,0.2,4.1,1.1,6.3,2.6c2.1,1.5,4.2,3.6,6,6.2C551.6,24.4,553.4,28.1,555.2,32.7z M566.1,72.8c0.7,1.5,1.5,2.8,2.4,4
	c1.4,2,3,3.6,4.6,4.8c1.6,1.2,3.2,2,4.7,2.3c1.5,0.3,2.8,0.1,3.8-0.7c1.3-0.9,1.8-2.5,1.4-4.6c-0.4-2.1-1.4-4.4-3.3-7
	c-0.7-0.9-1.5-1.9-2.4-3c-0.8,1.3-1.6,2.2-2.5,2.9c-1.1,0.8-2.5,1.3-4,1.5C569.3,73.3,567.7,73.2,566.1,72.8z M565.7,71.9
	c3.5,0.9,6.3,0.5,8.5-1.1c0.8-0.6,1.6-1.5,2.5-2.8c-1.8-1.9-3.8-3.5-6-4.8c-0.6,1-1.2,1.7-1.8,2.2c-1.5,1.1-3.4,1.3-5.7,0.7
	C563.8,68.1,564.7,70,565.7,71.9z M558.6,45c1.8,0.5,3.5,1.4,5.2,2.7c1.7,1.3,3.2,2.8,4.5,4.6c2.6,3.6,3.5,6.9,2.7,9.9
	c2.3,1.5,4.4,3.1,6.2,4.8c1.1-2.7,1.2-5.7,0.5-9c-0.7-3.4-2.3-6.7-4.8-10.1c-4.3-5.9-10.1-10.6-17.4-14.1
	C556.5,36.9,557.5,40.6,558.6,45z M557,54.9c-3.1-2.2-5.7-4-7.6-5.6c-0.4,1.2-0.6,2.5-0.5,4c0.1,1.5,0.5,3,1.1,4.5
	c0.6,1.5,1.5,3.1,2.6,4.6c2.6,3.6,5.8,6.3,9.7,8.3c-0.9-1.8-1.7-3.6-2.4-5.5c-1.9-1-3.5-2.4-4.8-4.1c-1.1-1.6-1.9-3.4-2.2-5.3
	l0.7-0.2c0.4,1.8,1.1,3.4,2.2,4.9c1,1.4,2.3,2.6,3.7,3.3C558.4,60.7,557.6,57.8,557,54.9z M560.8,56.9c0.6,3,1.2,5.7,2,8.1
	c2.3,0.8,4.2,0.6,5.6-0.4c0.7-0.5,1.2-1.1,1.6-1.9c-0.9-0.6-2.5-1.7-5-3.2C562.4,57.9,561,57,560.8,56.9z M558.7,45.9
	c0.2,0.9,0.8,4.1,1.8,9.6c0.6,0.4,1.2,0.8,1.8,1.2c0.6,0.4,1.2,0.7,1.9,1.1c0.6,0.4,1.3,0.8,1.9,1.2c0.6,0.4,1.2,0.8,1.8,1.1
	c0.6,0.4,1.4,0.9,2.3,1.6c0.7-2.4-0.2-5.3-2.6-8.7c-1.2-1.6-2.5-3.1-4.1-4.3S560.3,46.5,558.7,45.9z M554.8,45.4
	c-1.4,0-2.5,0.3-3.4,0.9c-0.6,0.4-1.2,1.1-1.7,2c1.7,1.5,4,3.2,6.8,5c-0.1-0.2-0.1-0.5-0.2-0.8c-0.1-0.3-0.2-0.6-0.2-0.9
	s-0.1-0.6-0.2-1C555.4,48.5,555,46.7,554.8,45.4z M551.9,32.3c-1.5-0.6-3-0.9-4.5-0.9c-1.4,0-2.6,0.3-3.4,0.9c-1.4,1-2,2.5-1.9,4.5
	c0.1,2,0.9,4,2.4,6.1c1.4,2,3,3.7,4.6,5.1c0.6-1,1.2-1.8,1.9-2.3c0.9-0.6,2.1-1,3.7-1.2C553.7,40.2,552.8,36.1,551.9,32.3z"/>
<path class="st0" d="M66.4,5.8C74.7,0.7,83.9,0,89.9,0l412.8,0l0,0c6,0,15.3,0.7,23.5,5.8l0,0c0.5,0.3,0.7,1,0.4,1.5l0,0
	c-0.3,0.5-1,0.7-1.5,0.4l0,0c-7.7-4.7-16.5-5.4-22.4-5.4l-412.8,0l0,0c-5.8,0-14.7,0.7-22.3,5.4l0,0c-0.5,0.3-1.2,0.2-1.5-0.4l0,0
	C65.7,6.8,65.9,6.1,66.4,5.8L66.4,5.8z"/>
<linearGradient id="SVGID_1_" gradientUnits="userSpaceOnUse" x1="7.1636" y1="-52.2365" x2="61.9483" y2="-52.2365" gradientTransform="matrix(1 0 0 1 0 101.0168)">
	<stop  offset="0" style="stop-color:#914F23"/>
	<stop  offset="0.4286" style="stop-color:#F6E296"/>
	<stop  offset="0.8187" style="stop-color:#FBCA60"/>
	<stop  offset="1" style="stop-color:#914F23"/>
</linearGradient>
<path class="st1" d="M41.5,21.7c1.9-2.6,3.9-4.7,6-6.2c2.1-1.5,4.2-2.4,6.3-2.6c2-0.2,3.9,0.2,5.5,1.4c1,0.7,1.8,1.7,2.2,2.9
	c0.5,1.2,0.6,2.5,0.3,3.9c-0.2,1.4-0.8,2.7-1.7,3.9c-0.8,1.1-1.7,2-2.8,2.7c-1.1,0.7-2.2,1.1-3.2,1.3c-1.1,0.1-2-0.1-2.7-0.6
	c-0.4-0.3-0.7-0.7-0.8-1.2c-0.1-0.5,0-1,0.3-1.4c0.3-0.4,0.7-0.6,1.2-0.7c0.5-0.1,1,0.1,1.4,0.4c0.8,0.5,1,1.3,0.7,2.3
	c2-0.3,3.7-1.4,5.1-3.3c0.8-1.1,1.3-2.3,1.5-3.5c0.2-1.2,0.1-2.3-0.2-3.4c-0.4-1-1-1.9-1.9-2.6c-1.3-0.9-2.8-1.3-4.5-1.2
	c-1.7,0.2-3.4,0.8-5.1,1.9c-1.7,1.2-3.3,2.7-4.7,4.6c-1,1.3-1.9,3-2.7,5s-1.5,4-2.1,5.9c3.7-1.4,6.7-1.3,8.9,0.2
	c1.5,1.1,2.3,2.7,2.2,4.8c-0.1,2.1-0.9,4.3-2.5,6.6c-0.7,1-1.5,1.9-2.5,2.9c-0.9,1-2,2-3.3,3c0.7,2.1,0.8,4.3,0.2,6.7
	c-0.5,2.4-1.8,4.9-3.6,7.4c-2.8,3.9-6.5,6.9-10.9,8.8c-0.7,1.3-1.4,2.5-2.2,3.6c-1.7,2.4-3.6,4.4-5.8,6c-2.2,1.6-4.2,2.6-6.2,3.1
	c-2,0.4-3.6,0.2-4.9-0.7C8,83.1,7.4,82,7.2,80.7C7,79.3,7.3,77.8,8,76c0.7-1.8,1.8-3.7,3.3-5.8c0.3-0.4,1-1.3,2-2.6
	c-1.3-2.7-1.6-5.8-0.9-9.4c0.8-3.6,2.4-7.2,5.1-10.8c4.6-6.4,10.8-11.2,18.5-14.6C37.8,28.1,39.6,24.4,41.5,21.7z M20.4,73.1
	c-1.5-0.2-2.8-0.7-4-1.5c-0.9-0.6-1.7-1.6-2.5-2.9c-0.9,1.1-1.7,2-2.4,3c-1.8,2.5-2.9,4.9-3.3,7c-0.3,2.1,0.1,3.6,1.4,4.6
	c1,0.7,2.3,1,3.8,0.7c1.5-0.3,3.1-1,4.7-2.3c1.6-1.2,3.1-2.8,4.6-4.8c0.9-1.2,1.7-2.5,2.4-4C23.4,73.2,21.9,73.3,20.4,73.1z
	 M28.1,66.1c-2.4,0.6-4.3,0.3-5.7-0.7c-0.6-0.4-1.2-1.2-1.8-2.2c-2.2,1.3-4.2,2.9-6,4.8c0.8,1.3,1.7,2.2,2.5,2.8
	c2.2,1.6,5.1,2,8.5,1.1C26.5,70,27.3,68.1,28.1,66.1z M35.6,33.8c-7.3,3.5-13.2,8.1-17.4,14.1c-2.4,3.4-4,6.8-4.8,10.1
	c-0.7,3.4-0.6,6.3,0.5,9c1.8-1.8,3.9-3.4,6.2-4.8c-0.8-2.9,0-6.2,2.6-9.9c1.3-1.8,2.8-3.3,4.5-4.6c1.7-1.3,3.5-2.2,5.2-2.7
	C33.7,40.6,34.7,36.9,35.6,33.8z M31.6,63.8c1.4-0.8,2.6-1.9,3.7-3.3c1.1-1.5,1.8-3.1,2.2-4.9l0.7,0.2c-0.3,1.9-1,3.7-2.2,5.3
	c-1.2,1.7-2.8,3.1-4.8,4.1c-0.7,1.9-1.5,3.8-2.4,5.5c3.9-2,7.2-4.8,9.7-8.3c1.1-1.5,1.9-3,2.6-4.6c0.6-1.5,1-3,1.1-4.5
	c0.1-1.4-0.1-2.8-0.5-4c-1.9,1.5-4.4,3.4-7.6,5.6C33.6,57.8,32.7,60.7,31.6,63.8z M26.2,59.5c-2.5,1.5-4.1,2.6-5,3.2
	c0.4,0.8,0.9,1.5,1.6,1.9c1.4,1,3.3,1.2,5.6,0.4c0.8-2.4,1.5-5.2,2-8.1C30.2,57,28.8,57.9,26.2,59.5z M27.6,48.6
	c-1.6,1.2-2.9,2.6-4.1,4.3c-2.4,3.4-3.3,6.2-2.6,8.7c1-0.7,1.8-1.2,2.3-1.6c0.6-0.3,1.2-0.7,1.8-1.1c0.6-0.4,1.3-0.8,1.9-1.2
	c0.6-0.4,1.3-0.8,1.9-1.1c0.6-0.4,1.2-0.8,1.9-1.2c1-5.5,1.6-8.7,1.8-9.6C30.8,46.5,29.2,47.4,27.6,48.6z M35.2,50.7
	c-0.1,0.4-0.1,0.7-0.2,1s-0.1,0.6-0.2,0.9c-0.1,0.3-0.1,0.6-0.2,0.8c2.8-1.8,5.1-3.5,6.8-5c-0.5-0.9-1-1.6-1.7-2
	c-0.9-0.6-2-0.9-3.4-0.9C36.2,46.7,35.8,48.5,35.2,50.7z M36.5,44.6c1.6,0.2,2.8,0.5,3.7,1.2c0.7,0.5,1.3,1.3,1.9,2.3
	c1.7-1.4,3.2-3.1,4.6-5.1c1.5-2.1,2.3-4.1,2.4-6.1c0.1-2-0.5-3.5-1.9-4.5c-0.8-0.6-2-0.9-3.4-0.9c-1.4,0-2.9,0.3-4.5,0.9
	C38.4,36.1,37.5,40.2,36.5,44.6z"/>
<linearGradient id="SVGID_00000177474314160799600320000017287254996989969042_" gradientUnits="userSpaceOnUse" x1="529.2216" y1="-52.2354" x2="584.0063" y2="-52.2354" gradientTransform="matrix(1 0 0 1 0 101.0168)">
	<stop  offset="0" style="stop-color:#914F23"/>
	<stop  offset="0.4286" style="stop-color:#F6E296"/>
	<stop  offset="0.8187" style="stop-color:#FBCA60"/>
	<stop  offset="1" style="stop-color:#914F23"/>
</linearGradient>
<path style="opacity:0.51;fill:url(#SVGID_00000177474314160799600320000017287254996989969042_);" d="M555.2,32.7
	c7.8,3.4,13.9,8.3,18.5,14.6c2.6,3.6,4.3,7.2,5,10.8c0.7,3.6,0.5,6.7-0.9,9.4c1.1,1.3,1.7,2.2,2,2.6c1.5,2.1,2.6,4,3.3,5.8
	c0.7,1.8,0.9,3.4,0.8,4.7s-0.8,2.4-1.8,3.1c-1.3,0.9-2.9,1.1-4.9,0.7c-2-0.4-4.1-1.5-6.2-3.1s-4.1-3.6-5.8-6
	c-0.8-1.1-1.5-2.3-2.2-3.6c-4.5-2-8.1-4.9-10.9-8.8c-1.8-2.6-3-5-3.6-7.4c-0.6-2.4-0.5-4.6,0.2-6.7c-1.2-1-2.3-2.1-3.3-3
	c-0.9-1-1.8-2-2.5-2.9c-1.6-2.3-2.5-4.4-2.5-6.6c-0.1-2.1,0.7-3.7,2.2-4.8c2.2-1.6,5.1-1.6,8.8-0.2c-0.5-1.9-1.2-3.9-2.1-5.9
	s-1.8-3.7-2.7-5c-1.4-1.9-2.9-3.4-4.7-4.6c-1.7-1.2-3.4-1.8-5.1-1.9c-1.7-0.1-3.2,0.3-4.5,1.2c-0.9,0.7-1.5,1.5-1.9,2.6
	c-0.4,1-0.4,2.2-0.2,3.4s0.7,2.4,1.5,3.5c1.4,1.9,3.1,3,5.1,3.3c-0.3-1,0-1.8,0.7-2.3c0.4-0.3,0.9-0.5,1.4-0.4
	c0.5,0.1,0.9,0.3,1.2,0.7c0.3,0.4,0.4,0.9,0.3,1.4c-0.1,0.5-0.4,0.9-0.8,1.2c-0.7,0.5-1.6,0.7-2.7,0.6c-1.1-0.1-2.1-0.6-3.2-1.3
	c-1.1-0.7-2-1.6-2.8-2.7c-0.9-1.2-1.4-2.5-1.7-3.9c-0.3-1.4-0.2-2.7,0.3-3.9s1.2-2.2,2.2-2.9c1.6-1.1,3.4-1.6,5.5-1.4
	c2.1,0.2,4.1,1.1,6.3,2.6c2.1,1.5,4.2,3.6,6,6.2C551.6,24.4,553.4,28.1,555.2,32.7z M566.1,72.8c0.7,1.5,1.5,2.8,2.4,4
	c1.4,2,3,3.6,4.6,4.8c1.6,1.2,3.2,2,4.7,2.3c1.5,0.3,2.8,0.1,3.8-0.7c1.3-0.9,1.8-2.5,1.4-4.6c-0.4-2.1-1.4-4.4-3.3-7
	c-0.7-0.9-1.5-1.9-2.4-3c-0.8,1.3-1.6,2.2-2.5,2.9c-1.1,0.8-2.5,1.3-4,1.5C569.3,73.3,567.7,73.2,566.1,72.8z M565.7,71.9
	c3.5,0.9,6.3,0.5,8.5-1.1c0.8-0.6,1.6-1.5,2.5-2.8c-1.8-1.9-3.8-3.5-6-4.8c-0.6,1-1.2,1.7-1.8,2.2c-1.5,1.1-3.4,1.3-5.7,0.7
	C563.8,68.1,564.7,70,565.7,71.9z M558.6,45c1.8,0.5,3.5,1.4,5.2,2.7c1.7,1.3,3.2,2.8,4.5,4.6c2.6,3.6,3.5,6.9,2.7,9.9
	c2.3,1.5,4.4,3.1,6.2,4.8c1.1-2.7,1.2-5.7,0.5-9c-0.7-3.4-2.3-6.7-4.8-10.1c-4.3-5.9-10.1-10.6-17.4-14.1
	C556.5,36.9,557.5,40.6,558.6,45z M557,54.9c-3.1-2.2-5.7-4-7.6-5.6c-0.4,1.2-0.6,2.5-0.5,4c0.1,1.5,0.5,3,1.1,4.5
	c0.6,1.5,1.5,3.1,2.6,4.6c2.6,3.6,5.8,6.3,9.7,8.3c-0.9-1.8-1.7-3.6-2.4-5.5c-1.9-1-3.5-2.4-4.8-4.1c-1.1-1.6-1.9-3.4-2.2-5.3
	l0.7-0.2c0.4,1.8,1.1,3.4,2.2,4.9c1,1.4,2.3,2.6,3.7,3.3C558.4,60.7,557.6,57.8,557,54.9z M560.8,56.9c0.6,3,1.2,5.7,2,8.1
	c2.3,0.8,4.2,0.6,5.6-0.4c0.7-0.5,1.2-1.1,1.6-1.9c-0.9-0.6-2.5-1.7-5-3.2C562.4,57.9,561,57,560.8,56.9z M558.7,45.9
	c0.2,0.9,0.8,4.1,1.8,9.6c0.6,0.4,1.2,0.8,1.8,1.2c0.6,0.4,1.2,0.7,1.9,1.1c0.6,0.4,1.3,0.8,1.9,1.2c0.6,0.4,1.2,0.8,1.8,1.1
	c0.6,0.4,1.4,0.9,2.3,1.6c0.7-2.4-0.2-5.3-2.6-8.7c-1.2-1.6-2.5-3.1-4.1-4.3S560.3,46.5,558.7,45.9z M554.8,45.4
	c-1.4,0-2.5,0.3-3.4,0.9c-0.6,0.4-1.2,1.1-1.7,2c1.7,1.5,4,3.2,6.8,5c-0.1-0.2-0.1-0.5-0.2-0.8c-0.1-0.3-0.2-0.6-0.2-0.9
	s-0.1-0.6-0.2-1C555.4,48.5,555,46.7,554.8,45.4z M551.9,32.3c-1.5-0.6-3-0.9-4.5-0.9c-1.4,0-2.6,0.3-3.4,0.9c-1.4,1-2,2.5-1.9,4.5
	c0.1,2,0.9,4,2.4,6.1c1.4,2,3,3.7,4.6,5.1c0.6-1,1.2-1.8,1.9-2.3c0.9-0.6,2.1-1,3.7-1.2C553.7,40.2,552.8,36.1,551.9,32.3z"/>
<linearGradient id="SVGID_00000044897548514693041690000002975220550774197665_" gradientUnits="userSpaceOnUse" x1="65.8957" y1="-97.0936" x2="526.7443" y2="-97.0936" gradientTransform="matrix(1 0 0 1 0 101.0168)">
	<stop  offset="0" style="stop-color:#914F23"/>
	<stop  offset="0.4286" style="stop-color:#F6E296"/>
	<stop  offset="0.8187" style="stop-color:#FBCA60"/>
	<stop  offset="1" style="stop-color:#914F23"/>
</linearGradient>
<path style="opacity:0.51;fill:url(#SVGID_00000044897548514693041690000002975220550774197665_);" d="M66.4,5.8
	C74.7,0.7,83.9,0,89.9,0l412.8,0l0,0c6,0,15.3,0.7,23.5,5.8l0,0c0.5,0.3,0.7,1,0.4,1.5l0,0c-0.3,0.5-1,0.7-1.5,0.4l0,0
	c-7.7-4.7-16.5-5.4-22.4-5.4l-412.8,0l0,0c-5.8,0-14.7,0.7-22.3,5.4l0,0c-0.5,0.3-1.2,0.2-1.5-0.4l0,0C65.7,6.8,65.9,6.1,66.4,5.8
	L66.4,5.8z"/>
</svg>
