<?xml version="1.0" encoding="utf-8"?>
<!-- Generator: Adobe Illustrator 27.9.0, SVG Export Plug-In . SVG Version: 6.00 Build 0)  -->
<svg version="1.1" id="Layer_1" xmlns="http://www.w3.org/2000/svg" xmlns:xlink="http://www.w3.org/1999/xlink" x="0px" y="0px"
	 viewBox="0 0 211 260.5" style="enable-background:new 0 0 211 260.5;" xml:space="preserve">
<style type="text/css">
	.st0{opacity:0.6;}
	.st1{fill:#896A57;}
	.st2{fill:none;stroke:#FFFFFF;stroke-miterlimit:10;}
	.st3{fill:none;stroke:#FFFFFF;stroke-width:0.75;stroke-miterlimit:10;}
	.st4{opacity:0.88;fill:#FFFFFF;}
	.st5{clip-path:url(#SVGID_00000147939224987850848980000006947773143933967244_);}
	.st6{fill:#FFFFFF;}
</style>
<g class="st0">
	<g>
		<path class="st1" d="M200.4,246.6H22.9V95c0-46.8,37.9-84.7,84.7-84.7h8.1c46.8,0,84.7,37.9,84.7,84.7V246.6z"/>
		<path class="st2" d="M33.4,236.1v-137c0-43.2,35.1-78.3,78.3-78.3s78.3,35.1,78.3,78.3v137H33.4z"/>
		<path class="st3" d="M38.6,230.9V99.1c0-40.3,32.8-73,73-73c40.3,0,73,32.8,73,73v131.8H38.6z"/>
		<path class="st4" d="M145.3,120.7c0.1,0.3,0.2,0.6,0.2,0.8c0.4,1.8,1.2,3.5,2.3,5.1c0.7,0.9,1.4,1.9,2.1,2.9
			c0.3,0.4,0.5,0.8,0.7,1.1c1,1.8,1.5,3.7,1.4,5.8c-0.1,1.2-0.2,2.3-0.3,3.5c-0.1,1.3,0.1,2.6,0.8,3.7c0.2,0.4,0.4,0.8,0.6,1.2
			c0.8,1.5,1.2,3.2,1.3,4.9c0,0.7,0,1.5,0,2.2c-0.1,1,0.1,2,0.6,2.9c0.4,0.9,0.7,1.8,1.1,2.7c0.2,0,0.2-0.2,0.3-0.4
			c0.8-3.2,1.2-6.5,1.2-9.8c0-3.1-0.1-6.2-0.1-9.3c0-1.7,0-3.4,0-5.1c0-0.6-0.1-1.1-0.5-1.7c-1.5-2.5-2.7-5.2-3.7-7.9
			c-0.2-0.6-0.4-1.3-0.6-2c-0.1-0.5-0.3-1-0.6-1.4c-0.7-1-1.5-1.9-2.2-2.8c-0.2-0.3-0.5-0.3-0.8-0.4c-1.5-0.6-2.8-1.3-4.1-2.3
			c-1.9-1.6-3.2-3.5-4-5.8c-0.4-1.1-0.4-2.2-0.1-3.4c0.1-0.5,0.3-0.9,0.4-1.4c0.3-1,0.4-2,0.1-3c-0.2-0.8-0.4-1.5-0.6-2.3
			c-0.3-1.3-0.2-2.6,0.1-3.9c0.4-1.6,1-3,1.5-4.5c0.1-0.3,0.3-0.6,0.7-0.5c0,0.1,0.1,0.2,0.2,0.3c0.2,2,1.1,3.8,2.1,5.5
			c0.3,0.5,0.6,1.1,0.9,1.6c1.1,1.9,1.8,4,2.1,6.3c0.1,0.9,0.1,1.9,0,2.8c-0.1,0.4-0.1,0.8-0.1,1.1c-0.1,0.9,0,1.6,0.6,2.4
			c0.8,1.1,1,2.4,1.1,3.7c0,0.7,0,1.4,0,2.1c0,0.4,0.1,0.8,0.4,1.1c0.6,0.8,1.2,1.6,1.8,2.4c0.3,0,0.2-0.2,0.2-0.3
			c0-1.1-0.1-2.2,0-3.3c0-0.5-0.1-0.9-0.4-1.2c-0.1-0.2-0.2-0.3-0.3-0.5c-1.1-2.4-1.7-4.8-1.5-7.5c0.2-2.3,1-4.3,2.7-5.9
			c1.6-1.5,2.6-3.3,3.3-5.5c0.4-1.3,0.7-2.5,1.2-3.7c1-2.4,2.7-4.1,5-5.3c0.2-0.1,0.4-0.1,0.6-0.2c0.2,0.3,0.2,0.6,0.1,0.9
			c-0.5,1.3-0.5,2.6-0.3,4c0.1,0.8,0.2,1.7,0.3,2.5c0.3,2.8-0.3,5.4-1.4,7.9c-0.7,1.6-1.5,3-2.5,4.4c-0.2,0.2-0.3,0.5-0.5,0.7
			c-0.6,1-1.1,2.1-1.2,3.3c0,0.5-0.1,1-0.2,1.4c-0.3,1.3-1,2.3-2,3c-0.5,0.3-0.9,0.7-1.3,1.2c-0.4,0.4-0.5,0.9-0.5,1.4
			c0,2.3,0.3,4.6,0.9,6.8c0.7,2.4,1.7,4.8,2.7,7.1c0.1,0.3,0.3,0.6,0.6,1c0-0.5,0.1-0.8,0.1-1.1c0.2-2.9,0.5-5.8,1.1-8.7
			c0.3-1.5,0.7-3,1.2-4.5c0.4-1.2,0.6-2.5,0.9-3.7c0.4-2.3,0.8-4.5,1.3-6.7c0.1-0.4,0.2-0.8,0.3-1.2c0.1-0.4,0.2-0.8,0.5-1.1
			c0.2-0.2,0.3-0.5,0.4-0.8c0.7-1.6,1.5-3.1,2.5-4.4c1.1-1.6,2.6-2.9,4.3-3.8c1.6-0.8,3.3-1.4,5-1.6c0.8-0.1,1.6-0.2,2.4-0.3
			c1.7-0.1,3.3-0.6,4.7-1.4c1.3-0.7,2.6-1.4,3.9-2.2c1.5-0.8,3.1-1.4,4.8-1.6c2.6-0.4,5.1,0.1,7.4,1.4c0.4,0.2,0.8,0.3,1.2,0.3
			c0.4,0,0.9,0,1.3,0.5c-0.5,0.3-1.1,0.4-1.6,0.4c-1,0.1-2.1,0.2-3.1,0.4c-1.5,0.4-2.8,1-4.1,1.7c-0.7,0.4-1.3,0.9-1.9,1.5
			c-0.8,0.9-1.6,1.8-2.4,2.8c-1.3,1.8-3,3-5.1,3.6c-1.6,0.4-3.2,0.8-4.8,1.2c-0.7,0.2-1.3,0.3-2,0.5c-1.4,0.5-2.6,1.3-3.6,2.3
			c-1.1,1.1-1.9,2.3-2.6,3.6c-0.7,1.3-1.7,2.2-2.9,3.1c-0.5,0.3-0.9,0.6-1.4,0.9c-1.7,1-3,2.4-4,4.1c-0.2,0.3-0.4,0.7-0.5,1
			c-1.1,3.3-1.7,6.6-2.1,10.1c0,0.1,0,0.3,0,0.5c0.6-0.5,1-0.9,1.3-1.5c0.6-1.3,1.3-2.6,2.1-3.8c1.7-2.5,4-4,7-4.3
			c0.5,0,1-0.1,1.5-0.1c2.7-0.3,4.8-1.5,6.4-3.6c0.6-0.8,1.2-1.7,1.9-2.5c1.5-1.9,3.5-3.1,5.9-3.4c0.8-0.1,1.6-0.3,2.4-0.4
			c1.2-0.2,2.3-0.7,3.2-1.7c1.1-1.2,2.3-2.3,3.7-3.2c1.9-1.2,4-2.1,6.1-2.8c0.2-0.1,0.4-0.1,0.6-0.1c0.4,0,0.5,0.3,0.3,0.6
			c-0.2,0.4-0.4,0.7-0.6,1.1c-0.5,0.7-0.8,1.5-1,2.3c-0.8,2.5-1.8,4.8-3.1,7c-1.5,2.6-3.5,4.8-6.1,6.4c-0.8,0.5-1.7,1-2.6,1.4
			c-1.9,0.9-3.4,2.1-4.8,3.6c-1.7,1.8-3.8,2.9-6.2,3.4c-0.6,0.1-1.3,0.2-2,0.2c-0.7,0-1.5,0-2.2-0.1c-2.2-0.3-4.5-0.2-6.7-0.1
			c-0.9,0.1-1.8,0.3-2.6,0.5c-0.2,0-0.3,0.1-0.5,0.1c-1.1,0.1-2.1,0.6-3.1,1.1c-0.6,0.3-1,0.7-1,1.4c-0.1,2-0.2,3.9-0.2,5.9
			c0,2.9,0.1,5.9,0.1,8.8c0,3.4-0.1,6.7-0.7,10c0,0.1,0,0.3,0,0.5c0.3-0.2,0.4-0.6,0.5-0.8c0.5-0.6,0.6-1.4,0.7-2.1
			c0.3-1.9,0.7-3.7,1.4-5.4c1.1-3,3.1-5.1,6.1-6.3c0.5-0.2,1-0.4,1.6-0.6c0.5-0.2,1.1-0.4,1.6-0.7c1.9-0.8,3.3-2.2,4.3-4.1
			c1.2-2.3,2.9-4.1,5-5.6c0.3-0.2,0.6-0.4,0.9-0.7c2.5-1.9,5.4-2.8,8.6-3.1c0.3,0,0.6,0,0.9,0.1c0.2,0,0.3,0.3,0.2,0.5
			c-0.1,0.2-0.2,0.3-0.3,0.4c-0.2,0.2-0.4,0.4-0.5,0.6c-1.3,1.4-2.2,3.1-3,4.9c-0.7,1.8-1.5,3.5-2.6,5.1c-0.7,1.2-1.6,2.2-2.7,2.9
			c-0.8,0.5-1.6,1-2.3,1.5c-0.5,0.3-1,0.7-1.4,1c-0.9,0.7-1.4,1.6-1.9,2.6c-0.4,0.7-0.8,1.5-1.2,2.2c-1,1.8-2.5,2.9-4.4,3.5
			c-0.5,0.2-0.9,0.3-1.4,0.4c-2.1,0.5-4.1,1-6.2,1.4c-0.6,0.1-1.1,0.3-1.5,0.7c-0.1,0.2-0.3,0.3-0.5,0.4c-0.9,0.5-1.4,1.3-1.8,2.2
			c-0.5,1.2-0.9,2.3-1.3,3.5c-0.9,2.7-2,5.2-3.4,7.7c-1.5,2.6-3,5.1-4.8,7.4c-0.8,1-1.6,2-2.6,2.7c-0.2,0.1-0.4,0.2-0.7,0.2
			c0.2-0.2,0.5-0.4,0.7-0.6c0.8-0.7,1.4-1.5,2-2.3c1.2-1.6,2.3-3.4,3.4-5.1c0.2-0.4,0.5-0.8,0.7-1.2c0.2-0.4,0.2-0.7,0-1.1
			c-0.3-0.5-0.7-0.8-1.3-0.9c-1.2-0.2-2.3-0.5-3.4-0.8c-1.7-0.5-3.3-1.3-4.6-2.5c-0.7-0.6-1.4-1.4-1.9-2.2c-0.5-0.8-0.8-1.6-0.7-2.6
			c0-0.3,0-0.6,0.1-0.8c0.1-1.1-0.1-2.1-0.7-3.1c-0.2-0.4-0.5-0.8-0.7-1.3c-1.1-2.1-1.7-4.3-1.6-6.7c0.1-1.5,0.2-2.9,0.6-4.3
			c0.1-0.3,0.1-0.7,0.6-0.9c0.1,0.2,0.2,0.3,0.3,0.5c0.3,0.6,0.5,1.2,0.8,1.8c0.4,1,1.1,1.7,1.9,2.4c1.3,1,2.2,2.4,2.5,4.1
			c0.1,0.6,0.2,1.2,0.4,1.8c0.2,1.2,0.9,2,2,2.5c0.9,0.3,1.4,1,1.8,1.8c0.5,0.9,0.8,1.9,0.9,3c0.1,0.6,0.2,1.2,0.3,1.7
			c0.1,0.6,0.3,1.1,1,1.4c0.5,0.2,0.7,0.6,0.9,1.1c0.2,0.5,0.3,1,0.4,1.5c0.1,0.5,0.2,1,0.6,1.4c0.3,0.3,0.5,0.6,0.8,1
			c0.2-0.4,0.4-0.7,0.6-1c1-1.8,1.8-3.7,2.5-5.7c0.3-0.9,0.3-1.8,0-2.7c-0.3-0.8-0.7-1.5-1-2.3c-0.1-0.3-0.4-0.5-0.7-0.6
			c-1.8-0.9-3.4-2-4.9-3.3c-1.2-1-2.1-2.2-2.9-3.7c-0.4-0.8-0.6-1.6-0.6-2.5c0-0.3,0-0.7,0.1-1c0.1-1.6-0.1-3.2-0.5-4.7
			c-0.3-1-0.6-2.1-1-3.1c-0.8-2.2-1.1-4.5-1-6.9c0.1-2.6,0.6-5.1,1.4-7.5c0.1-0.2,0.1-0.4,0.2-0.6
			C144.6,120.8,144.9,120.7,145.3,120.7z M161.5,112.2C161.4,112.3,161.4,112.3,161.5,112.2c-0.1,0.1,0,0.1,0,0.2
			C161.4,112.3,161.4,112.3,161.5,112.2c0.1-0.2,0.3-0.4,0.4-0.7c1-2,2.2-3.8,3.6-5.6c1-1.3,2.2-2.5,3.4-3.7
			c4.1-3.8,8.9-6.1,14.2-7.3c0.1,0,0.2,0,0.3,0c-0.4,0.4-1,0.5-1.5,0.7c-5.5,1.9-10.4,4.8-14.4,9.2c-1.9,2.1-3.5,4.3-4.8,6.8
			c-0.3,0.5-0.5,1-0.8,1.6c0.2-0.1,0.2-0.1,0.3-0.1c1-1,2.1-1.8,3.3-2.5c1.5-0.9,2.7-2.2,3.5-3.7c0.5-0.8,1-1.6,1.6-2.4
			c1.6-2.1,3.7-3.4,6.3-3.9c0.6-0.1,1.2-0.2,1.7-0.4c1.5-0.4,3-0.8,4.5-1.3c1.4-0.4,2.4-1.3,3.3-2.4c0.8-1,1.7-2.1,2.5-3
			c0.9-1,1.9-1.8,3.1-2.4c1.6-0.7,3.2-1.4,4.9-1.6c0.1,0,0.3-0.1,0.5-0.1c-0.2-0.1-0.4-0.3-0.5-0.3c-0.6-0.1-1.2-0.3-1.8-0.4
			c-3.1-0.6-6.1-0.2-9,1.3c-1.2,0.7-2.5,1.4-3.7,2c-1.6,0.9-3.2,1.5-5,1.6c-1,0.1-1.9,0.2-2.9,0.4c-1.7,0.2-3.2,0.8-4.7,1.6
			c-1.2,0.6-2.2,1.4-3.1,2.4c-1.8,2.1-3.1,4.6-4.1,7.2c-0.8,2.1-1.2,4.4-1.5,6.7C161.3,112,161.4,112.1,161.5,112.2z M162.3,125.3
			c0.3,0,0.5,0,0.8-0.1c0.7-0.2,1.4-0.4,2.1-0.5c2.1-0.1,4.3-0.3,6.4-0.1c0.9,0.1,1.8,0.2,2.7,0.2c1.1,0,2.2-0.1,3.3-0.5
			c1.9-0.6,3.4-1.6,4.8-3.1c0.5-0.5,1-1,1.6-1.5c0.9-0.8,1.9-1.3,2.9-1.8c1.1-0.6,2.3-1.2,3.4-1.8c1.3-0.8,2.4-1.8,3.4-3
			c2.1-2.5,3.5-5.4,4.6-8.5c0.4-1,0.8-2,1.1-3c0.1-0.1,0.3-0.3,0-0.5c-1.3,0.5-2.6,1-3.9,1.7c-1.2,0.6-2.3,1.3-3.3,2.3
			c-0.5,0.5-1,1-1.5,1.5c-1.1,1.1-2.3,1.8-3.9,2c-0.9,0.1-1.8,0.3-2.7,0.5c-1.9,0.4-3.5,1.3-4.7,2.8c-0.7,0.8-1.3,1.7-2,2.5
			c-1.9,2.4-4.3,3.8-7.4,4c-0.6,0-1.2,0.1-1.8,0.2c-2.3,0.3-4.2,1.4-5.6,3.3c-0.7,0.9-1.3,1.9-2,2.9c-0.1,0.1-0.2,0.3-0.3,0.4
			c-0.1,0.1-0.3,0.2-0.1,0.4c0.2-0.1,0.3-0.2,0.5-0.3c1.5-1,3-1.8,4.7-2.4c1.4-0.6,2.9-1.1,4.3-1.6c2-0.8,4.1-1.5,6.1-2.4
			c4.2-1.8,8.1-4.2,11.6-7.1c2.4-2.1,4.8-4.2,6.9-6.6c0.4-0.4,0.8-0.8,1.2-1.3c0,0,0.1,0,0.2,0c-0.1,0.2-0.2,0.4-0.3,0.5
			c-0.4,0.5-0.8,1-1.2,1.6c-1.9,2.4-4,4.7-6.4,6.6c-3.5,2.9-7.3,5.1-11.4,6.9c-2.6,1.1-5.2,2-7.9,2.9c-1.9,0.6-3.7,1.3-5.5,2.1
			C162.7,125,162.4,125,162.3,125.3c-0.1-0.1-0.2-0.1-0.2,0c0,0,0,0.1,0,0.1C162.1,125.5,162.2,125.5,162.3,125.3
			C162.3,125.4,162.3,125.4,162.3,125.3z M187.9,125.9c-2.7,0.3-5,1-7,2.3c-1.1,0.7-2.1,1.5-3.2,2.4c-0.8,0.6-1.4,1.3-2,2.1
			c-0.7,1-1.3,2-1.9,3.1c-0.5,0.8-1.1,1.5-1.9,2.1c-1.1,0.9-2.2,1.5-3.5,2c-0.8,0.3-1.6,0.6-2.3,0.9c-0.8,0.3-1.5,0.7-2.2,1.2
			c-1.7,1.3-2.8,2.9-3.4,4.8c-0.5,1.3-0.9,2.7-1.3,4.1c0,0.1-0.2,0.3,0.1,0.5c0.1-0.2,0.3-0.3,0.4-0.5c1-1.3,2.2-2.4,3.5-3.4
			c1.1-0.8,2.1-1.5,3.2-2.3c2.4-1.6,4.6-3.4,6.7-5.4c2.4-2.4,4.6-4.9,6.7-7.5c0.5-0.6,1-1.3,1.5-2c0.1-0.2,0.3-0.4,0.6-0.4
			c-0.1,0.2-0.2,0.3-0.2,0.4c-0.7,1-1.3,2-2,3.1c-1.1,1.8-2.4,3.5-3.9,5c-2.3,2.5-4.8,4.7-7.6,6.6c-1.4,1-2.8,1.9-4.2,2.8
			c-1.3,0.9-2.4,1.9-3.4,3c-0.1,0.1-0.3,0.2-0.1,0.4c0.1,0,0.3,0,0.4-0.1c2.2-0.5,4.5-1,6.7-1.6c0.5-0.1,1-0.3,1.5-0.5
			c1.7-0.6,3-1.8,3.8-3.5c0.4-0.7,0.7-1.4,1.1-2.1c0.5-0.9,1.1-1.8,1.9-2.4c0.9-0.6,1.7-1.3,2.7-1.8c2-1.1,3.5-2.9,4.5-4.9
			c0.7-1.3,1.3-2.6,1.9-3.9c0.6-1.3,1.2-2.5,2.1-3.6C187.3,126.7,187.5,126.4,187.9,125.9z M153.4,153.7c0.1-0.1,0.1-0.1,0.2-0.2
			c-0.2-0.4-0.3-0.7-0.6-1.1c-0.9-1.5-1.8-2.9-2.7-4.4c-3-4.8-4.2-10-4.1-15.6c0-0.1,0-0.3,0.2-0.2c0,0.2,0.1,0.3,0.1,0.5
			c0.2,2.2,0.6,4.4,1.1,6.6c0.6,2.8,1.5,5.4,3,7.8c0.8,1.4,1.7,2.8,2.5,4.2c0,0,0.1,0.1,0.2,0.1c0-0.1,0.1-0.2,0.1-0.3
			c0.1-2.3-0.3-4.6-1.5-6.6c-1-1.7-1.4-3.5-1.1-5.5c0.1-0.8,0.2-1.6,0.3-2.4c0.3-2.1-0.2-4.1-1.3-6c-0.7-1.1-1.4-2.1-2.1-3.1
			c-1-1.4-1.9-2.9-2.5-4.6c0-0.1-0.1-0.2-0.2-0.4c-0.1,0.2-0.1,0.3-0.2,0.4c-0.7,2.4-1.1,4.9-1.1,7.4c0,1.7,0.2,3.3,0.8,4.9
			c0.2,0.8,0.5,1.5,0.8,2.3c0.8,2.3,1.2,4.6,1,7c-0.1,1,0.2,2,0.7,2.9c0.9,1.5,2,2.9,3.5,4c0.8,0.6,1.7,1.2,2.5,1.9
			C153,153.4,153.2,153.6,153.4,153.7z M153.3,113.6c0.5-0.3,0.8-0.5,1.1-0.7c0.7-0.5,1.2-1.1,1.5-1.9c0.2-0.6,0.4-1.2,0.4-1.8
			c0.1-1.3,0.5-2.6,1.2-3.7c0.2-0.4,0.5-0.8,0.7-1.1c1-1.4,1.8-2.8,2.4-4.3c1-2.3,1.5-4.8,1.2-7.3c-0.1-0.7-0.1-1.3-0.2-2
			c-0.1-1-0.2-2.1,0-3.1c0-0.1,0-0.2-0.1-0.3c-0.2,0.1-0.3,0.1-0.4,0.2c-0.7,0.5-1.3,1.1-1.8,1.7c-1,1.2-1.7,2.6-2.1,4.1
			c-0.3,0.9-0.5,1.8-0.8,2.7c-0.6,1.9-1.6,3.4-3,4.8c-1.4,1.4-2.5,3-2.8,5c-0.4,2.7,0.1,5.3,1.1,7.8c0.1,0.1,0.1,0.3,0.3,0.3
			c0.4-1.7,0.7-3.4,1.1-5.1c1-4,2.7-7.6,4.7-11.2c0.3-0.5,0.5-0.9,0.8-1.3c0.1,0.2,0.1,0.4,0,0.5c-0.2,0.4-0.3,0.8-0.5,1.1
			c-1.9,4.1-3.3,8.4-4.3,12.8C153.6,111.5,153.4,112.4,153.3,113.6z M143.8,99.5c0.2,0.4,0.2,0.8,0.2,1.2c0.2,2.4,0.6,4.8,1.3,7.1
			c0.7,2.4,1.7,4.6,3.1,6.6c0.1,0.1,0.2,0.2,0.4,0.4c0.1-1.8,0-3.4-1-4.9c-0.5-0.7-0.7-1.6-0.6-2.5c0-0.4,0.1-0.9,0.2-1.3
			c0.2-1.5,0.1-3-0.2-4.5c-0.4-1.7-1-3.2-1.9-4.7c-0.9-1.6-1.8-3.2-2.4-5c0-0.1-0.1-0.2-0.2-0.3c-0.1,0.1-0.2,0.2-0.2,0.3
			c-0.3,0.9-0.6,1.8-0.9,2.8c-0.4,1.4-0.4,2.9,0,4.3c0.2,0.6,0.3,1.3,0.5,1.9c0.2,0.9,0.2,1.9,0,2.8c-0.2,0.6-0.3,1.1-0.5,1.7
			c-0.2,0.7-0.3,1.4-0.2,2.1c0.1,0.7,0.3,1.3,0.6,2c1.1,2.4,2.7,4.3,4.9,5.7c0.5,0.3,1,0.6,1.5,0.9c0,0,0.1,0,0.1,0
			c0,0,0-0.1,0.1-0.2c-1.2-1.5-2.3-3.1-3.1-4.9c-0.8-1.8-1.4-3.7-1.7-5.7C143.7,103.4,143.7,101.4,143.8,99.5z M150,163.9
			c-0.1-0.8-0.3-1.4-1-1.7c-0.7-0.4-1-1-1.1-1.7c-0.1-0.4-0.1-0.8-0.2-1.2c-0.1-0.9-0.3-1.8-0.6-2.7c-0.3-0.9-0.9-1.7-1.8-2.1
			c-0.2-0.1-0.4-0.3-0.6-0.3c-0.6-0.2-1-0.7-1.3-1.3c-0.2-0.5-0.4-1.1-0.6-1.7c-0.1-0.5-0.2-1-0.3-1.4c-0.2-1.2-0.6-2.3-1.5-3.1
			c-0.2-0.2-0.3-0.4-0.5-0.5c-1-0.8-1.8-1.8-2.3-3c-0.1-0.2-0.1-0.5-0.5-0.6c-0.3,1.3-0.4,2.5-0.4,3.8c-0.1,2.4,0.6,4.5,1.7,6.5
			c0.2,0.3,0.4,0.6,0.6,1c0.6,1,0.9,2.2,0.8,3.4c0,0.2,0,0.5,0,0.7c-0.1,0.9,0.2,1.8,0.7,2.5c1.1,1.5,2.4,2.5,4,3.4
			c1.4,0.8,3,1.2,4.6,1.6c0.1,0,0.2,0,0.4,0c0-0.1,0-0.1,0-0.1c-1-0.9-2-1.9-3-2.8c-1.7-1.5-3.2-3.2-4.4-5.1
			c-2-3.1-3.1-6.6-3.6-10.2c0,0,0.1-0.1,0.1-0.2c0.1,0.3,0.2,0.5,0.3,0.8c0.7,2.1,1.5,4.2,2.4,6.2c0.7,1.7,1.6,3.2,2.7,4.6
			c1.4,1.9,3.2,3.4,4.8,5.1C149.6,163.7,149.8,163.7,150,163.9z"/>
		<path class="st4" d="M95.1,179.9c0.1,0.2,0.2,0.5,0.3,0.7c1,2.9,1.6,5.8,1.7,8.9c0.1,2.8-0.2,5.5-1.1,8.1
			c-0.4,1.2-0.8,2.4-1.2,3.6c-0.5,1.8-0.8,3.7-0.6,5.6c0,0.4,0,0.8,0.1,1.2c0,1-0.2,2-0.7,3c-0.8,1.7-2,3.1-3.4,4.3
			c-1.8,1.5-3.7,2.8-5.8,3.8c-0.3,0.2-0.6,0.4-0.8,0.7c-0.4,0.9-0.8,1.8-1.2,2.7c-0.4,1.1-0.4,2.1,0,3.2c0.8,2.3,1.8,4.6,3,6.7
			c0.2,0.4,0.4,0.8,0.7,1.2c0.4-0.5,0.6-0.9,0.9-1.2c0.5-0.4,0.6-1,0.7-1.6c0.1-0.6,0.2-1.2,0.4-1.8c0.2-0.5,0.5-1.1,1-1.3
			c0.8-0.3,1-0.9,1.2-1.6c0.1-0.7,0.2-1.4,0.3-2.1c0.2-1.2,0.5-2.4,1.1-3.5c0.5-0.9,1.1-1.7,2.2-2.1c1.4-0.5,2.1-1.5,2.4-2.9
			c0.1-0.7,0.3-1.4,0.4-2.2c0.3-2,1.3-3.6,2.9-4.8c1-0.8,1.8-1.7,2.3-2.8c0.3-0.7,0.6-1.4,0.9-2.2c0.1-0.2,0.2-0.4,0.4-0.6
			c0.5,0.2,0.6,0.6,0.7,1c0.4,1.7,0.6,3.4,0.7,5.1c0.1,2.8-0.6,5.4-1.9,7.9c-0.3,0.5-0.6,1-0.9,1.5c-0.7,1.1-1,2.3-0.8,3.6
			c0,0.3,0,0.7,0.1,1c0.1,1.1-0.2,2.1-0.8,3c-0.6,1-1.4,1.8-2.3,2.6c-1.6,1.4-3.4,2.4-5.5,2.9c-1.3,0.4-2.7,0.7-4.1,0.9
			c-0.7,0.1-1.2,0.5-1.6,1c-0.4,0.5-0.3,0.9-0.1,1.3c0.3,0.5,0.6,0.9,0.8,1.4c1.2,2.1,2.5,4.1,4,6.1c0.7,1,1.5,2,2.4,2.8
			c0.3,0.2,0.5,0.5,0.8,0.7c-0.3,0-0.6-0.1-0.8-0.3c-1.2-0.9-2.1-2-3-3.2c-2.1-2.8-3.9-5.7-5.6-8.8c-1.6-2.9-3-5.9-4.1-9
			c-0.5-1.4-1-2.8-1.6-4.1c-0.4-1.1-1-2.1-2.1-2.6c-0.2-0.1-0.4-0.3-0.6-0.4c-0.5-0.5-1.1-0.7-1.7-0.9c-2.4-0.6-4.9-1.1-7.3-1.7
			c-0.6-0.1-1.1-0.3-1.6-0.5c-2.2-0.8-4.1-2.1-5.2-4.2c-0.5-0.8-0.9-1.7-1.4-2.6c-0.6-1.1-1.2-2.3-2.2-3.1c-0.5-0.4-1.1-0.8-1.7-1.2
			c-0.9-0.6-1.9-1.2-2.8-1.8c-1.3-0.9-2.4-2.1-3.2-3.5c-1.2-1.9-2.2-3.9-3-6c-0.8-2.1-2-4-3.5-5.7c-0.2-0.2-0.4-0.5-0.6-0.7
			c-0.1-0.2-0.2-0.3-0.3-0.5c-0.1-0.2,0-0.5,0.3-0.6c0.4-0.1,0.7-0.1,1.1-0.1c3.7,0.3,7.1,1.4,10.1,3.7c0.4,0.3,0.7,0.5,1.1,0.8
			c2.4,1.8,4.5,4,5.9,6.7c1.1,2.2,2.8,3.8,5.1,4.8c0.6,0.3,1.3,0.5,1.9,0.8c0.6,0.2,1.2,0.4,1.8,0.7c3.5,1.4,5.9,3.9,7.2,7.5
			c0.8,2.1,1.3,4.2,1.6,6.4c0.1,0.9,0.3,1.8,0.8,2.5c0.2,0.3,0.2,0.6,0.6,0.9c0-0.3,0-0.4,0-0.6c-0.7-3.9-0.8-7.9-0.8-11.9
			c0-3.5,0.1-7,0.1-10.4c0-2.3-0.2-4.7-0.2-7c0-0.8-0.5-1.3-1.2-1.7c-1.2-0.6-2.3-1.2-3.7-1.3c-0.2,0-0.4-0.1-0.6-0.1
			c-1-0.2-2.1-0.6-3.1-0.6c-2.7-0.2-5.3-0.3-8,0.1c-0.8,0.1-1.7,0.2-2.6,0.2c-0.8,0-1.6,0-2.3-0.2c-2.9-0.5-5.3-1.9-7.3-4
			c-1.6-1.8-3.5-3.2-5.7-4.2c-1-0.5-2-1.1-3-1.6c-3.2-1.8-5.4-4.4-7.3-7.5c-1.5-2.6-2.8-5.4-3.7-8.3c-0.3-0.9-0.7-1.8-1.2-2.7
			c-0.3-0.4-0.5-0.8-0.7-1.3c-0.2-0.4-0.1-0.8,0.4-0.7c0.2,0,0.5,0.1,0.7,0.1c2.5,0.9,5,1.9,7.2,3.3c1.7,1,3,2.4,4.3,3.8
			c1,1.1,2.3,1.7,3.7,2c0.9,0.1,1.9,0.3,2.8,0.4c2.8,0.4,5.1,1.8,6.9,4.1c0.8,1,1.5,2,2.2,2.9c1.9,2.5,4.5,3.9,7.6,4.2
			c0.6,0.1,1.1,0.1,1.7,0.2c3.6,0.3,6.3,2.1,8.3,5c0.9,1.4,1.7,3,2.5,4.5c0.4,0.7,0.8,1.3,1.5,1.8c0-0.2,0.1-0.4,0.1-0.5
			c-0.4-4-1.2-8-2.4-11.9c-0.1-0.4-0.3-0.8-0.6-1.2c-1.2-2-2.7-3.7-4.8-4.8c-0.6-0.3-1.1-0.7-1.7-1c-1.4-1-2.6-2.1-3.4-3.6
			c-0.9-1.5-1.8-3-3.1-4.3c-1.2-1.2-2.6-2.2-4.3-2.8c-0.8-0.3-1.6-0.4-2.4-0.6c-1.9-0.5-3.8-0.9-5.7-1.4c-2.5-0.7-4.5-2.1-6-4.2
			c-0.9-1.1-1.8-2.2-2.8-3.3c-0.6-0.7-1.4-1.3-2.2-1.7c-1.6-0.8-3.2-1.5-4.9-2c-1.2-0.3-2.4-0.4-3.6-0.5c-0.6-0.1-1.3-0.1-1.9-0.5
			c0.4-0.5,1-0.5,1.5-0.6c0.5,0,0.9-0.1,1.4-0.4c2.7-1.5,5.7-2,8.8-1.6c2,0.3,3.9,1,5.7,1.9c1.5,0.8,3.1,1.7,4.6,2.5
			c1.8,0.9,3.6,1.5,5.6,1.7c0.9,0.1,1.9,0.2,2.8,0.3c2.1,0.3,4.1,0.9,5.9,1.9c2.1,1.1,3.8,2.6,5.1,4.5c1.2,1.6,2.1,3.4,2.9,5.3
			c0.2,0.3,0.2,0.8,0.5,1c0.4,0.4,0.5,0.8,0.6,1.3c0.1,0.5,0.3,0.9,0.4,1.4c0.5,2.7,1,5.3,1.5,8c0.3,1.5,0.6,3,1,4.4
			c0.6,1.7,1,3.5,1.4,5.3c0.8,3.4,1.1,6.8,1.3,10.2c0,0.4,0.1,0.8,0.1,1.3c0.4-0.4,0.6-0.8,0.7-1.2c1.2-2.7,2.3-5.5,3.2-8.4
			c0.8-2.6,1.2-5.3,1.1-8c0-0.7-0.2-1.2-0.6-1.7c-0.5-0.5-1-1-1.6-1.4c-1.3-0.9-2.1-2.1-2.4-3.6c-0.1-0.6-0.2-1.1-0.3-1.7
			c-0.1-1.4-0.6-2.7-1.4-3.9c-0.2-0.3-0.4-0.5-0.6-0.8c-1.2-1.6-2.2-3.4-3-5.2c-1.3-3-2-6.1-1.6-9.3c0.1-1,0.2-2,0.3-2.9
			c0.2-1.6,0.2-3.2-0.4-4.7c-0.1-0.3-0.2-0.6,0.1-1c0.2,0.1,0.5,0.1,0.7,0.2c2.6,1.4,4.7,3.4,5.8,6.2c0.6,1.4,1,2.9,1.5,4.4
			c0.7,2.5,2,4.7,3.9,6.4c2,1.9,3,4.3,3.2,7c0.3,3.1-0.5,6-1.8,8.8c-0.1,0.2-0.2,0.5-0.4,0.6c-0.4,0.4-0.5,0.9-0.5,1.5
			c0,1.3,0,2.6-0.1,3.9c0,0.1-0.1,0.3,0.2,0.4c0.7-0.9,1.4-1.9,2.1-2.8c0.3-0.4,0.5-0.8,0.4-1.3c0-0.8-0.1-1.6,0-2.5
			c0-1.6,0.3-3.1,1.3-4.4c0.6-0.8,0.8-1.8,0.6-2.8c-0.1-0.4-0.1-0.9-0.2-1.3c-0.2-1.1-0.2-2.2-0.1-3.3c0.3-2.6,1.1-5.1,2.5-7.4
			c0.4-0.6,0.7-1.3,1.1-1.9c1.1-2,2.2-4.1,2.5-6.5c0-0.1,0.1-0.3,0.2-0.4c0.5-0.1,0.7,0.2,0.9,0.6c0.7,1.8,1.4,3.5,1.8,5.3
			c0.4,1.5,0.4,3.1,0.1,4.6c-0.2,0.9-0.4,1.8-0.7,2.7c-0.3,1.2-0.3,2.3,0.1,3.5c0.2,0.5,0.4,1.1,0.5,1.6c0.4,1.3,0.4,2.7-0.1,4
			c-1,2.7-2.5,5-4.8,6.9c-1.4,1.2-3.1,2-4.8,2.7c-0.3,0.1-0.7,0.2-0.9,0.5c-0.9,1.1-1.8,2.2-2.7,3.4c-0.4,0.5-0.6,1.1-0.7,1.7
			c-0.2,0.8-0.4,1.6-0.7,2.4c-1.2,3.2-2.6,6.4-4.4,9.3c-0.4,0.6-0.6,1.2-0.5,2c0,2,0,4,0,6c0,3.6-0.1,7.3-0.1,10.9
			c0,3.9,0.5,7.8,1.5,11.5c0,0.2,0,0.4,0.3,0.4c0.4-1.1,0.8-2.2,1.3-3.2c0.6-1.1,0.8-2.2,0.7-3.4c-0.1-0.9,0-1.7,0-2.6
			c0.1-2,0.5-4,1.5-5.8c0.2-0.5,0.5-1,0.7-1.4c0.7-1.4,1-2.8,0.9-4.4c-0.1-1.4-0.3-2.8-0.4-4.2c-0.2-2.4,0.4-4.7,1.6-6.8
			c0.3-0.5,0.5-0.9,0.8-1.4c0.8-1.1,1.6-2.3,2.4-3.4c1.3-1.8,2.2-3.8,2.7-6c0.1-0.3,0.2-0.6,0.3-1C94.7,179.5,95,179.6,95.1,179.9z
			 M75.2,169.1c-0.4-2.7-0.8-5.3-1.7-7.9c-1.2-3.1-2.7-5.9-4.9-8.5c-1-1.2-2.3-2.1-3.6-2.9c-1.7-1-3.6-1.6-5.6-1.9
			c-1.1-0.2-2.3-0.3-3.4-0.5c-2.1-0.2-4.1-0.9-5.9-1.9c-1.5-0.8-2.9-1.6-4.4-2.4c-3.3-1.8-6.9-2.3-10.6-1.6
			c-0.7,0.1-1.4,0.3-2.2,0.5c-0.2,0-0.3,0.2-0.6,0.3c0.3,0.1,0.4,0.1,0.6,0.2c2.1,0.3,3.9,1.1,5.8,1.9c1.4,0.7,2.7,1.6,3.7,2.8
			c1,1.2,2,2.3,3,3.6c1,1.3,2.3,2.4,3.9,2.9c1.8,0.6,3.5,1,5.3,1.5c0.7,0.2,1.4,0.3,2,0.5c3,0.6,5.5,2.2,7.5,4.6
			c0.7,0.9,1.4,1.9,1.9,2.8c1,1.8,2.3,3.4,4.2,4.4c1.4,0.8,2.8,1.7,3.9,2.9c0.1,0.1,0.1,0.1,0.3,0.1c-0.3-0.7-0.6-1.3-1-1.9
			c-1.5-2.9-3.4-5.6-5.6-8c-4.7-5.1-10.4-8.6-17-10.8c-0.6-0.2-1.2-0.3-1.7-0.8c0.1,0,0.3,0,0.4,0c6.4,1.4,12,4.2,16.8,8.6
			c1.4,1.3,2.8,2.8,4,4.3c1.6,2.1,3.1,4.2,4.3,6.6c0.1,0.3,0.4,0.5,0.6,0.8c0,0.1,0,0.1,0,0.2c0,0,0-0.1,0-0.1c0,0,0-0.1-0.1-0.1
			C75.2,169.4,75.3,169.2,75.2,169.1z M74.2,185.1c0.1,0,0.1,0,0.2,0c0,0,0-0.1,0-0.1c-0.1-0.1-0.2-0.2-0.3,0
			c-0.1-0.4-0.5-0.4-0.8-0.6c-2.1-1-4.3-1.8-6.5-2.5c-3.1-1.1-6.3-2.1-9.3-3.5c-4.8-2.1-9.4-4.8-13.5-8.2c-2.8-2.3-5.3-5-7.6-7.8
			c-0.5-0.6-1-1.2-1.4-1.8c-0.1-0.2-0.2-0.4-0.4-0.6c0.1,0,0.2,0,0.2,0c0.5,0.5,1,1,1.5,1.5c2.5,2.8,5.3,5.4,8.2,7.8
			c4.1,3.5,8.7,6.2,13.6,8.4c2.4,1,4.8,1.9,7.2,2.9c1.7,0.7,3.4,1.3,5,1.9c1.9,0.8,3.8,1.7,5.5,2.9c0.2,0.1,0.3,0.2,0.5,0.3
			c0.2-0.3-0.1-0.4-0.1-0.5c-0.1-0.2-0.2-0.4-0.3-0.5c-0.8-1.2-1.5-2.3-2.3-3.5c-1.6-2.2-3.9-3.5-6.6-3.8c-0.7-0.1-1.4-0.1-2.1-0.2
			c-3.7-0.2-6.5-1.9-8.8-4.7c-0.8-1-1.5-2-2.3-3c-1.4-1.8-3.3-2.9-5.6-3.3c-1-0.2-2.1-0.4-3.1-0.5c-1.8-0.2-3.3-1.1-4.6-2.4
			c-0.6-0.6-1.1-1.2-1.7-1.7c-1.2-1.1-2.5-2-3.9-2.7c-1.5-0.8-3-1.4-4.6-1.9c-0.3,0.3,0,0.4,0,0.6c0.4,1.2,0.9,2.4,1.3,3.5
			c1.3,3.6,3,7,5.4,10c1.2,1.4,2.5,2.6,4,3.5c1.3,0.8,2.6,1.5,4,2.2c1.2,0.6,2.4,1.2,3.4,2.1c0.6,0.6,1.3,1.2,1.8,1.8
			c1.6,1.7,3.4,2.9,5.6,3.6c1.3,0.4,2.5,0.6,3.9,0.6c1.1,0,2.1-0.1,3.2-0.2c2.5-0.3,5.1-0.1,7.6,0.1c0.8,0.1,1.7,0.4,2.5,0.6
			c0.3,0.1,0.6,0.1,0.9,0.1C74.1,185,74.2,185,74.2,185.1z M44.9,186.8c1.1,1.3,1.8,2.7,2.5,4.2c0.7,1.6,1.4,3.1,2.2,4.7
			c1.3,2.4,2.9,4.4,5.4,5.8c1.1,0.6,2.1,1.4,3.2,2.1c1,0.7,1.7,1.8,2.3,2.9c0.4,0.8,0.8,1.7,1.2,2.5c1,1.9,2.5,3.3,4.5,4.1
			c0.6,0.2,1.2,0.4,1.8,0.6c2.6,0.6,5.3,1.3,7.9,1.9c0.2,0,0.3,0.1,0.5,0.1c0.2-0.2,0-0.4-0.1-0.5c-1.2-1.4-2.5-2.6-4-3.6
			c-1.7-1.1-3.3-2.2-5-3.3c-3.3-2.3-6.3-4.9-8.9-7.8c-1.7-1.8-3.3-3.8-4.6-5.9c-0.7-1.2-1.5-2.4-2.3-3.6c-0.1-0.2-0.2-0.3-0.3-0.5
			c0.4,0,0.6,0.2,0.7,0.4c0.6,0.8,1.2,1.6,1.8,2.3c2.5,3.1,5.1,6.1,7.9,8.9c2.4,2.4,5.1,4.5,7.9,6.4c1.3,0.9,2.5,1.8,3.8,2.7
			c1.6,1.1,2.9,2.5,4.1,4c0.2,0.2,0.3,0.4,0.5,0.6c0.2-0.2,0.1-0.4,0.1-0.6c-0.5-1.6-0.9-3.2-1.5-4.8c-0.8-2.3-2.1-4.2-4.1-5.7
			c-0.8-0.6-1.6-1.1-2.6-1.4c-0.9-0.4-1.8-0.7-2.8-1c-1.5-0.6-2.9-1.3-4.2-2.3c-0.9-0.7-1.6-1.5-2.2-2.5c-0.7-1.2-1.5-2.4-2.3-3.6
			c-0.6-1-1.5-1.8-2.3-2.5c-1.2-1-2.4-1.9-3.7-2.8c-2.4-1.6-5.1-2.4-8.2-2.8C44.3,186.1,44.6,186.5,44.9,186.8z M85.4,217.9
			c1-0.7,2-1.5,3-2.2c1.7-1.3,3-2.9,4.1-4.7c0.6-1.1,0.9-2.2,0.8-3.4c-0.3-2.9,0.2-5.6,1.2-8.3c0.3-0.9,0.6-1.8,0.9-2.7
			c0.6-1.9,0.9-3.8,0.9-5.8c0-3-0.5-5.9-1.4-8.7c0-0.1-0.1-0.2-0.2-0.4c-0.1,0.2-0.2,0.3-0.2,0.5c-0.7,2-1.7,3.8-2.9,5.5
			c-0.9,1.2-1.7,2.4-2.5,3.6c-1.3,2.2-1.9,4.5-1.5,7.1c0.1,0.9,0.2,1.9,0.3,2.8c0.3,2.3-0.1,4.5-1.3,6.5c-1.4,2.4-1.9,5-1.7,7.8
			c0,0.1,0.1,0.2,0.1,0.3c0.1-0.1,0.2-0.1,0.2-0.1c1-1.6,2-3.3,2.9-5c1.7-2.9,2.8-6,3.5-9.2c0.6-2.6,1-5.1,1.3-7.7
			c0-0.2,0.1-0.4,0.1-0.6c0.3,0,0.3,0.1,0.3,0.3c0.1,6.6-1.3,12.7-4.8,18.4c-1.1,1.7-2.1,3.5-3.2,5.2c-0.3,0.4-0.4,0.9-0.7,1.3
			c0.1,0.1,0.1,0.1,0.2,0.2C84.9,218.3,85.1,218.1,85.4,217.9z M84.1,167.5c-1.2-5.2-2.9-10.2-5.1-15.1c-0.2-0.4-0.4-0.9-0.6-1.3
			c-0.1-0.2-0.1-0.4,0-0.6c0.3,0.5,0.6,1.1,0.9,1.6c2.3,4.2,4.4,8.5,5.5,13.2c0.5,2,0.8,4,1.3,6c0.2,0.1,0.3-0.1,0.3-0.3
			c1.2-3,1.8-6,1.3-9.2c-0.4-2.4-1.6-4.3-3.3-5.9c-1.7-1.6-2.9-3.4-3.5-5.7c-0.3-1.1-0.6-2.1-1-3.2c-0.5-1.8-1.3-3.4-2.5-4.9
			c-0.6-0.8-1.4-1.4-2.1-2c-0.1-0.1-0.3-0.1-0.5-0.2c0,0.2-0.1,0.3-0.1,0.4c0.2,1.2,0.1,2.5-0.1,3.7c-0.1,0.8-0.1,1.5-0.2,2.3
			c-0.3,3,0.2,5.9,1.4,8.6c0.8,1.8,1.7,3.5,2.9,5.1c0.3,0.4,0.6,0.9,0.9,1.3c0.9,1.3,1.3,2.8,1.4,4.4c0,0.7,0.2,1.5,0.5,2.2
			c0.4,0.9,0.9,1.7,1.8,2.3c0.4,0.2,0.7,0.5,1.3,0.9C84.6,169.7,84.4,168.6,84.1,167.5z M95.8,161.4c-0.4,2.3-1,4.5-2,6.7
			c-0.9,2.1-2.2,4.1-3.6,5.8c0.1,0.1,0.1,0.2,0.1,0.2c0,0,0.1,0,0.1,0c0.6-0.3,1.2-0.6,1.8-1c2.6-1.7,4.5-4,5.8-6.8
			c0.3-0.7,0.6-1.5,0.7-2.3c0.1-0.8,0-1.6-0.2-2.4c-0.2-0.7-0.4-1.3-0.6-2c-0.3-1.1-0.3-2.2,0-3.3c0.2-0.8,0.4-1.5,0.6-2.3
			c0.4-1.7,0.5-3.4,0-5.1c-0.3-1.1-0.7-2.2-1.1-3.3c0-0.1-0.2-0.3-0.3-0.4c-0.1,0.1-0.2,0.2-0.2,0.3c-0.7,2.1-1.7,4-2.8,5.8
			c-1,1.7-1.8,3.6-2.2,5.5c-0.4,1.8-0.5,3.6-0.3,5.4c0.1,0.5,0.1,1.1,0.2,1.6c0.1,1.1-0.1,2.1-0.7,2.9c-1.2,1.7-1.3,3.6-1.2,5.8
			c0.2-0.2,0.3-0.4,0.5-0.5c1.7-2.4,2.9-5,3.7-7.8c0.8-2.8,1.3-5.6,1.6-8.4c0-0.5,0-1,0.3-1.4C96.2,156.7,96.2,159,95.8,161.4z
			 M89.2,230.1c1.9-2,4-3.8,5.7-6c1.3-1.7,2.4-3.5,3.2-5.5c1.1-2.4,2-4.8,2.8-7.3c0.1-0.3,0.2-0.6,0.4-0.9c0.1,0.1,0.2,0.2,0.2,0.2
			c-0.6,4.3-1.9,8.4-4.3,12c-1.4,2.2-3.2,4.2-5.2,6c-1.2,1.1-2.4,2.2-3.6,3.3c0,0,0,0.1,0,0.2c0.1,0,0.3,0,0.4,0
			c1.9-0.5,3.7-1,5.4-1.9c1.8-1,3.5-2.2,4.7-4c0.6-0.9,1-1.9,0.9-3c0-0.3,0-0.6-0.1-0.9c-0.1-1.4,0.3-2.8,1-4
			c0.2-0.4,0.5-0.8,0.7-1.2c1.4-2.4,2.1-4.9,2-7.7c-0.1-1.5-0.2-2.9-0.5-4.4c-0.4,0.1-0.4,0.5-0.6,0.7c-0.7,1.4-1.5,2.6-2.7,3.6
			c-0.2,0.2-0.4,0.4-0.6,0.6c-1,1-1.5,2.3-1.8,3.7c-0.1,0.6-0.2,1.1-0.3,1.7c-0.2,0.7-0.4,1.3-0.7,2c-0.3,0.7-0.8,1.3-1.5,1.5
			c-0.3,0.1-0.5,0.3-0.8,0.4c-1.1,0.5-1.8,1.4-2.2,2.5c-0.4,1-0.6,2.1-0.7,3.2c-0.1,0.5-0.1,1-0.2,1.5c-0.2,0.8-0.5,1.5-1.3,2
			c-0.8,0.4-1,1.1-1.1,2C88.9,230.3,89.1,230.2,89.2,230.1z"/>
	</g>
	<g>
		<defs>
			<path id="SVGID_1_" d="M200.4,246.6H22.9V95c0-46.8,37.9-84.7,84.7-84.7h8.1c46.8,0,84.7,37.9,84.7,84.7V246.6z"/>
		</defs>
		<clipPath id="SVGID_00000079469683123654815300000008266512635345525145_">
			<use xlink:href="#SVGID_1_"  style="overflow:visible;"/>
		</clipPath>
		<g style="clip-path:url(#SVGID_00000079469683123654815300000008266512635345525145_);">
			<path class="st6" d="M475.6,2.5c-0.1,0.9-0.2,1.9-0.5,2.8c-0.6,1.9-1.7,3.5-3.2,4.9c-1.4,1.3-2.9,2.4-4.5,3.4
				c-4,2.3-7.6,5-11.3,7.7c-1.1,0.8-2.1,1.6-3.2,2.3c-2.2,1.5-4.5,2.4-7.2,2.3c-1.3,0-2.5-0.4-3.7-0.8c-0.3-0.1-0.6-0.2-1.1-0.4
				c0.2,0.9,0.4,1.5,0.6,2.2c0.3,1,0.1,1.9-0.3,2.8c-0.1,0.3-0.3,0.5-0.5,0.8c-1.6,1.6-3.3,3.1-5.3,4.1c-1,0.5-1.9,1.1-2.8,1.8
				c-1.7,1.3-3.7,2.2-5.7,3c-1.3,0.5-2.7,0.8-4.1,1c-0.3,0-0.7,0.1-1,0.2c-2.3,0.6-4.7,1.2-7.1,1.6c-0.9,0.2-1.9,0.2-2.9,0.3
				c-1.5,0.1-3.1,0-4.6,0.1c-1.2,0-2.4-0.2-3.7-0.4c-1.9-0.2-3.7-0.7-5.6-0.9c-1-0.1-2-0.3-3.1-0.5c-1.6-0.2-3.1-0.5-4.7-0.6
				c-2.7-0.2-5.4-0.6-8.1-1.3c-1.7-0.4-3.3-0.8-5-1.3c-2-0.6-3.7-1.8-5.4-3c-0.3-0.2-0.5-0.6-1-0.5c-0.1,0-0.3-0.1-0.3-0.3
				c-1.4-2.2-2.7-4.4-3.2-7c-0.3-1.7-0.4-3.4-0.2-5.2c0.1-1.8,0.2-3.5,0.3-5.3c0-0.2,0-0.5,0-0.7c0-1-0.3-1.8-0.9-2.6
				c-2.5-3.2-3.8-6.8-4.1-10.8c-0.1-0.9,0-1.8-0.4-2.7c0-1.6-0.2-3.2,0.1-4.8c0.2-1,0.6-1.8,1.2-2.6c0.5-0.7,1-1.3,1.6-2
				c3.1-3.7,5.8-7.6,8.2-11.8c1.1-2,2.2-4,3.3-5.9c0.6-1,0.6-2,0.4-3c-0.2-1.4-0.5-2.9-0.7-4.3c-0.2-1.7-0.2-3.4,0.2-5.2
				c0.4-1.7,1.2-3.2,2.2-4.5c1.6-2.2,3.6-4,6.1-5.2c1.1-0.6,2.2-1.3,3.3-2c0.2-0.1,0.3-0.2,0.5-0.3c0.5-0.4,0.5-0.6,0.4-1.2
				c-0.3-0.9-0.6-1.8-1-2.7c-1.1-3.1-2.7-5.8-4.6-8.5c-0.7-0.9-1.3-1.9-2-2.8c-0.6-0.8-0.8-1-1.7-1.5c-0.2,0.1-0.4,0.3-0.6,0.4
				c-1.3,0.8-2.6,1.7-3.9,2.5c-1.2,0.8-2.5,1.2-3.8,1.5c-0.6,0.1-1.3,0.1-1.9,0c-0.4,0-0.7-0.3-1-0.5c-0.6-0.5-1-1.2-1.3-1.9
				c-0.2-0.5-0.3-1-0.5-1.5c-0.1-0.4-0.3-0.8-0.5-1.2c-0.2-0.4-0.5-0.7-0.9-0.8c-0.3-0.1-0.6-0.3-0.9-0.4c-0.9-0.5-1.5-1.2-1.7-2.2
				c0-0.3-0.1-0.5-0.2-0.8c-0.2,0.1-0.4,0.1-0.6,0.1c-0.9,0.3-1.7,0-2.2-0.7c-0.2-0.3-0.4-0.6-0.6-0.8c-0.3-0.4-0.5-0.7-0.8-1.1
				c-0.2,0-0.4,0-0.6,0.1c-0.7,0.2-1.4,0.2-2.1,0.2c-1.5,0-2.7-1-3-2.5c0-0.2,0-0.5,0-0.7c0-2.4-0.4-4.7-0.9-7.1
				c-0.4-1.6-0.7-3.2-1.3-4.8c-0.2-0.5-0.4-0.9-0.8-1.2c-1.5-1.3-2.3-3-2.8-4.9c-0.4-1.6-0.5-3.3-0.4-4.9c0.1-2.7,0.1-5.4-0.1-8
				c-0.1,0-0.2,0-0.2,0c-0.8,0.4-1.5,0.6-2.4,0.4c-1-0.3-2-0.7-2.7-1.5c-2-2.3-2.3-5.4-0.1-7.8c0.6-0.6,1.2-1.1,1.9-1.7
				c0.2-0.2,0.5-0.4,0.8-0.6c0-0.2,0-0.4,0-0.7c0-0.8,0.2-1.4,0.6-2.1c0.5-0.8,0.9-1.5,1.3-2.3c0.2-0.3,0.2-0.6,0.4-1
				c0.2-0.5,0.2-0.9-0.1-1.4c-0.5-1.1-0.9-2.3-1.1-3.5c-0.3-1.6-0.4-3.3,0.1-4.9c0.9-2.6,3.2-4.4,6-4.4c0.3,0,0.7,0,1.1,0
				c0.2-1.6,0.9-3,1.9-4.2c1.4-1.7,3.1-2.7,5.3-2.8c1,0,1.9-0.1,2.9-0.2c1.7-0.1,3.3-0.5,4.9-1c0.2-0.5,0.4-0.9,0.6-1.3
				c0.7-1.5,2.4-2,3.7-1.8c1.2,0.2,1.3,0.3,2,1.2c0.3-0.1,0.6-0.1,0.8-0.2c1.9-0.7,3.8-1.1,5.8-1.6c1.9-0.5,3.8-0.7,5.8-1
				c1.9-0.3,3.8-0.3,5.6-0.2c3.7,0.2,7.3,1,10.6,2.8c2.5,1.4,5,2.9,7.2,4.9c2.3,2.1,4.3,4.4,5.8,7.1c0.3,0.6,0.7,1.2,1,1.8
				c0.1,0.2,0.2,0.4,0.4,0.6c0.1-0.4,0.2-0.6,0.3-0.8c0.3-1,0.7-1.9,1.4-2.6c1-1.2,2.3-1.8,3.9-1.9c1.3,0,2.4,0.2,3.6,0.6
				c1.8,0.6,3.5,1.5,5,2.6c2.2,1.6,4.2,3.3,6,5.2c3.2,3.3,4.7,7.3,4.7,11.9c0,2-0.1,4.1-0.5,6.1c-0.6,2.6-1.5,5.2-3.1,7.4
				c-1.8,2.5-4,4.4-7,5.3c-2,0.6-4.1,0.7-6.1,0.3c-0.4-0.1-0.8-0.2-1.2-0.3c-1.3-0.3-2.5-0.8-3.6-1.6c-0.3-0.2-0.6-0.4-1.1-0.7
				c0.3,1.7,0.2,3.2-0.6,4.6c0.5,0.3,0.9,0.6,1.4,0.9c0.7,0.5,1.3,1.2,1.6,2.1c0.1,0.4,0.4,0.6,0.7,0.9c1.4,1.2,1.8,2.8,1.7,4.6
				c-0.1,1.4-0.5,2.7-1.4,3.9c-0.2,0.2-0.3,0.5-0.4,0.7c-0.6,1.5-1.7,2.1-3.2,2.3c-0.8,0.1-1.7,0-2.5-0.3c-0.2-0.1-0.5-0.2-0.9-0.3
				c0.2,0.5,0.2,0.8,0.4,1.1c1.1,2.9,2.5,5.7,4,8.4c1.2,2.3,2.6,4.4,4.1,6.5c2,2.7,3.9,5.6,6.1,8.1c1.7,2,3.4,3.9,5.1,5.8
				c0.7,0.8,1.5,1.6,2.2,2.5c0.4,0.5,1,0.8,1,1.5c0,0.1,0.1,0.1,0.1,0.2c0.6,0.6,1.2,1.3,1.9,1.9c1.4,1.2,2.7,2.4,4,3.7
				c1.3,1.2,2.6,2.4,3.9,3.6c2.4,2.2,4.9,4.3,7.4,6.5c2.6,2.3,4.8,5,6.9,7.7c0.8,1.1,1.6,2.3,2.4,3.4c3.2,4.7,5.6,9.8,7.6,15.1
				c1.1,3.1,2.1,6.2,3.2,9.3c0.1,0.3,0.2,0.5,0.3,0.7C475.6,0.3,475.7,1.4,475.6,2.5z"/>
			<g>
				<path class="st1" d="M475-0.6c-0.1-0.2-0.2-0.5-0.3-0.7c-1.1-3.1-2-6.2-3.2-9.3c-1.9-5.3-4.4-10.4-7.6-15.1
					c-0.8-1.1-1.6-2.3-2.4-3.4c-2.1-2.8-4.3-5.4-6.9-7.7c-2.4-2.2-4.9-4.3-7.4-6.5c-1.3-1.2-2.6-2.4-3.9-3.6c-1.3-1.3-2.6-2.5-4-3.7
					c-0.7-0.6-1.3-1.2-1.9-1.9c-0.1-0.1-0.1-0.1-0.1-0.2c0-0.7-0.6-1-1-1.5c-0.7-0.8-1.5-1.7-2.2-2.5c-1.7-1.9-3.4-3.8-5.1-5.8
					c-2.2-2.6-4.1-5.4-6.1-8.1c-1.5-2.1-2.9-4.3-4.1-6.5c-1.5-2.7-2.9-5.5-4-8.4c-0.1-0.3-0.2-0.6-0.4-1.1c0.4,0.1,0.6,0.2,0.9,0.3
					c0.8,0.3,1.6,0.4,2.5,0.3c1.5-0.2,2.6-0.8,3.2-2.3c0.1-0.2,0.2-0.5,0.4-0.7c0.9-1.1,1.3-2.5,1.4-3.9c0.1-1.8-0.3-3.4-1.7-4.6
					c-0.3-0.3-0.5-0.5-0.7-0.9c-0.3-0.9-0.9-1.5-1.6-2.1c-0.4-0.3-0.9-0.6-1.4-0.9c0.8-1.4,0.9-2.9,0.6-4.6c0.4,0.3,0.7,0.5,1.1,0.7
					c1.1,0.7,2.3,1.3,3.6,1.6c0.4,0.1,0.8,0.2,1.2,0.3c2.1,0.4,4.1,0.3,6.1-0.3c3-0.9,5.3-2.8,7-5.3c1.6-2.2,2.5-4.7,3.1-7.4
					c0.4-2,0.5-4,0.5-6.1c-0.1-4.6-1.6-8.6-4.7-11.9c-1.8-1.9-3.9-3.6-6-5.2c-1.5-1.1-3.2-2-5-2.6c-1.2-0.4-2.4-0.6-3.6-0.6
					c-1.6,0.1-2.9,0.7-3.9,1.9c-0.7,0.8-1.1,1.6-1.4,2.6c-0.1,0.3-0.2,0.5-0.3,0.8c-0.2-0.3-0.3-0.4-0.4-0.6c-0.4-0.6-0.7-1.2-1-1.8
					c-1.5-2.7-3.5-5.1-5.8-7.1c-2.2-2-4.7-3.5-7.2-4.9c-3.3-1.8-6.9-2.6-10.6-2.8c-1.9-0.1-3.8-0.1-5.6,0.2c-1.9,0.3-3.9,0.5-5.8,1
					c-1.9,0.5-3.9,0.9-5.8,1.6c-0.3,0.1-0.6,0.1-0.8,0.2c-0.8-1-0.8-1-2-1.2c-1.3-0.2-2.9,0.3-3.7,1.8c-0.2,0.4-0.4,0.8-0.6,1.3
					c-1.6,0.5-3.2,0.9-4.9,1c-1,0-1.9,0.1-2.9,0.2c-2.2,0.1-4,1.1-5.3,2.8c-1,1.2-1.7,2.5-1.9,4.2c-0.4,0-0.7,0-1.1,0
					c-2.8,0-5.1,1.8-6,4.4c-0.5,1.6-0.4,3.3-0.1,4.9c0.2,1.2,0.6,2.4,1.1,3.5c0.2,0.5,0.3,0.9,0.1,1.4c-0.1,0.3-0.2,0.7-0.4,1
					c-0.4,0.8-0.8,1.6-1.3,2.3c-0.4,0.6-0.6,1.3-0.6,2.1c0,0.2,0,0.5,0,0.7c-0.3,0.2-0.5,0.4-0.8,0.6c-0.6,0.6-1.3,1.1-1.9,1.7
					c-2.2,2.4-1.9,5.6,0.1,7.8c0.7,0.8,1.6,1.2,2.7,1.5c0.9,0.2,1.7,0.1,2.4-0.4c0.1,0,0.2,0,0.2,0c0.2,2.7,0.1,5.4,0.1,8
					c0,1.7,0.1,3.3,0.4,4.9c0.4,1.9,1.3,3.6,2.8,4.9c0.4,0.4,0.6,0.7,0.8,1.2c0.6,1.6,0.9,3.2,1.3,4.8c0.5,2.3,1,4.7,0.9,7.1
					c0,0.2,0,0.5,0,0.7c0.2,1.5,1.4,2.5,3,2.5c0.7,0,1.4,0,2.1-0.2c0.2-0.1,0.4,0,0.6-0.1c0.3,0.4,0.5,0.8,0.8,1.1
					c0.2,0.3,0.4,0.6,0.6,0.8c0.6,0.7,1.3,1,2.2,0.7c0.2-0.1,0.4-0.1,0.6-0.1c0.1,0.3,0.1,0.6,0.2,0.8c0.2,1,0.8,1.7,1.7,2.2
					c0.3,0.2,0.6,0.3,0.9,0.4c0.4,0.2,0.7,0.5,0.9,0.8c0.2,0.4,0.3,0.8,0.5,1.2c0.2,0.5,0.3,1,0.5,1.5c0.3,0.7,0.7,1.4,1.3,1.9
					c0.3,0.2,0.6,0.5,1,0.5c0.6,0.1,1.3,0.1,1.9,0c1.3-0.3,2.7-0.7,3.8-1.5c1.3-0.9,2.6-1.7,3.9-2.5c0.2-0.1,0.4-0.3,0.6-0.4
					c0.9,0.5,1.1,0.6,1.7,1.5c0.7,0.9,1.3,1.9,2,2.8c1.9,2.6,3.5,5.4,4.6,8.5c0.3,0.9,0.7,1.8,1,2.7c0.2,0.6,0.1,0.8-0.4,1.2
					c-0.2,0.1-0.3,0.2-0.5,0.3c-1.1,0.7-2.1,1.4-3.3,2c-2.5,1.2-4.4,3-6.1,5.2c-1,1.4-1.8,2.8-2.2,4.5c-0.4,1.7-0.4,3.4-0.2,5.2
					c0.2,1.4,0.5,2.9,0.7,4.3c0.1,1,0.2,2-0.4,3c-1.2,1.9-2.2,4-3.3,5.9c-2.3,4.2-5.1,8.1-8.2,11.8c-0.5,0.6-1.1,1.3-1.6,2
					c-0.6,0.8-1,1.6-1.2,2.6c-0.3,1.6-0.1,3.2-0.1,4.8c0.4,0.9,0.4,1.8,0.4,2.7c0.3,4,1.6,7.7,4.1,10.8c0.6,0.8,0.9,1.6,0.9,2.6
					c0,0.2,0,0.5,0,0.7c-0.1,1.8-0.2,3.5-0.3,5.3c-0.1,1.7-0.1,3.4,0.2,5.2c0.5,2.6,1.8,4.8,3.2,7c0.1,0.1,0.2,0.3,0.3,0.3
					c0.5-0.1,0.7,0.3,1,0.5c1.7,1.3,3.4,2.4,5.4,3c1.6,0.5,3.3,0.9,5,1.3c2.6,0.7,5.3,1.1,8.1,1.3c1.6,0.1,3.1,0.4,4.7,0.6
					c1,0.1,2,0.4,3.1,0.5c1.9,0.1,3.7,0.6,5.6,0.9c1.2,0.2,2.4,0.4,3.7,0.4c1.5,0,3.1,0,4.6-0.1c1,0,1.9-0.1,2.9-0.3
					c2.4-0.4,4.7-1,7.1-1.6c0.3-0.1,0.7-0.2,1-0.2c1.4-0.2,2.8-0.4,4.1-1c2-0.8,3.9-1.7,5.7-3c0.9-0.7,1.8-1.3,2.8-1.8
					c2-1.1,3.8-2.5,5.3-4.1c0.2-0.2,0.4-0.5,0.5-0.8c0.4-0.9,0.6-1.8,0.3-2.8c-0.2-0.7-0.4-1.3-0.6-2.2c0.5,0.2,0.8,0.2,1.1,0.4
					c1.2,0.4,2.4,0.8,3.7,0.8c2.7,0,5-0.9,7.2-2.3c1.1-0.7,2.1-1.5,3.2-2.3c3.7-2.7,7.4-5.4,11.3-7.7c1.6-0.9,3.1-2.1,4.5-3.4
					c1.5-1.3,2.6-3,3.2-4.9c0.3-0.9,0.4-1.9,0.5-2.8C475.7,1.4,475.6,0.3,475-0.6z M440.2,28.9c-0.3,0.5-0.5,1-0.8,1.5
					c-0.1,0.2-0.3,0.3-0.5,0.5c-1.4,0.9-2.9,1.8-4.3,2.7c-1,0.6-2,1.3-3,2c-1.8,1.3-3.8,2.2-6,2.9c-1,0.3-2.1,0.6-3.1,0.7
					c-0.3,0-0.7,0.1-1,0.2c-1.8,0.5-3.6,0.9-5.5,1.4c-1.6,0.4-3.3,0.5-4.9,0.6c-1.2,0.1-2.4,0.1-3.6,0.1c-1.3,0-2.6-0.2-3.9-0.4
					c-2.2-0.4-4.4-0.8-6.6-1c-1-0.1-2-0.4-3.1-0.5c-1.2-0.2-2.4-0.3-3.5-0.4c-2.7-0.3-5.4-0.6-8.1-1.2c-1.9-0.5-3.7-0.8-5.6-1.4
					c-1.1-0.4-2.1-0.8-3-1.4c-0.5-0.3-1.1-0.6-1.6-0.9c-0.4-0.3-0.8-0.5-1.2-0.8c-0.4-0.3-0.6-0.7-0.8-1.1c-0.5-1.6-1-3.1-1.4-4.7
					c-0.5-1.7-0.6-3.5-0.6-5.2c0-1.3,0-2.6,0-3.9c0-0.9-0.2-1.8-0.3-2.6c0-0.2,0-0.3,0-0.5c0.7,0.3,1.1,0.9,1.7,1.2
					c0.6,0.3,1.1,0.6,1.7,0.9c0.6,0.3,1.2,0.5,2.1,0.8c-0.2-0.3-0.2-0.4-0.3-0.5c-1.2-1-2.4-2-3.5-2.9c-2.2-1.8-3.8-4.1-5-6.7
					c-0.8-1.7-1.3-3.4-1.6-5.3c-0.2-1.2-0.4-2.4-0.5-3.6c0-0.5,0-1,0.1-1.5c0.2-0.8,0.4-1.6,0.6-2.5c0.2-0.7,0.5-1.4,0.9-1.9
					c0.4-0.5,0.7-0.9,1.1-1.3c3.6-4.2,6.6-8.7,9.1-13.7c0.8-1.6,1.6-3.1,2.4-4.7c1.2-2.5,2.1-5.2,2.7-7.9c0.1-0.4,0.2-0.7,0-1.3
					c-0.4,1.1-0.6,2-1,3c-0.3,0.9-0.7,1.8-1,2.6c-0.4,0-0.4-0.2-0.4-0.4c-0.2-1.4-0.2-2.9-0.1-4.4c0-0.7,0.1-1.5,0.1-2.2
					c0-2.4,0.8-4.5,2.3-6.4c1.5-2,3.3-3.7,5.4-5c1.5-0.9,2.8-2,4-3.3c0-0.1,0.1-0.1,0.3-0.1c0.3,0.8,0.7,1.6,1,2.4
					c0.3-0.1,0.2-0.4,0.2-0.5c-0.8-4.8-2.4-9.4-5.4-13.3c-1.1-1.4-2.2-2.8-3.3-4.2c-0.4-0.5-0.9-1-1.5-1.3c-0.2-0.1-0.3-0.3-0.3-0.5
					c-1.1,0.4-2,0.7-2.9,1.3c-0.7,0.5-1.5,1-2.2,1.5c-1.1,0.8-2.4,1.3-3.7,1.8c-0.4,0.1-0.8,0.1-1.2-0.2c-1-0.6-1.8-1.4-2.1-2.6
					c-0.1-0.4-0.3-0.8-0.4-1.2c-0.2-0.5-0.4-1-0.7-1.5c-0.3-0.5-0.7-1-1.4-1.1c-1.5-0.3-2.4-1.3-2.6-2.8c0-0.2-0.1-0.3-0.2-0.5
					c-0.5-0.1-1-0.1-1.4,0.1c-0.3,0.1-0.6,0-0.9-0.1c-0.2-0.1-0.4-0.3-0.5-0.4c-0.5-0.5-1-1-1.5-1.6c-0.3-0.4-0.6-0.5-1.1-0.4
					c-0.6,0.1-1.1,0.2-1.7,0.3c-1.3,0.1-2.2-0.6-2.3-1.8c-0.1-0.6,0-1.3-0.1-2c-0.1-0.8-0.1-1.7-0.3-2.5c-0.6-2.7-1.2-5.5-2.4-8
					c0,0,0-0.1-0.1-0.1c-0.1-1.2-0.9-2-1.5-2.9c-0.2-0.3-0.4-0.6-0.6-1c-0.4-0.5-0.6-1.1-0.7-1.8c-0.4-2-0.6-3.9-0.4-5.9
					c0.1-1.9,0.3-3.8,0.1-5.7c-0.1-0.7-0.2-1.4-0.4-2c-0.1-0.2-0.2-0.5-0.4-0.8c-0.1,0.2-0.2,0.3-0.2,0.4c-0.5,0.9-1.3,0.9-2.2,0.7
					c-2.6-0.7-3.5-2.8-3.6-4.6c0-0.5,0.1-1.1,0.4-1.6c0.3-0.6,0.7-1.1,1.1-1.6c0.5-0.6,1.2-1.1,1.8-1.6c1.6-1.1,3-2.5,4.5-3.8
					c0.1-0.1,0.2-0.3,0.4-0.5c-0.7,0-1.2,0.5-1.7,0.7c-0.5,0.2-0.9,0.5-1.4,0.8c-0.5,0.3-1,0.6-1.6,0.9c0-0.2,0-0.4,0-0.5
					c0.1-0.6,0.4-1.2,0.8-1.6c1.2-1.5,1.9-3.2,2.2-5.1c0.3-1.5,0.3-3,0.2-4.6c-0.4,0.1-0.3,0.4-0.4,0.6c-0.2,1-0.3,2-0.5,3.1
					c0,0.2-0.1,0.3-0.1,0.5c-0.3,0-0.3-0.2-0.3-0.3c-0.6-1.7-0.8-3.4-0.7-5.2c0.1-2.3,1.2-4.1,3.3-5.2c1.2-0.6,2.5-1.1,3.9-1.3
					c0.2-0.3-0.1-0.3-0.2-0.5c0.4-1.2,1.1-2.4,2-3.3c1.3-1.5,3-2.4,5-2.4c1.2,0,2.5,0.1,3.7-0.2c0.6-0.1,1.1-0.2,1.7-0.4
					c0.9-0.4,1.8-0.9,2.7-1.3c0.3-0.2,0.6-0.3,0.4-0.8c0.3-0.6,0.7-1.2,1.3-1.5c0.9-0.5,1.9-0.3,2.8,0c0.1,0.1,0.2,0.3,0.3,0.5
					c0.7,0.2,1.5,0,2.2-0.2c1.9-0.5,3.8-0.7,5.6-1.1c2.5-0.5,5.1-0.6,7.7-0.9c0.3,0,0.7,0,1,0c1.2,0.1,2.5,0.1,3.7,0.2
					c2.6,0.3,5.2,0.8,7.5,2c2.9,1.5,5.7,3.3,8.2,5.5c1.2,1.1,2.3,2.3,3.3,3.5c1.3,1.5,2.7,3.1,4,4.6c0.2,0.3,0.5,0.5,0.8,0.7
					c0,0.8,0.1,1.6,0.1,2.4c-0.4,0.1-0.5-0.2-0.6-0.4c-1-1.1-1.9-2.3-2.9-3.4c-2.1-2.4-4.5-4.3-7.2-5.8c-1.8-1-3.8-1.7-5.8-2.1
					c-1.4-0.2-2.7-0.4-4.2-0.3c0.4,0.3,0.7,0.3,1.1,0.4c1.3,0.3,2.7,0.6,4,0.9c2.2,0.5,4.1,1.4,6,2.7c2.1,1.4,4.1,3,5.8,4.9
					c1,1,1.9,2.1,2.9,3.1c0.1,0.1,0.3,0.3,0.4,0.4c0.3,0.3,0.7,0.5,0.9,0.9c0.2,0.3,0.3,0.6,0.6,1.2c0.1-0.9,0-1.4,0-2
					c-0.1-1.2,0-2.3,0.3-3.4c0.3-1.4,1.1-2.4,2.3-3.2c0.8-0.5,1.8-0.7,2.7-0.6c2,0.2,3.8,1,5.5,1.9c1.6,0.8,2.9,2,4.3,3.1
					c0.8,0.7,1.6,1.4,2.3,2.1c2.7,2.4,4.4,5.4,5.1,8.9c0.3,1.7,0.4,3.5,0.3,5.3c-0.1,2.3-0.5,4.6-1.3,6.7c-0.8,2.2-2,4.2-3.7,5.9
					c-2.2,2.2-4.8,3.4-7.8,3.5c-2.7,0.1-5.4-0.3-7.8-1.9c-0.2-0.1-0.3-0.2-0.5-0.4c0.1-0.2,0.1-0.4,0.2-0.6c0.5-1.4,0.8-2.9,0.8-4.5
					c0.3,0.1,0.5,0.1,0.7,0.1c1.2,0.6,2.4,0.9,3.7,1.2c1.9,0.3,3.6-0.1,5.2-1.1c0.9-0.6,1.7-1.3,2.3-2.2c1.3-1.8,2.2-3.8,2.7-5.9
					c0.4-2.2,0.4-4.4-0.3-6.6c-0.6-1.9-1.5-3.6-2.6-5.2c0-0.1-0.1-0.1-0.2-0.1c-0.2,0.1-0.1,0.3,0,0.5c0.7,1.9,1.4,3.7,1.8,5.7
					c0.6,2.7,0.5,5.3-0.5,7.8c-0.5,1.3-1.1,2.5-1.9,3.6c-1.2,1.6-2.7,2.8-4.8,3.1c-1,0.2-1.9,0.1-2.9-0.1c-1.1-0.2-2.2-0.5-3.1-1
					c-0.2-1.6-0.4-3.2-1-4.7c-0.3,0-0.3,0.2-0.3,0.4c0.1,0.6,0.2,1.3,0.4,1.9c0.2,1.3,0.2,2.7,0,4c-0.2,1.1-0.2,2.3-0.4,3.5
					c-0.5,0.2-0.3-0.6-0.7-0.5c-0.2,0.1-0.2,0.3-0.1,0.5c0,0.8,0,1.7,0.1,2.5c0,0.7,0.1,1.4-0.2,2.1c-0.2-0.1-0.3-0.2-0.4-0.3
					c-0.5-0.4-0.9-0.7-1.4-1.1c-0.1-0.1-0.4,0-0.7-0.1c0.3,0.3,0.5,0.5,0.7,0.7c1.1,0.8,1.6,1.9,1.7,3.3c0.1,1.1,0.1,2.1,0.2,3.2
					c0,0.2,0.1,0.4,0.1,0.7c0.5-0.6,0.5-0.6,0.7-1.3c0.1-0.5,0.1-1.1,0.1-1.6c0-0.5-0.1-1-0.2-1.6c0.3,0.1,0.4,0.2,0.5,0.3
					c1.1,0.9,1.4,2.1,1.5,3.5c0.1,0.8,0,1.6,0.1,2.4c0,0.3,0,0.5,0.1,0.8c0.2,0.1,0.3-0.1,0.4-0.2c0.3-0.8,0.5-1.6,0.5-2.5
					c0-0.2,0-0.4,0-0.7c0.2,0.1,0.3,0.2,0.3,0.2c0.7,1.1,0.9,2.3,0.7,3.6c-0.2,1-0.5,1.8-1.1,2.6c-0.3,0.5-0.6,0.9-0.6,1.5
					c-0.2,1-0.8,1.5-1.7,1.8c-1.3,0.4-2.7,0.2-3.9-0.4c-0.5-0.2-0.5-0.4-0.7-1.3c3.6-0.2,4.6-1.9,4.8-4c-0.2,0.1-0.3,0.2-0.4,0.3
					c-0.2,0.3-0.4,0.6-0.6,0.8c-1,1.2-2.3,1.8-3.9,1.9c-2.1,0.1-3.9-0.7-5.4-2.1c-0.1-0.1-0.1-0.1-0.1-0.2c0,0,0-0.1,0-0.2
					c0.3-0.1,0.6-0.1,1,0c0.7,0,1.4-0.1,2.1-0.3c1.5-0.4,2.6-1.3,3.1-2.8c0.1-0.4,0.4-0.9,0.3-1.6c-0.3,0.4-0.5,0.6-0.6,0.8
					c-0.5,0.6-0.9,1.2-1.5,1.7c-0.9,0.8-2,1.1-3.2,1.2c-1.8,0.2-3.5-0.4-5.1-1.2c-0.3-0.2-0.7-0.3-0.9-0.6c0.2-0.3,0.4-0.2,0.6-0.2
					c1.5,0,2.8-0.5,4-1.3c1.1-0.7,1.7-1.6,2.1-2.8c0.2-0.6,0.4-1.2,0.4-1.9c-0.2-0.1-0.3,0-0.4,0.2c-0.5,0.9-1,1.8-1.7,2.6
					c-1.5,1.7-4.9,3.1-8,1.7c-1-0.4-1.7-1.1-2.3-2.1c0.4-0.2,0.7-0.1,1.1-0.1c1.1,0,2.2-0.2,3.3-0.5c1.2-0.3,2.3-1,3.2-2
					c0.5-0.5,0.9-1.1,1.3-1.6c0.1-0.1,0-0.2,0.1-0.4c-0.4,0.3-0.7,0.5-1,0.7c-1.4,1.1-2.9,1.9-4.6,2.3c-2.9,0.8-5.6,0.3-8.2-1.1
					c0.2-0.3,0.4-0.2,0.6-0.2c0.3,0,0.5,0,0.8,0c0.2,0,0.5-0.1,0.7-0.1c0.2,0,0.5-0.1,0.7-0.1c0.3-0.1,0.5-0.1,0.8-0.2
					c0.2-0.1,0.4-0.1,0.6-0.2c0.3-0.1,0.5-0.2,0.7-0.3c0.2-0.1,0.4-0.2,0.6-0.4c0.2-0.1,0.4-0.3,0.5-0.4c0.2-0.2,0.4-0.4,0.6-0.5
					c0.2-0.2,0.3-0.3,0.5-0.5c0.2-0.2,0.3-0.3,0.5-0.5c0.2-0.2,0.4-0.4,0.5-0.6c0.1-0.2,0.2-0.3,0.4-0.5c-0.3-0.2-0.5,0.1-0.7,0.2
					c-1.2,0.6-2.3,1.4-3.5,1.9c-1.5,0.7-3,1.1-4.7,1c-0.4,0-0.8-0.1-1.3-0.2c-1-0.3-2.1-0.5-3.1-0.8c-0.2-0.1-0.5-0.1-0.6-0.4h0
					c0,0,0,0,0,0c-0.3,0.1-0.5,0-0.5-0.3h0c0,0-0.1,0.1-0.1,0.1c0,0,0-0.1,0-0.1h0.1c0,0,0,0,0,0c0.1,0,0.2,0.1,0.3,0.1
					c0.1,0.1,0.2,0.1,0.3,0.2c0,0,0,0,0,0c0,0,0,0,0,0c0.3,0,0.7,0,1,0c2.6,0.4,5.1,0,7.6-0.9c1.8-0.6,3.2-1.7,4.3-3.1
					c0.3-0.4,0.6-0.7,0.9-1.2c-0.4-0.1-0.6,0.1-0.8,0.3c-1,0.9-2.1,1.6-3.3,2.2c-1.9,1-3.9,1.5-6,1.8c-1.8,0.2-3.6,0-5.3-0.6
					c-1-0.3-2.1-0.5-3-1.2v-1.4c2.3,0.6,4.5,0.4,6.7-0.2c1.2-0.3,2.4-0.7,3.5-1.3c-0.6-0.1-1.3,0.1-1.9,0.2
					c-1.7,0.2-3.5,0.5-5.2,0.8c-1.3,0.2-2.3,0.1-3.2-0.2c-0.2-0.4-0.2-0.9-0.2-1.5c0.2,0,0.5-0.1,0.7-0.1c2.1,0.1,3.9-0.6,5.5-1.9
					c0.1,0,0.1-0.1,0.1-0.2c-0.2-0.2-0.4,0-0.6,0c-0.9,0.3-1.7,0.6-2.6,1c-1,0.4-2,0.6-3.1,0.6c-0.3-0.3-0.3-0.6-0.4-1
					c-0.4-1.6-1.1-3.1-2.1-4.5c-0.7-1-1.7-1.7-2.8-2.2c-0.8-0.4-1.6-0.4-2.5-0.3c-0.2-0.2,0-0.4,0-0.6c0.2-0.8,0.2-1.5-0.1-2.3
					c-0.2-0.5-0.4-1-0.7-1.5c-1.3-2.4-2-5.1-2.3-7.8c-0.1-0.8-0.2-1.7-0.3-2.5c0-0.1-0.1-0.3-0.2-0.5c-0.1,0.2-0.2,0.3-0.2,0.4
					c-0.8,3.5-0.1,6.7,1.5,9.8c0.4,0.7,0.8,1.4,1.2,2.1c0.3,0.6,0.5,1.2,0.5,1.9c0,0.7-0.2,1.3-1,1.5c-0.2,0.1-0.3,0.2-0.5,0.3
					c-1.1,0.5-1.8,1.4-2.1,2.6c-0.2,0.9-0.6,1.7-0.9,2.6c-0.4,1.1-1.2,1.9-2.4,2.4c-0.1,0-0.2,0-0.3,0c0,0-0.1,0-0.1-0.1
					c1.2-1.2,2.2-2.5,2.1-4.5c-0.2,0.2-0.4,0.3-0.5,0.5c-0.5,0.7-0.9,1.4-1.5,2.1c-0.4,0.6-0.9,1.1-1.4,1.6c-0.7,0.6-1.6,1-2.5,0.9
					c-0.8,0-1.5-0.1-2.3-0.2c-0.1-0.3,0-0.4,0.2-0.5c0.8-0.6,1.5-1.2,2.1-2c1-1.2,1.6-2.6,1.7-4.2c-0.3-0.2-0.4,0.1-0.4,0.2
					c-0.6,1-1.2,2.1-1.9,3c-1,1.4-2.3,2.6-4,3.2c-1.4,0.5-2.8,0.8-4.3,0.3c0.1-0.1,0.2-0.3,0.4-0.4c1.1-0.6,2-1.3,2.8-2.2
					c0.9-1,1.4-2.3,1.4-3.6c-0.2,0.2-0.4,0.4-0.5,0.5c-0.7,1.1-1.6,2.1-2.6,3.1c-0.9,0.9-2,1.5-3.2,1.9c-1.5,0.5-3,0.4-4.6-0.3
					c1-0.4,2-0.7,2.9-1.3c0.8-0.5,1.6-1.2,2.3-1.9c0.7-0.8,1.2-1.6,1.5-2.6c-0.2,0.2-0.4,0.3-0.6,0.5c-1,0.9-1.9,1.8-2.9,2.6
					c-0.6,0.5-1.3,0.9-2,1.3c-0.7,0.4-1.5,0.6-2.3,0.6c-0.1,0-0.2,0-0.4-0.1c2.7-1.9,4.8-4.2,5.1-7.8c-0.2,0.2-0.4,0.3-0.5,0.4
					c-0.7,1.1-1.3,2.2-2,3.2c-0.6,1-1.3,1.9-2.2,2.6c-0.5,0.4-1,0.7-1.5,1c-0.7,0.4-1.5,0.5-2.2,0c-0.3,0.3-0.1,0.5,0.1,0.7
					c0.4,0.3,0.9,0.4,1.4,0.3c0.8,0,1.8,0.2,2.4,0.6c0.4,0.2,0.8,0.5,1.2,0.7c1.4,0.7,2.9,0.8,4.4,0.5c0.2-0.1,0.5-0.1,0.7-0.2
					c0.4,0.2,0.9,0.4,1.4,0.5c1.1,0.3,2.3,0.2,3.4-0.1c0.3-0.1,0.7-0.2,1-0.3c0.5-0.3,1-0.3,1.5,0c1,0.4,2,0.5,3,0.6
					c0.5,0,1,0,1.5-0.3c0.4-0.2,0.8-0.3,1.3-0.3c0.5,0,1-0.1,1.5-0.3c1.4-0.5,2.3-1.5,2.8-2.8c0.1-0.4,0.1-0.8,0.1-1.1
					c0-1.4,0.6-2.4,1.7-3c0.7-0.4,1.4-0.7,2.3-0.8c0.9-0.1,1.7,0.1,2.5,0.5c1.6,1,2.5,2.4,3.2,4.1c0.7,2,1.1,4,1.2,6.1
					c0,2.2,0,4.5-0.5,6.7c-0.1,0.6-0.3,1.1-0.5,1.7c-0.2,0.4-0.4,0.8-0.7,1.2c-0.5,0.7-0.8,0.8-1.7,0.5c-0.1,0-0.3-0.1-0.4-0.1
					c0,0-0.1,0-0.1,0.1c0.2,0.6,0.6,0.9,1.1,1.2c0.3,0.2,0.7,0.1,1-0.1c0.5-0.3,0.9-0.8,1.2-1.4c0.5-0.9,0.8-1.9,1-2.9
					c0.3-1.6,0.5-3.1,0.4-4.7c0-0.3,0-0.5,0-0.8c0.3-0.1,0.4,0.1,0.5,0.2c0.4,0.3,0.8,0.6,1.2,0.9c1.5,1.2,3.1,2.1,4.9,2.7
					c0.9,0.3,1.7,0.7,2.4,1.2c1.3,0.9,2.6,1.6,4.1,2c0.3,0.1,0.6,0.1,1,0.2c0.1,0.2,0.3,0.5,0.5,0.7c0.8,1.5,2.1,2.4,3.7,2.9
					c0.6,0.2,1.1,0.4,1.6,0.9c0.9,0.9,2.1,1.4,3.3,1.9c0.3,0.1,0.6,0.2,1,0.3c0.1,0.1,0.2,0.3,0.3,0.4c1,1.4,2.4,2.4,4.1,2.9
					c0.4,0.1,0.6,0.2,0.9,0.5c0.1,0.2,0.2,0.3,0.4,0.4c0.7,0.5,0.9,1.2,1.2,2c1.5,5.7,4,10.9,7.4,15.6c1.8,2.6,3.7,5.2,5.6,7.7
					c2.1,2.8,4.5,5.2,7.2,7.3c0.5,0.3,0.8,0.7,1.2,1.2c0.3,0.5,0.9,1,1.3,1.4c0.2,0.2,0.5,0.4,0.7,0.6c1.3,1.7,2.9,3,4.3,4.6
					c1.9,2.1,3.9,4,6,5.9c2.5,2.3,5.1,4.6,7.6,6.9c1.9,1.8,3.6,3.9,5.2,6c5.1,6.8,8.7,14.3,11.3,22.4c0.3,1,0.7,2,1,3.1
					c0.1,0.2,0.1,0.5,0.2,0.7c-0.1,0-0.2,0.1-0.3,0.1c-1.5-0.4-3-0.3-4.4,0.1c-1,0.3-1.9,0.5-2.9,0.9c-3.3,1.3-6.8,2.2-10.2,3.2
					c-1.7,0.5-3.3,1.1-4.9,1.7c-1.5,0.6-3,1.4-4.4,2.2c-0.9,0.5-1.7,1.2-2.4,2c-1.5,1.7-2.7,3.6-3.8,5.6c-0.5,1.1-0.9,2.3-1,3.5
					c0,0.4-0.2,0.7-0.3,1.4c-0.2-0.7-0.4-1.2-0.6-1.6c-0.6-2.2-1.3-4.4-2.1-6.6c-0.4-1.2-0.8-2.4-1.4-3.5c-0.7-1.5-1.6-2.7-2.7-3.8
					c-1.2-1.2-2.6-2.1-4.2-2.5c-0.4-0.1-0.7-0.3-1.1-0.4c-0.2,0-0.4,0-0.6,0c0,0.3,0.2,0.4,0.4,0.4c0.8,0.4,1.7,0.8,2.5,1.2
					c1.2,0.6,2.1,1.5,2.9,2.6c0.4,0.5,0.7,0.9,1,1.4c0.1,0.2,0.3,0.4,0.4,0.6c0.5,1.3,1,2.7,1.5,4c0.7,1.8,1.3,3.5,2,5.3
					c0.4,0.9,0.7,1.8,1.1,2.7c0.4,0.8,0.6,1.6,0.7,2.5c0,1.1,0.5,2.2,1.3,3c0.4,0.4,0.6,0.9,0.7,1.4c0.1,0.5,0.2,1,0.3,1.5
					C440.8,27.4,440.6,28.1,440.2,28.9z M413.2-88.4C413.2-88.3,413.2-88.3,413.2-88.4c-0.1,0-0.2-0.1-0.3-0.1
					c0.1,0,0.2-0.1,0.2-0.1C413.1-88.5,413.2-88.4,413.2-88.4z M473.5,6.2c-0.8,1.4-1.8,2.6-3,3.6c-1.2,0.9-2.4,1.9-3.7,2.7
					c-4.3,2.5-8.2,5.4-12.2,8.3c-0.7,0.5-1.4,1.1-2.1,1.6c-1.4,1.1-3,1.7-4.7,2.1c-0.6,0.1-1.2,0.1-1.8,0.2c-1.6,0-3.1-0.5-4.5-1.1
					c-0.4-0.2-0.8-0.5-1-0.9c-0.5-0.8-0.8-1.6-0.8-2.5c0-0.5-0.1-0.9-0.2-1.4c-0.1-0.6-0.1-1.2,0.1-1.8c0.3-1.1,0.6-2.1,1.2-3
					c1-1.7,2.1-3.4,3.4-4.9c0.9-1.1,2-1.9,3.2-2.6c2-1.1,4.1-2,6.2-2.6c1.9-0.6,3.7-1.1,5.6-1.6c2.1-0.6,4.1-1.2,6.1-2
					c1.6-0.6,3.3-1.1,5.1-1.4c0.9-0.2,1.8,0,2.6,0.3c1.1,0.4,1.7,1.2,1.7,2.3C474.6,3.1,474.3,4.7,473.5,6.2z"/>
				<path class="st1" d="M385.6,5.2c-0.1,0.9-0.2,1.7-0.3,2.6c-0.3,2.2-0.1,4.4,0.3,6.5c0.6,3,1.7,5.9,3.4,8.5
					c1.3,1.9,2.9,3.6,4.6,5.1c1.7,1.5,3.7,2.4,5.9,3c2.2,0.6,4.5,1,6.8,1c1.2,0,2.3,0,3.5,0c2.2-0.1,4.3-0.5,6.2-1.6
					c1.2-0.7,2.3-1.5,3.1-2.6c0.7-1,1.4-2.1,2.1-3.1c0.1-0.2,0.3-0.4,0.5-0.6c0.1,0.1,0.1,0.2,0.1,0.2c-0.3,1.5-0.8,2.9-1.4,4.2
					c-0.4,0.9-1.1,1.6-1.9,2.1c-2.4,1.7-5,2.7-7.9,2.8c-1.9,0.1-3.8,0.1-5.7,0c-3.5-0.3-6.9-1.1-9.9-2.9c-1.3-0.7-2.4-1.7-3.4-2.8
					c-0.9-0.9-1.8-1.8-2.5-2.8c-2.4-3-3.7-6.5-4.3-10.3c-0.5-2.9-0.2-5.7,0.5-8.6c0-0.2,0.1-0.4,0.2-0.5
					C385.4,5.4,385.5,5.3,385.6,5.2z"/>
				<path class="st1" d="M371.8-117.6c-0.3-0.2-0.5-0.2-0.6-0.3c-0.5-0.4-1.1-0.8-1.6-1.3c-1.3-1.2-2.5-2.5-3.5-3.9
					c-2.2-2.9-2.7-6.1-1.8-9.6c0.3-1,0.4-2,0.3-3.1c0-0.5,0-1.1,0-1.6c0-1.2-0.1-2.3-0.5-3.4c-0.5-1.3-1-2.5-1.5-3.7
					c-0.2-0.5-0.4-1-0.6-1.4c0.2-0.3,0.4-0.2,0.5-0.1c0.4,0.3,0.8,0.6,1,1.1c0.8,1.9,1.6,3.7,1.8,5.8c0.1,0.6,0,1.1,0,1.7
					c0,0.6-0.1,1.1,0,1.9c0.5-0.8,0.8-1.6,1.2-2.3c0.4-0.7,0.8-1.5,1.2-2.2c0.4-0.7,0.8-1.4,1.2-2.1c0.4-0.7,0.8-1.4,1.4-2
					c0,0.2,0,0.4-0.1,0.6c-0.8,2-1.6,3.9-2.6,5.8c-0.8,1.4-1.5,2.9-2,4.5c-0.4,1.2-0.6,2.4-0.7,3.6c-0.1,1.8,0.4,3.5,1.2,5.1
					c0.6,1.1,1.3,2.1,2.2,2.9c-0.5-1.5-0.9-3-0.9-4.6c0-0.7,0-1.4,0.1-2.1c0.1-0.8,0.4-1.5,0.6-2.2c0.1-0.3,0.3-0.6,0.4-0.9
					c0,0,0.1,0,0.1-0.1c0,0,0.1,0,0.2,0c-0.1,0.7-0.2,1.4-0.3,2.2c-0.2,1.6-0.3,3.1-0.1,4.7c0.3,2.2,1.2,4.1,2.7,5.8
					C371.3-118.5,371.6-118.2,371.8-117.6z"/>
				<path class="st1" d="M418.5-119.5c2.4-0.1,5.1-2.3,5.7-4.6c0.4-1.9,0.7-3.8,0.6-5.7c0-0.5-0.1-1-0.3-1.5
					c-0.3-0.8-0.9-1.4-1.8-1.6c-0.3-0.1-0.6-0.1-0.9-0.2c1-0.7,2.2-0.7,2.9,0c0.7,0.7,1,1.6,1.2,2.6c0.2,1.1,0.1,2.2,0,3.3
					c-0.1,1.1-0.4,2.3-0.8,3.4c-0.5,1.5-1.5,2.7-2.9,3.4c-0.7,0.4-1.4,0.7-2.1,0.9C419.6-119.2,419-119.2,418.5-119.5z"/>
				<path class="st1" d="M417.3-36.5c-0.5,0-0.9,0-1.4,0c-4.1-0.3-8.1-0.8-12.1-2c-0.4-0.1-0.9-0.2-1.3-0.3c-1-0.3-2-0.1-2.8,0.5
					c0,0-0.1,0-0.1,0.1c-0.3,0.1-0.5,0.7-1,0.4c0-0.5,0.5-0.7,0.7-1c1.1-1.2,2.4-1.4,3.9-1c4.4,1.1,8.9,1.9,13.3,2.9
					c0.3,0.1,0.5,0.2,0.8,0.2C417.3-36.7,417.3-36.6,417.3-36.5z"/>
				<path class="st1" d="M392.9-125c-0.1,0-0.2,0.1-0.1,0.1c0.1,0.2,0.2,0.4-0.1,0.6c-0.5,0.3-0.9,0.7-1.4,0.9
					c-1,0.4-2.1,0.6-3.3,0.5c-0.1,0-0.2,0-0.3,0c-0.4-0.1-0.5-0.2-0.7-0.8c-0.1,0-0.2,0-0.3,0c-1,0.2-2,0.3-3-0.4
					c-0.1-0.1-0.3-0.1-0.4-0.1c-0.2,0-0.5,0-0.7,0c-0.7,0-1.3-0.1-1.7-0.6c-0.9,0-1.7,0-2.6,0c-0.7,0-1.4-0.2-1.9-0.8
					c-0.1-0.1-0.1-0.2-0.2-0.3c0.1,0,0.2-0.1,0.3-0.1c1.2,0.1,2.2-0.2,3.2-0.8c0.6-0.4,1.3-0.7,1.9-1.1c0.1-0.1,0.3-0.1,0.5-0.2
					c-0.6,1.2-0.6,1.2-4,2.7c2.1,0.1,3.7-0.7,5.3-1.6c0.2,0.2,0.1,0.3,0,0.4c-0.4,0.4-0.8,0.8-1.3,1.1c-0.2,0.1-0.4,0.2-0.7,0.4
					c0.2,0.1,0.3,0.2,0.5,0.3c1.2,0.2,2.2-0.1,3.2-0.7c0.5-0.3,1.1-0.7,1.7-1.1c-0.1,0.7-0.3,1-1,1.4c-0.4,0.3-0.9,0.5-1.4,0.8
					c0.6,0.4,1.1,0.3,1.6,0.2c1-0.1,2-0.5,2.9-1c0.4-0.2,0.7-0.4,1.1-0.5c-0.3,0.6-0.9,0.9-1.4,1.2c-0.3,0.1-0.6,0.2-0.8,0.4
					c-0.1,0.1-0.3,0.2-0.3,0.3c0,0.2,0.2,0.3,0.4,0.3c0.5,0,0.9,0,1.4,0c1.4-0.2,2.6-0.8,3.8-1.5C392.9-124.8,392.9-124.9,392.9-125
					L392.9-125z"/>
				<path class="st1" d="M356.2-99.3c-0.9,0.3-1.8,0.6-2.6,1c-0.9,0.4-1.4,1.1-1.7,1.9c-0.3,0.8-0.3,1.6,0.3,2.3c0,0,0,0.2-0.1,0.3
					c-0.1,0-0.2,0-0.3,0c-0.1,0-0.1-0.1-0.1-0.2c-0.1-0.6-0.4-1.3-0.4-1.9c0.1-1.7,0.9-2.9,2.4-3.6c1.2-0.5,2.5-0.9,3.8-1.3
					c0.1,0,0.1,0,0.2,0.1c-0.1,0.1-0.1,0.2-0.2,0.3c-0.4,0.3-0.5,0.7-0.6,1.2c-0.1,0.6-0.2,1.3-0.3,1.9c-0.2,1-0.6,1.8-1.3,2.5
					c-0.5,0.5-1,0.8-1.8,0.6c-0.1,0-0.3,0-0.5-0.1c0.1-0.1,0.1-0.2,0.2-0.2c1.3,0,2-0.9,2.4-2C356.2-97.3,356.1-98.2,356.2-99.3z"/>
				<path class="st1" d="M429.1-122.8c0.1,1.8,0.1,3.6-0.6,5.2c-0.2,0.5-0.4,1-0.8,1.4c-1.2,1.7-2.9,2.3-4.9,2
					c-1-0.1-1.9-0.4-2.9-0.8c-0.2-0.1-0.5-0.1-0.6-0.4c0.2-0.2,0.3,0,0.5,0c0.9,0.2,1.9,0.4,2.8,0.6c0.7,0.1,1.5,0,2.1-0.2
					c1-0.3,1.8-0.9,2.2-1.9c0.3-0.6,0.6-1.2,0.7-1.8c0.4-1.2,0.6-2.4,0.9-3.7C428.8-122.5,428.7-122.7,429.1-122.8z"/>
				<path class="st1" d="M416.3-130.5c-0.1,0-0.3,0-0.4,0c-0.4-0.2-0.8-0.4-1.2-0.7c-2.5-1.5-5.1-2.3-8-2.7c-2-0.3-4.1-0.5-6.2-0.7
					c-0.1,0-0.1,0-0.2-0.1c0.1-0.1,0.1-0.2,0.2-0.2c3.7-0.3,7.4,0.1,11,1.4C413.3-132.8,414.8-131.8,416.3-130.5z"/>
				<path class="st1" d="M377.8-114.3c0.1,0,0.3,0,0.3,0c0.2,0.4,0.3,0.7,0,1.1c-0.3,0.4-0.7,0.8-1,1c-0.6,0.4-0.9,1-1.1,1.7
					c-0.2,0.5-0.2,0.9,0.2,1.3c0.6,0.6,0.6,1.3,0.2,2c-0.1,0.3-0.3,0.6-0.3,1c-0.1,0.7,0.2,1.3,0.9,1.8c0.1,0.1,0.3,0.1,0.4,0.2
					c1,0.6,1.3,0.8,1.9,1.9c-0.2,0.2-0.3,0.1-0.5,0c-0.7-0.4-1.4-0.8-2.1-1.3c-1.3-0.8-1.8-2.2-1.3-3.6c0.1-0.1,0.1-0.3,0.2-0.4
					c0.3-0.4,0.3-0.8-0.1-1.1c-0.6-0.6-0.6-1.4-0.3-2.1c0.3-0.8,0.7-1.4,1.4-1.9c0.4-0.3,0.7-0.6,1-0.9
					C377.9-113.9,377.9-114.1,377.8-114.3L377.8-114.3z"/>
				<path class="st1" d="M389.3-122.5c1,0,2,0,2.9-0.3c0.9-0.3,1.7-0.8,2.5-1.5c-0.2,0.8-0.4,1.1-1.1,1.5c-0.5,0.3-1.1,0.5-1.6,0.7
					c0,0.3,0.2,0.3,0.3,0.3c0.9,0.1,1.8-0.1,2.7-0.5c0.6-0.2,1.1-0.5,1.7-0.8c0.1-0.1,0.3-0.1,0.5-0.1c-0.6,0.9-1.4,1.1-2.1,1.5
					c0.6,0.2,1.2,0.2,1.8,0.1c0.6-0.2,1.2-0.4,1.7-0.6c0.5-0.2,1.1-0.5,1.6-0.8c0.2,0.2,0,0.3-0.1,0.4c-1.4,1.3-3.1,1.7-5,1.6
					c-0.7-0.4-1.4-0.2-2.1-0.2c-0.5,0-1-0.1-1.4-0.3c-0.4-0.3-0.8-0.3-1.3-0.3C389.9-122.1,389.6-122,389.3-122.5z"/>
				<path class="st1" d="M405.9-119.7c0.7,0.1,1.2-0.4,1.8-0.6c0.3-0.1,0.7-0.3,1-0.5c0.2,0.2,0,0.3-0.1,0.4
					c-1.3,1.4-2.9,1.6-4.7,1.4c-0.1,0-0.3-0.1-0.4-0.2c-0.2-0.2-0.5-0.4-0.7-0.6c-0.9,0.1-1.9,0.4-2.9-0.1c0.1-0.1,0.2-0.2,0.2-0.2
					c0.8,0.3,1.6,0,2.4-0.2c0.8-0.2,1.5-0.7,2.1-1.1c0.2-0.1,0.4-0.3,0.8-0.6c-0.4,1.2-1.4,1.5-2.3,2.1c0.2,0.1,0.3,0.2,0.5,0.2
					c0.8,0,1.5-0.3,2.2-0.7c0.4-0.2,0.8-0.5,1.4-0.8C407-120.3,406.2-120.3,405.9-119.7c-0.2,0-0.4,0-0.6,0
					C405.5-119.5,405.7-119.5,405.9-119.7z"/>
				<path class="st1" d="M371.9-138.4c0.1-0.4,0.1-0.7,0.2-1.1c0.3-1.3,0.6-2.7,0.9-4c0.3-1.3,0.3-2.7,0.1-4
					c-0.1-0.6-0.3-1.1-0.4-1.6c0.3-0.1,0.4,0.1,0.4,0.2c0.5,0.9,0.7,2,0.7,3c0.1,2.1-0.3,4-1,6C372.6-139.5,372.4-138.9,371.9-138.4
					z"/>
				<path class="st1" d="M377.9-114.4c-0.4-0.6-0.9-1.1-1.3-1.6c-0.4,0-0.6,0.1-0.9,0.1c-1.6,0-2.3,0.6-2.6,2.1
					c-0.1,0.7-0.1,1.4-0.2,2.2c0,0.2,0,0.4,0,0.9c-0.2-0.3-0.3-0.4-0.4-0.5c-0.2-1-0.2-2.1-0.1-3.1c0.2-1,0.7-1.9,1.7-2.2
					c0.5-0.2,1.1-0.1,1.7-0.2c0.1,0,0.2,0,0.3,0.1c0.5,0.4,1,0.8,1.5,1.2C378.1-115.2,378.1-114.8,377.9-114.4
					C377.8-114.3,377.9-114.4,377.9-114.4z"/>
				<path class="st1" d="M358.6-103.4c-0.9,0.4-1.6,0.4-2.3,0.6c-0.7,0.2-1.4,0.3-2.1,0.6c-2.4,0.9-4.2,2.4-5,4.9
					c-0.1,0.2-0.2,0.5-0.3,0.7c-0.3,0-0.2-0.2-0.2-0.4c0.2-1.1,0.6-2,1.3-2.9c1.8-2,4-3.1,6.5-3.5
					C357.2-103.4,357.8-103.5,358.6-103.4z"/>
				<path class="st1" d="M418.7-122.1c-0.7-0.6-1.4-2.2-1.9-4.5c-0.2-0.9-0.2-1.1,0-1.7c0.1,0.2,0.2,0.4,0.2,0.5
					C417.6-125.9,418.5-124.1,418.7-122.1z"/>
				<path class="st1" d="M359.7-79.3c-0.1-0.2-0.3-0.3-0.4-0.5c-0.6,0-0.9,0.3-1.2,0.7c-0.3,0.4-0.7,0.7-1,1.1
					c-0.2,0.2-0.4,0.2-0.6,0.4c0-0.1-0.1-0.2-0.1-0.2c0.4-0.6,0.8-1.1,1.2-1.7c0.2-0.3,0.5-0.6,0.8-0.8c0.2-0.1,0.5-0.2,0.7-0.2
					c0.4,0,0.7,0.2,0.7,0.6C360-79.7,360-79.5,359.7-79.3z"/>
				<path class="st1" d="M403-122.6c-0.5,1.2-1.5,1.6-2.4,1.9c-0.9,0.3-1.9,0.5-2.9,0c0.9-0.1,1.8-0.1,2.6-0.5
					C401.1-121.6,401.9-122.1,403-122.6z"/>
				<path class="st1" d="M388.6-2.4c0.1-0.2,0.1-0.4,0.2-0.6c0.3-0.5,0.6-1.1,0.9-1.6c0.6-1.1,1-2.3,1-3.6c0-0.1,0-0.3,0-0.4
					c0,0,0,0,0.1-0.1c0.5,2.5-0.5,4.5-2,6.3C388.7-2.4,388.6-2.4,388.6-2.4L388.6-2.4z"/>
				<path class="st1" d="M380.8-129.2c0.2,0.2,0.5,0.5,0.7,0.7c-0.2,0.3-0.4,0.2-0.6,0.1c-0.2-0.1-0.4-0.1-0.6-0.2
					c-1-0.4-2-0.6-3-0.5c-0.2,0-0.4,0-0.7-0.1c0.3-0.1,0.5-0.3,0.8-0.3c0.9,0,1.8-0.1,2.6,0.2C380.3-129.2,380.6-129.2,380.8-129.2
					L380.8-129.2z"/>
				<path class="st1" d="M390.8-126.7c0,0.4,0.1,0.7-0.1,1.2c-0.1-0.1-0.3-0.2-0.3-0.3c-0.1-0.2-0.2-0.5-0.4-0.7
					c-0.4-0.7-1.1-1.2-1.9-1.3c-0.2,0-0.4-0.1-0.5-0.1c0-0.3,0.2-0.3,0.3-0.3c0.9,0,1.6,0.3,2.3,0.9
					C390.4-127.1,390.6-126.9,390.8-126.7C390.9-126.7,390.8-126.7,390.8-126.7z"/>
				<path class="st1" d="M363.1-75.6c0.4-1.2,1.2-1.9,2.1-2.5c0.1-0.1,0.3,0,0.4,0.1c0.1,0.1,0,0.3,0,0.4c0,0.1-0.1,0.1-0.1,0.2
					C364.7-76.8,363.9-76.2,363.1-75.6z"/>
				<path class="st1" d="M384.8-128.5c0.4-0.2,0.8-0.2,1.4,0.1c0.9,0.5,1.6,1.1,1.8,2.3c-0.5-0.3-0.7-0.7-1-1
					c-0.5-0.7-1.2-1.2-2.1-1.3C384.9-128.4,384.9-128.4,384.8-128.5z"/>
				<path class="st1" d="M393.8-125.9c0.6-0.3,1.1-0.2,1.7,0.2c0.7,0.5,1.2,1,1.3,2c-0.2-0.1-0.3-0.2-0.4-0.3
					c-0.2-0.2-0.4-0.5-0.5-0.7C395.3-125.3,394.7-125.9,393.8-125.9z"/>
				<path class="st1" d="M392.9-125c-0.2-1.1-1-1.6-2.1-1.7c0,0,0,0,0,0c0-0.1,0.1-0.1,0.1-0.2c0.7-0.2,1.3,0.1,1.8,0.5
					c0.5,0.5,1,1,0.9,1.9C393.2-124.4,393.1-124.8,392.9-125C392.9-125,392.9-125,392.9-125z"/>
				<path class="st1" d="M380.8-129.1c1-0.3,2-0.2,3,0.5c0.4,0.3,0.5,0.4,0.8,1.1c-0.2,0.2-0.3,0-0.4-0.1c-0.2-0.2-0.5-0.4-0.7-0.6
					c-0.6-0.5-1.2-0.8-2-0.7C381.2-129,381-128.9,380.8-129.1C380.8-129.2,380.8-129.1,380.8-129.1z"/>
				<path class="st1" d="M398.9-123.7c-1-1.2-1-1.2-2.2-1.4c0.1-0.3,0.3-0.2,0.6-0.2c0.5,0,1,0.2,1.4,0.5
					C399.1-124.4,399.2-124.2,398.9-123.7z"/>
				<path class="st1" d="M402.8-122.6c-0.3-0.4-0.4-0.5-0.5-0.7c-0.6-1-0.5-1-1.6-1.4c0.6-0.2,1.1,0,1.5,0.3
					C402.6-124,402.9-123.5,402.8-122.6z"/>
				<path class="st1" d="M351-95.5c-0.8-1-0.8-1.4-0.1-2.5c0.3,0.1,0.1,0.3,0.1,0.5c0,0.2-0.1,0.4-0.1,0.7c0,0.2,0,0.4,0,0.6
					C350.9-96.1,351-95.9,351-95.5z"/>
				<path class="st1" d="M404.6-123.3c0.8-0.2,1.3,0,1.7,0.6c0.2,0.3,0.4,0.6-0.1,0.9C405.9-122.5,405.7-123.4,404.6-123.3z"/>
				<path class="st1" d="M360.8-81.4c-0.2-0.3-0.3-0.7-0.5-1c-0.2-0.3-0.5-0.6-0.8-0.8c0.6-0.2,0.8,0.2,1.1,0.6
					C360.9-82.3,361.1-81.9,360.8-81.4z"/>
				<path class="st1" d="M354.9-93.4c-0.1,0.1-0.1,0.1-0.1,0.1c-0.1,0.1-0.3,0.2-0.5,0.1c0,0,0-0.1,0-0.1c0.1-0.2,0.3-0.2,0.5-0.2
					C354.7-93.4,354.8-93.4,354.9-93.4z"/>
				<path class="st1" d="M362.3-74.5c0.1-0.4,0.1-0.4,0.4-0.7C362.7-74.9,362.7-74.9,362.3-74.5C362.3-74.6,362.3-74.5,362.3-74.5z"
					/>
				<path class="st1" d="M388.6-2.4c0,0.1,0,0.1,0,0.2c0,0.1-0.1,0.1-0.1,0.1c0-0.1,0-0.2,0-0.3C388.4-2.4,388.5-2.4,388.6-2.4
					C388.6-2.4,388.6-2.4,388.6-2.4z"/>
			</g>
		</g>
	</g>
</g>
</svg>
