<?xml version="1.0" encoding="utf-8"?>
<!-- Generator: Adobe Illustrator 27.9.0, SVG Export Plug-In . SVG Version: 6.00 Build 0)  -->
<svg version="1.1" id="Layer_1" xmlns="http://www.w3.org/2000/svg" xmlns:xlink="http://www.w3.org/1999/xlink" x="0px" y="0px"
	 viewBox="0 0 515.24 81.71" style="enable-background:new 0 0 515.24 81.71;" xml:space="preserve">
<style type="text/css">
	.st0{fill:#482E1D;}
</style>
<g>
	<path class="st0" d="M189.01,35.18C189.01,35.18,189.01,35.18,189.01,35.18C189,35.19,189,35.19,189,35.19S189,35.19,189.01,35.18z
		"/>
	<path class="st0" d="M223.83,42.01c-0.03-0.07-0.06-0.1-0.06-0.1c0,0,0.03,0.03,0.04,0.1c0.01,0.07-0.02,0.18-0.13,0.26
		c-0.22,0.17-0.63,0.3-1.14,0.38c-0.46-0.28-0.78-0.42-0.78-0.42s0.15,0.18,0.43,0.46c-0.13,0.01-0.27,0.02-0.42,0.02
		c-0.33-0.23-0.57-0.46-0.73-0.64c-0.19-0.21-0.28-0.34-0.28-0.34s0.05,0.14,0.19,0.38c0.09,0.16,0.23,0.36,0.44,0.58
		c-0.12-0.01-0.25-0.03-0.38-0.05c-0.58-0.57-0.97-0.91-0.97-0.91s0.2,0.31,0.59,0.83c-0.03-0.01-0.05-0.01-0.08-0.02
		c-0.16-0.04-0.32-0.09-0.48-0.15c-0.23-0.17-0.4-0.34-0.51-0.47c-0.14-0.16-0.21-0.26-0.21-0.26s0.02,0.11,0.12,0.31
		c0.03,0.07,0.08,0.14,0.13,0.23c-0.38-0.17-0.75-0.39-1.11-0.63c-0.33-0.22-0.63-0.47-0.91-0.72c-0.28-0.25-0.54-0.5-0.78-0.75
		c-0.48-0.49-0.89-0.96-1.22-1.35c-0.07-0.09-0.14-0.17-0.2-0.25c0.26,0.15,0.48,0.27,0.64,0.35c0.2,0.1,0.31,0.15,0.31,0.15
		s-0.36-0.3-0.95-0.78c-0.17-0.14-0.35-0.29-0.55-0.46c-0.08-0.11-1.14-0.95-1.71-1.43c-0.81-0.67-1.56-1.28-2.14-1.74
		c0.14-0.01,0.27-0.02,0.37-0.03c0.28-0.03,0.44-0.05,0.44-0.05s-0.16-0.01-0.44-0.02c-0.15-0.01-0.33-0.02-0.53-0.04
		c-0.11-0.01-0.23-0.02-0.35-0.03c-0.1-0.01-0.2-0.02-0.3-0.03c-0.06-0.03-0.08-0.02-0.08-0.01c0.01,0,0.03,0.01,0.04,0.01
		c-0.02,0-0.03,0-0.05-0.01c0,0-2.34-0.36-3.75-0.65c-1.5-0.28-2.84-0.58-3.82-0.8c-0.01,0-0.01,0-0.02,0
		c-0.09-0.02-0.17-0.04-0.26-0.06c-0.81-0.19-1.3-0.32-1.3-0.32s0.35,0.17,0.97,0.4c-0.02,0-0.03,0.01-0.05,0.01
		c-0.08,0.02-0.16,0.03-0.24,0.05l0,0c0,0,0,0,0,0c-0.18,0.03-0.37,0.06-0.57,0.07c0.11-0.23,0.17-0.37,0.17-0.37
		s-0.17,0.13-0.42,0.39c-0.11,0.01-0.22,0.01-0.33,0.02c0.04-0.07,0.08-0.13,0.12-0.18c0.08-0.1,0.13-0.16,0.13-0.16
		s-0.08,0.02-0.2,0.09c-0.09,0.05-0.21,0.13-0.33,0.25c-0.06,0-0.13,0-0.19,0c0.1-0.17,0.15-0.28,0.15-0.28s-0.18,0.09-0.45,0.27
		c-0.06,0-0.13-0.01-0.19-0.01c0.15-0.27,0.21-0.45,0.21-0.45s-0.19,0.15-0.48,0.44c-0.14-0.01-0.29-0.02-0.44-0.03
		c-0.04,0-0.09-0.01-0.13-0.01c0.11-0.14,0.19-0.26,0.25-0.36c0.1-0.17,0.14-0.27,0.14-0.27s-0.08,0.08-0.23,0.22
		c-0.11,0.1-0.26,0.24-0.46,0.39c-0.18-0.02-0.36-0.03-0.54-0.05c0.38-0.45,0.59-0.74,0.59-0.74s-0.36,0.25-0.91,0.71
		c-0.14-0.01-0.27-0.02-0.4-0.03c0.56-0.56,0.88-0.93,0.88-0.93s-0.49,0.31-1.25,0.89l0.01,0.01c-0.12-0.01-0.24-0.01-0.35-0.02
		c0.37-0.29,0.66-0.55,0.86-0.74c0.25-0.24,0.37-0.38,0.37-0.38s-0.15,0.11-0.44,0.31c-0.28,0.2-0.7,0.48-1.24,0.8l0,0
		c-0.11,0-0.21,0-0.31,0c-0.01,0-0.01,0-0.01,0c0.59-0.37,1.02-0.74,1.29-1.01c0.29-0.29,0.42-0.47,0.42-0.47s-0.17,0.15-0.49,0.4
		c-0.17,0.13-0.38,0.28-0.64,0.45c0.04-0.03,0.07-0.06,0.11-0.09c0.32-0.29,0.56-0.54,0.72-0.72c0.15-0.18,0.23-0.28,0.23-0.28
		s-0.1,0.09-0.29,0.24c-0.19,0.15-0.47,0.36-0.83,0.6c-0.42,0.28-1.56,0.96-1.56,0.96s-3.28,1.77-4.03,2.11
		c-0.05,0.01-0.11,0.01-0.16,0.02c0,0-0.01,0-0.01,0c-0.01-0.02-0.03-0.03-0.04-0.05l0.01,0.01c3.26-2.1,5.28-3.45,5.28-3.45
		s-2.04,1.18-5.39,3.19c0.81-0.83,1.55-1.45,2.08-1.87c0.55-0.43,0.87-0.66,0.87-0.66s-0.34,0.19-0.92,0.58
		c-0.57,0.38-1.37,0.96-2.26,1.78c-0.02-0.02-0.04-0.05-0.06-0.07c0.02-0.02,0.03-0.04,0.05-0.07c0.31-0.42,0.8-0.95,1.39-1.51
		c0.59-0.55,1.15-1.03,1.61-1.34c0.11-0.08,0.21-0.15,0.31-0.21c0.09-0.06,0.17-0.11,0.24-0.15c0.14-0.08,0.22-0.12,0.22-0.12
		s-0.09,0.02-0.25,0.06c-0.08,0.02-0.18,0.05-0.29,0.09c-0.11,0.04-0.24,0.08-0.37,0.14c-0.54,0.23-1.23,0.65-1.85,1.23
		c-0.59,0.57-1,1.17-1.21,1.65c-0.08-0.12-0.15-0.23-0.22-0.35c0.26-0.34,0.49-0.64,0.7-0.91c0.21-0.27,0.37-0.51,0.54-0.68
		c0.16-0.18,0.31-0.29,0.43-0.36c0.11-0.07,0.18-0.09,0.18-0.09s-0.07,0.02-0.19,0.07c-0.12,0.05-0.3,0.15-0.49,0.32
		c-0.19,0.16-0.39,0.39-0.62,0.64c-0.22,0.24-0.42,0.46-0.69,0.76c-0.03-0.06-0.06-0.11-0.08-0.17l0.01-0.05
		c0.71-0.9,1.11-1.48,1.11-1.48s-0.49,0.44-1.26,1.23c-0.16-0.39-0.22-0.73-0.24-0.96c0-0.07-0.01-0.14-0.01-0.19
		c0-0.05,0.01-0.1,0.01-0.14c0.01-0.07,0.01-0.11,0.01-0.11s0,0.04-0.01,0.11c0,0.04-0.01,0.08-0.02,0.14c0,0.05,0,0.12,0,0.19
		c0.01,0.26,0.06,0.63,0.23,1.07l0.01,0.03c0.01,0.03,0.02,0.05,0.02,0.05s0.01,0.01,0.02,0.03c0.01,0.02,0.02,0.04,0.02,0.06
		c0.12,0.29,0.29,0.61,0.5,0.94c0.04,0.07,0.09,0.13,0.13,0.2c0.1,0.15,0.21,0.3,0.33,0.46c0.01,0.02,0.03,0.04,0.04,0.05
		c0.01,0.01,0.02,0.02,0.03,0.03c0.05,0.07,0.11,0.14,0.16,0.21c0.19,0.24,0.4,0.48,0.63,0.73c0.12,0.12,0.23,0.25,0.36,0.38
		c0.27,0.27,0.56,0.55,0.87,0.83c0.79,0.71,1.73,1.44,2.8,2.14c0.51,0.33,1.05,0.66,1.64,0.96c0.03,0.02,0.06,0.04,0.1,0.05
		c0.05,0.03,0.11,0.06,0.16,0.08c0.57,0.29,1.15,0.57,1.72,0.89c0.63,0.35,1.22,0.74,1.74,1.23c0.26,0.24,0.51,0.5,0.74,0.77
		c0.12,0.14,0.24,0.28,0.36,0.42c0.12,0.14,0.23,0.29,0.35,0.43c0.46,0.58,0.92,1.17,1.24,1.81c0.12,0.24,0.22,0.49,0.28,0.74
		c-0.12-0.21-0.25-0.41-0.38-0.6c-0.46-0.62-0.89-1.19-1.32-1.71c-0.86-1.05-1.73-1.89-2.57-2.46c-0.83-0.57-1.58-0.89-2.1-1.06
		c-0.26-0.08-0.47-0.14-0.6-0.17c-0.14-0.03-0.21-0.05-0.21-0.05s0.07,0.02,0.2,0.05c0.13,0.03,0.33,0.09,0.58,0.18
		c0.5,0.18,1.22,0.51,2.02,1.09c0.8,0.57,1.64,1.41,2.47,2.47c0.42,0.53,0.84,1.12,1.28,1.74c0.21,0.31,0.42,0.64,0.55,0.99
		c0.06,0.15,0.09,0.31,0.11,0.47c-0.02,0.1-0.05,0.21-0.09,0.31c-0.12,0.33-0.32,0.63-0.59,0.86c-0.18,0.16-0.41,0.28-0.64,0.36
		c0.07-0.03,0.14-0.07,0.19-0.11c0.08-0.06,0.14-0.11,0.19-0.16c0.05-0.05,0.09-0.09,0.12-0.13c0.06-0.08,0.09-0.12,0.09-0.12
		s-0.04,0.04-0.11,0.1c-0.03,0.04-0.08,0.07-0.14,0.12c-0.05,0.05-0.13,0.09-0.21,0.14c-0.16,0.09-0.39,0.17-0.66,0.14
		c-0.26-0.02-0.55-0.14-0.82-0.32c-0.5-0.33-0.97-0.83-1.46-1.41c-0.05-0.06-0.1-0.12-0.15-0.18c-0.03-0.04-0.07-0.09-0.11-0.13
		c-1.28-1.45-0.46-2.66,0.33-2.59c0.23,0.02,0.46,0.09,0.65,0.17c0.05,0.02,0.09,0.04,0.13,0.06l0.06,0.04l0.07,0.05
		c0,0,0.01,0.01,0.01,0.01c0.09,0.06,0.18,0.12,0.26,0.18c0.04,0.03,0.08,0.06,0.13,0.09c0.68,0.47,1.27,0.92,1.67,1.37
		c0.43,0.47,0.62,0.95,0.64,1.28c0,0.08,0,0.16,0.01,0.23c0,0.07-0.02,0.12-0.02,0.16c-0.01,0.09-0.02,0.14-0.02,0.14
		s0.01-0.05,0.04-0.13c0.01-0.04,0.03-0.1,0.05-0.16c0.01-0.07,0.02-0.14,0.03-0.23c0.03-0.35-0.12-0.87-0.51-1.41
		c-0.38-0.53-0.99-1.05-1.68-1.58c-0.01-0.01-0.03-0.02-0.04-0.03c-0.09-0.07-0.18-0.14-0.27-0.21l-0.07-0.05c0,0,0,0-0.01,0
		c-0.02-0.02-0.05-0.04-0.08-0.06c-0.06-0.04-0.12-0.07-0.18-0.1c-0.25-0.11-0.51-0.18-0.79-0.23c-0.14-0.02-0.29-0.04-0.46-0.02
		c-0.17,0.02-0.34,0.08-0.48,0.17c-0.1,0.06-0.18,0.14-0.26,0.21c-0.05-0.02-0.09-0.03-0.13-0.04c-0.13-0.08-0.25-0.13-0.35-0.16
		c-0.18-0.06-0.28-0.06-0.28-0.06s0.09,0.04,0.22,0.14c0.1,0.07,0.24,0.18,0.36,0.33c-0.05,0.06-0.09,0.13-0.13,0.2
		c-0.03,0.05-0.06,0.1-0.08,0.15c-0.23-0.22-0.46-0.35-0.64-0.44c-0.23-0.11-0.37-0.14-0.37-0.14s0.12,0.07,0.31,0.21
		c0.18,0.14,0.42,0.36,0.61,0.68c-0.01,0.09-0.01,0.17-0.01,0.25c-0.77-0.49-1.27-0.77-1.27-0.77s0.46,0.44,1.28,1.11l0.01-0.02
		c0.01,0.04,0.01,0.07,0.02,0.11l-0.03,0.01c-0.51-0.29-0.95-0.49-1.27-0.62c-0.36-0.15-0.57-0.21-0.57-0.21s0.18,0.09,0.52,0.27
		c0.33,0.18,0.81,0.46,1.37,0.87l0.09,0.07c0,0.01,0.01,0.02,0.01,0.03l0.02,0.05c0.01,0.02,0.03,0.05,0.04,0.07
		c0.02,0.03,0.02,0.03,0.03,0.04l0.01,0.01l0,0l0.02,0.02l0.01,0.01l0.06,0.06c0.03,0.03,0.06,0.06,0.09,0.1
		c-0.36-0.29-0.78-0.59-1.27-0.86c-0.87-0.48-1.71-0.82-2.27-1.12c-0.28-0.15-0.51-0.28-0.66-0.37c-0.15-0.1-0.23-0.15-0.23-0.15
		s0.07,0.07,0.2,0.18c0.13,0.11,0.34,0.27,0.6,0.45c0.53,0.37,1.34,0.77,2.19,1.24c0.85,0.47,1.55,0.98,2.04,1.37
		c0.18,0.15,0.33,0.27,0.45,0.38c0.44,0.44,0.88,0.81,1.35,1.07c0.08,0.04,0.16,0.08,0.25,0.12c-0.06-0.02-0.13-0.04-0.19-0.07
		c-0.35-0.14-0.68-0.33-1-0.55c-0.25-0.17-0.49-0.34-0.73-0.51c0,0,0,0,0,0c-0.25-0.18-0.78-0.55-1.03-0.72
		c-0.02-0.01-0.04-0.03-0.06-0.04c-0.63-0.44-1.25-0.87-1.86-1.27c-0.06-0.04-0.13-0.08-0.19-0.12c-0.14-0.09-0.28-0.19-0.42-0.28
		c-0.98-0.64-1.94-1.23-2.88-1.75c-1.13-0.63-2.22-1.17-3.25-1.6c-2.06-0.87-3.87-1.3-5.13-1.49c-0.27-0.04-0.51-0.08-0.73-0.11
		c-0.21-0.15-0.44-0.33-0.7-0.52c0.12-0.01,0.23-0.01,0.31-0.02c0.14-0.01,0.22-0.02,0.22-0.02s-0.08,0-0.22,0.01
		c-0.09,0.01-0.2,0.01-0.34,0c-0.3-0.23-0.62-0.48-0.95-0.76c-0.32-0.26-0.62-0.52-0.89-0.76c-0.26-0.24-0.5-0.46-0.69-0.65
		c-0.1-0.09-0.18-0.18-0.26-0.26c-0.08-0.08-0.14-0.15-0.19-0.2c-0.1-0.11-0.16-0.18-0.16-0.18s0.03,0.07,0.09,0.21
		c0.03,0.07,0.07,0.15,0.12,0.24c0.05,0.09,0.11,0.2,0.18,0.31c0.14,0.23,0.34,0.49,0.57,0.77c0.24,0.27,0.53,0.56,0.86,0.83
		c0.18,0.15,0.37,0.28,0.55,0.41c-0.32-0.02-0.68-0.05-1.09-0.1c-0.28-0.18-0.58-0.36-0.89-0.56c-0.78-0.47-1.48-0.9-1.99-1.21
		c-0.26-0.16-0.46-0.29-0.6-0.38c-0.14-0.09-0.22-0.14-0.22-0.14s0.06,0.07,0.16,0.19c0.11,0.12,0.27,0.29,0.49,0.49
		c0.43,0.4,1.08,0.92,1.87,1.4c0.02,0.01,0.04,0.02,0.06,0.03c-0.86-0.15-1.83-0.35-2.86-0.66c-0.6-0.18-1.22-0.41-1.79-0.71
		c-0.56-0.32-1.05-0.78-1.48-1.28c-0.43-0.5-0.8-1.04-1.16-1.55c-0.36-0.51-0.71-1.01-1.04-1.48c-0.67-0.94-1.28-1.78-1.78-2.5
		c-1.03-1.41-1.67-2.29-1.67-2.29s0.59,0.9,1.53,2.36c0.48,0.72,1.05,1.59,1.69,2.54c0.32,0.48,0.66,0.98,1.01,1.49
		c0.35,0.52,0.72,1.06,1.16,1.58c0.45,0.52,0.95,0.99,1.57,1.33c0.62,0.32,1.25,0.54,1.87,0.71c1.21,0.34,2.33,0.53,3.28,0.64
		c0.19,0.11,0.38,0.21,0.56,0.3c-0.36-0.05-0.74-0.09-1.12-0.15c-0.78-0.11-1.6-0.25-2.44-0.47c-0.83-0.22-1.7-0.51-2.45-0.98
		c-0.75-0.47-1.38-1.13-1.95-1.84c-0.69-0.89-1.26-1.81-1.8-2.7c-0.02-0.03-0.04-0.06-0.06-0.09c-0.32-0.53-0.64-1.04-0.96-1.53
		c-0.9-1.34-1.93-2.44-3.02-3.17c-1.08-0.73-2.18-1.02-2.93-1.1c-0.19-0.03-0.36-0.04-0.5-0.04c-0.15-0.01-0.27-0.01-0.37-0.01
		c-0.2,0-0.3,0-0.3,0s0.1,0.01,0.3,0.02c0.1,0,0.22,0.01,0.36,0.03c0.14,0.01,0.31,0.03,0.49,0.07c0.73,0.12,1.78,0.45,2.78,1.2
		c0.16,0.12,0.32,0.25,0.48,0.39c-1.03,0.44-1.84,0.84-2.39,1.14c-0.58,0.31-0.89,0.49-0.89,0.49s0.33-0.14,0.93-0.4
		c0.6-0.25,1.47-0.62,2.58-1.03c0.11,0.1,0.21,0.2,0.31,0.31c-1.94,0.78-3.5,1.48-4.58,1.98c-1.12,0.52-1.74,0.83-1.74,0.83
		s0.62-0.26,1.76-0.74c1.11-0.46,2.72-1.11,4.76-1.87c0.11,0.11,0.21,0.23,0.32,0.35c-1.88,0.7-3.59,1.35-5.04,2.02
		c-1.49,0.67-2.71,1.34-3.67,1.95c-0.95,0.61-1.63,1.15-2.08,1.52c-0.22,0.19-0.38,0.34-0.49,0.44c-0.11,0.1-0.17,0.15-0.17,0.15
		s0.23-0.19,0.66-0.56c0.45-0.36,1.13-0.87,2.09-1.45c0.96-0.58,2.19-1.22,3.69-1.87c1.49-0.64,3.24-1.28,5.19-1.98
		c0.09,0.11,0.19,0.23,0.28,0.35c-1.68,0.55-3.21,1.23-4.61,1.95c-1.41,0.73-2.7,1.5-3.85,2.27c-1.16,0.76-2.2,1.51-3.14,2.22
		c-0.95,0.7-1.79,1.36-2.55,1.96c-1.52,1.19-2.7,2.12-3.51,2.75c-0.81,0.62-1.24,0.95-1.24,0.95s0.42-0.31,1.23-0.91
		c0.81-0.6,1.98-1.5,3.51-2.66c0.77-0.58,1.62-1.23,2.57-1.91c0.95-0.69,2-1.43,3.16-2.18c1.16-0.76,2.45-1.52,3.88-2.24
		c1.42-0.72,2.99-1.4,4.71-1.95c0.07,0.09,0.13,0.18,0.2,0.28c-1.65,0.65-3.15,1.38-4.53,2.13c-1.41,0.78-2.7,1.57-3.86,2.36
		c-1.16,0.79-2.21,1.55-3.16,2.28c-0.24,0.18-0.47,0.36-0.69,0.53c-0.22,0.18-0.44,0.35-0.65,0.52c-0.43,0.34-0.82,0.67-1.2,0.98
		c-1.51,1.24-2.65,2.24-3.43,2.91c-0.77,0.68-1.18,1.03-1.18,1.03s0.4-0.34,1.18-0.99c0.78-0.65,1.92-1.61,3.43-2.83
		c1.52-1.21,3.4-2.68,5.75-4.24c1.17-0.78,2.47-1.57,3.9-2.34c1.4-0.75,2.94-1.48,4.62-2.13c0.09,0.14,0.19,0.28,0.28,0.43
		c0.01,0.01,0.01,0.02,0.02,0.03c-2.14,0.84-4.18,1.66-6.01,2.62c-0.96,0.5-1.85,1.04-2.67,1.61c-0.82,0.57-1.58,1.16-2.29,1.74
		c-1.42,1.18-2.67,2.33-3.87,3.35c-1.2,1.03-2.32,1.93-3.36,2.73c-2.07,1.6-3.77,2.76-4.93,3.53c-0.58,0.39-1.03,0.68-1.34,0.87
		c-0.3,0.19-0.46,0.29-0.46,0.29s0.15-0.09,0.45-0.28c0.3-0.18,0.74-0.46,1.32-0.83c1.15-0.74,2.84-1.87,4.92-3.43
		c1.04-0.78,2.18-1.67,3.39-2.69c1.21-1.01,2.48-2.15,3.91-3.32c0.71-0.58,1.48-1.17,2.3-1.74c0.82-0.56,1.72-1.1,2.68-1.6
		c1.84-0.96,3.92-1.78,6.11-2.63c0.11,0.18,0.22,0.36,0.33,0.54c-1.33,0.41-2.62,0.83-3.84,1.33c-1.28,0.52-2.48,1.12-3.54,1.84
		c-1.06,0.72-1.98,1.51-2.84,2.31c-0.86,0.79-1.65,1.59-2.45,2.33c-1.6,1.48-3.22,2.76-4.75,3.89c-1.54,1.13-3.01,2.1-4.35,2.95
		c-2.68,1.7-4.85,2.94-6.31,3.79c-0.57,0.33-1.04,0.6-1.4,0.8c0,0,0,0.01,0,0.01c0.35-0.2,0.8-0.45,1.37-0.76
		c1.44-0.82,3.59-2.02,6.28-3.68c2.67-1.67,5.91-3.81,9.19-6.77c0.82-0.74,1.62-1.53,2.49-2.33c0.86-0.79,1.79-1.59,2.84-2.3
		c1.05-0.71,2.25-1.32,3.53-1.84c1.24-0.5,2.56-0.92,3.93-1.33c0.08,0.13,0.16,0.27,0.24,0.4c-0.27,0.06-0.55,0.13-0.85,0.22
		c-0.22,0.06-0.45,0.14-0.68,0.22c-0.23,0.09-0.46,0.18-0.71,0.27c-0.24,0.09-0.49,0.2-0.74,0.31c-0.13,0.05-0.25,0.11-0.38,0.16
		c-0.13,0.06-0.25,0.12-0.38,0.18c-1.04,0.48-2.14,1.08-3.25,1.79c-1.12,0.71-2.25,1.54-3.38,2.47c-1.13,0.93-2.26,1.95-3.38,3.04
		c-0.28,0.27-0.56,0.55-0.84,0.82c-0.28,0.26-0.59,0.52-0.91,0.78c-0.63,0.51-1.29,1.02-1.96,1.52c-0.68,0.5-1.35,0.99-2.03,1.45
		c-0.68,0.46-1.39,0.87-2.08,1.29c-1.38,0.84-2.71,1.64-4.01,2.38c-1.29,0.74-2.46,1.36-2.68,1.47c-0.02,0.12-1.74,1.11-1.76,1.23
		c0.29-0.14,0.59-0.28,0.89-0.42c1.2-0.59,2.47-1.25,3.78-1.97c1.31-0.72,2.66-1.51,4.05-2.34c0.69-0.42,1.41-0.83,2.11-1.3
		c0.69-0.46,1.38-0.95,2.06-1.46c0.68-0.51,1.34-1.02,1.98-1.54c0.32-0.26,0.63-0.52,0.93-0.8c0.29-0.28,0.56-0.56,0.84-0.83
		c1.11-1.09,2.14-1.84,3.24-2.78c1.1-0.93,2.49-1.98,3.59-2.69c3.42-2.21,6.63-2.9,6.85-2.97l0,0c0.47,0.8,0.98,1.63,1.62,2.43
		c0.59,0.74,1.26,1.43,2.09,1.93c0.83,0.5,1.75,0.79,2.62,0.99c0.88,0.2,1.72,0.36,2.51,0.41c8.48,0.55,15.85,5.41,15.71,5.81
		c-0.04,0.09-0.5,1.43-0.53,1.53c-0.03,0.11-0.04,0.21-0.05,0.32c-0.01,0.21,0.01,0.41,0.06,0.6c0.09,0.38,0.28,0.7,0.48,0.97
		c0.2,0.27,0.45,0.47,0.64,0.66c0.31,0.32,0.73,0.45,0.94,0.55c-0.02,0-0.04,0-0.05,0c0,0,0,0,0,0c0.02,0.01,0.01,0,0,0
		c0.13,0.02,0.23,0.12,0.45,0.14c0.19-0.3,0.53-0.8,0.85-1.29c0.24-0.39,0.52-0.83,0.82-1.31c0.22,0.16,0.44,0.31,0.66,0.47
		c0.33,0.22,0.68,0.44,1.09,0.6c0.4,0.16,0.88,0.27,1.36,0.22c0.48-0.05,0.94-0.25,1.27-0.55c0.17-0.15,0.32-0.31,0.43-0.48
		c0.12-0.17,0.21-0.36,0.28-0.56c0.14-0.38,0.18-0.8,0.12-1.19c-0.06-0.39-0.19-0.76-0.37-1.11c-0.35-0.7-0.84-1.3-1.3-1.88
		c-0.18-0.22-0.36-0.44-0.55-0.66c0.21-0.5,0.4-1,0.54-1.5c0.04-0.15,0.08-0.3,0.08-0.47c0.01-0.16-0.02-0.34-0.08-0.49
		c-0.06-0.15-0.12-0.27-0.17-0.4c-0.05-0.12-0.09-0.24-0.12-0.37c-0.18-0.76-0.34-1.47-0.5-2.11c0.71,0.87,1.42,1.62,2.12,2.17
		c0.57,0.45,1.13,0.76,1.61,0.91c0.25,0.59,0.61,1.33,1.08,2.1c0.5,0.83,1.05,1.55,1.52,2.07c0.01,0.32,0.02,0.69,0.07,1.12
		c0.04,0.36,0.09,0.75,0.19,1.17c0.05,0.21,0.11,0.42,0.18,0.65c0.03,0.11,0.09,0.22,0.13,0.33c0.06,0.11,0.11,0.23,0.18,0.34
		c0.04,0.05,0.08,0.12,0.11,0.17l0.11,0.15c0.08,0.1,0.15,0.2,0.23,0.31c0.16,0.21,0.33,0.43,0.56,0.63
		c0.23,0.2,0.52,0.38,0.85,0.48c0.33,0.1,0.68,0.14,1.01,0.13c0.17,0,0.34-0.02,0.5-0.03l0.24-0.03c0.15,0,0.29-0.07,0.36-0.19
		c0.03-0.05,0.06-0.13,0.07-0.17c0.01-0.04,0.02-0.08,0.02-0.11c0.01-0.07,0.02-0.14,0.02-0.21c0.01-0.14,0.01-0.27,0.01-0.4
		c-0.01-0.44-0.05-0.85-0.09-1.25c0.07,0.08,0.15,0.16,0.22,0.24c0.32,0.32,0.64,0.59,0.92,0.79c0.14,0.11,0.47,0.36,0.59,0.43
		c0.06,0.04,0.54,0.31,1.31,0.47c0.19,0.04,0.4,0.06,0.62,0.06c0.11,0.01,0.22,0,0.34,0c0.06,0,0.12-0.01,0.18-0.01
		c0.03,0,0.06-0.01,0.09-0.01c0.02,0,0.02,0,0.05-0.01c0.02-0.01,0.05,0,0.08-0.01c0.05,0,0.09-0.02,0.13-0.03
		c0.04-0.02,0.07-0.05,0.09-0.09c0.05-0.07,0.06-0.17,0.07-0.24c0.01-0.12,0-0.23-0.01-0.34c-0.02-0.22-0.07-0.45-0.12-0.69
		c-0.1-0.47-0.24-0.96-0.39-1.47c-0.45-1.45-0.96-2.74-1.35-3.66c-0.01-0.02-0.02-0.04-0.03-0.06c0-0.03,0-0.06-0.01-0.09
		c-0.02-0.29-0.1-0.71-0.25-1.21c-0.15-0.5-0.38-1.09-0.65-1.73c-0.27-0.64-0.59-1.34-0.89-2.07c-0.15-0.37-0.29-0.72-0.39-1.07
		c-0.06-0.17-0.09-0.34-0.13-0.51c-0.01-0.05-0.02-0.11-0.03-0.16c0.69,0.55,1.37,1.01,1.92,1.36c0.1,0.18,0.22,0.37,0.36,0.59
		c0.28,0.43,0.65,0.94,1.1,1.47c0.23,0.27,0.48,0.54,0.76,0.81c0.28,0.27,0.59,0.54,0.95,0.78c0.71,0.47,1.49,0.83,2.26,0.99
		c0.39,0.08,0.76,0.12,1.12,0.1c0.35-0.02,0.67-0.07,0.96-0.14c0.56-0.14,1.01-0.33,1.22-0.56
		C223.84,42.21,223.86,42.08,223.83,42.01z M190.61,35.36c0.11-0.04,0.22-0.07,0.34-0.11c0.02,0.21,0.04,0.39,0.05,0.54
		C190.87,35.64,190.73,35.5,190.61,35.36z M181.7,40.56c-0.04,0-0.07-0.01-0.11-0.01c-0.16-0.1-0.33-0.21-0.51-0.32
		c0.37,0.03,0.7,0.04,0.99,0.05c0.24,0.16,0.48,0.31,0.71,0.43C182.44,40.65,182.08,40.61,181.7,40.56z M195.89,50.37
		c-0.18-0.18-0.37-0.41-0.54-0.67c-0.33-0.52-0.56-1.25-0.2-1.97c0.16-0.38,0.33-0.79,0.51-1.21c0.02-0.05,0.04-0.09,0.06-0.14
		c0.02,0.02,0.05,0.03,0.07,0.05c0.01,0.01,0.02,0.01,0.03,0.02c-0.07,0.47-0.2,0.86-0.3,1.12c-0.11,0.27-0.18,0.42-0.18,0.42
		s0.11-0.12,0.28-0.38c0.14-0.22,0.33-0.55,0.46-0.98c0.06,0.04,0.11,0.08,0.17,0.12l0,0c-0.42,0.98-0.64,1.61-0.64,1.61
		s0.36-0.53,0.89-1.44c0.03,0.02,0.07,0.05,0.1,0.07c-0.48,0.94-0.74,1.55-0.74,1.55s0.39-0.51,0.98-1.39
		c0.06,0.04,0.11,0.08,0.17,0.12c-0.45,0.79-0.81,1.38-0.81,1.38s0.4-0.45,1-1.25c0.04,0.03,0.08,0.06,0.12,0.08
		c-0.28,0.38-0.47,0.72-0.59,0.95c-0.13,0.25-0.19,0.4-0.19,0.4s0.1-0.12,0.28-0.35c0.17-0.21,0.41-0.5,0.73-0.84
		c0.04,0.03,0.08,0.06,0.13,0.09c-0.01,0.01-0.02,0.03-0.03,0.04c-0.23,0.3-0.54,0.72-0.81,1.23c-0.26,0.51-0.42,1.02-0.39,1.41
		c0.01,0.08,0,0.2,0.01,0.3C196.28,50.63,196.05,50.54,195.89,50.37z M197.77,49.79c-0.26,0.49-0.37,0.7-0.52,1.01
		c-0.08,0.11-0.17,0.17-0.26,0.2c-0.19-0.09-0.4-0.32-0.31-0.54c0.13-0.32,0.35-0.76,0.6-1.25c0.26-0.49,0.46-0.96,0.57-1.31
		c0.06,0.04,0.11,0.08,0.17,0.12c-0.27,0.4-0.44,0.76-0.54,1.01c-0.11,0.28-0.15,0.43-0.15,0.43s0.08-0.14,0.24-0.39
		c0.15-0.22,0.37-0.54,0.67-0.89c0.09,0.07,0.18,0.13,0.28,0.2C198.25,48.9,197.99,49.37,197.77,49.79z M202.74,33.29
		c0.05,0.02,0.1,0.03,0.14,0.05c-0.23,0.54-0.37,0.93-0.43,1.09c-0.12-0.08-0.23-0.15-0.27-0.22c-0.01-0.02-0.03-0.04-0.04-0.06
		C202.26,34,202.47,33.71,202.74,33.29z M202.33,33.15c0.03,0.01,0.05,0.02,0.08,0.03c0.02,0.01,0.04,0.01,0.06,0.02
		c-0.17,0.42-0.28,0.73-0.34,0.9c-0.06-0.09-0.12-0.18-0.18-0.27c0,0,0,0,0-0.01l-0.01,0c-0.03-0.04-0.05-0.07-0.08-0.11
		C201.94,33.62,202.11,33.43,202.33,33.15z M192.1,34.79c0.18-0.08,0.37-0.16,0.55-0.25c-0.05,0.16-0.09,0.31-0.1,0.36
		c-0.21,0.02-0.4,0.03-0.59,0.05C192,34.9,192.04,34.85,192.1,34.79z M193.67,35.08c0.1,0,0.21-0.01,0.31-0.01
		c-0.1,0.23-0.15,0.44-0.18,0.59c-0.02,0.1-0.03,0.17-0.03,0.23c-0.15,0.01-0.3,0.02-0.45,0.04c0.06-0.11,0.21-0.4,0.38-0.84
		L193.67,35.08z M194.87,35.05c0.1,0,0.2-0.01,0.31-0.01c-0.13,0.42-0.18,0.71-0.2,0.78c-0.01,0-0.01,0-0.02,0
		c-0.07,0-0.14,0.01-0.22,0.01c-0.29,0.01-0.6,0.04-0.93,0.06c0.02-0.05,0.05-0.11,0.1-0.19c0.08-0.16,0.21-0.38,0.39-0.63
		c0.09,0,0.19-0.01,0.28-0.01c-0.16,0.42-0.23,0.69-0.23,0.69S194.56,35.49,194.87,35.05z M193.3,35.93
		c-0.18,0.02-0.36,0.03-0.55,0.05c0.03-0.04,0.08-0.11,0.14-0.2c0.1-0.16,0.23-0.39,0.36-0.69c0.05,0,0.1,0,0.15,0
		C193.32,35.51,193.3,35.82,193.3,35.93z M192.79,35.74c-0.03,0.11-0.05,0.19-0.06,0.24c-0.1,0.01-0.19,0.02-0.29,0.03
		c-0.03,0-0.06,0.01-0.08,0.01c0.09-0.2,0.21-0.51,0.36-0.91c0.07,0,0.15,0,0.23-0.01C192.88,35.36,192.83,35.58,192.79,35.74z
		 M192.24,35.12c0.05,0,0.11,0,0.17,0c-0.07,0.39-0.12,0.7-0.15,0.91c-0.11,0.01-0.21,0.02-0.32,0.03
		C192.02,35.84,192.12,35.52,192.24,35.12z M191.87,34.89c0,0.01-0.01,0.02-0.01,0.02c-0.01,0.02-0.01,0.03-0.02,0.05
		c-0.06,0.01-0.12,0.01-0.18,0.02C191.73,34.94,191.8,34.91,191.87,34.89z M191.44,36.1c-0.04,0-0.08,0.01-0.12,0.01
		c-0.06-0.06-0.11-0.12-0.17-0.18c0.03-0.2,0.05-0.47,0.08-0.79c0.08,0,0.17,0,0.26-0.01C191.46,35.54,191.45,35.86,191.44,36.1z
		 M191.78,35.13C191.79,35.13,191.79,35.13,191.78,35.13c0,0.04-0.01,0.06-0.01,0.06s0.01-0.02,0.04-0.06c0.04,0,0.08,0,0.12,0
		c-0.05,0.4-0.07,0.73-0.09,0.94c-0.1,0.01-0.2,0.02-0.3,0.03C191.61,35.86,191.7,35.53,191.78,35.13z M196.78,39.77
		C196.78,39.77,196.78,39.77,196.78,39.77L196.78,39.77c-0.01,0.1-0.01,0.2-0.02,0.3c-0.51-0.26-0.99-0.54-1.45-0.82
		c-1.08-0.67-2.02-1.37-2.83-2.06c-0.27-0.23-0.53-0.46-0.77-0.69c0.25-0.01,0.51-0.03,0.77-0.06c0.85-0.08,1.63-0.21,2.27-0.32
		c0,0.02,0.01,0.04,0.01,0.07c0,0,0,0-0.01,0l0.01,0c0.03,0.19,0.08,0.39,0.15,0.6c0.11,0.31,0.25,0.63,0.45,0.96
		c0.4,0.65,0.89,1.16,1.26,1.51c0.06,0.06,0.12,0.11,0.17,0.16C196.8,39.53,196.79,39.65,196.78,39.77z M201.84,41.83
		c-0.12,0.39-0.28,0.79-0.44,1.19c-0.14-0.15-0.29-0.3-0.44-0.45c0.2-0.24,0.54-0.63,0.97-1.17
		C201.92,41.54,201.89,41.68,201.84,41.83z M201.87,41.05c-0.44,0.66-0.76,1.18-0.95,1.48c-0.04-0.03-0.07-0.07-0.11-0.1
		c-0.1-0.09-0.2-0.17-0.31-0.26c0.06-0.09,0.13-0.19,0.22-0.32c0.22-0.3,0.56-0.7,1.01-1.15C201.78,40.82,201.83,40.94,201.87,41.05
		z M201.55,39.97c0.02,0.1,0.04,0.21,0.06,0.31c0.01,0.05,0.02,0.1,0.03,0.14c-0.47,0.54-0.8,1.02-1.01,1.38
		c-0.07,0.13-0.13,0.24-0.17,0.33c-0.47-0.38-0.98-0.7-1.5-0.98c-0.51-0.27-1.02-0.52-1.52-0.76c0.06-0.14,0.11-0.26,0.16-0.36
		c0.07-0.15,0.11-0.23,0.11-0.23s-0.07,0.06-0.2,0.18c-0.08,0.08-0.17,0.18-0.27,0.31c-0.05-0.03-0.11-0.05-0.16-0.08
		c0.13-0.27,0.25-0.5,0.33-0.67c0.12-0.22,0.18-0.34,0.18-0.34s-0.1,0.1-0.27,0.29c-0.1,0.11-0.22,0.26-0.35,0.44
		c0-0.07-0.01-0.14-0.01-0.2c0.08-0.31,0.19-0.56,0.29-0.73c0.1-0.18,0.16-0.27,0.16-0.27s-0.1,0.07-0.25,0.22
		c-0.07,0.07-0.16,0.15-0.23,0.26c-0.01-0.1-0.01-0.18-0.02-0.24c0.23-0.43,0.34-0.7,0.34-0.7s-0.23,0.22-0.57,0.61
		c-0.01-0.02-0.02-0.03-0.03-0.05c0.31-0.58,0.48-0.94,0.48-0.94s-0.24,0.2-0.64,0.68c-0.03-0.05-0.06-0.09-0.09-0.14
		c0.28-0.46,0.42-0.77,0.42-0.77s-0.22,0.19-0.56,0.55c-0.04-0.06-0.07-0.11-0.11-0.17c0.12-0.22,0.22-0.4,0.3-0.53
		c0.1-0.16,0.15-0.26,0.15-0.26s-0.09,0.07-0.24,0.2c-0.1,0.09-0.22,0.21-0.36,0.37c-0.03-0.05-0.07-0.1-0.1-0.16
		c0.25-0.47,0.38-0.77,0.38-0.77s-0.2,0.19-0.51,0.55c-0.03-0.05-0.06-0.1-0.09-0.15c0.14-0.21,0.24-0.4,0.29-0.53
		c0.07-0.17,0.09-0.27,0.09-0.27s-0.07,0.08-0.19,0.23c-0.08,0.1-0.19,0.22-0.33,0.36c-0.03-0.06-0.07-0.12-0.1-0.18
		c0.34-0.5,0.51-0.81,0.51-0.81s-0.24,0.21-0.63,0.6c-0.02-0.05-0.05-0.1-0.07-0.15c0.07-0.12,0.14-0.22,0.19-0.29
		c0.08-0.1,0.13-0.16,0.13-0.16s-0.08,0.02-0.2,0.09c-0.06,0.03-0.14,0.08-0.22,0.14c-0.01-0.03-0.03-0.06-0.04-0.09
		c0.05-0.07,0.1-0.12,0.14-0.17c0.03-0.01,0.07-0.01,0.11-0.02c0.73-0.13,1.18-0.21,1.18-0.21s-0.46-0.03-1.21-0.01
		c-0.11,0-0.23,0.01-0.34,0.01c0.05-0.07,0.25-0.34,0.5-0.79c0.11,0,0.21-0.01,0.32-0.01c-0.09,0.18-0.15,0.34-0.19,0.47
		c-0.06,0.19-0.07,0.3-0.07,0.3s0.05-0.1,0.16-0.26c0.09-0.13,0.22-0.31,0.39-0.51c0.09,0,0.19-0.01,0.28-0.01
		c-0.11,0.19-0.17,0.36-0.21,0.48c-0.05,0.17-0.06,0.27-0.06,0.27s0.05-0.08,0.15-0.23c0.1-0.14,0.25-0.33,0.46-0.53
		c0.13-0.01,0.26-0.01,0.4-0.02c-0.06,0.16-0.1,0.31-0.14,0.44c-0.05,0.19-0.1,0.35-0.13,0.48c-0.07,0.26-0.13,0.41-0.13,0.41
		s0.1-0.12,0.23-0.37c0.07-0.12,0.14-0.28,0.23-0.45c0.08-0.16,0.16-0.34,0.27-0.52c0.08,0,0.15-0.01,0.23-0.01
		c-0.22,0.5-0.36,0.91-0.49,1.2c-0.14,0.34-0.25,0.53-0.25,0.53s0.14-0.16,0.34-0.48c0.19-0.29,0.42-0.74,0.72-1.26
		c0.03,0,0.06,0,0.09,0c0.12-0.01,0.25-0.01,0.37-0.02c-0.18,0.29-0.3,0.56-0.42,0.8c-0.14,0.3-0.26,0.55-0.36,0.76
		c-0.2,0.42-0.34,0.64-0.34,0.64s0.18-0.19,0.43-0.59c0.13-0.2,0.28-0.44,0.45-0.73c0.17-0.27,0.36-0.6,0.6-0.91
		c0.11-0.01,0.22-0.01,0.33-0.02l0.05,0l0.07,0.1c0.01,0.02,0.03,0.04,0.04,0.06c-0.52,0.85-0.96,1.54-1.27,2.03
		c-0.33,0.51-0.52,0.8-0.52,0.8s0.22-0.26,0.6-0.74c0.34-0.43,0.81-1.05,1.36-1.83c0.08,0.12,0.16,0.25,0.25,0.37
		c-0.74,0.83-1.27,1.55-1.61,2.07c-0.35,0.53-0.52,0.83-0.52,0.83s0.2-0.28,0.6-0.77c0.38-0.47,0.93-1.12,1.69-1.89
		c0.05,0.08,0.11,0.16,0.16,0.24c-1.2,1.71-1.91,2.8-1.91,2.8s0.8-0.95,2.07-2.56c0.05,0.07,0.1,0.14,0.15,0.21
		c-0.56,0.89-1.18,1.71-1.54,2.2c-0.37,0.51-0.59,0.78-0.59,0.78s0.25-0.25,0.67-0.72c0.41-0.46,0.98-1.15,1.62-2.05
		c0.06,0.08,0.12,0.16,0.17,0.24c-1.26,1.67-2.01,2.73-2.01,2.73s0.83-0.92,2.18-2.51c0.06,0.08,0.12,0.16,0.18,0.24
		c-0.53,0.84-1.04,1.5-1.42,1.95c-0.4,0.48-0.64,0.74-0.64,0.74s0.27-0.23,0.72-0.67c0.39-0.39,0.91-0.95,1.46-1.69
		c0.03,0.15,0.05,0.3,0.08,0.46c-0.83,1.18-1.31,1.94-1.31,1.94s0.52-0.58,1.37-1.6c0.02,0.11,0.04,0.23,0.06,0.35
		c-1.02,1.38-1.62,2.27-1.62,2.27s0.65-0.7,1.68-1.91c0.02,0.09,0.03,0.19,0.05,0.28c-0.49,0.61-0.83,1.14-1.07,1.51
		c-0.26,0.41-0.38,0.64-0.38,0.64s0.16-0.21,0.47-0.59C200.76,40.89,201.1,40.46,201.55,39.97z M210.67,50.27
		c-0.26-0.08-0.48-0.2-0.67-0.37c-0.19-0.16-0.36-0.36-0.53-0.56c-0.08-0.1-0.16-0.2-0.24-0.3l-0.12-0.15
		c-0.04-0.05-0.07-0.09-0.1-0.14c-0.07-0.09-0.12-0.19-0.18-0.29c-0.05-0.1-0.1-0.2-0.14-0.3c-0.08-0.2-0.15-0.41-0.22-0.61
		c-0.12-0.4-0.21-0.78-0.28-1.13c-0.07-0.33-0.12-0.63-0.15-0.9c-0.03-0.2-0.05-0.38-0.07-0.54c-0.06-0.54-0.05-0.85-0.05-0.85
		s-0.03,0.22-0.05,0.62c0,0.02,0,0.04,0,0.06c-0.31-0.5-0.67-1.11-1.07-1.75c-0.4-0.66-0.79-1.28-1.11-1.79
		c-0.02-0.03-0.03-0.05-0.05-0.08c-0.1-0.15-0.19-0.3-0.27-0.43c-0.37-0.59-0.6-0.96-0.6-0.96s0.11,0.41,0.37,1.05
		c0.02,0.06,0.05,0.13,0.08,0.19c-0.42-0.19-0.9-0.51-1.38-0.94c-0.66-0.59-1.33-1.39-2.01-2.31c-0.18-0.25-0.37-0.5-0.55-0.77
		c-0.1-0.14-0.2-0.29-0.3-0.43c-0.4-0.59-0.81-1.22-1.24-1.87l-0.04-0.07c0,0.01,0,0.01-0.01,0.02c-0.17-0.27-0.17-0.27-1.61-0.19
		c-0.69,0.04-1.36,0.09-2,0.14c-1.27,0.09-2.42,0.17-3.39,0.25c-0.04,0-0.08,0.01-0.13,0.01c0.03-0.05,0.09-0.16,0.21-0.33
		c0.03-0.04,0.06-0.08,0.09-0.13c0.12-0.06,0.25-0.12,0.37-0.19c-0.01,0.03-0.02,0.06-0.02,0.08c-0.07,0.23-0.09,0.36-0.09,0.36
		s0.07-0.11,0.18-0.32c0.04-0.07,0.09-0.14,0.14-0.23c0.01-0.01,0.02-0.01,0.04-0.02c0.11-0.06,0.21-0.11,0.31-0.17
		c-0.17,0.43-0.25,0.69-0.25,0.69s0.23-0.32,0.58-0.88c0.14-0.09,0.28-0.17,0.41-0.26c-0.1,0.2-0.18,0.38-0.24,0.52
		c-0.11,0.25-0.15,0.4-0.15,0.4s0.09-0.12,0.25-0.35c0.15-0.22,0.37-0.52,0.65-0.9c0.05-0.03,0.1-0.07,0.15-0.1
		c0.03,0,0.06,0.01,0.08,0.01c-0.39,0.85-0.6,1.38-0.6,1.38s0.36-0.49,0.9-1.35c0.03,0,0.05,0.01,0.08,0.01
		c0.04,0,0.08,0.01,0.11,0.01c-0.36,0.84-0.53,1.38-0.53,1.38s0.41-0.54,0.89-1.33c0.05,0.01,0.11,0.02,0.16,0.02
		c-0.21,0.36-0.33,0.67-0.39,0.9c-0.07,0.23-0.08,0.36-0.08,0.36s0.06-0.12,0.18-0.33c0.11-0.19,0.36-0.56,0.61-0.88
		c0.08,0.01,0.16,0.02,0.24,0.04c-0.35,0.72-0.52,1.18-0.52,1.18s0.33-0.42,0.82-1.14c0.11,0.02,0.21,0.03,0.32,0.05
		c-0.13,0.28-0.2,0.52-0.24,0.69c-0.04,0.19-0.05,0.3-0.05,0.3s0.05-0.1,0.15-0.27c0.09-0.16,0.24-0.39,0.43-0.66
		c0.11,0.03,0.22,0.05,0.33,0.08c-0.21,0.51-0.31,0.84-0.31,0.84s0.23-0.29,0.57-0.79c0.08,0.02,0.17,0.03,0.26,0.04
		c-0.13,0.23-0.19,0.43-0.23,0.58c-0.04,0.17-0.04,0.27-0.04,0.27s0.04-0.09,0.14-0.23c0.09-0.14,0.23-0.35,0.44-0.57
		c0.08,0.01,0.16,0.02,0.25,0.03c-0.05,0.15-0.1,0.28-0.14,0.39c-0.07,0.16-0.11,0.25-0.11,0.25s0.08-0.07,0.2-0.2
		c0.09-0.1,0.2-0.23,0.31-0.41c0.19,0.01,0.39,0.02,0.59,0.03c-0.12,0.18-0.18,0.34-0.22,0.46c-0.06,0.19-0.06,0.3-0.06,0.3
		s0.05-0.1,0.16-0.27c0.09-0.14,0.24-0.32,0.45-0.5c0.02,0,0.04,0,0.06,0c0.08,0,0.17,0,0.25-0.01c-0.26,0.56-0.39,0.91-0.39,0.91
		s0.24-0.29,0.61-0.81c0.06,0.02,0.12,0.04,0.17,0.06c-0.13,0.28-0.25,0.51-0.34,0.68c-0.14,0.25-0.23,0.39-0.23,0.39
		s0.12-0.11,0.31-0.34c0.13-0.16,0.3-0.37,0.47-0.64c0.09,0.04,0.17,0.09,0.24,0.13c-0.14,0.29-0.27,0.53-0.37,0.71
		c-0.15,0.26-0.24,0.4-0.24,0.4s0.13-0.12,0.33-0.35c0.13-0.15,0.29-0.35,0.47-0.61c0.03,0.05,0.06,0.09,0.09,0.14
		c0.02,0.03,0.06,0.08,0.1,0.12c-0.54,0.86-0.84,1.41-0.84,1.41s0.41-0.45,1.05-1.24c0.04,0.03,0.09,0.06,0.13,0.08
		c-0.25,0.51-0.54,0.99-0.71,1.27c-0.18,0.29-0.29,0.45-0.29,0.45s0.14-0.13,0.37-0.4c0.23-0.26,0.54-0.65,0.86-1.18
		c0.07,0.04,0.14,0.07,0.2,0.11c-0.75,1.28-1.18,2.11-1.18,2.11s0.57-0.73,1.45-1.97c0.04,0.02,0.08,0.04,0.12,0.06
		c0.08,0.04,0.15,0.08,0.22,0.11c-0.41,0.61-0.75,1.22-0.94,1.58c-0.2,0.38-0.3,0.59-0.3,0.59s0.14-0.19,0.39-0.54
		c0.24-0.33,0.63-0.92,1.08-1.5c0.05,0.03,0.09,0.05,0.14,0.08c0.08,0.04,0.15,0.09,0.23,0.13l-0.08,0.11
		c-0.5,0.67-0.88,1.23-1.13,1.62c-0.26,0.41-0.39,0.64-0.39,0.64s0.17-0.2,0.47-0.58c0.31-0.38,0.76-0.92,1.35-1.6l0.01-0.05
		c0.08,0.05,0.16,0.09,0.24,0.14c-0.4,0.68-0.77,1.22-1.04,1.6c-0.28,0.4-0.45,0.62-0.45,0.62s0.2-0.19,0.53-0.56
		c0.31-0.35,0.74-0.85,1.2-1.52c0.06,0.03,0.12,0.07,0.18,0.1c0.05,0.03,0.1,0.05,0.14,0.08c-0.51,0.62-0.86,1.16-1.08,1.55
		c-0.23,0.39-0.34,0.62-0.34,0.62s0.14-0.2,0.42-0.56c0.28-0.36,0.69-0.86,1.25-1.46c0.06,0.03,0.12,0.06,0.17,0.09
		c-0.41,0.76-0.8,1.36-1.08,1.77c-0.29,0.42-0.47,0.65-0.47,0.65s0.21-0.2,0.55-0.59c0.33-0.38,0.79-0.94,1.26-1.69
		c0.08,0.05,0.17,0.09,0.25,0.14c-0.49,0.76-0.91,1.37-1.2,1.79c-0.31,0.44-0.48,0.68-0.48,0.68s0.2-0.21,0.56-0.62
		c0.34-0.39,0.82-0.97,1.38-1.71c0.1,0.05,0.19,0.1,0.28,0.15c-0.59,0.76-1.03,1.41-1.32,1.87c-0.3,0.48-0.45,0.75-0.45,0.75
		s0.19-0.24,0.53-0.69c0.34-0.43,0.84-1.05,1.49-1.79c0.02,0.01,0.04,0.02,0.06,0.03c0.09,0.05,0.16,0.09,0.24,0.13
		c-0.94,1.26-1.48,2.07-1.48,2.07s0.65-0.68,1.67-1.85c0.05,0.11,0.1,0.24,0.16,0.39c-0.91,1.33-1.45,2.18-1.45,2.18
		s0.54-0.6,1.57-1.89c0.05,0.1,0.09,0.21,0.14,0.32c-0.35,0.68-0.81,1.44-1.07,1.79c-0.28,0.37-0.45,0.57-0.45,0.57
		s0.2-0.17,0.53-0.51c0.31-0.33,0.74-0.82,1.15-1.5c0.04,0.08,0.07,0.16,0.11,0.24l-0.1,0.25c-0.4,0.65-0.77,1.15-1.04,1.5
		c-0.29,0.37-0.45,0.57-0.45,0.57s0.19-0.17,0.53-0.51c0.32-0.32,0.76-0.81,1.23-1.47c0.06,0.13,0.13,0.26,0.19,0.39
		c-0.48,0.55-0.93,1.15-1.15,1.48c-0.23,0.36-0.35,0.57-0.35,0.57s0.15-0.18,0.43-0.51c0.27-0.31,0.67-0.76,1.2-1.28
		c0.05,0.1,0.11,0.21,0.16,0.32c-0.98,1.36-1.55,2.24-1.55,2.24s0.65-0.72,1.69-1.97c0.03,0.05,0.05,0.09,0.08,0.14
		c0.04,0.08,0.09,0.16,0.13,0.24c-0.12,0.31-0.32,0.58-0.5,0.81c-0.21,0.26-0.4,0.48-0.54,0.67c-0.14,0.19-0.24,0.34-0.3,0.45
		c-0.05,0.11-0.08,0.17-0.08,0.17s0.04-0.05,0.11-0.15c0.07-0.1,0.19-0.24,0.35-0.4c0.16-0.17,0.38-0.37,0.62-0.61
		c0.17-0.17,0.35-0.38,0.51-0.63c0.03,0.06,0.06,0.12,0.1,0.17c-0.39,0.65-0.85,1.39-1.1,1.74c-0.26,0.37-0.41,0.57-0.41,0.57
		s0.18-0.18,0.49-0.51c0.3-0.33,0.73-0.83,1.19-1.49c0.06,0.11,0.13,0.22,0.19,0.32l-0.05,0.11c-0.31,0.56-0.62,1-0.84,1.3
		c-0.23,0.31-0.38,0.47-0.38,0.47s0.17-0.14,0.45-0.42c0.26-0.26,0.62-0.65,0.99-1.19c0.06,0.1,0.12,0.2,0.18,0.29
		c-0.41,0.51-0.69,0.95-0.88,1.27c-0.2,0.35-0.3,0.55-0.3,0.55s0.13-0.18,0.38-0.49c0.22-0.27,0.53-0.64,0.94-1.08
		c0.07,0.12,0.14,0.22,0.21,0.33c-0.52,0.61-1.03,1.29-1.29,1.65c-0.28,0.38-0.42,0.6-0.42,0.6s0.18-0.19,0.5-0.54
		c0.32-0.34,0.79-0.83,1.39-1.43c0.03,0.05,0.06,0.1,0.09,0.14c-0.41,0.65-0.86,1.26-1.14,1.6c-0.29,0.35-0.47,0.54-0.47,0.54
		s0.2-0.16,0.54-0.48c0.33-0.31,0.77-0.77,1.24-1.4c0.03,0.04,0.05,0.08,0.07,0.11c0.02,0.05,0.04,0.1,0.06,0.14
		c-0.57,0.67-1.01,1.25-1.3,1.65c-0.29,0.41-0.45,0.64-0.45,0.64s0.19-0.2,0.53-0.58c0.31-0.34,0.77-0.83,1.34-1.42
		c0.04,0.09,0.08,0.18,0.11,0.26c-0.51,0.8-0.97,1.43-1.3,1.86c-0.34,0.44-0.54,0.68-0.54,0.68s0.23-0.21,0.61-0.62
		c0.26-0.27,0.59-0.64,0.95-1.09c-0.01,0.13-0.02,0.3-0.03,0.51c-0.19,0.25-0.62,0.82-0.79,1.03c-0.29,0.34-0.44,0.53-0.44,0.53
		s0.18-0.16,0.5-0.47c0.19-0.19,0.44-0.44,0.72-0.76c0,0.14,0,0.29,0,0.45c-0.29,0.46-0.55,0.82-0.75,1.07
		c-0.22,0.28-0.35,0.43-0.35,0.43s0.16-0.12,0.42-0.37c0.19-0.17,0.42-0.41,0.68-0.72c0.01,0.12,0.01,0.25,0.02,0.38
		c-0.17,0.27-0.41,0.57-0.48,0.7c-0.09,0.17-0.14,0.27-0.14,0.27s0.09-0.07,0.23-0.21c0.11-0.11,0.26-0.27,0.41-0.48
		c0,0.02,0,0.03,0,0.05c0.02,0.19,0.04,0.37,0.07,0.55c-0.41,0.53-0.63,0.86-0.63,0.86s0.13,0,0.68-0.52
		c0.01,0.09,0.03,0.18,0.05,0.27c-0.34,0.48-0.51,0.8-0.51,0.8s0.22-0.17,0.57-0.5c0.06,0.3,0.12,0.56,0.17,0.75
		C210.93,50.34,210.8,50.31,210.67,50.27z M211.06,45.23c0.02,0.13,0.05,0.27,0.09,0.42l-0.12,0.08c-0.06,0.04-0.09,0.1-0.21,0.2
		c-0.03-0.12-0.06-0.21-0.08-0.28C210.84,45.51,210.95,45.37,211.06,45.23z M212.22,50.04c-0.01,0.06-0.01,0.12-0.02,0.18
		c0,0.03-0.01,0.06-0.02,0.08c-0.01,0.03,0,0.02-0.01,0.02c0,0,0,0-0.01,0l-0.22,0.03c-0.15,0.01-0.3,0.02-0.44,0.03
		c-0.09,0-0.19,0-0.28-0.01c0.03-0.46,0.06-1.31-0.03-2.26c-0.07-0.72-0.19-1.36-0.3-1.83c0.05-0.05,0.09-0.11,0.14-0.17
		c0.2,1.03,0.27,1.88,0.3,2.48c0.03,0.6,0.02,0.94,0.02,0.94s0.05-0.33,0.08-0.93c0.02-0.44,0.04-1.24-0.01-2.07
		c0.13,0.32,0.3,0.66,0.51,0.99c0.06,0.1,0.13,0.19,0.2,0.29c0.01,0.13,0.02,0.26,0.03,0.39c0.03,0.47,0.06,0.96,0.06,1.46
		C212.23,49.79,212.23,49.91,212.22,50.04z M213.09,38.73c-0.04,0.07-0.08,0.13-0.08,0.13c-0.02,0.01,0.17-0.32-0.08,0.06
		l-0.02-0.01c-0.93,1.26-1.47,2.08-1.47,2.08s0.67-0.71,1.72-1.93c0.01,0.01,0.01,0.03,0.01,0.02c0,0,0.02-0.01,0.04-0.05
		c0.04,0.1,0.08,0.19,0.12,0.29c-0.91,1.2-1.66,2.11-1.66,2.11s0.68-0.7,1.75-1.91c0.04,0.09,0.08,0.18,0.12,0.26
		c-0.48,0.65-0.84,1.19-1.09,1.57c-0.25,0.39-0.37,0.61-0.37,0.61s0.16-0.2,0.46-0.56c0.27-0.33,0.65-0.79,1.14-1.35
		c0.04,0.09,0.09,0.17,0.13,0.26c-0.94,1.36-1.62,2.42-1.62,2.42s0.69-0.79,1.77-2.13c0.05,0.09,0.09,0.18,0.13,0.27
		c0.02,0.04,0.04,0.08,0.06,0.12c-0.39,0.68-0.78,1.21-1.07,1.57c-0.28,0.36-0.46,0.55-0.46,0.55s0.2-0.16,0.53-0.49
		c0.3-0.3,0.71-0.74,1.14-1.33c0.06,0.13,0.13,0.25,0.19,0.37c-0.44,0.63-0.95,1.29-1.24,1.63c-0.3,0.35-0.47,0.55-0.47,0.55
		s0.2-0.16,0.55-0.48c0.33-0.31,0.8-0.78,1.3-1.4c0.08,0.16,0.15,0.32,0.22,0.46l-0.06-0.08c-1.07,1.41-1.78,2.38-1.78,2.38
		s0.74-0.78,1.91-2.13c0.02,0.05,0.04,0.12,0.07,0.22c-0.68,1.05-1.07,1.73-1.07,1.73s0.45-0.51,1.16-1.39
		c0.03,0.12,0.07,0.26,0.11,0.41c-0.56,0.64-1.1,1.37-1.39,1.75c-0.29,0.38-0.43,0.6-0.43,0.6s0.18-0.19,0.51-0.54
		c0.33-0.34,0.8-0.83,1.41-1.43c0.02,0.09,0.05,0.17,0.07,0.26c-0.09,0.14-0.21,0.27-0.36,0.37c-0.44,0.47-0.75,0.89-0.95,1.2
		c-0.23,0.36-0.34,0.56-0.34,0.56s0.14-0.18,0.42-0.51c0.26-0.3,0.65-0.72,1.19-1.2c0.02,0.04,0.04,0.07,0.06,0.1
		c0,0,0.01,0.01,0.01,0.01l-0.06,0.14l0.12-0.3c0,0,0,0,0,0c-0.08,0.28-0.33,0.79-0.38,0.94c-0.06,0.16-0.09,0.25-0.09,0.25
		s0.07-0.07,0.18-0.2c0.1-0.12,0.22-0.29,0.34-0.52c0.07,0.37,0.11,1.04,0.11,1.04s0.05-0.26,0.09-0.52
		c0.2,0.77,0.41,1.52,0.56,2.03c0.15,0.5,0.3,0.99,0.42,1.44c0.06,0.23,0.12,0.44,0.15,0.65c0.02,0.1,0.03,0.2,0.04,0.29
		c0,0.03,0,0.03,0,0.05c0,0.02-0.02,0.02-0.03,0.02c-0.01,0-0.01,0-0.05,0.01c-0.03,0-0.05,0.01-0.08,0.01
		c-0.05,0.01-0.11,0.01-0.16,0.02c-0.11,0.01-0.21,0.02-0.31,0.02c-0.2,0.01-0.4,0-0.58-0.01c-0.73-0.05-1.64-0.72-1.75-0.85
		c-0.23-0.24-0.49-0.53-0.76-0.86c-0.23-0.28-0.46-0.6-0.68-0.94c-0.04-0.06-0.08-0.12-0.12-0.18c-0.12-0.19-0.23-0.38-0.34-0.57
		c-0.12-0.21-0.23-0.41-0.33-0.61c-0.18-0.37-0.33-0.72-0.43-1.01c-0.06-0.15-0.1-0.28-0.14-0.4c-0.04-0.12-0.07-0.22-0.1-0.31
		c-0.05-0.17-0.08-0.26-0.08-0.26s0,0.1,0,0.27c0,0.05-0.23-0.38-0.45-0.78c-0.31-0.72-0.79-1.76-1.4-2.9
		c-0.74-1.39-1.5-2.55-1.92-3.18c0.78,0.41,1.25,0.65,1.25,0.65s-0.56-0.4-1.51-1.02c0,0-0.08-0.1-0.06-0.04
		c-0.03-0.02-0.07-0.04-0.1-0.07c-0.52-0.34-1.14-0.74-1.83-1.18c-0.35-0.22-0.72-0.44-1.1-0.68c-0.1-0.06-0.19-0.12-0.29-0.18
		c-0.1-0.06-0.22-0.12-0.32-0.18c-0.21-0.11-0.42-0.21-0.62-0.33c-0.06-0.03-0.12-0.07-0.18-0.11c0.1-0.14,0.35-0.49,0.68-1.01
		c0.13,0.04,0.27,0.08,0.41,0.13c-0.15,0.29-0.29,0.54-0.38,0.71c-0.12,0.21-0.18,0.32-0.18,0.32s0.1-0.09,0.27-0.27
		c0.15-0.16,0.35-0.39,0.57-0.69c0.08,0.02,0.15,0.04,0.23,0.07c-0.19,0.32-0.32,0.59-0.39,0.79c-0.09,0.24-0.12,0.38-0.12,0.38
		s0.07-0.12,0.22-0.33c0.13-0.19,0.32-0.46,0.58-0.76c0.1,0.03,0.2,0.05,0.3,0.08c-0.44,0.7-0.68,1.15-0.68,1.15
		s0.38-0.39,0.96-1.08c0.08,0.02,0.17,0.04,0.25,0.06c-0.48,0.7-0.74,1.15-0.74,1.15s0.4-0.39,1.03-1.09
		c0.08,0.02,0.17,0.04,0.26,0.05c-0.49,0.83-0.75,1.35-0.75,1.35s0.41-0.47,1.04-1.3c0.06,0.01,0.12,0.02,0.18,0.04
		c0.04,0.01,0.08,0.02,0.12,0.02c-0.33,0.43-0.55,0.8-0.69,1.07c-0.16,0.3-0.23,0.47-0.23,0.47s0.11-0.15,0.32-0.41
		c0.2-0.26,0.51-0.63,0.92-1.06c0.13,0.02,0.25,0.05,0.38,0.07c-0.38,0.52-0.66,0.95-0.85,1.27c-0.21,0.34-0.31,0.54-0.31,0.54
		s0.14-0.17,0.4-0.48c0.25-0.3,0.62-0.74,1.09-1.27c0.13,0.02,0.25,0.04,0.37,0.05c-0.42,0.53-0.72,0.98-0.93,1.3
		c-0.21,0.33-0.31,0.52-0.31,0.52s0.14-0.16,0.39-0.46c0.24-0.28,0.75-0.81,1.22-1.3c0.14,0.02,0.28,0.03,0.42,0.05
		c-0.4,0.49-0.7,0.92-0.9,1.22c-0.23,0.34-0.34,0.53-0.34,0.53s0.15-0.17,0.42-0.47c0.27-0.3,0.66-0.73,1.16-1.24
		c0.16,0.01,0.31,0.03,0.46,0.03c-1,1.21-1.58,1.99-1.58,1.99s0.75-0.72,1.95-1.97c0.14,0.01,0.28,0.01,0.41,0.01
		c-0.67,0.79-1.17,1.47-1.5,1.95c-0.35,0.51-0.53,0.8-0.53,0.8s0.21-0.26,0.61-0.74c0.4-0.47,0.99-1.16,1.77-1.98l-0.02-0.02
		c0.11,0.06,0.23,0.12,0.36,0.19c-0.75,1-1.41,1.79-1.89,2.34c-0.5,0.57-0.7,0.78-0.7,0.78s0.23-0.18,0.77-0.71
		c0.52-0.51,1.24-1.25,2.05-2.23c0.08,0.08,0.16,0.16,0.24,0.25c-1.41,1.73-2.25,2.83-2.25,2.83s0.94-0.97,2.45-2.63
		c0.08,0.08,0.17,0.17,0.26,0.25c0,0,0,0.01,0.01,0.01c-0.69,0.83-1.21,1.53-1.57,2.02c-0.35,0.49-0.54,0.77-0.54,0.77
		s0.22-0.25,0.62-0.71c0.39-0.44,0.95-1.07,1.66-1.85c0.09,0.11,0.2,0.21,0.3,0.3c-0.73,0.97-1.37,1.74-1.82,2.27
		c-0.47,0.55-0.75,0.86-0.75,0.86s0.3-0.27,0.82-0.79c0.49-0.49,1.18-1.21,1.97-2.15c0.07,0.07,0.12,0.14,0.15,0.22
		c0.03,0.07,0.05,0.14,0.07,0.22c-1.08,1.19-1.72,1.96-1.72,1.96s0.67-0.59,1.77-1.65c0.02,0.11,0.04,0.22,0.06,0.32
		c-0.03,0.07-0.06,0.13-0.06,0.15l-0.01-0.01c-1.38,1.52-2.21,2.5-2.21,2.5s0.91-0.83,2.38-2.26c0.03,0.09,0.06,0.18,0.09,0.28
		c-0.98,1.21-1.55,1.99-1.55,1.99s0.64-0.62,1.66-1.69C213.03,38.57,213.06,38.65,213.09,38.73z"/>
	<path class="st0" d="M210.06,34.41C210.06,34.41,210.06,34.41,210.06,34.41C210.05,34.41,210.05,34.41,210.06,34.41z"/>
	<path class="st0" d="M221.81,39.32c-0.01-0.01-0.01-0.02-0.02-0.03c-0.3-0.55-0.76-1.34-1.51-2.22c-0.37-0.44-0.83-0.89-1.33-1.36
		c-0.5-0.47-1.05-0.96-1.56-1.51c-0.13-0.14-0.25-0.28-0.38-0.42c-0.12-0.15-0.24-0.3-0.36-0.45c-0.12-0.15-0.23-0.31-0.35-0.47
		c-0.06-0.08-0.12-0.17-0.18-0.25c-0.07-0.08-0.13-0.17-0.21-0.25c-0.29-0.32-0.61-0.61-0.94-0.9c-0.33-0.28-0.66-0.57-1-0.86
		c-0.16-0.15-0.33-0.29-0.49-0.44c-0.08-0.07-0.18-0.15-0.27-0.23c-0.1-0.07-0.19-0.14-0.3-0.2c-0.41-0.25-0.85-0.42-1.29-0.56
		c-0.44-0.13-0.87-0.23-1.29-0.33c-0.42-0.1-0.82-0.2-1.22-0.31c-1.6-0.41-3.05-0.73-4.27-1.01c-0.46-0.1-0.89-0.2-1.29-0.29
		c-0.13-0.06-0.29-0.13-0.46-0.19c-0.36-0.39-0.78-0.84-1.27-1.37c-0.39-0.41-0.81-0.87-1.28-1.35c-0.12-0.12-0.24-0.24-0.35-0.36
		c-0.11-0.13-0.23-0.26-0.35-0.39c-0.24-0.26-0.49-0.55-0.86-0.78c-0.18-0.12-0.42-0.2-0.64-0.24c-0.22-0.05-0.44-0.07-0.66-0.09
		c-0.44-0.04-0.88-0.05-1.31-0.08c-0.88-0.08-1.81-0.15-2.75-0.2c-3.15-0.16-6.06-0.21-8.37-0.26c-0.99-0.33-1.96-0.64-2.9-0.95
		c-1.14-0.37-2.27-0.67-3.36-0.91c-1.09-0.24-2.14-0.41-3.12-0.55c-0.99-0.13-1.91-0.2-2.76-0.26c-1.69-0.09-3.06-0.06-4.01-0.01
		c-0.07,0-0.13,0.01-0.2,0.01c-0.51-0.09-1.1-0.16-1.77-0.21c-1.28-0.09-2.81-0.13-4.51,0.04c-0.42,0.05-0.87,0.11-1.3,0.21
		c-0.44,0.1-0.87,0.23-1.3,0.38c-0.43,0.15-0.86,0.31-1.3,0.47c-0.44,0.17-0.88,0.35-1.31,0.55c-1.75,0.79-3.19,1.84-4.53,2.68
		c-0.68,0.4-1.39,0.7-2.07,0.95c-0.54,0.2-1.07,0.36-1.56,0.51c-0.24,0.06-0.49,0.12-0.76,0.18c-1.03,0.24-2.25,0.52-3.61,0.83
		c-0.68,0.16-1.39,0.33-2.13,0.52c-0.31,0.08-0.62,0.17-0.94,0.26c0,0.02,0,0.04-0.01,0.05c0,0.14,2.53-0.3,3.2-0.48
		c1.15-0.31,2.2-0.59,3.11-0.85c0.27-0.06,0.55-0.12,0.84-0.19c0.62-0.15,1.29-0.33,2-0.56c0.71-0.23,1.46-0.52,2.18-0.93
		c1.41-0.83,2.83-1.83,4.53-2.6c0.84-0.38,1.72-0.71,2.55-1.02c0.42-0.15,0.83-0.28,1.25-0.39c0.41-0.11,0.82-0.17,1.23-0.23
		c1.65-0.21,3.17-0.22,4.43-0.19c0.34,0.01,0.65,0.03,0.95,0.05c-0.02,0,0.45,0.04,0.47,0.04c1.31,0.18,3.31,0.87,3.31,0.87
		s-0.81-0.36-0.98-0.44c-0.04-0.02-0.09-0.04-0.14-0.06c-0.05-0.02-0.11-0.04-0.18-0.06c-0.13-0.04-0.27-0.1-0.45-0.14
		c-0.25-0.07-0.08-0.04-0.42-0.11c0.94-0.01,1.79-0.08,3.39,0.06c0.84,0.08,1.75,0.18,2.72,0.33c0.97,0.15,2,0.35,3.07,0.61
		c1.07,0.25,2.17,0.57,3.3,0.94c0.52,0.17,1.04,0.35,1.57,0.53c0.26,0.09,0.53,0.18,0.79,0.27c0.38,0.13,0.76,0.25,1.14,0.38
		c0.3,0.1,0.6,0.2,0.9,0.3c0.3,0.09,0.6,0.18,0.9,0.27c0.59,0.19,1.2,0.32,1.78,0.47c1.18,0.26,2.34,0.48,3.45,0.63
		c2.21,0.32,4.21,0.49,5.8,0.93c0.4,0.09,0.77,0.23,1.12,0.35c0.06,0.02,0.12,0.04,0.18,0.07c0.02,0.03,0.05,0.06,0.08,0.09
		c0.15,0.17,0.32,0.43,0.57,0.69c0.26,0.26,0.59,0.45,0.85,0.52c0.09,0.03,0.18,0.04,0.25,0.04c0.24,0.1,0.57,0.22,0.93,0.32
		c0.48,0.13,0.92,0.2,1.2,0.23c0.33,0.09,0.68,0.19,1.05,0.29c1.2,0.33,2.63,0.7,4.21,1.15c0.39,0.11,0.8,0.23,1.22,0.34
		c0.42,0.11,0.84,0.21,1.25,0.35c0.41,0.13,0.81,0.29,1.16,0.51c0.18,0.11,0.33,0.23,0.49,0.38c0.16,0.15,0.33,0.3,0.5,0.45
		c0.67,0.6,1.38,1.13,1.92,1.71c0.07,0.07,0.13,0.15,0.19,0.22c0.06,0.08,0.12,0.16,0.18,0.23c0.12,0.16,0.24,0.32,0.37,0.48
		c0.13,0.15,0.26,0.31,0.39,0.45c0.14,0.14,0.27,0.29,0.4,0.43c0.55,0.55,1.12,1.03,1.64,1.48c0.52,0.45,0.99,0.87,1.38,1.29
		c0.65,0.69,1.12,1.33,1.45,1.83c-0.03-0.03-0.07-0.07-0.1-0.1c-0.12-0.12-0.23-0.23-0.36-0.34c-0.13-0.1-0.28-0.19-0.45-0.22
		c-0.04-0.01-0.08-0.01-0.12-0.01c-0.04,0-0.09,0-0.13,0.02c-0.08,0.02-0.14,0.06-0.18,0.09c-0.09,0.08-0.14,0.17-0.14,0.24
		c0,0.04,0,0.08,0.02,0.1c0,0.03,0.01,0.06,0.02,0.11c0.02,0.11,0.06,0.28,0.12,0.48c0.12,0.4,0.36,0.94,0.76,1.47
		c0.4,0.53,0.88,0.94,1.25,1.2c0.19,0.13,0.34,0.23,0.46,0.29c0.11,0.06,0.18,0.1,0.18,0.1s-0.17-0.21-0.44-0.54
		c-0.27-0.33-0.63-0.79-1-1.29c-0.38-0.51-0.71-0.97-0.95-1.32c-0.15-0.22-0.26-0.39-0.33-0.48c-0.01-0.03-0.01-0.07,0.01-0.11
		c0.05-0.1,0.25-0.24,0.42-0.14c0.19,0.08,0.34,0.3,0.54,0.57c0.2,0.26,0.42,0.54,0.67,0.82c1,1.14,2.01,1.93,2.01,1.93
		s-0.6-1.06-1.6-2.2C222.05,39.58,221.93,39.45,221.81,39.32z M201.43,26.69c-0.19-0.13-0.4-0.34-0.64-0.58
		c-0.1-0.1-0.2-0.19-0.3-0.28c0.03,0.01,0.07,0.03,0.1,0.04l0,0l0,0c0,0,0.01,0,0.01,0.01c0.28,0.15,0.54,0.3,0.77,0.44
		c0.23,0.14,0.42,0.3,0.61,0.42c0.01,0.01,0.02,0.01,0.02,0.02C201.78,26.72,201.58,26.7,201.43,26.69z M202.64,26.89
		c-0.07-0.02-0.15-0.04-0.22-0.05c-0.15-0.15-0.3-0.3-0.32-0.32c-1.53-1.41-2.5-2.25-2.5-2.25s0.69,0.76,1.91,2.02
		c-0.02-0.02-0.05-0.03-0.07-0.05c-0.23-0.14-0.48-0.31-0.76-0.47c-0.05-0.03-0.11-0.06-0.17-0.08c-0.71-0.61-1.28-1.12-1.68-1.48
		c-0.43-0.39-0.66-0.61-0.66-0.61s0.2,0.24,0.57,0.66c0.25,0.28,0.6,0.65,1.02,1.07c-0.01,0-0.02-0.01-0.03-0.01
		c-0.18-0.07-0.36-0.14-0.54-0.21c-0.11-0.05-0.22-0.08-0.34-0.11l0.02-0.01c-0.69-0.65-1.17-1.03-1.17-1.03s0.24,0.35,0.7,0.92
		c-0.29-0.08-0.59-0.16-0.9-0.23c-0.51-0.47-0.86-0.75-0.86-0.75s0.15,0.25,0.44,0.66c-0.25-0.05-0.51-0.1-0.78-0.15
		c-0.4-0.32-0.69-0.49-0.69-0.49s0.1,0.16,0.29,0.42c-0.21-0.04-0.43-0.07-0.64-0.1c-0.42-0.33-0.71-0.5-0.71-0.5
		s0.1,0.17,0.31,0.44c-0.33-0.05-0.66-0.1-1-0.15c-0.12-0.08-0.21-0.16-0.29-0.22c-0.14-0.12-0.22-0.2-0.22-0.2s0.03,0.09,0.13,0.25
		c0.02,0.04,0.05,0.08,0.09,0.13c-0.18-0.03-0.37-0.06-0.55-0.09c-0.23-0.19-0.38-0.29-0.38-0.29s0.05,0.09,0.14,0.25
		c-1.09-0.17-2.21-0.4-3.37-0.66c-0.57-0.16-1.17-0.29-1.75-0.48c-0.29-0.09-0.59-0.18-0.89-0.27c-0.17-0.06-0.33-0.11-0.5-0.17
		c2.12,0.12,4.64,0.23,7.33,0.37c0.94,0.05,1.85,0.11,2.74,0.18c0.46,0.03,0.89,0.03,1.31,0.06c0.41,0.03,0.81,0.07,1.09,0.25
		c0.3,0.18,0.55,0.44,0.8,0.69c0.12,0.13,0.24,0.26,0.37,0.38c0.13,0.13,0.26,0.24,0.38,0.36c0.49,0.46,0.94,0.89,1.35,1.29
		c0.44,0.42,0.83,0.8,1.17,1.13C202.76,26.93,202.7,26.91,202.64,26.89z"/>
	<path class="st0" d="M199.68,34.65l0.01,0.01C199.69,34.66,199.69,34.65,199.68,34.65C199.68,34.65,199.68,34.65,199.68,34.65z"/>
	<path class="st0" d="M214.61,46.12c-0.08,0.1-0.15,0.22-0.2,0.36c-0.05,0.14-0.06,0.3-0.04,0.46c0.03,0.32,0.18,0.65,0.35,0.95
		c0.17,0.3,0.36,0.67,0.49,0.94c0.13,0.26,0.19,0.41,0.32,0.61c0.12,0.2,0.26,0.35,0.36,0.44c0.05,0.05,0.09,0.08,0.12,0.1
		c0.03,0.02,0.04,0.03,0.04,0.03s-0.01-0.02-0.03-0.05c-0.02-0.03-0.04-0.07-0.07-0.13c-0.06-0.11-0.4-0.63-0.46-0.84
		c-0.06-0.2-1.02-1.9-0.71-2.68c0.07,0.08,0.13,0.15,0.17,0.19c0.57,1.34,0.96,2.16,0.96,2.16s-0.24-0.9-0.73-2.39l-0.16-0.29
		l0,0.05c0,0,0-0.02,0-0.05L215,45.98c0,0,0.01-0.01,0.01-0.01c0,0.01,0,0.03,0,0.04l0,0l0-0.04c0.05-0.05,0.09-0.1,0.14-0.13
		c0.06-0.03,0.1-0.06,0.14-0.07c0.03-0.01,0.05-0.02,0.05-0.02s-0.02,0-0.06,0c-0.04,0-0.1,0.01-0.17,0.03
		c-0.03,0.01-0.07,0.02-0.11,0.04c0-0.01,0-0.02-0.01-0.03l-0.01,0.03C214.87,45.88,214.72,45.97,214.61,46.12z"/>
	<path class="st0" d="M190.68,36.97c0.54,0.55,1.12,1.03,1.68,1.43c0.29,0.19,0.56,0.38,0.83,0.53c0.13,0.08,0.26,0.16,0.39,0.22
		c0.13,0.07,0.25,0.13,0.37,0.19c0.23,0.13,0.46,0.22,0.65,0.3c0.19,0.09,0.36,0.15,0.5,0.21c0.28,0.1,0.43,0.16,0.43,0.16
		s-0.15-0.07-0.41-0.2c-0.13-0.06-0.3-0.14-0.48-0.24c-0.18-0.1-0.39-0.21-0.61-0.34c-0.11-0.07-0.23-0.14-0.35-0.21
		c-0.12-0.07-0.24-0.16-0.37-0.24c-0.26-0.16-0.51-0.36-0.78-0.55c-0.53-0.41-1.08-0.89-1.62-1.43c-0.53-0.54-0.98-1.09-1.35-1.61
		c-0.18-0.26-0.36-0.51-0.5-0.76c-0.07-0.12-0.15-0.24-0.21-0.35c-0.06-0.11-0.12-0.23-0.18-0.33c-0.12-0.21-0.2-0.41-0.29-0.58
		c-0.09-0.17-0.15-0.32-0.2-0.44c-0.1-0.25-0.16-0.38-0.16-0.38s0.04,0.14,0.11,0.4c0.03,0.13,0.08,0.28,0.15,0.46
		c0.07,0.18,0.13,0.38,0.24,0.6c0.05,0.11,0.1,0.23,0.15,0.35c0.05,0.12,0.12,0.24,0.19,0.37c0.13,0.26,0.29,0.51,0.46,0.79
		C189.7,35.84,190.15,36.41,190.68,36.97z"/>
	<path class="st0" d="M187.3,33.02c0,0,0.04,0.1,0.1,0.28c0.07,0.18,0.17,0.45,0.33,0.76c0.15,0.32,0.36,0.69,0.62,1.09
		c0.26,0.4,0.58,0.82,0.95,1.24c0.38,0.42,0.77,0.79,1.15,1.11c0.38,0.32,0.75,0.58,1.07,0.79c0.32,0.21,0.59,0.37,0.78,0.47
		c0.19,0.1,0.29,0.16,0.29,0.16s-0.09-0.07-0.26-0.19c-0.17-0.12-0.41-0.3-0.7-0.54c-0.29-0.23-0.62-0.52-0.98-0.84
		c-0.35-0.33-0.72-0.7-1.09-1.11c-0.37-0.41-0.69-0.81-0.97-1.19c-0.28-0.38-0.52-0.73-0.7-1.03c-0.19-0.3-0.33-0.55-0.42-0.72
		C187.35,33.12,187.3,33.02,187.3,33.02z"/>
	<path class="st0" d="M189.68,37.57c0.27,0.26,0.56,0.45,0.78,0.58c0.22,0.13,0.37,0.19,0.37,0.19s-0.1-0.12-0.26-0.29
		c-0.16-0.18-0.39-0.41-0.66-0.66c-0.26-0.25-0.52-0.47-0.71-0.62c-0.19-0.16-0.31-0.25-0.31-0.25s0.06,0.13,0.19,0.33
		C189.21,37.04,189.41,37.31,189.68,37.57z"/>
	<path class="st0" d="M188.86,37.5c0.06,0.12,0.17,0.28,0.34,0.42c0.17,0.14,0.35,0.23,0.5,0.28c0.14,0.05,0.24,0.07,0.24,0.07
		s-0.05-0.07-0.14-0.17c-0.09-0.1-0.22-0.23-0.37-0.36c-0.16-0.13-0.31-0.23-0.44-0.31c-0.12-0.07-0.21-0.12-0.21-0.12
		S188.8,37.37,188.86,37.5z"/>
	<path class="st0" d="M185.3,40.49c-0.41-0.06-0.74-0.1-0.97-0.15c-0.23-0.05-0.35-0.09-0.35-0.09s0.11,0.05,0.33,0.13
		c0.22,0.07,0.55,0.15,0.95,0.24c0.8,0.18,1.9,0.49,3.05,0.93c1.15,0.44,2.14,0.93,2.84,1.33c0.35,0.2,0.62,0.36,0.81,0.48
		c0.19,0.12,0.29,0.18,0.29,0.18s-0.09-0.08-0.26-0.22c-0.17-0.14-0.42-0.33-0.75-0.56c-0.65-0.45-1.63-1.01-2.8-1.46
		C187.27,40.85,186.13,40.61,185.3,40.49z"/>
	<path class="st0" d="M153.79,36.6c-0.92,0.68-1.76,1.36-2.51,1.99c-0.75,0.62-1.44,1.17-2.05,1.61c-0.61,0.44-1.13,0.76-1.5,0.97
		c-0.18,0.11-0.33,0.18-0.43,0.23c-0.1,0.05-0.15,0.08-0.15,0.08s0.05-0.02,0.16-0.07c0.1-0.05,0.26-0.11,0.45-0.21
		c0.39-0.19,0.93-0.48,1.57-0.9c0.64-0.41,1.36-0.94,2.13-1.55c0.78-0.61,1.62-1.27,2.54-1.95c1.83-1.35,3.56-2.51,4.83-3.31
		c0.64-0.4,1.16-0.72,1.52-0.94c0.36-0.22,0.57-0.34,0.57-0.34s-0.21,0.11-0.59,0.3c-0.38,0.2-0.93,0.49-1.59,0.87
		C157.42,34.13,155.63,35.24,153.79,36.6z"/>
	<path class="st0" d="M183.31,31.38c-0.2,0.02-0.35,0.04-0.46,0.07c-0.11,0.02-0.16,0.04-0.16,0.04s0.06,0,0.17,0
		c0.11,0,0.27,0.01,0.46,0.02c0.38,0.03,0.9,0.11,1.44,0.27c0.54,0.16,1.01,0.36,1.34,0.53c0.16,0.09,0.29,0.16,0.38,0.22
		c0.09,0.05,0.14,0.08,0.14,0.08s-0.04-0.04-0.11-0.11c-0.07-0.07-0.18-0.18-0.32-0.29c-0.29-0.23-0.75-0.51-1.33-0.68
		C184.27,31.36,183.7,31.34,183.31,31.38z"/>
	<path class="st0" d="M185.25,31.08c-0.19-0.01-0.31,0-0.31,0s0.1,0.05,0.26,0.13c0.16,0.08,0.37,0.18,0.61,0.29
		c0.24,0.11,0.46,0.2,0.62,0.27c0.16,0.07,0.27,0.11,0.27,0.11s-0.05-0.09-0.18-0.22c-0.12-0.13-0.31-0.29-0.57-0.4
		C185.7,31.15,185.43,31.1,185.25,31.08z"/>
	<path class="st0" d="M186.93,30.97c-0.29-0.11-0.59-0.07-0.59-0.07s0.18,0.21,0.47,0.32c0.29,0.11,0.59,0.07,0.59,0.07
		S187.22,31.07,186.93,30.97z"/>
	<path class="st0" d="M158.07,29.2c-0.46,0.16-1.01,0.34-1.64,0.52c-0.63,0.18-1.32,0.36-2.05,0.57c-0.73,0.21-1.41,0.45-2.01,0.71
		c-0.6,0.25-1.1,0.56-1.5,0.82c-0.39,0.28-0.68,0.53-0.86,0.71c-0.18,0.18-0.28,0.29-0.28,0.29s0.11-0.09,0.32-0.25
		c0.21-0.16,0.52-0.38,0.93-0.61c0.42-0.23,0.93-0.48,1.53-0.7c0.6-0.23,1.27-0.44,1.99-0.65c0.72-0.21,1.41-0.41,2.03-0.62
		c0.62-0.2,1.17-0.43,1.61-0.63c0.44-0.21,0.78-0.41,1.01-0.55c0.22-0.15,0.34-0.23,0.34-0.23s-0.13,0.07-0.38,0.19
		C158.88,28.87,158.52,29.03,158.07,29.2z"/>
	<path class="st0" d="M147.89,37.43c-1.07,1.16-2.56,2.66-4.44,4.13c-0.27,0.38-0.57,0.75-0.89,1.1c0.06-0.04,0.12-0.08,0.18-0.12
		c2.38-1.71,4.12-3.6,5.3-5c0.59-0.7,1.04-1.29,1.34-1.69c0.3-0.41,0.47-0.63,0.47-0.63s-0.18,0.22-0.52,0.6
		C149,36.2,148.51,36.76,147.89,37.43z"/>
	<path class="st0" d="M191.15,31.29c0.38-0.05,0.62-0.08,0.62-0.08s-0.24-0.05-0.63-0.09c-0.39-0.04-0.94-0.05-1.53,0.04
		c-0.59,0.09-1.11,0.25-1.46,0.4c-0.35,0.15-0.56,0.26-0.56,0.26s0.24-0.04,0.62-0.1c0.38-0.06,0.9-0.14,1.46-0.23
		C190.25,31.41,190.77,31.34,191.15,31.29z"/>
</g>
<g>
	<path class="st0" d="M331.64,52.38c-0.17,0.07-0.29,0.15-0.36,0.21c-0.07,0.06-0.11,0.1-0.11,0.1s0.05-0.01,0.15-0.03
		c0.1-0.02,0.23-0.03,0.4-0.04c0.33-0.01,0.76-0.14,1.22-0.02c0.46,0.11,0.72,0.15,1.12,0.36c0.3,0.16,0.65,0.31,0.65,0.31
		s-0.14-0.15-0.4-0.36c-0.26-0.2-0.66-0.48-1.21-0.62C332.53,52.16,331.98,52.24,331.64,52.38z"/>
	<path class="st0" d="M321.57,53.99C321.57,53.99,321.58,53.99,321.57,53.99C321.59,53.97,321.58,53.98,321.57,53.99z"/>
	<path class="st0" d="M334.47,56.98C334.47,56.98,334.47,56.98,334.47,56.98C334.48,57.02,334.47,57,334.47,56.98z"/>
	<path class="st0" d="M370.73,46.35c-0.64-0.04-1.27-0.09-1.87-0.19c-0.61-0.1-1.21-0.22-1.81-0.33c-1.18-0.24-2.33-0.49-3.4-0.74
		c-0.53-0.13-1.08-0.26-1.6-0.35c-0.53-0.09-1.05-0.17-1.55-0.21c-1.01-0.09-1.95-0.07-2.81-0.02c-0.85,0.06-1.62,0.16-2.28,0.26
		c-0.21,0.03-0.41,0.07-0.6,0.1c0.01-0.02,0.02-0.03,0.02-0.05c0.05-0.1,0.09-0.19,0.12-0.28l0.02,0.04
		c1.13-0.41,2.34-0.59,3.52-0.62c1.18-0.03,2.33,0.07,3.43,0.24c2.2,0.34,4.24,0.87,6.19,1.17c1.09,0.17,2.14,0.26,3.15,0.33
		c-0.11-0.06-2.25-0.36-3.26-0.52c-1.92-0.32-3.93-0.86-6.13-1.2c-1.1-0.17-2.25-0.28-3.44-0.25c-1.12,0.03-2.28,0.19-3.38,0.56
		c0.04-0.15,0.06-0.29,0.07-0.41c0.02-0.27-0.01-0.48-0.04-0.62c-0.04-0.14-0.06-0.21-0.06-0.21s0.01,0.07,0.03,0.21
		c0.02,0.14,0.02,0.35-0.02,0.61c-0.03,0.14-0.07,0.3-0.14,0.47c-0.01,0-0.02,0.01-0.02,0.01l0.01,0.02
		c-0.05,0.13-0.12,0.26-0.2,0.4c-0.03,0.05-0.07,0.1-0.1,0.16c-0.03,0.04-0.06,0.09-0.09,0.13c-0.04,0.05-0.08,0.11-0.13,0.16
		l-0.21,0.13c0,0.01-0.02,0.05-0.09,0.09c-0.09,0.07-0.17,0.13-0.26,0.19c-0.17,0.12-0.34,0.22-0.51,0.3
		c-0.34,0.16-0.66,0.24-0.93,0.27c-0.27,0.03-0.48,0.01-0.63-0.02c-0.14-0.02-0.21-0.05-0.21-0.05s0.07,0.03,0.21,0.07
		c0.14,0.04,0.36,0.09,0.65,0.08c0.29,0,0.64-0.06,1.01-0.21c0.08-0.03,0.16-0.07,0.23-0.1c-0.18,0.17-0.38,0.33-0.6,0.5l-0.01-0.01
		c-0.42,0.17-0.8,0.32-1.14,0.39c-0.35,0.08-0.65,0.07-0.9,0.03c-0.25-0.04-0.42-0.12-0.54-0.18c-0.11-0.06-0.16-0.1-0.16-0.1
		s0.04,0.05,0.15,0.13c0.11,0.08,0.28,0.18,0.54,0.24c0.25,0.07,0.59,0.1,0.97,0.05c0.15-0.02,0.3-0.05,0.46-0.09
		c-0.2,0.13-0.4,0.26-0.62,0.39c-0.73,0.1-1.34,0.04-1.76-0.04c-0.23-0.04-0.4-0.09-0.52-0.12c-0.12-0.04-0.18-0.05-0.18-0.05
		s0.06,0.03,0.17,0.08c0.11,0.05,0.28,0.12,0.51,0.19c0.33,0.1,0.79,0.2,1.35,0.21c-0.17,0.1-0.34,0.21-0.51,0.31
		c-0.01,0-0.01,0.01-0.02,0.01c-0.73,0.16-1.36,0.12-1.79,0.06c-0.22-0.03-0.4-0.08-0.51-0.11c-0.11-0.03-0.17-0.05-0.17-0.05
		s0.06,0.03,0.17,0.07c0.11,0.05,0.28,0.11,0.5,0.17c0.33,0.09,0.79,0.17,1.34,0.15c-0.14,0.1-0.28,0.2-0.42,0.31
		c-0.01,0.01-0.02,0.02-0.03,0.03l0-0.01c-0.61,0.04-1.11-0.01-1.45-0.05c-0.34-0.05-0.53-0.09-0.53-0.09s0.17,0.08,0.51,0.18
		c0.28,0.08,0.68,0.17,1.17,0.21c-0.18,0.15-0.35,0.3-0.53,0.45c-0.03,0.03-0.06,0.05-0.09,0.08c-0.6,0-1.08-0.04-1.41-0.13
		c-0.18-0.05-0.32-0.11-0.41-0.15c-0.09-0.05-0.13-0.07-0.13-0.07s0.04,0.03,0.12,0.09c0.08,0.06,0.21,0.14,0.39,0.22
		c0.28,0.12,0.69,0.22,1.18,0.27c-0.11,0.1-0.22,0.19-0.33,0.28c-0.69-0.05-1.53-0.13-1.87-0.21c-0.39-0.08-0.6-0.14-0.6-0.14
		s0.2,0.1,0.58,0.23c0.36,0.13,0.88,0.28,1.54,0.39c-0.25,0.18-0.5,0.34-0.78,0.48c-0.02,0.01-0.04,0.02-0.05,0.03
		c-0.27-0.03-0.51-0.04-0.72-0.06c-0.31-0.03-0.58-0.1-0.79-0.17c-0.21-0.07-0.36-0.14-0.47-0.19c-0.1-0.05-0.15-0.08-0.15-0.08
		s0.05,0.04,0.14,0.1c0.1,0.06,0.24,0.16,0.45,0.25c0.2,0.1,0.47,0.19,0.8,0.26c0.11,0.02,0.23,0.04,0.35,0.06
		c-0.28,0.12-0.56,0.22-0.85,0.33c-0.5,0.01-0.92-0.07-1.21-0.16c-0.2-0.06-0.35-0.12-0.45-0.17c-0.1-0.05-0.15-0.07-0.15-0.07
		s0.05,0.03,0.14,0.09c0.09,0.06,0.23,0.14,0.43,0.23c0.2,0.09,0.47,0.18,0.79,0.24c-0.16,0.06-0.32,0.12-0.48,0.19
		c-0.09,0.04-0.17,0.07-0.25,0.11c-0.48-0.06-0.88-0.15-1.17-0.23c-0.22-0.06-0.39-0.11-0.5-0.15c-0.11-0.04-0.17-0.06-0.17-0.06
		s0.06,0.03,0.16,0.08c0.11,0.05,0.27,0.13,0.48,0.21c0.25,0.1,0.5,0.21,0.84,0.31c-0.15,0.07-0.29,0.14-0.44,0.2
		c-0.02,0.01-0.05,0.02-0.07,0.03c-0.77-0.17-1.35-0.42-1.73-0.62c-0.2-0.1-0.35-0.19-0.45-0.25c-0.1-0.06-0.15-0.09-0.15-0.09
		s0.05,0.04,0.14,0.12c0.09,0.07,0.23,0.18,0.42,0.31c0.32,0.21,0.79,0.48,1.42,0.7c-0.19,0.08-0.37,0.15-0.56,0.21
		c-0.04,0.01-0.08,0.02-0.12,0.04c-0.52-0.13-0.93-0.3-1.22-0.43c-0.35-0.16-0.53-0.27-0.53-0.27s0.16,0.14,0.48,0.35
		c0.22,0.14,0.52,0.31,0.9,0.46c-0.19,0.05-0.37,0.09-0.55,0.13c-0.4-0.12-0.73-0.24-0.96-0.33c-0.29-0.12-0.45-0.19-0.45-0.19
		s0.13,0.11,0.4,0.28c0.15,0.09,0.35,0.2,0.59,0.32c-0.16,0.02-0.33,0.04-0.48,0.04c-0.08,0.01-0.17,0.01-0.25,0.01
		c-1.61-0.6-2.71-1.41-3.38-2.01c-0.34-0.3-0.59-0.56-0.75-0.73c-0.16-0.18-0.24-0.27-0.24-0.27s0.08,0.1,0.22,0.29
		c0.15,0.19,0.38,0.46,0.7,0.79c0.56,0.56,1.45,1.29,2.73,1.91c-0.02,0-0.05,0-0.07,0l-0.04,0c-0.01,0.01-0.01,0.02-0.02,0.03
		l-0.02,0.04c-0.35-0.09-0.65-0.19-0.92-0.3c-0.01,0-0.02-0.01-0.03-0.01c-0.23-0.1-0.55-0.28-0.9-0.53c-0.35-0.25-0.73-0.6-1.11-1
		c-0.38-0.41-0.77-0.88-1.18-1.38c-0.42-0.5-0.84-0.98-1.27-1.38c-0.13-0.12-0.26-0.23-0.39-0.34c0.05,0.03,0.1,0.06,0.15,0.09
		c0.12,0.08,0.23,0.15,0.34,0.23c0.22,0.15,0.43,0.29,0.62,0.42c0.39,0.26,0.72,0.48,0.99,0.66c0.55,0.35,0.85,0.55,0.85,0.55
		s-0.28-0.22-0.79-0.63c-0.26-0.2-0.57-0.44-0.93-0.72c-0.11-0.09-0.23-0.18-0.35-0.27c0.44,0.25,0.95,0.5,1.51,0.73
		c1.98,1.08,3.18,1.68,3.18,1.68s-0.67-0.43-1.82-1.15c0.07,0,0.14,0.01,0.21,0.01c0.16,0.04,0.33,0.08,0.49,0.11
		c0.56,0.23,1.05,0.39,1.42,0.5c0.6,0.18,0.93,0.24,0.93,0.24s-0.33-0.11-0.9-0.33c-0.2-0.08-0.44-0.18-0.7-0.29
		c0.25,0.03,0.49,0.05,0.72,0.05c0.18,0,0.36,0,0.53,0c0.19,0.05,0.35,0.1,0.49,0.14c0.36,0.11,0.56,0.17,0.56,0.17
		s-0.18-0.1-0.52-0.26c-0.05-0.02-0.11-0.05-0.16-0.07c0.36-0.03,0.69-0.07,0.97-0.13c0.52-0.1,0.92-0.23,1.19-0.33
		c0.14-0.05,0.24-0.09,0.31-0.12c0.07-0.03,0.11-0.04,0.11-0.04s-0.04,0.01-0.11,0.02c-0.07,0.02-0.18,0.04-0.33,0.06
		c-0.28,0.05-0.69,0.12-1.2,0.15c-0.44,0.03-0.96,0.04-1.51,0c0.85-0.11,1.57-0.27,2.13-0.43c0.54-0.15,0.94-0.3,1.21-0.4
		c0.27-0.11,0.41-0.16,0.41-0.16s-0.15,0.05-0.43,0.14c-0.28,0.09-0.7,0.21-1.24,0.34c-0.77,0.18-1.82,0.35-3.08,0.39
		c-0.44-0.08-0.89-0.18-1.36-0.32c-0.01,0-0.02-0.01-0.03-0.01c0.6,0.04,1.16,0.06,1.69,0.04c1.02-0.03,1.89-0.17,2.57-0.35
		c0.68-0.18,1.17-0.4,1.49-0.56c0.16-0.08,0.28-0.15,0.35-0.19c0.08-0.05,0.12-0.07,0.12-0.07s-0.04,0.02-0.12,0.07
		c-0.08,0.04-0.21,0.11-0.37,0.18c-0.33,0.15-0.84,0.35-1.53,0.5c-0.68,0.16-1.55,0.26-2.55,0.26c-0.82,0-1.74-0.08-2.73-0.22
		c-0.25-0.09-0.49-0.18-0.73-0.27c0.54,0.14,1.08,0.23,1.6,0.28c0.87,0.07,1.69,0.04,2.44-0.06c1.51-0.19,2.73-0.61,3.69-0.97
		c0.96-0.37,1.67-0.71,2.15-0.94c0.48-0.23,0.72-0.36,0.72-0.36s-0.26,0.12-0.76,0.34c-0.5,0.22-1.23,0.54-2.21,0.89
		c-0.98,0.34-2.2,0.72-3.68,0.87c-0.74,0.08-1.53,0.09-2.36,0c-0.69-0.08-1.4-0.23-2.08-0.48c0.37,0.01,0.73,0.05,1.09,0.09
		c0.28,0.03,0.56,0.07,0.83,0.09c0.28,0.02,0.55,0.03,0.82,0.04c1.08,0.03,2.09-0.09,3.01-0.29c0.92-0.2,1.73-0.47,2.46-0.77
		c0.72-0.3,1.34-0.64,1.88-0.96c1.07-0.65,1.79-1.27,2.25-1.7c0.24-0.21,0.39-0.39,0.51-0.5c0.11-0.12,0.17-0.17,0.17-0.17
		s-0.06,0.06-0.18,0.17c-0.12,0.11-0.29,0.29-0.54,0.5c-0.48,0.43-1.23,1.04-2.33,1.66c-0.55,0.31-1.18,0.62-1.9,0.91
		c-0.73,0.28-1.54,0.53-2.44,0.7c-0.9,0.17-1.89,0.27-2.93,0.23c-0.18-0.01-0.37-0.02-0.56-0.04c0.18,0,0.37-0.01,0.57-0.02
		c0.8-0.04,1.76-0.12,2.8-0.32c0.52-0.1,1.06-0.23,1.62-0.39c0.55-0.17,1.11-0.38,1.65-0.65c0.55-0.27,1.03-0.58,1.48-0.9
		c0.45-0.32,0.86-0.66,1.21-1c0.72-0.68,1.26-1.37,1.65-1.97c0.39-0.6,0.64-1.12,0.79-1.48c0.08-0.18,0.13-0.32,0.16-0.42
		c0.04-0.1,0.05-0.15,0.05-0.15s-0.03,0.05-0.08,0.14c-0.05,0.09-0.12,0.23-0.23,0.39c-0.2,0.34-0.51,0.82-0.96,1.38
		c-0.45,0.56-1.03,1.19-1.76,1.81c-0.36,0.31-0.77,0.62-1.21,0.92c-0.44,0.29-0.91,0.59-1.42,0.84c-0.51,0.25-1.04,0.45-1.56,0.63
		c-0.52,0.17-1.04,0.32-1.54,0.43c-1,0.24-1.92,0.38-2.71,0.48c-0.64,0.08-1.19,0.12-1.61,0.15c-0.45-0.06-0.92-0.11-1.41-0.11
		c-0.35-0.05-0.71-0.11-1.11-0.16c0,0-0.01,0-0.01,0c-0.15-0.02-0.31-0.04-0.48-0.06c-0.12-0.01-0.25-0.02-0.37-0.03
		c-0.16-0.01-0.33-0.02-0.5-0.02c-0.28,0-0.58,0.01-0.88,0.04c-0.82,0.09-1.64,0.38-2.42,0.76c-0.79,0.38-1.55,0.82-2.37,1.27
		c-0.81,0.45-1.64,0.93-2.46,1.47c-0.07,0.05-0.15,0.1-0.22,0.15c-0.08,0.05-0.16,0.1-0.24,0.16c-0.25,0.17-0.5,0.34-0.74,0.51
		c-0.38,0.27-0.75,0.54-1.13,0.77c-0.61,0.37-1.29,0.61-1.98,0.78c-0.16,0.04-0.31,0.07-0.47,0.1c-0.11,0.02-0.23,0.04-0.34,0.06
		c-0.72,0.13-1.43,0.19-2.09,0.17c-0.46-0.01-0.9-0.07-1.31-0.17c-0.05-0.01-0.09-0.02-0.14-0.04c-0.21-0.06-0.41-0.12-0.59-0.2
		c-0.57-0.24-1.06-0.57-1.32-0.95c-0.69-1-0.33-1.75-0.14-1.95c-0.01,0.01-0.02,0.02-0.03,0.04c-0.07,0.12-0.1,0.3-0.05,0.48
		c0.04,0.19,0.13,0.39,0.28,0.59c0.15,0.2,0.34,0.4,0.6,0.58c0.13,0.09,0.28,0.17,0.44,0.24c0.17,0.07,0.37,0.11,0.56,0.13
		c0.17,0.01,0.33,0.02,0.5,0.01c0.03,0,0.05,0,0.08,0c0.57-0.02,1.16-0.13,1.74-0.33c0.39-0.13,0.75-0.29,1.08-0.49
		c0.33-0.2,0.62-0.42,0.84-0.69c0.12-0.12,0.2-0.27,0.28-0.41c0.03-0.07,0.06-0.14,0.09-0.21c0.01-0.04,0.03-0.06,0.04-0.11
		c0.01-0.05,0.02-0.1,0.01-0.14c-0.01-0.18-0.1-0.31-0.17-0.43c-0.07-0.11-0.14-0.22-0.22-0.31c-0.31-0.39-0.67-0.62-0.92-0.75
		c-0.13-0.07-0.23-0.11-0.3-0.14c-0.07-0.03-0.11-0.04-0.11-0.04s0.03,0.02,0.1,0.06c0.06,0.04,0.15,0.1,0.26,0.18
		c0.21,0.17,0.5,0.43,0.72,0.82c0.06,0.1,0.1,0.2,0.16,0.31c0.05,0.11,0.09,0.22,0.08,0.3c0,0.04-0.02,0.06-0.05,0.13
		c-0.03,0.06-0.06,0.11-0.09,0.17c-0.09,0.1-0.16,0.22-0.27,0.32c-0.2,0.21-0.46,0.39-0.76,0.55c-0.29,0.16-0.63,0.31-0.98,0.42
		c-0.48,0.16-0.96,0.27-1.42,0.32c-0.02,0-0.03,0-0.05,0.01c-0.2,0.02-0.4,0.03-0.59,0.03c-0.16,0-0.29-0.02-0.42-0.06
		c-0.13-0.04-0.26-0.1-0.38-0.16c-0.24-0.13-0.44-0.29-0.6-0.45c-0.32-0.32-0.46-0.67-0.38-0.9c0.04-0.11,0.11-0.19,0.17-0.23
		c0.06-0.04,0.09-0.06,0.09-0.06s-0.04,0.01-0.11,0.04c-0.02,0.01,1.92-1.08,2.26-1.24c0.41-0.2,0.85-0.41,1.3-0.63
		c0.24-0.12,0.49-0.24,0.74-0.36c0.04-0.02,0.07-0.04,0.11-0.05c0.19-0.09,0.38-0.19,0.57-0.28c0.19-0.1,0.39-0.19,0.6-0.3
		c0.38-0.21,0.77-0.43,1.17-0.65c0.2-0.11,0.39-0.22,0.58-0.28c0.23-0.08,0.46-0.18,0.68-0.28c0.44-0.21,0.86-0.43,1.29-0.65
		c0.43-0.22,0.86-0.44,1.28-0.65c0.41-0.22,0.84-0.42,1.24-0.69c0.03-0.02,0.05-0.04,0.08-0.06c0.13-0.09,0.24-0.18,0.35-0.28
		c0.21-0.19,0.4-0.4,0.54-0.61c0.25-0.34,0.45-0.69,0.67-0.99c0.04-0.06,0.09-0.12,0.14-0.18c0.11-0.14,0.22-0.28,0.33-0.42
		c0.12-0.15,0.25-0.29,0.38-0.43c0.1-0.11,0.2-0.21,0.3-0.31c0.36-0.35,0.74-0.67,1.12-0.95c0.09-0.07,0.18-0.13,0.28-0.19
		c0.18-0.12,0.35-0.24,0.52-0.34c0.53-0.32,1.04-0.58,1.51-0.77c0.23-0.1,0.45-0.18,0.66-0.26c0.21-0.07,0.4-0.13,0.57-0.19
		c0.35-0.1,0.62-0.17,0.81-0.21c0.19-0.04,0.29-0.07,0.29-0.07s-0.1,0.02-0.29,0.04c-0.19,0.02-0.47,0.08-0.83,0.16
		c-0.18,0.05-0.38,0.09-0.59,0.15c-0.21,0.07-0.45,0.13-0.69,0.22c-0.49,0.17-1.03,0.4-1.59,0.7c-0.05,0.03-0.1,0.06-0.15,0.09
		c0.21-0.41,0.51-0.88,0.89-1.35c0.51-0.63,1.05-1.16,1.46-1.54c0.42-0.38,0.68-0.62,0.68-0.62s-0.09,0.04-0.24,0.11
		c-0.15,0.07-0.37,0.18-0.63,0.32c-0.51,0.29-1.2,0.76-1.76,1.44c-0.54,0.66-0.79,1.37-0.86,1.9c-0.04,0.02-0.08,0.05-0.11,0.07
		c-0.18-0.52-0.28-0.96-0.34-1.27c-0.07-0.35-0.09-0.54-0.09-0.54s-0.02,0.2-0.01,0.55c0.01,0.34,0.05,0.83,0.19,1.42
		c-0.05,0.04-0.11,0.08-0.16,0.12l-0.04-0.06c-0.06-0.08-0.12-0.15-0.18-0.22c-0.12-0.14-0.22-0.28-0.33-0.4
		c-0.21-0.25-0.38-0.46-0.52-0.64c-0.29-0.34-0.45-0.53-0.45-0.53s0.13,0.21,0.37,0.59c0.22,0.34,0.54,0.83,0.92,1.43
		c-0.07,0.05-0.14,0.11-0.21,0.16c-0.7-0.69-1.38-1.13-1.87-1.41c-0.25-0.14-0.46-0.24-0.59-0.31c-0.14-0.06-0.21-0.1-0.21-0.1
		s0.07,0.04,0.2,0.12c0.13,0.08,0.32,0.2,0.55,0.36c0.45,0.32,1.08,0.81,1.7,1.51c-0.07,0.06-0.14,0.12-0.21,0.18
		c-0.21-0.22-0.47-0.44-0.76-0.64c-0.72-0.5-1.5-0.78-2.06-0.94c-0.28-0.08-0.52-0.13-0.68-0.16c-0.16-0.02-0.26-0.04-0.26-0.04
		s0.08,0.04,0.22,0.11c0.14,0.07,0.35,0.18,0.59,0.31c0.49,0.27,1.15,0.65,1.82,1.11c0.28,0.19,0.54,0.38,0.77,0.57
		c-0.06,0.06-0.12,0.12-0.18,0.19c-0.84-0.73-1.66-1.19-2.25-1.46c-0.32-0.15-0.57-0.25-0.74-0.31c-0.17-0.06-0.26-0.09-0.26-0.09
		s0.09,0.04,0.26,0.12c0.17,0.08,0.41,0.2,0.71,0.37c0.56,0.32,1.33,0.82,2.1,1.57c-0.01,0.01-0.01,0.01-0.02,0.02
		c-0.53-0.43-1.11-0.7-1.53-0.88c-0.44-0.18-0.73-0.26-0.73-0.26s0.21,0.19,0.57,0.47c0.35,0.28,0.84,0.66,1.34,1.08c0,0,0,0,0,0
		c-0.07,0.09-0.14,0.17-0.21,0.26c-0.06,0.08-0.12,0.16-0.18,0.25c-0.87-0.67-1.42-1.05-1.42-1.05s0.47,0.49,1.27,1.25
		c-0.09,0.12-0.17,0.25-0.26,0.37c-0.65-0.54-1.06-0.84-1.06-0.84s0.33,0.41,0.91,1.04c-0.06,0.07-0.12,0.15-0.18,0.22
		c-0.37-0.3-0.72-0.5-0.98-0.63c-0.33-0.16-0.52-0.23-0.52-0.23s0.17,0.1,0.46,0.31c0.23,0.17,0.54,0.41,0.86,0.73
		c-0.06,0.05-0.11,0.11-0.17,0.16c-0.38-0.21-0.78-0.44-1.2-0.68c-0.92-0.56-1.74-1.08-2.28-1.53c-0.27-0.22-0.47-0.41-0.6-0.55
		c-0.13-0.15-0.2-0.23-0.2-0.23s0.04,0.09,0.12,0.27c0.09,0.17,0.23,0.41,0.46,0.68c0.44,0.55,1.2,1.2,2.16,1.78
		c0.37,0.22,0.74,0.4,1.09,0.57c-0.1,0.06-0.2,0.12-0.3,0.17c-1.41-1.12-2.28-1.76-2.28-1.76s0.76,0.74,2.03,1.89
		c-0.11,0.06-0.22,0.11-0.33,0.17c-0.73-0.66-1.35-1.16-1.79-1.5c-0.45-0.34-0.7-0.52-0.7-0.52s0.23,0.21,0.64,0.59
		c0.39,0.37,0.94,0.9,1.59,1.56c-0.12,0.06-0.24,0.12-0.36,0.18c-1.75-1.65-2.82-2.62-2.82-2.62s0.8,0.88,2.14,2.3
		c-0.03,0-0.06,0-0.09,0c-0.12,0-0.28,0-0.47,0l0.02-0.01C321.7,42.9,321,42.2,321,42.2s0.53,0.75,1.44,1.93
		c-0.16-0.01-0.34-0.02-0.53-0.04c-0.01,0-0.03,0-0.04-0.01c-0.59-0.61-1.03-1.14-1.33-1.52c-0.34-0.43-0.51-0.67-0.51-0.67
		s0.14,0.27,0.43,0.73c0.23,0.36,0.56,0.85,1.01,1.4c0,0,0,0-0.01,0c-0.19-0.04-0.37-0.1-0.56-0.17c-1.22-1.45-1.97-2.29-1.97-2.29
		s0.54,0.79,1.48,2.07c-0.03-0.02-0.07-0.03-0.1-0.05c-0.17-0.08-0.33-0.16-0.5-0.24c-0.51-0.53-0.87-1-1.11-1.33
		c-0.24-0.34-0.37-0.54-0.37-0.54s0.08,0.22,0.28,0.59c0.14,0.26,0.34,0.61,0.62,1c-0.03-0.01-0.06-0.03-0.09-0.04
		c-0.13-0.07-0.25-0.13-0.36-0.2c0,0,0,0-0.01,0c-0.66-0.73-0.99-1.46-1.16-1.97c-0.09-0.28-0.14-0.5-0.17-0.66
		c-0.03-0.15-0.04-0.23-0.04-0.23s0,0.08,0.01,0.24c0.01,0.16,0.04,0.39,0.1,0.68c0.09,0.4,0.26,0.92,0.6,1.48
		c-0.15-0.13-0.26-0.25-0.33-0.35c-0.05-0.06-0.08-0.11-0.11-0.15c-0.02-0.04-0.04-0.05-0.04-0.05s0,0.02,0.01,0.06
		c0.01,0.04,0.02,0.1,0.05,0.17c0.04,0.12,0.12,0.29,0.25,0.47c-0.06-0.04-0.12-0.05-0.19-0.05c-0.46-0.52-0.74-1-0.93-1.35
		c-0.1-0.2-0.17-0.35-0.22-0.46c-0.04-0.11-0.07-0.16-0.07-0.16s0.01,0.06,0.04,0.17c0.03,0.11,0.07,0.28,0.15,0.49
		c0.13,0.36,0.27,0.75,0.64,1.26c-0.05-0.01-0.13-0.02-0.25-0.04c-0.5-0.61-0.98-1.27-1.22-1.62c-0.26-0.38-0.4-0.59-0.4-0.59
		s0.1,0.23,0.31,0.64c0.2,0.37,0.49,0.89,0.92,1.5c-0.05-0.01-0.1-0.02-0.16-0.03c-0.11-0.02-0.23-0.04-0.35-0.06
		c-0.55-0.51-0.88-1.01-1.08-1.36c-0.1-0.18-0.17-0.33-0.21-0.43c-0.04-0.1-0.06-0.15-0.06-0.15s0.01,0.06,0.04,0.16
		c0.03,0.11,0.07,0.27,0.15,0.46c0.13,0.33,0.34,0.77,0.73,1.24c-0.18-0.03-0.35-0.06-0.54-0.1c-0.42-0.56-0.72-1.04-0.92-1.38
		c-0.21-0.37-0.32-0.58-0.32-0.58s0.07,0.23,0.23,0.62c0.13,0.32,0.33,0.76,0.64,1.27c-0.15-0.03-0.29-0.05-0.44-0.08
		c-0.51-0.51-0.89-0.97-1.14-1.3c-0.3-0.39-0.44-0.61-0.44-0.61s0.11,0.25,0.36,0.67c0.18,0.31,0.45,0.71,0.82,1.17
		c-0.17-0.03-0.34-0.06-0.51-0.09c-0.55-0.59-0.96-1.09-1.24-1.44c-0.31-0.39-0.47-0.61-0.47-0.61s0.13,0.24,0.39,0.67
		c0.21,0.34,0.51,0.79,0.91,1.31c-0.15-0.03-0.3-0.06-0.45-0.08c-0.51-0.51-0.87-0.97-1.13-1.31c-0.32-0.43-0.47-0.67-0.47-0.67
		s0.12,0.27,0.39,0.73c0.2,0.33,0.36,0.7,0.69,1.15c-0.08-0.02-0.16-0.03-0.24-0.05c-0.64-0.64-1.09-1.21-1.39-1.61
		c-0.31-0.43-0.47-0.68-0.47-0.68s0.11,0.27,0.38,0.74c0.22,0.38,0.55,0.9,1.03,1.47c-0.03-0.01-0.06-0.01-0.09-0.02
		c-0.41-0.18-1.02-0.67-1.25-0.94c-0.22-0.28-0.39-0.53-0.54-0.73c-0.3-0.4-0.47-0.62-0.47-0.62s0.14,0.24,0.38,0.67
		c0.13,0.21,0.27,0.48,0.46,0.78c0.12,0.17,0.26,0.37,0.44,0.55c-0.26-0.11-0.46-0.24-0.59-0.36c-0.09-0.08-0.16-0.16-0.19-0.21
		c-0.04-0.05-0.06-0.08-0.06-0.08s0.01,0.03,0.04,0.09c0.02,0.06,0.07,0.14,0.14,0.25c0.14,0.21,0.45,0.47,0.89,0.68
		c0.09,0.04,0.18,0.08,0.27,0.12c-0.14,0.02-0.29,0.04-0.46,0.06c-0.6-0.58-1.06-1.07-1.37-1.4c-0.32-0.35-0.5-0.54-0.5-0.54
		s0.14,0.22,0.42,0.6c0.25,0.35,0.62,0.83,1.11,1.39c-0.14,0.02-0.3,0.04-0.46,0.06c-0.61-0.48-0.99-0.96-1.23-1.3
		c-0.12-0.17-0.21-0.31-0.26-0.41c-0.05-0.1-0.08-0.15-0.08-0.15s0.02,0.06,0.06,0.16c0.04,0.1,0.1,0.26,0.2,0.45
		c0.17,0.34,0.47,0.81,0.96,1.3c-0.16,0.02-0.33,0.04-0.5,0.07c-0.44-0.46-0.75-0.86-0.96-1.15c-0.23-0.32-0.35-0.5-0.35-0.5
		s0.08,0.2,0.26,0.55c0.15,0.29,0.39,0.69,0.73,1.14c-0.15,0.02-0.31,0.04-0.47,0.06c-0.51-0.53-0.89-0.99-1.14-1.31
		c-0.27-0.35-0.42-0.55-0.42-0.55s0.1,0.22,0.33,0.6c0.2,0.33,0.49,0.78,0.9,1.3c-0.11,0.02-0.23,0.03-0.34,0.05
		c-0.04,0.01-0.08,0.01-0.12,0.01c-0.52-0.5-0.91-0.93-1.18-1.25c-0.31-0.37-0.46-0.58-0.46-0.58s0.12,0.23,0.38,0.63
		c0.21,0.32,0.51,0.75,0.94,1.23c-0.19,0.02-0.38,0.05-0.57,0.07c-0.5-0.45-0.85-0.85-1.1-1.14c-0.26-0.31-0.39-0.48-0.39-0.48
		s0.09,0.2,0.3,0.54c0.18,0.29,0.45,0.68,0.84,1.12c0,0,0,0,0,0c-0.11,0.01-0.23,0.02-0.34,0.03c-0.08,0.01-0.15,0.01-0.22,0.01
		c-1.09-1.01-1.78-1.59-1.78-1.59s0.52,0.62,1.41,1.59c-0.14-0.01-0.27-0.02-0.4-0.03c-0.63-0.34-1.07-0.7-1.36-0.96
		c-0.15-0.14-0.27-0.26-0.34-0.34c-0.07-0.08-0.11-0.12-0.11-0.12s0.03,0.05,0.09,0.14c0.06,0.09,0.15,0.22,0.29,0.39
		c0.19,0.22,0.46,0.51,0.83,0.8c-0.27-0.06-0.5-0.12-0.66-0.17c-0.21-0.07-0.33-0.11-0.33-0.11s0.09,0.07,0.28,0.18
		c0.19,0.11,0.48,0.26,0.86,0.39c0.19,0.06,0.41,0.13,0.65,0.17c-0.22,0.06-0.47,0.11-0.73,0.16l0.03-0.03
		c-0.71-0.5-1.21-0.97-1.54-1.3c-0.33-0.33-0.49-0.53-0.49-0.53s0.13,0.22,0.42,0.59c0.27,0.34,0.68,0.82,1.28,1.32
		c-0.21,0.04-0.44,0.07-0.67,0.11c-0.52-0.39-0.91-0.73-1.17-0.98c-0.28-0.26-0.42-0.41-0.42-0.41s0.11,0.17,0.35,0.47
		c0.2,0.25,0.49,0.59,0.89,0.96c-0.25,0.03-0.51,0.06-0.78,0.08l0.02-0.01c-0.68-0.72-1.13-1.12-1.13-1.12s0.28,0.46,0.79,1.16
		c-0.12,0.01-0.25,0.02-0.38,0.02c-0.35-0.3-0.62-0.56-0.8-0.75c-0.2-0.2-0.3-0.31-0.3-0.31s0.07,0.13,0.22,0.36
		c0.12,0.18,0.3,0.43,0.53,0.7c-0.14,0.01-0.29,0.01-0.43,0.01c-0.02,0-0.04,0-0.06,0c-0.3-0.33-0.57-0.6-0.76-0.78
		c-0.24-0.22-0.37-0.34-0.37-0.34s0.11,0.14,0.3,0.4c0.14,0.19,0.32,0.43,0.53,0.72c-0.23,0-0.47,0-0.71,0
		c-0.3-0.28-0.53-0.54-0.68-0.72c-0.18-0.22-0.28-0.35-0.28-0.35s0.05,0.15,0.19,0.4c0.09,0.18,0.23,0.41,0.43,0.66
		c-0.16-0.01-0.33-0.02-0.49-0.03c-0.27-0.27-0.49-0.5-0.64-0.66c-0.17-0.19-0.27-0.29-0.27-0.29s0.06,0.13,0.18,0.34
		c0.09,0.15,0.21,0.35,0.37,0.58c-0.16-0.02-0.32-0.04-0.48-0.06c-0.28-0.29-0.53-0.51-0.72-0.65c-0.21-0.17-0.33-0.25-0.33-0.25
		s0.09,0.11,0.26,0.31c0.11,0.13,0.25,0.31,0.4,0.52c-0.31-0.07-0.61-0.16-0.88-0.29c-0.61-0.28-1.08-0.74-1.22-1.26
		c-0.06-0.22-0.14-0.31-0.04-0.45c0.5-0.04,1.47-0.25,2.43-0.44c0.38-0.07,0.74-0.15,1.06-0.24c0.16-0.04,0.32-0.09,0.46-0.14
		c0.07-0.02,0.14-0.05,0.21-0.08c0.06-0.03,0.12-0.07,0.18-0.1c0.11-0.07,0.19-0.18,0.22-0.27c0.03-0.09,0.03-0.17,0.04-0.23
		c0.01-0.09,0.02-0.15,0.02-0.17c0.29-0.13,0.57-0.26,0.82-0.35c0.22-0.08,1.49-0.24,1.68-0.29c0,0,0,0-0.02,0
		c0.61-0.08,1.43-0.25,2.37-0.57c0.26-0.09,0.53-0.19,0.81-0.31c0.28-0.12,0.55-0.24,0.85-0.35c0.3-0.11,0.61-0.22,0.93-0.32
		c0.16-0.05,0.33-0.1,0.48-0.13c0.15-0.03,0.31-0.04,0.48-0.04c0.34,0.01,0.71,0.06,1.12,0.08c0.41,0.01,0.79,0,1.2-0.01
		c0.81-0.01,1.64-0.05,2.49-0.09c0.85-0.04,1.67-0.08,2.47-0.1c0.4-0.01,0.79-0.02,1.18-0.03c0.39-0.01,0.79-0.04,1.17-0.11
		c0.39-0.07,0.72-0.17,1.06-0.26c0.33-0.09,0.66-0.18,0.97-0.26c0.31-0.08,0.61-0.17,0.9-0.23c0.07-0.02,0.14-0.03,0.22-0.04
		c0.47,0.05,1.09,0.1,1.84,0.03c0.45-0.05,0.94-0.09,1.47-0.16c0.27-0.03,0.54-0.07,0.83-0.13c0.16-0.03,0.29-0.08,0.43-0.11
		c0.14-0.04,0.28-0.08,0.42-0.13c1.13-0.35,2.34-0.8,3.61-1.27c1.26-0.47,2.46-0.92,3.57-1.28c1.1-0.36,1.98-0.62,2.85-0.79
		c-0.53,0.29-0.97,0.46-1.33,0.73c-0.5,0.38-1.55,1.5-1.76,1.74c0.22-0.23,1.43-1.22,1.95-1.58c0.46-0.32,1.05-0.66,1.76-0.99
		c0.09-0.04,0.17-0.08,0.26-0.12c0.09-0.04,0.19-0.08,0.29-0.12c0.77-0.32,1.66-0.64,2.68-0.77c1.15-0.17,2.45-0.13,3.85-0.16
		c0.7-0.02,1.44-0.06,2.18-0.2c0.38-0.07,0.74-0.15,1.13-0.28c0.38-0.14,0.71-0.33,1.04-0.52c0.33-0.19,0.65-0.39,0.98-0.56
		c0.17-0.09,0.32-0.16,0.51-0.23c0.18-0.07,0.36-0.13,0.55-0.2c0.37-0.12,0.76-0.21,1.16-0.29c0.4-0.07,0.81-0.13,1.22-0.16
		c0.83-0.07,1.69-0.09,2.58-0.11c0.22-0.01,0.45-0.01,0.67-0.02c0.24-0.01,0.47-0.03,0.69-0.06c0.45-0.06,0.9-0.13,1.34-0.2
		c0.44-0.08,0.88-0.15,1.32-0.23c0.22-0.03,0.44-0.07,0.66-0.1c0.22-0.04,0.44-0.08,0.66-0.13c0.87-0.18,1.7-0.4,2.52-0.63
		c0.41-0.11,0.81-0.23,1.21-0.35c0.39-0.12,0.78-0.24,1.17-0.36c0.42-0.12,3.16-1.32,3.48-1.52c-0.78,0.12-2.86,0.86-3.65,1.08
		c-0.39,0.12-0.78,0.23-1.18,0.35c-0.39,0.12-0.79,0.23-1.2,0.34c-0.81,0.22-1.64,0.43-2.48,0.6c-0.21,0.04-0.42,0.08-0.64,0.12
		c-0.22,0.03-0.44,0.07-0.66,0.1c-0.44,0.08-0.88,0.15-1.32,0.23c-0.44,0.07-0.88,0.15-1.31,0.2c-0.22,0.03-0.43,0.05-0.64,0.06
		c-0.22,0.01-0.44,0.01-0.66,0.02c-0.88,0.02-1.76,0.04-2.62,0.13c-0.43,0.04-0.86,0.1-1.28,0.18c-0.42,0.08-0.83,0.19-1.23,0.32
		c-0.2,0.07-0.39,0.14-0.58,0.22c-0.19,0.07-0.38,0.17-0.56,0.26c-0.35,0.19-0.67,0.4-0.99,0.59c-0.32,0.19-0.63,0.37-0.95,0.49
		c-0.32,0.12-0.69,0.2-1.03,0.28c-0.7,0.14-1.41,0.2-2.1,0.23c-1.38,0.06-2.7,0.05-3.88,0.26c-1.19,0.19-2.18,0.61-3.01,1
		c-0.02,0.01-0.05,0.02-0.07,0.04c-0.2,0.01-0.4,0.03-0.62,0.06c-0.91,0.1-1.97,0.32-3.11,0.65c-1.14,0.32-2.37,0.75-3.63,1.22
		c-1.27,0.47-2.45,0.95-3.55,1.33c-0.14,0.05-0.27,0.09-0.41,0.14c-0.13,0.04-0.27,0.09-0.39,0.12c-0.25,0.07-0.52,0.11-0.78,0.16
		c-0.37,0.06-0.72,0.12-1.05,0.18c-0.03,0-0.05,0-0.07,0c-0.44,0.01-0.94-0.01-1.5-0.02c-0.28,0-0.59,0-0.9,0.06
		c-0.2,0.03-0.39,0.07-0.59,0.12c-0.14-0.01-0.25,0.05-0.35,0.08c-0.32,0.07-0.65,0.15-0.98,0.22c-0.33,0.07-0.69,0.16-1.02,0.21
		c-0.35,0.05-0.71,0.07-1.09,0.07c-0.39,0-0.78,0-1.18,0c-0.81,0.01-1.64,0.04-2.49,0.08c-0.85,0.04-1.68,0.08-2.48,0.11
		c-0.39,0.01-0.8,0.03-1.16,0.03c-0.36-0.01-0.74-0.05-1.14-0.05c-0.2,0-0.4,0.02-0.6,0.07c-0.19,0.05-0.35,0.11-0.52,0.16
		c-0.33,0.12-0.64,0.24-0.94,0.37c-0.3,0.13-0.58,0.27-0.84,0.39c-0.26,0.13-0.52,0.24-0.77,0.34c-0.45,0.19-0.88,0.34-1.27,0.45
		c-0.07,0.01-1.74,0.31-2.24,0.4c-0.03,0-0.05,0.01-0.08,0.01c0,0,0.01,0,0.01,0c-0.04,0.01-0.07,0.01-0.07,0.01
		c0.01,0,0.03-0.01,0.06-0.01c-0.02,0-0.04,0.01-0.06,0.01c-0.14,0.03-0.26,0.05-0.34,0.07c-0.38,0.11-0.79,0.27-1.25,0.44
		c-0.45,0.17-0.95,0.35-1.5,0.48c-0.14,0.03-0.28,0.06-0.42,0.08c-0.15,0.02-0.3,0.05-0.45,0.07c-0.31,0.05-0.63,0.12-0.95,0.19
		c-0.16,0.04-0.33,0.08-0.49,0.14c-0.08,0.03-0.17,0.06-0.26,0.09c-0.09,0.04-0.17,0.07-0.28,0.16c-0.18,0.15-0.27,0.34-0.3,0.52
		c-0.04,0.18-0.03,0.37,0.02,0.54c0.08,0.34,0.28,0.67,0.54,0.94c0.26,0.27,0.59,0.49,0.95,0.66c0.73,0.34,1.52,0.44,2.25,0.49
		c0.73,0.04,1.43,0.03,2.1-0.01c1.33-0.08,2.51-0.27,3.48-0.51c0.46-0.11,0.87-0.25,1.22-0.38c0.13,0.01,0.26,0.02,0.4,0.02
		c0.55,0.01,1.15-0.03,1.76-0.11c1.23-0.16,2.31-0.44,3.08-0.67c0.19-0.06,0.36-0.11,0.52-0.16c0.05-0.02,0.09-0.03,0.14-0.05
		c0.34,0.12,0.71,0.22,1.11,0.33c0.11,0.03,0.23,0.06,0.34,0.09c0,0,0,0,0,0l0,0c0.53,0.13,1.1,0.26,1.7,0.37
		c0.88,0.16,1.72,0.26,2.46,0.32c0.07,0.02,0.14,0.04,0.21,0.06c0.17,0.03,0.34,0.02,0.48-0.01c0.24,0.01,0.46,0.03,0.67,0.03
		c0.03,0,0.06,0,0.09,0c0.18,0.19,0.4,0.38,0.67,0.56c0.34,0.23,0.73,0.45,1.16,0.66c0.39,0.19,0.83,0.35,1.25,0.4
		c-0.15,0.16-0.32,0.33-0.51,0.5c-0.36,0.33-0.77,0.68-1.19,1.07c-0.21,0.19-0.42,0.38-0.61,0.58c-0.05,0.05-0.09,0.1-0.14,0.15
		c-0.05,0.05-0.1,0.11-0.13,0.16c-0.08,0.1-0.15,0.2-0.22,0.3c-0.06,0.08-0.12,0.16-0.18,0.24c-0.7,0.37-1.37,0.72-1.99,1.05
		c-0.33,0.18-0.65,0.34-0.95,0.51c-0.31,0.16-0.61,0.33-0.87,0.51c-0.41,0.29-0.63,0.44-0.81,0.79c0-0.03-0.8,1.37,0.82,2.53
		c0.26,0.2,0.26,0.2,0.87,0.5c0.21,0.1,0.43,0.19,0.67,0.26c-0.14,0.68-0.29,1.49-0.41,2.42c-0.09,0.75-0.18,1.59-0.08,2.5
		c0.1,0.9,0.34,1.83,0.54,2.82c0.22,0.98,0.45,2.01,0.68,3.08c0.03,0.13,0.06,0.27,0.09,0.4l0.05,0.2c0.02,0.07,0.03,0.16,0.09,0.25
		c0.05,0.1,0.16,0.21,0.27,0.26c0.11,0.06,0.21,0.08,0.3,0.11c0.18,0.05,0.36,0.07,0.55,0.08c0.75,0.03,1.48-0.24,2.03-0.66
		c0.24-0.18,0.43-0.39,0.59-0.61c0.32,0.15,1.11,0.39,1.51,0.4c0.44,0.02,0.95-0.12,1.38-0.42c0.44-0.3,0.8-0.74,1.02-1.26
		c0.22-0.52,0.31-1.11,0.33-1.72c0.01-0.3,0.01-0.61,0.01-0.91c0.01-0.3,0.05-0.57,0.21-0.82c0.15-0.26,0.39-0.5,0.63-0.76
		c0.25-0.26,0.49-0.57,0.67-0.9c0.37-0.65,0.53-1.37,0.5-2.05l-0.01-0.13l0-0.03l0,0l0-0.01c0-0.02,0-0.02,0.01-0.02l0,0l0.03-0.01
		l0.07-0.03c0.04-0.02,0.08-0.04,0.13-0.06c0.08-0.04,0.17-0.08,0.25-0.13c0.32-0.18,0.6-0.39,0.86-0.61
		c0.51-0.44,0.89-0.92,1.21-1.38c0.32-0.46,0.58-0.9,0.82-1.3c0.02-0.03,0.04-0.07,0.06-0.1c0.07-0.03,0.14-0.06,0.21-0.06
		c0.07,0,0.14,0.03,0.18,0.08c0.08,0.11,0.08,0.3,0.04,0.47c-0.01,0.04-0.03,0.09-0.04,0.13c-0.02,0.05-0.04,0.1-0.06,0.15
		c-0.04,0.1-0.08,0.2-0.12,0.3c-0.16,0.41-0.34,0.87-0.54,1.35c-0.19,0.49-0.4,1-0.59,1.57c-0.09,0.29-0.16,0.6-0.18,0.92
		c-0.02,0.32-0.01,0.63,0.01,0.95c0.04,0.63,0.09,1.28,0.19,1.96c0.11,0.67,0.28,1.33,0.56,1.94c0.13,0.31,0.31,0.59,0.49,0.87
		c0.1,0.13,0.19,0.27,0.31,0.4c0.12,0.13,0.28,0.26,0.48,0.34c0.21,0.08,0.43,0.09,0.61,0.08c0.18-0.01,0.33-0.03,0.5-0.05
		c0.32-0.04,0.65-0.1,0.95-0.21c0.3-0.11,0.58-0.29,0.75-0.52c0.17-0.23,0.24-0.48,0.26-0.71c0.03-0.23,0.01-0.44,0-0.64
		c-0.01-0.2-0.04-0.39-0.06-0.56c-0.01-0.07-0.02-0.14-0.04-0.21c0,0,0,0,0,0c0.04-0.17-0.04-1.06-0.29-1.73
		c-0.02-0.06,0.52-1.67,0.47-1.99c-0.02-0.1,0-0.04,0,0c0.3-0.09,0.34-0.23,0.59-0.43c0.33-0.26,0.54-0.58,0.68-0.87
		c0.03-0.07,0.09-0.17,0.15-0.27l0.01-0.01c0,0,0,0-0.01-0.01c0.2-0.34,0.49-0.8,0.52-0.97c0-0.03,0-0.04,0-0.06
		c0.18,0.01,0.62,0.1,0.92,0.09c0.31-0.02,0.69-0.01,1.12-0.11c0.22-0.05,0.49-0.11,0.72-0.21c0.23-0.1,0.32-0.39,0.53-0.57
		c0.06-0.04,0.11-0.09,0.15-0.14c0.05-0.05,0.1-0.1,0.14-0.16l0.06-0.09l0.03-0.04l0.01-0.02l0.03-0.05l0.01-0.02l0.01-0.01l0.01,0
		l0.05,0.01c0.02,0,0.02,0,0.07,0.01c0.08,0.01,0.16,0.02,0.24,0.02c0.16,0.01,0.33,0.02,0.5,0.01c0.68,0,1.4-0.12,2.12-0.34
		c0.72-0.21,1.42-0.55,2.12-0.84c0.71-0.28,1.51-0.5,2.29-0.88c0.79-0.39,1.38-0.94,1.93-1.44c0.27-0.25,0.54-0.5,0.81-0.72
		c0.27-0.22,0.56-0.42,0.84-0.62c0.57-0.39,1.14-0.75,1.64-1.13c0.5-0.38,0.92-0.77,1.27-1.16c0.29-0.32,0.37-0.3,0.53-0.61
		c0.22-0.03,0.71-0.18,0.96-0.21c0.67-0.07,1.32-0.35,2.16-0.38c0.84-0.02,1.77-0.01,2.74,0.11c0.49,0.05,0.99,0.14,1.5,0.24
		c0.51,0.11,1.02,0.24,1.56,0.38c1.08,0.28,2.22,0.55,3.41,0.8c0.6,0.13,1.2,0.25,1.83,0.36c0.64,0.1,1.29,0.16,1.94,0.2
		c0.65,0.04,1.28,0.08,1.92,0.11c0.32,0.02,0.63,0.02,0.95,0.03c0.31,0.01,0.62,0.01,0.93,0.01c0.37,0,0.73,0,1.09,0
		C374.79,46.87,371.38,46.38,370.73,46.35z M335.02,47.7l0,0.06c-0.05-0.02-0.11-0.05-0.16-0.07
		C334.91,47.69,334.96,47.69,335.02,47.7z M303.2,38.21c-0.17,0.05-0.33,0.09-0.49,0.13c-0.01,0-0.06,0.01-0.13,0.02
		C302.81,38.3,303.06,38.25,303.2,38.21z M302.54,38.37c0.09-0.01,0.15-0.02,0.17-0.03c-0.22,0.05-0.42,0.1-0.6,0.13
		C301.98,38.5,302.23,38.44,302.54,38.37z M295.7,40.26c0.14-0.05,1.92-0.41,2.07-0.45c0.57-0.16,1.27-0.27,1.71-0.47
		c0.12-0.06,0.24-0.11,0.36-0.16c-0.01,0.03-0.04,0.08-0.07,0.16c-0.05,0.12-0.1,0.29-0.31,0.37c-0.05,0.02-0.11,0.04-0.17,0.06
		c-0.06,0.01-0.12,0.03-0.19,0.04c-0.14,0.03-0.3,0.05-0.46,0.08c-0.33,0.05-0.69,0.12-1.07,0.19c-0.73,0.14-1.38,0.3-1.86,0.42
		c0.01,0,0.03-0.01,0.02-0.01C295.47,40.5,295.29,40.42,295.7,40.26z M323.27,44.21c0.05-0.01,0.08-0.02,0.12-0.03
		c0.12,0.13,0.25,0.26,0.38,0.4c-0.11,0.06-0.22,0.11-0.34,0.17c-0.19-0.19-0.37-0.34-0.5-0.44c0,0-0.01-0.01-0.01-0.01
		C323.06,44.27,323.18,44.24,323.27,44.21z M322.53,44.38c0.1-0.02,0.2-0.04,0.28-0.05c0.01,0.02,0.02,0.03,0.04,0.05
		c0.09,0.12,0.22,0.29,0.35,0.49c-0.11,0.05-0.21,0.11-0.32,0.16c-0.2-0.27-0.41-0.48-0.57-0.62
		C322.39,44.4,322.46,44.39,322.53,44.38z M321.69,44.45c0.05,0,0.09,0,0.14,0c0.01,0.01,0.02,0.02,0.02,0.03l0.04-0.03
		c0.1,0,0.2-0.01,0.3-0.02c0.01,0.01,0.01,0.02,0.02,0.02c0.12,0.17,0.28,0.41,0.44,0.7c-0.08,0.04-0.17,0.08-0.25,0.13
		c-0.3-0.33-0.55-0.6-0.73-0.79C321.67,44.48,321.68,44.46,321.69,44.45z M321.6,44.59c0.14,0.21,0.32,0.49,0.55,0.81
		c-0.07,0.03-0.13,0.07-0.2,0.1c-0.03,0.01-0.05,0.02-0.08,0.04c-0.19-0.27-0.38-0.47-0.52-0.61
		C321.44,44.81,321.52,44.7,321.6,44.59z M321.13,45.19c0.05-0.06,0.09-0.11,0.14-0.16c0.1,0.16,0.22,0.37,0.34,0.63
		c-0.09,0.04-0.17,0.07-0.26,0.1c-0.15-0.18-0.28-0.32-0.36-0.41C321.03,45.29,321.09,45.24,321.13,45.19z M320.93,45.41
		c0.04,0.11,0.11,0.26,0.2,0.44c-0.11,0.05-0.21,0.1-0.3,0.16c-0.1-0.09-0.18-0.17-0.25-0.23C320.7,45.65,320.82,45.53,320.93,45.41
		z M320.5,45.84c0.03,0.07,0.08,0.16,0.13,0.27c-0.15,0.09-0.3,0.18-0.45,0.26c-0.05-0.04-0.1-0.07-0.14-0.1
		C320.2,46.13,320.36,45.99,320.5,45.84z M319.96,46.35c0.01,0.04,0.02,0.08,0.04,0.13c-0.17,0.1-0.33,0.2-0.49,0.29
		c-0.01,0.01-0.02,0.01-0.03,0.02C319.63,46.65,319.79,46.5,319.96,46.35z M333.96,47.61l-0.02,0.09c-0.04-0.03-0.09-0.07-0.13-0.1
		C333.86,47.6,333.91,47.6,333.96,47.61z M322.71,52.78c0.1-0.06,0.19-0.12,0.29-0.18c-0.09,0.1-0.19,0.2-0.3,0.3
		c-0.03-0.02-0.06-0.05-0.09-0.07C322.64,52.81,322.68,52.8,322.71,52.78z M322.37,52.96c0.06,0.04,0.11,0.07,0.17,0.11
		c-0.1,0.1-0.21,0.2-0.33,0.3c-0.08-0.07-0.16-0.15-0.24-0.22C322.1,53.09,322.24,53.03,322.37,52.96z M321.7,53.25
		c0.11,0.1,0.23,0.19,0.33,0.27c-0.08,0.07-0.17,0.15-0.25,0.23c-0.13-0.12-0.26-0.25-0.41-0.39
		C321.48,53.33,321.59,53.29,321.7,53.25z M321.07,53.45c0.21,0.16,0.4,0.31,0.58,0.45c-0.02,0.03-0.05,0.06-0.07,0.1
		c-0.01,0.02-0.01,0.01,0,0c-0.03-0.06-0.13-0.01-0.19-0.09c-0.1-0.14-0.24-0.28-0.42-0.42C321,53.47,321.04,53.46,321.07,53.45z
		 M321.18,54.08c0.12,0.06,0.21,0.12,0.27,0.17c0,0,0,0,0.01,0.01c-0.02,0.06-0.03,0.12-0.04,0.18c-0.3-0.28-0.58-0.47-0.79-0.6
		c-0.05-0.03-0.1-0.06-0.14-0.08C320.76,53.89,321,53.99,321.18,54.08z M319.42,61.27c0.33,0.3,0.79,0.73,1.34,1.26
		c-0.01,0.18-0.04,0.36-0.08,0.54c-1.21-0.94-1.95-1.47-1.95-1.47s0.7,0.69,1.88,1.75c-0.07,0.21-0.16,0.42-0.28,0.61
		c-0.89-0.78-1.44-1.21-1.44-1.21s0.48,0.56,1.3,1.43c-0.08,0.11-0.17,0.21-0.27,0.31c-0.31-0.27-0.58-0.47-0.78-0.61
		c-0.25-0.18-0.4-0.26-0.4-0.26s0.12,0.12,0.33,0.33c0.17,0.17,0.4,0.42,0.66,0.71c0,0-0.01,0.01-0.01,0.01
		c-0.12,0.09-0.25,0.18-0.39,0.25c-0.56-0.46-0.92-0.7-0.92-0.7s0.25,0.32,0.69,0.81c-0.15,0.06-0.3,0.1-0.46,0.14
		c-0.14-0.09-0.28-0.15-0.38-0.2c-0.19-0.08-0.59-0.32-0.59-0.32s0.38,0.27,0.54,0.39c0.05,0.04,0.12,0.1,0.18,0.16
		c-0.09,0.01-0.18,0.01-0.27,0.01c-0.14-0.01-0.28-0.02-0.41-0.06c-0.07-0.01-0.12-0.03-0.16-0.05c-0.03-0.02-0.03-0.02-0.05-0.05
		c-0.03-0.05-0.06-0.22-0.09-0.34c-0.03-0.13-0.06-0.27-0.1-0.4c-0.26-1.07-0.51-2.09-0.75-3.07c-0.23-0.98-0.5-1.9-0.63-2.77
		c-0.13-0.86,0.03-1.13,0.09-1.88c0.02-0.29,0.07-0.62,0.13-0.96c0.25,0.33,0.42,0.52,0.42,0.52s-0.12-0.33-0.36-0.85
		c0.04-0.21,0.07-0.41,0.11-0.6c0.19,0.2,0.36,0.36,0.49,0.47c0.19,0.17,0.31,0.25,0.31,0.25s-0.08-0.11-0.23-0.31
		c-0.13-0.18-0.31-0.43-0.51-0.74c0.02-0.13,0.05-0.25,0.07-0.36c0.34,0.38,0.65,0.67,0.89,0.89c0.33,0.3,0.52,0.45,0.52,0.45
		s-0.16-0.18-0.44-0.51c-0.23-0.27-0.53-0.65-0.87-1.11c0.11,0.03,0.2,0.05,0.28,0.07l-0.01,0.01c0.69,0.47,1.23,0.86,1.61,1.13
		c0.37,0.27,0.57,0.42,0.57,0.42s-0.18-0.18-0.51-0.49c-0.28-0.26-0.67-0.61-1.16-1.01c0.06,0,0.12,0.01,0.2,0.01
		c0.15,0.01,0.3,0.01,0.45,0.02c0.47,0.27,0.8,0.55,1.02,0.75c0.22,0.2,0.32,0.32,0.32,0.32s-0.07-0.14-0.24-0.38
		c-0.14-0.19-0.35-0.43-0.65-0.69c0.14,0,0.28-0.01,0.42-0.02c0.43,0.23,0.74,0.47,0.95,0.66c0.13,0.11,0.22,0.21,0.29,0.27
		c0.06,0.07,0.09,0.1,0.09,0.1s-0.02-0.04-0.07-0.12c-0.05-0.08-0.12-0.19-0.23-0.32c-0.15-0.18-0.36-0.4-0.65-0.63
		c0.29-0.03,0.57-0.07,0.86-0.12c0.06-0.01,0.12-0.02,0.18-0.03c0.02,0.01,0.03,0.01,0.04,0.02c0.05,0.04,0.15,0.12,0.29,0.25
		c0.19,0.17,0.56,0.67,0.84,1.04c0,0.06,0,0.13,0,0.19c-0.44-0.32-0.82-0.57-1.1-0.75c-0.38-0.24-0.59-0.36-0.59-0.36
		s0.19,0.16,0.53,0.44c0.29,0.24,0.69,0.58,1.16,0.99c0,0.15-0.01,0.31-0.03,0.46c-0.01,0.06-0.02,0.12-0.02,0.19
		c-0.42-0.36-0.8-0.62-1.09-0.81c-0.38-0.25-0.61-0.36-0.61-0.36s0.2,0.15,0.55,0.44c0.29,0.24,0.68,0.59,1.1,1.03
		c-0.03,0.19-0.08,0.38-0.13,0.57c-0.55-0.47-1.02-0.84-1.37-1.09c-0.41-0.31-0.65-0.47-0.65-0.47s0.21,0.19,0.58,0.54
		c0.33,0.31,0.8,0.75,1.35,1.3c-0.06,0.19-0.13,0.38-0.22,0.57c-1.06-0.8-1.72-1.24-1.72-1.24s0.6,0.59,1.61,1.49
		c-0.07,0.15-0.15,0.3-0.24,0.45c-0.99-0.81-1.6-1.26-1.6-1.26s0.55,0.59,1.47,1.5c-0.02,0.05-0.04,0.09-0.05,0.15
		c-0.09-0.12-0.23-0.23-0.4-0.29c-0.17-0.06-0.33-0.08-0.47-0.08c-0.97-0.72-1.53-1.11-1.53-1.11s0.47,0.43,1.28,1.14
		c-0.19,0.03-0.57-0.02-0.57-0.02s0.74,0.27,0.93,0.34l0,0c0.24,0.2,0.5,0.43,0.78,0.67c0.04,0.22,0.09,0.43,0.13,0.65
		c0,0.01,0,0.02,0.01,0.03c-0.69-0.59-1.29-1.03-1.74-1.33c-0.53-0.36-0.84-0.54-0.84-0.54s0.29,0.21,0.78,0.62
		c0.48,0.39,1.14,0.96,1.89,1.7c0.04,0.18,0.07,0.37,0.09,0.55c-0.59-0.52-1.11-0.9-1.5-1.17c-0.48-0.32-0.76-0.48-0.76-0.48
		s0.26,0.19,0.7,0.56c0.41,0.34,0.99,0.85,1.61,1.51c0,0.04,0.01,0.07,0.01,0.11c0.01,0.14,0.02,0.28,0.02,0.42
		c-0.52-0.43-0.96-0.75-1.29-0.99c-0.38-0.27-0.6-0.41-0.6-0.41S319.08,60.96,319.42,61.27z M334.03,57.25
		c-0.08-0.07-0.16-0.13-0.22-0.18c0.05-0.01,0.1-0.01,0.15-0.02c0.05-0.01,0.1-0.02,0.15-0.04
		C334.09,57.08,334.06,57.16,334.03,57.25z M333.94,57.55c-0.02,0.06-0.03,0.12-0.05,0.18c-0.32-0.29-0.59-0.52-0.78-0.69
		c0.01,0,0.02,0,0.03,0.01l0.02-0.02c0.13,0.03,0.28,0.05,0.44,0.05c0.07,0.1,0.16,0.22,0.27,0.35
		C333.89,57.47,333.91,57.51,333.94,57.55z M339.79,53.04l-0.05,0.08c-0.03,0.05-0.07,0.1-0.11,0.14c-0.01,0.01-0.02,0.02-0.02,0.02
		c-0.77-0.3-1.35-0.64-1.73-0.89c-0.21-0.14-0.36-0.25-0.47-0.33c-0.1-0.08-0.16-0.12-0.16-0.12s0.05,0.05,0.14,0.14
		c0.09,0.09,0.23,0.22,0.43,0.39c0.35,0.29,0.87,0.66,1.59,1.01c-0.07,0.06-0.14,0.11-0.22,0.16c-0.79-0.25-1.34-0.63-1.68-0.92
		c-0.17-0.14-0.3-0.27-0.38-0.35c-0.08-0.09-0.12-0.13-0.12-0.13s0.03,0.05,0.1,0.15c0.07,0.1,0.17,0.23,0.33,0.4
		c0.28,0.3,0.75,0.7,1.46,1.01c-0.12,0.06-0.24,0.11-0.36,0.15l0.01-0.01c-0.87-0.45-1.46-0.96-1.83-1.32
		c-0.18-0.18-0.31-0.34-0.4-0.44c-0.09-0.1-0.13-0.16-0.13-0.16s0.04,0.06,0.11,0.18c0.07,0.11,0.18,0.28,0.35,0.49
		c0.3,0.38,0.8,0.9,1.57,1.37c-0.13,0.03-0.32,0.04-0.54,0.05c-0.4-0.28-0.76-0.54-1.06-0.79c-0.33-0.27-0.58-0.52-0.77-0.73
		c-0.19-0.22-0.31-0.4-0.39-0.52c-0.07-0.13-0.11-0.19-0.11-0.19s0.03,0.07,0.09,0.21c0.06,0.13,0.17,0.33,0.34,0.57
		c0.17,0.24,0.4,0.51,0.71,0.8c0.22,0.21,0.48,0.43,0.76,0.66c-0.21,0-0.42-0.01-0.62-0.03c-0.78-0.62-1.35-1.16-1.73-1.54
		c-0.39-0.39-0.58-0.61-0.58-0.61s0.17,0.25,0.51,0.67c0.29,0.36,0.71,0.84,1.29,1.38c-0.14-0.05-0.28-0.11-0.41-0.18
		c-0.59-0.57-1.21-1.2-1.55-1.49c-0.19-0.15-0.36-0.25-0.48-0.29c-0.13-0.04-0.2-0.05-0.2-0.05s0.07,0.01,0.19,0.07
		c0.12,0.06,0.27,0.17,0.42,0.33c0.24,0.26,0.54,0.62,0.92,1.04c-0.05-0.03-0.08-0.05-0.08-0.05s0.18,0.42,0.59,0.7
		c0.16,0.11,0.34,0.18,0.49,0.24c0,0.01-0.01,0.01-0.01,0.02c-0.04,0.06-0.08,0.15-0.13,0.24c-0.45-0.46-0.85-0.81-1.13-1.06
		c-0.33-0.28-0.52-0.42-0.52-0.42s0.16,0.18,0.45,0.49c0.27,0.3,0.64,0.72,1.07,1.24c-0.04,0.06-0.07,0.13-0.11,0.2
		c-0.42-0.48-0.8-0.85-1.08-1.11c-0.35-0.32-0.56-0.49-0.56-0.49s0.18,0.2,0.49,0.56c0.26,0.31,0.61,0.74,1.01,1.28
		c-0.05,0.09-0.11,0.17-0.18,0.26c-0.48-0.58-0.92-1.01-1.24-1.3c-0.34-0.31-0.53-0.47-0.53-0.47s0.17,0.19,0.46,0.53
		c0.29,0.34,0.69,0.84,1.13,1.47c-0.06,0.07-0.13,0.14-0.2,0.21c-0.46-0.62-0.9-1.08-1.23-1.39c-0.37-0.35-0.59-0.52-0.59-0.52
		s0.19,0.2,0.51,0.59c0.29,0.35,0.69,0.86,1.09,1.51c-0.01,0.01-0.01,0.01-0.02,0.02c-0.05,0.04-0.09,0.07-0.14,0.1
		c-1.01-1.07-1.65-1.68-1.65-1.68s0.52,0.71,1.42,1.82c-0.12,0.07-0.24,0.13-0.37,0.17c-0.69-0.8-1.12-1.26-1.12-1.26
		s0.27,0.47,0.86,1.34c-0.15,0.04-0.3,0.05-0.45,0.05c-0.29-0.27-0.51-0.51-0.66-0.69c-0.18-0.21-0.27-0.33-0.27-0.33
		s0.05,0.14,0.18,0.38c0.09,0.16,0.22,0.37,0.39,0.6c-0.55-0.1-0.98-0.46-1.13-0.6c-0.16-0.16-0.24-0.26-0.24-0.26
		s0.04,0.12,0.15,0.31c0.17,0.26,0.36,0.44,0.55,0.56c-0.02,0.01-0.03,0.01-0.03,0.01s0.02,0,0.04,0c0.29,0.18,0.57,0.25,0.76,0.28
		c0.18,0.22,0.46,0.57,0.85,1.02c-0.02,0.09-0.04,0.19-0.05,0.28c-0.55-0.58-1.03-1.03-1.39-1.33c-0.41-0.35-0.65-0.53-0.65-0.53
		s0.21,0.21,0.58,0.6c0.36,0.38,0.85,0.93,1.41,1.63c0,0.02,0,0.04-0.01,0.05l-0.01,0.09l0,0.04c0,0.02,0,0.01,0,0.01
		c0.01,0.01,0.02,0.03,0.02,0.06c0,0.01-0.02,0.01-0.04,0.02c-0.01,0-0.02,0-0.04,0c-0.03-0.01-0.06-0.01-0.09-0.02
		c-1.1-1.15-1.97-1.99-1.97-1.99s0.51,0.68,1.38,1.75c-0.13-0.04-0.26-0.07-0.39-0.08c-0.05-0.01-0.09-0.01-0.14-0.02l0.03-0.01
		c-0.4-0.37-0.68-0.69-0.88-0.92c-0.19-0.23-0.29-0.35-0.29-0.35s0.06,0.15,0.21,0.41c0.13,0.24,0.27,0.49,0.58,0.86
		c-0.12,0-0.24,0.01-0.35,0.02c-0.42-0.4-0.71-0.62-0.71-0.62s0.19,0.27,0.36,0.69c0,0,0,0-0.01,0c-0.32,0.08-0.54,0.2-0.68,0.28
		c-0.14,0.09-0.2,0.14-0.2,0.14s0.08-0.04,0.22-0.12c0.15-0.07,0.38-0.16,0.7-0.21c0.27-0.04,0.61-0.06,0.98,0
		c0,0,0.09,0.02,0.2,0.05c-0.02-0.01-0.03-0.01-0.04-0.02c0.05,0.01,0.1,0.03,0.15,0.04c-0.04-0.01-0.08-0.02-0.12-0.03
		c0.17,0.08,0.7,0.35,0.81,0.41c0.03,0.02,0.06,0.03,0.1,0.05c0.03,0.01,0.06,0.03,0.09,0.05c0.13,0.1,0.26,0.2,0.36,0.29
		c0.01,0.06,0.03,0.14,0.05,0.22c-0.08-0.04-0.16-0.08-0.23-0.11c-0.2-0.09-0.32-0.14-0.32-0.14s0.08,0.09,0.23,0.23
		c0.08,0.07,0.17,0.16,0.28,0.26c0.03,0.03,0.06,0.05,0.08,0.08c0.02,0.12,0.04,0.25,0.05,0.39c-0.13-0.07-0.24-0.12-0.34-0.17
		c-0.2-0.09-0.32-0.14-0.32-0.14s0.08,0.08,0.23,0.23c0.08,0.07,0.17,0.16,0.28,0.26c0.05,0.05,0.12,0.11,0.17,0.17
		c0,0.02,0,0.04,0,0.05c0,0.09,0.01,0.18,0.01,0.28c-0.13-0.07-0.25-0.12-0.35-0.15c-0.2-0.08-0.32-0.11-0.32-0.11
		s0.08,0.07,0.24,0.2c0.08,0.06,0.17,0.14,0.27,0.23c0.05,0.05,0.1,0.1,0.15,0.15c0,0,0,0,0,0c0,0.12-0.01,0.25-0.02,0.38
		c-0.18-0.14-0.34-0.25-0.47-0.33c-0.19-0.11-0.31-0.15-0.31-0.15s0.08,0.08,0.21,0.23c0.12,0.15,0.3,0.36,0.48,0.63
		c-0.02,0.05-0.04,0.1-0.06,0.14c-0.21-0.15-0.47-0.34-0.58-0.39c-0.15-0.06-0.23-0.09-0.23-0.09s0.05,0.06,0.15,0.17
		c0.08,0.1,0.32,0.37,0.49,0.56c-0.04,0.04-0.07,0.07-0.12,0.1c-0.14-0.08-0.27-0.14-0.36-0.18c-0.14-0.05-0.22-0.08-0.22-0.08
		s0.05,0.06,0.13,0.16c0.05,0.06,0.12,0.15,0.2,0.25c-0.06,0.03-0.13,0.05-0.2,0.08c-0.46-0.3-0.78-0.46-0.78-0.46
		s0.14,0.21,0.43,0.54c-0.05,0.01-0.1,0.02-0.16,0.03c-0.21-0.18-0.4-0.31-0.55-0.4c-0.17-0.1-0.28-0.15-0.28-0.15
		s0.06,0.08,0.18,0.23c0.07,0.09,0.17,0.22,0.27,0.37c-0.06,0-0.12,0.01-0.18,0.01c-0.17-0.09-0.31-0.2-0.44-0.31
		c-0.16-0.14-0.29-0.27-0.39-0.38c-0.21-0.22-0.32-0.35-0.32-0.35s0.02,0.04,0.05,0.11c0.03,0.07,0.08,0.17,0.15,0.3
		c0.07,0.13,0.17,0.29,0.31,0.46c0.05,0.06,0.1,0.12,0.15,0.18c-0.06-0.01-0.11-0.02-0.15-0.04c-0.21-0.09-0.38-0.33-0.55-0.58
		c-0.16-0.25-0.31-0.52-0.43-0.81c-0.24-0.57-0.39-1.19-0.5-1.84c-0.1-0.65-0.16-1.29-0.21-1.92c-0.03-0.31-0.05-0.61-0.04-0.9
		c0.01-0.29,0.06-0.56,0.13-0.83c0.15-0.54,0.34-1.08,0.49-1.57c0.16-0.5,0.3-0.96,0.43-1.38c0.03-0.11,0.06-0.21,0.09-0.31
		c0.02-0.05,0.03-0.1,0.05-0.15c0.02-0.05,0.03-0.11,0.04-0.16c0.03-0.21,0.03-0.42-0.13-0.6c-0.08-0.09-0.22-0.13-0.33-0.12
		c-0.05,0-0.09,0.02-0.14,0.03c0.01-0.02,0.01-0.05,0.02-0.08c0.02-0.13-0.02-0.27-0.09-0.37c-0.15-0.2-0.33-0.31-0.48-0.43
		c-0.31-0.24-0.57-0.45-0.79-0.62c-0.44-0.34-0.68-0.52-0.68-0.52s0.22,0.21,0.61,0.58c0.2,0.19,0.44,0.41,0.72,0.68
		c0.14,0.13,0.31,0.27,0.4,0.42c0.01,0.02,0.02,0.04,0.03,0.06c-0.12-0.1-0.22-0.16-0.32-0.25c-0.18-0.14-0.28-0.21-0.28-0.21
		s0.08,0.1,0.2,0.27c0.09,0.13,0.21,0.31,0.34,0.52c-0.02,0.03-0.04,0.06-0.06,0.1c-0.06,0.09-0.13,0.18-0.19,0.28
		c-0.17-0.21-0.3-0.28-0.46-0.4c-0.2-0.15-0.32-0.22-0.32-0.22s0.1,0.1,0.25,0.28c0.11,0.13,0.24,0.31,0.37,0.53
		c-0.06,0.08-0.11,0.15-0.14,0.2c-0.01,0.02-0.02,0.04-0.03,0.05c-0.28-0.22-0.51-0.41-0.67-0.54c-0.22-0.18-0.34-0.28-0.34-0.28
		s0.09,0.13,0.26,0.35c0.14,0.18,0.34,0.41,0.61,0.68c-0.08,0.1-0.15,0.2-0.23,0.31c-0.01,0.01-0.01,0.01-0.02,0.02
		c-0.68-0.57-1.11-0.88-1.11-0.88s0.34,0.43,0.94,1.08c-0.09,0.11-0.19,0.22-0.29,0.34c-0.6-0.56-0.99-0.88-0.99-0.88
		s0.29,0.43,0.8,1.07c-0.11,0.11-0.23,0.22-0.35,0.33c-0.29-0.21-0.52-0.39-0.69-0.53c-0.24-0.2-0.36-0.31-0.36-0.31
		s0.09,0.14,0.29,0.37c0.14,0.16,0.33,0.38,0.59,0.61c-0.01,0.01-0.02,0.02-0.03,0.03c-0.09,0.07-0.18,0.14-0.27,0.2
		c-0.84-0.59-1.36-0.91-1.36-0.91s0.42,0.42,1.13,1.06c-0.08,0.05-0.16,0.1-0.25,0.15c-0.9-0.65-1.47-1.01-1.47-1.01
		s0.45,0.45,1.21,1.14c-0.01,0-0.01,0-0.02,0.01c-0.04,0.02-0.07,0.04-0.11,0.05l-0.15,0.06l-0.03,0.01
		c-0.91-0.67-1.47-1.04-1.47-1.04s0.45,0.44,1.21,1.14c0,0-0.01,0-0.01,0.01l0.01,0.05l0.01,0.11l0.01,0.11l0.01,0.06l0,0.03l0,0.11
		c0,0.03,0,0.07,0,0.1c-0.4-0.38-0.77-0.65-1.07-0.84c-0.2-0.13-0.36-0.22-0.47-0.28c-0.11-0.06-0.17-0.09-0.17-0.09
		s0.05,0.04,0.16,0.11c0.1,0.07,0.25,0.18,0.43,0.33c0.31,0.25,0.71,0.62,1.1,1.11c-0.03,0.24-0.08,0.49-0.16,0.73
		c-0.87-0.81-1.41-1.27-1.41-1.27s0.48,0.61,1.31,1.54c-0.05,0.12-0.11,0.24-0.17,0.35c-0.31-0.33-0.62-0.56-0.86-0.71
		c-0.3-0.19-0.49-0.27-0.49-0.27s0.16,0.12,0.42,0.35c0.22,0.2,0.51,0.49,0.78,0.87c-0.07,0.11-0.14,0.21-0.22,0.31
		c-0.9-0.78-1.47-1.22-1.47-1.22s0.48,0.56,1.3,1.43c-0.03,0.03-0.05,0.06-0.08,0.09c-0.02,0.02-0.04,0.05-0.07,0.07
		c-0.35-0.3-0.65-0.53-0.87-0.7c-0.27-0.19-0.42-0.29-0.42-0.29s0.13,0.13,0.35,0.36c0.19,0.2,0.46,0.48,0.77,0.82
		c-0.08,0.09-0.16,0.18-0.23,0.28c-0.77-0.58-1.25-0.9-1.25-0.9s0.4,0.45,1.1,1.12c-0.02,0.03-0.04,0.06-0.06,0.09
		c-0.05,0.09-0.1,0.2-0.14,0.3c-0.82-0.73-1.33-1.14-1.33-1.14s0.46,0.56,1.26,1.43c-0.02,0.14-0.03,0.28-0.03,0.42
		c-0.25-0.25-0.49-0.42-0.68-0.55c-0.27-0.18-0.43-0.25-0.43-0.25s0.14,0.11,0.36,0.32c0.21,0.2,0.49,0.5,0.76,0.89
		c0.01,0.17,0.01,0.35,0.01,0.51c0,0.02,0,0.05,0,0.07c-0.24-0.24-0.45-0.43-0.62-0.57c-0.27-0.22-0.43-0.32-0.43-0.32
		s0.13,0.14,0.35,0.39c0.18,0.21,0.43,0.5,0.69,0.87c-0.01,0.15-0.02,0.3-0.04,0.45c-0.74-0.7-1.22-1.1-1.22-1.1
		s0.42,0.57,1.16,1.44c-0.03,0.12-0.06,0.23-0.1,0.34c-0.65-0.63-1.07-0.98-1.07-0.98s0.34,0.5,0.94,1.25l0.04-0.02
		c-0.06,0.14-0.13,0.26-0.21,0.39c-0.68-0.65-1.11-1.01-1.11-1.01s0.34,0.48,0.95,1.22c-0.11,0.13-0.23,0.25-0.36,0.36
		c-0.58-0.65-0.95-1.02-0.95-1.02s0.26,0.46,0.73,1.18c-0.11,0.07-0.23,0.13-0.35,0.17c-0.27-0.2-0.48-0.38-0.62-0.52
		c-0.18-0.17-0.27-0.28-0.27-0.28s0.05,0.12,0.18,0.33c0.11,0.18,0.19,0.33,0.42,0.55c-0.12,0.03-0.25,0.05-0.37,0.05
		c-0.07,0-0.13,0-0.19,0l0.11-0.02c-0.27-0.22-0.47-0.42-0.6-0.56c-0.13-0.14-0.2-0.22-0.2-0.22s0.03,0.1,0.12,0.27
		c0.07,0.14,0.12,0.26,0.26,0.45c-0.21-0.12-0.62-0.27-0.83-0.41c0.13-0.23,0.24-0.47,0.31-0.71c0.17-0.58,0.2-1.17,0.15-1.73
		c-0.05-0.56-0.17-1.09-0.29-1.61c-0.06-0.26-0.12-0.51-0.17-0.76c-0.01-0.06-0.02-0.11-0.02-0.17c0.17,0.11,0.31,0.22,0.41,0.3
		c0.17,0.14,0.26,0.22,0.26,0.22s-0.05-0.11-0.18-0.29c-0.1-0.14-0.25-0.31-0.46-0.5c0.02-0.06,0.05-0.11,0.08-0.18
		c0.03-0.06,0.06-0.12,0.09-0.18c0.19,0.1,0.34,0.2,0.45,0.27c0.16,0.11,0.24,0.17,0.24,0.17s-0.05-0.09-0.16-0.24
		c-0.09-0.11-0.23-0.26-0.42-0.42c0.07-0.15,0.13-0.3,0.19-0.45c0.17,0.13,0.31,0.26,0.41,0.36c0.14,0.15,0.21,0.24,0.21,0.24
		s-0.03-0.11-0.12-0.3c-0.08-0.15-0.2-0.34-0.41-0.55c0.04-0.11,0.08-0.23,0.11-0.34c0.22,0.17,0.39,0.32,0.52,0.44
		c0.17,0.16,0.27,0.25,0.27,0.25s-0.06-0.11-0.18-0.31c-0.11-0.17-0.29-0.4-0.53-0.65c0.04-0.17,0.07-0.33,0.1-0.49
		c0.17,0.16,0.31,0.3,0.42,0.4c0.17,0.17,0.26,0.26,0.26,0.26s-0.06-0.11-0.18-0.31c-0.1-0.17-0.26-0.39-0.46-0.66
		c0.01-0.11,0.02-0.22,0.03-0.33c0.01-0.12,0.01-0.24,0.01-0.36c0.62,0.59,1.03,0.92,1.03,0.92s-0.46-0.66-1.04-1.38
		c-0.01-0.08-0.01-0.16-0.02-0.24c0.64,0.62,1.03,0.96,1.03,0.96s-0.38-0.53-1.04-1.34c0.01-0.14,0.04-0.27,0.11-0.38
		c0.01-0.01,0.02-0.02,0.02-0.04c0.18,0.14,0.33,0.27,0.46,0.38c0.34,0.29,0.52,0.45,0.52,0.45s-0.15-0.19-0.45-0.52
		c-0.12-0.13-0.26-0.28-0.43-0.45c0.08-0.09,0.17-0.17,0.26-0.26c0,0,0,0,0,0c0.38,0.29,0.7,0.53,0.96,0.71
		c0.43,0.3,0.67,0.45,0.67,0.45s-0.22-0.19-0.61-0.52c-0.24-0.21-0.53-0.47-0.87-0.79c0.12-0.11,0.23-0.23,0.34-0.34
		c0.31,0.21,0.56,0.4,0.75,0.56c0.31,0.26,0.48,0.41,0.48,0.41s-0.13-0.18-0.4-0.48c-0.17-0.18-0.39-0.4-0.68-0.64
		c0.11-0.12,0.21-0.23,0.31-0.35c0.89,0.81,1.39,1.24,1.39,1.24s-0.43-0.49-1.22-1.35V52.5c0.07-0.08,0.14-0.17,0.2-0.25
		c1.02,0.92,1.66,1.44,1.66,1.44s-0.54-0.64-1.45-1.62c0.04-0.03,0.08-0.05,0.11-0.08c0.03-0.02,0.07-0.05,0.1-0.07
		c0.54,0.37,0.95,0.71,1.24,0.97c0.35,0.3,0.53,0.48,0.53,0.48s-0.15-0.2-0.45-0.55c-0.25-0.28-0.61-0.65-1.1-1.05
		c0.13-0.09,0.25-0.18,0.38-0.26c0.37,0.29,0.65,0.54,0.86,0.74c0.27,0.26,0.41,0.41,0.41,0.41s-0.11-0.18-0.33-0.47
		c-0.17-0.22-0.41-0.5-0.73-0.81c0.09-0.06,0.18-0.12,0.27-0.18c0.03-0.02,0.06-0.04,0.09-0.06c0.06,0.04,0.12,0.09,0.18,0.13
		c0.14,0.1,0.28,0.2,0.4,0.3c0.24,0.19,0.44,0.36,0.6,0.5c0.32,0.29,0.48,0.46,0.48,0.46s-0.13-0.2-0.4-0.52
		c-0.14-0.16-0.32-0.36-0.54-0.57c-0.11-0.11-0.23-0.22-0.37-0.33c-0.03-0.03-0.08-0.07-0.12-0.1c0.12-0.08,0.24-0.15,0.36-0.23
		c0.53,0.4,0.95,0.75,1.24,1c0.34,0.3,0.52,0.46,0.52,0.46s-0.15-0.2-0.45-0.53c-0.25-0.28-0.61-0.65-1.08-1.08
		c0.13-0.08,0.26-0.16,0.39-0.24c0.48,0.33,0.84,0.63,1.11,0.85c0.32,0.27,0.49,0.43,0.49,0.43s-0.14-0.18-0.42-0.49
		c-0.22-0.24-0.54-0.56-0.95-0.91c0.13-0.08,0.27-0.16,0.4-0.24c0.99,0.9,1.6,1.41,1.6,1.41s-0.5-0.6-1.38-1.54
		c0.08-0.04,0.15-0.09,0.23-0.13c1.17,0.89,1.91,1.39,1.91,1.39s-0.61-0.61-1.65-1.54c0.05-0.03,0.09-0.05,0.14-0.08
		c0.88,0.57,1.54,1.07,1.99,1.43c0.46,0.37,0.7,0.58,0.7,0.58s-0.21-0.24-0.64-0.66c-0.4-0.39-0.99-0.92-1.79-1.51
		c0.26-0.15,0.52-0.3,0.78-0.45c1.47,1.19,2.37,1.87,2.37,1.87s-0.79-0.78-2.13-2.01c0.1-0.06,0.2-0.11,0.3-0.17
		c0.85,0.59,1.49,1.12,1.93,1.48c0.44,0.37,0.67,0.58,0.67,0.58s-0.2-0.24-0.6-0.65c-0.38-0.39-0.96-0.95-1.73-1.56
		c0.03-0.01,0.05-0.03,0.08-0.04c0.08-0.04,0.16-0.08,0.23-0.12c0.62,0.66,1.21,1.12,1.64,1.42c0.45,0.32,0.72,0.46,0.72,0.46
		s-0.25-0.18-0.66-0.54c-0.38-0.33-0.9-0.82-1.44-1.47c0.13-0.06,0.27-0.12,0.4-0.17c1.31,1.23,2.12,1.94,2.12,1.94
		s-0.68-0.8-1.84-2.05c0.13-0.05,0.27-0.09,0.4-0.13c0.72,0.64,1.26,1.17,1.63,1.54c0.37,0.38,0.57,0.59,0.57,0.59
		s-0.17-0.24-0.49-0.65c-0.31-0.39-0.77-0.93-1.38-1.56c0.11-0.02,0.22-0.05,0.33-0.06c0.02,0,0.04,0,0.06-0.01
		c0.55,0.75,1.09,1.29,1.49,1.64c0.42,0.37,0.66,0.55,0.66,0.55s-0.23-0.22-0.59-0.62c-0.33-0.37-0.78-0.91-1.24-1.61
		c0.04,0,0.09-0.01,0.13-0.01c0.82,0.75,1.44,1.39,1.85,1.83c0.42,0.46,0.65,0.71,0.65,0.71s-0.19-0.29-0.57-0.78
		c-0.35-0.45-0.86-1.07-1.55-1.79c0.11,0,0.22,0,0.32,0c0.28,0.24,0.58,0.53,0.88,0.87c0.37,0.41,0.75,0.89,1.17,1.4
		c0.42,0.51,0.85,0.98,1.29,1.37c0.44,0.39,0.9,0.71,1.31,0.92c0.2,0.11,0.4,0.19,0.57,0.26c0.34,0.2,0.79,0.43,1.35,0.62
		L339.79,53.04z"/>
	<path class="st0" d="M366.1,41.26c-0.93-0.05-1.95-0.13-3.03-0.18c-1.08-0.05-2.13-0.05-3.07,0.02c-0.95,0.07-1.79,0.21-2.48,0.39
		c-0.69,0.18-1.22,0.38-1.57,0.55c-0.18,0.08-0.31,0.15-0.4,0.2c-0.09,0.05-0.14,0.07-0.14,0.07s0.05-0.02,0.15-0.05
		c0.1-0.03,0.24-0.09,0.42-0.14c0.37-0.12,0.92-0.26,1.6-0.37c0.69-0.12,1.51-0.19,2.44-0.21c0.92-0.02,1.94,0.01,3.01,0.06
		c1.07,0.05,2.1,0.1,3.05,0.1c0.94,0,1.8-0.04,2.5-0.12c0.71-0.08,1.27-0.19,1.66-0.28c0.19-0.04,0.34-0.09,0.44-0.11
		c0.1-0.03,0.15-0.04,0.15-0.04s-0.05,0.01-0.16,0.02c-0.1,0.01-0.25,0.04-0.45,0.06c-0.39,0.05-0.96,0.09-1.66,0.11
		C367.86,41.34,367.03,41.31,366.1,41.26z"/>
	<path class="st0" d="M353.3,40.95c0.28-0.15,0.71-0.34,1.25-0.54c0.54-0.2,1.21-0.38,1.96-0.53c0.75-0.15,1.6-0.27,2.49-0.36
		c0.9-0.09,1.76-0.17,2.54-0.24c0.78-0.08,1.49-0.17,2.08-0.27c0.59-0.1,1.06-0.2,1.38-0.28c0.32-0.08,0.5-0.13,0.5-0.13
		s-0.18,0.02-0.52,0.06c-0.33,0.03-0.81,0.07-1.4,0.11c-0.59,0.03-1.3,0.06-2.08,0.09c-0.79,0.03-1.65,0.07-2.57,0.17
		c-0.91,0.1-1.78,0.25-2.55,0.45c-0.77,0.2-1.43,0.45-1.96,0.71c-0.53,0.26-0.92,0.51-1.17,0.7c-0.13,0.09-0.22,0.17-0.29,0.22
		c-0.06,0.05-0.1,0.08-0.1,0.08s0.04-0.02,0.11-0.06C353.05,41.09,353.15,41.02,353.3,40.95z"/>
	<path class="st0" d="M354.46,38.61c0.33-0.13,0.55-0.22,0.55-0.22s-0.24-0.03-0.62-0.02c-0.38,0.01-0.91,0.08-1.44,0.27
		c-0.54,0.19-0.96,0.47-1.23,0.7c-0.28,0.23-0.41,0.39-0.41,0.39s0.23-0.07,0.57-0.18c0.34-0.11,0.81-0.26,1.3-0.45
		C353.67,38.92,354.12,38.74,354.46,38.61z"/>
	<path class="st0" d="M335.88,43.13c-0.05-0.21-0.11-0.38-0.16-0.49c-0.05-0.11-0.07-0.18-0.07-0.18s-0.01,0.07-0.02,0.19
		c-0.01,0.12-0.03,0.29-0.05,0.5c-0.04,0.42-0.1,0.99-0.18,1.61c-0.07,0.62-0.14,1.19-0.2,1.61c-0.03,0.21-0.05,0.38-0.07,0.5
		c-0.02,0.12-0.02,0.19-0.02,0.19s0.04-0.06,0.11-0.16c0.07-0.1,0.17-0.26,0.27-0.46c0.2-0.39,0.43-0.97,0.5-1.63
		C336.07,44.16,335.99,43.55,335.88,43.13z"/>
	<path class="st0" d="M334.72,44.85c-0.09,0.26-0.19,0.61-0.24,1c-0.02,0.19-0.03,0.39-0.03,0.55c0,0.16-0.01,0.31-0.03,0.42
		c-0.02,0.12-0.06,0.21-0.1,0.28c-0.02,0.03-0.04,0.06-0.05,0.07c-0.01,0.02-0.02,0.03-0.02,0.03s0.01,0,0.04-0.01
		c0.02-0.01,0.06-0.02,0.1-0.03c0.08-0.04,0.2-0.11,0.3-0.23c0.1-0.12,0.19-0.28,0.25-0.46c0.06-0.18,0.1-0.36,0.13-0.56
		c0.05-0.4,0.01-0.77-0.05-1.04c-0.06-0.27-0.12-0.43-0.12-0.43S334.81,44.59,334.72,44.85z"/>
	<path class="st0" d="M328.34,49.32c1.55,1.27,2.52,2,2.52,2s-0.87-0.86-2.3-2.19L328.34,49.32z"/>
	<path class="st0" d="M331.46,46.91c-0.81,0.14-1.76,0.38-2.76,0.78c-1,0.39-2.03,0.96-2.99,1.67c-0.96,0.7-1.81,1.42-2.64,2.01
		c-0.83,0.59-1.65,1.04-2.39,1.32c-0.74,0.29-1.4,0.41-1.85,0.45c-0.23,0.02-0.41,0.03-0.53,0.03c-0.12,0-0.18,0-0.18,0
		s0.06,0,0.18,0.01c0.12,0.01,0.3,0.01,0.53,0c0.46-0.02,1.13-0.1,1.91-0.37c0.77-0.26,1.64-0.69,2.5-1.27
		c0.86-0.58,1.73-1.29,2.68-1.98c0.94-0.7,1.93-1.26,2.9-1.67c0.96-0.41,1.89-0.68,2.68-0.85c0.79-0.17,1.45-0.25,1.91-0.29
		c0.23-0.02,0.41-0.03,0.53-0.04c0.12-0.01,0.18-0.01,0.18-0.01s-0.06,0-0.18,0c-0.12,0-0.3,0-0.53,0.01
		C332.94,46.72,332.27,46.77,331.46,46.91z"/>
	<path class="st0" d="M338.57,46.97c0.85-0.05,1.87-0.13,2.96-0.4c1.09-0.26,2.24-0.73,3.29-1.41c1.05-0.68,1.9-1.47,2.56-2.26
		c0.66-0.79,1.15-1.55,1.51-2.21c0.36-0.66,0.61-1.21,0.77-1.6c0.16-0.38,0.24-0.6,0.24-0.6s-0.1,0.21-0.28,0.58
		c-0.19,0.37-0.47,0.91-0.86,1.55c-0.4,0.64-0.91,1.38-1.59,2.14c-0.67,0.76-1.52,1.52-2.54,2.18c-1.02,0.66-2.12,1.13-3.17,1.41
		c-1.06,0.28-2.06,0.4-2.9,0.48c-0.84,0.07-1.53,0.1-2,0.13c-0.47,0.02-0.74,0.03-0.74,0.03s0.26,0,0.74,0.01
		C337.03,47.01,337.72,47.01,338.57,46.97z"/>
</g>
</svg>
