<?xml version="1.0" encoding="utf-8"?>
<!-- Generator: Adobe Illustrator 27.9.0, SVG Export Plug-In . SVG Version: 6.00 Build 0)  -->
<svg version="1.1" id="Layer_1" xmlns="http://www.w3.org/2000/svg" xmlns:xlink="http://www.w3.org/1999/xlink" x="0px" y="0px"
	 viewBox="0 0 572.23 12.09" style="enable-background:new 0 0 572.23 12.09;" xml:space="preserve">
<style type="text/css">
	.st0{fill:#BA802C;}
</style>
<g>
	<path class="st0" d="M8.19,10.45c-0.99,0-1.85-0.41-2.57-1.24C4.84,8.34,4.46,7.27,4.46,6.01c0-1.41,0.54-2.58,1.61-3.53
		c1.07-0.95,2.42-1.42,4.04-1.42c1.3,0,2.74,0.4,4.33,1.19c0.56,0.29,2.15,1.23,4.79,2.81c1.55,0.94,2.7,1.59,3.46,1.95
		c2.51,1.19,4.3,1.83,5.38,1.92c0.61,0.05,0.96,0.09,1.03,0.11c0.24,0.05,0.35,0.2,0.35,0.43c0,0.32-0.2,0.49-0.59,0.49
		c-0.18,0-1.6-0.38-4.27-1.14c-0.13-0.04-0.23-0.05-0.32-0.05c-0.2,0-0.3,0.07-0.3,0.22c0,0.11,0.04,0.26,0.11,0.47
		c0.07,0.21,0.11,0.35,0.11,0.44c0,0.24-0.15,0.35-0.43,0.35c-0.72,0-1.4-0.45-2.03-1.35c-0.96-1.35-1.55-2.03-1.78-2.03
		c-0.24,0-0.35,0.15-0.35,0.46c0,0.13,0.04,0.31,0.12,0.54c0.08,0.23,0.12,0.4,0.12,0.51c0,0.4-0.23,0.6-0.68,0.6
		c-0.47,0-0.93-0.36-1.38-1.08c-0.9-1.39-1.41-2.14-1.51-2.27c-0.51-0.61-1.29-1.24-2.35-1.89C12.22,2.72,10.91,2.2,9.97,2.2
		c-1.55,0-2.74,0.34-3.57,1.01c-0.83,0.68-1.24,1.61-1.24,2.8c0,1.08,0.28,1.96,0.85,2.62c0.57,0.67,1.3,1,2.2,1
		c1.93,0,2.89-0.76,2.89-2.27V7.2c-0.02-0.09-0.07-0.14-0.16-0.14c-0.07,0-0.31,0.2-0.7,0.6c-0.4,0.4-0.86,0.59-1.38,0.59
		c-0.52,0-0.95-0.21-1.3-0.62C7.22,7.22,7.05,6.7,7.05,6.07c0-0.49,0.24-0.91,0.73-1.27c0.49-0.36,1.07-0.54,1.76-0.54
		c0.68,0,1.3,0.29,1.84,0.88c0.54,0.59,0.81,1.24,0.81,1.96c0,0.97-0.38,1.77-1.15,2.4C10.27,10.13,9.32,10.45,8.19,10.45z"/>
	<path class="st0" d="M562.27,9.5c-0.77-0.63-1.15-1.43-1.15-2.4c0-0.72,0.27-1.37,0.81-1.96c0.54-0.59,1.16-0.88,1.84-0.88
		c0.68,0,1.27,0.18,1.76,0.54c0.49,0.36,0.73,0.78,0.73,1.27c0,0.63-0.17,1.15-0.51,1.57c-0.34,0.42-0.77,0.62-1.3,0.62
		c-0.52,0-0.98-0.2-1.38-0.59c-0.4-0.4-0.63-0.6-0.7-0.6c-0.09,0-0.15,0.05-0.16,0.14v0.16c0,1.52,0.96,2.27,2.89,2.27
		c0.9,0,1.63-0.33,2.2-1s0.85-1.54,0.85-2.62c0-1.19-0.41-2.12-1.24-2.8c-0.83-0.68-2.02-1.01-3.57-1.01
		c-0.94,0-2.24,0.51-3.92,1.54c-1.06,0.65-1.85,1.28-2.35,1.89c-0.11,0.13-0.61,0.88-1.51,2.27c-0.45,0.72-0.91,1.08-1.38,1.08
		c-0.45,0-0.68-0.2-0.68-0.6c0-0.11,0.04-0.28,0.12-0.51c0.08-0.24,0.12-0.42,0.12-0.54c0-0.31-0.12-0.46-0.35-0.46
		c-0.23,0-0.83,0.68-1.78,2.03c-0.63,0.9-1.31,1.35-2.03,1.35c-0.29,0-0.43-0.12-0.43-0.35c0-0.09,0.04-0.24,0.11-0.44
		c0.07-0.21,0.11-0.37,0.11-0.47c0-0.15-0.1-0.22-0.3-0.22c-0.09,0-0.2,0.02-0.32,0.05c-2.67,0.76-4.09,1.14-4.27,1.14
		c-0.4,0-0.59-0.16-0.59-0.49c0-0.24,0.12-0.38,0.35-0.43c0.07-0.02,0.41-0.05,1.03-0.11c1.08-0.09,2.87-0.73,5.38-1.92
		c0.76-0.36,1.91-1.01,3.46-1.95c2.63-1.59,4.23-2.52,4.78-2.81c1.59-0.79,3.03-1.19,4.33-1.19c1.62,0,2.97,0.47,4.04,1.42
		c1.07,0.95,1.61,2.12,1.61,3.53c0,1.26-0.39,2.33-1.16,3.19c-0.72,0.83-1.58,1.24-2.57,1.24C563.98,10.45,563.03,10.13,562.27,9.5z
		"/>
	<path class="st0" d="M32.25,9.96c-0.19,0-0.34-0.15-0.34-0.34l0,0c0-0.19,0.15-0.34,0.34-0.34l0,0h509.08
		c0.18,0,0.33,0.15,0.33,0.34l0,0c0,0.18-0.15,0.34-0.33,0.34l0,0H32.25L32.25,9.96z"/>
</g>
</svg>
