<?xml version="1.0" encoding="utf-8"?>
<!-- Generator: Adobe Illustrator 27.9.0, SVG Export Plug-In . SVG Version: 6.00 Build 0)  -->
<svg version="1.1" id="Layer_1" xmlns="http://www.w3.org/2000/svg" xmlns:xlink="http://www.w3.org/1999/xlink" x="0px" y="0px"
	 viewBox="0 0 595.3 84.7" style="enable-background:new 0 0 595.3 84.7;" xml:space="preserve">
<style type="text/css">
	.st0{fill:#B7762A;}
	.st1{opacity:0.51;fill:url(#SVGID_1_);}
	.st2{fill:url(#SVGID_00000094615413572255011950000002286387698575278762_);}
	.st3{opacity:0.51;fill:url(#SVGID_00000143578266861071716620000005191608670419162289_);}
	.st4{fill:url(#SVGID_00000057106398061911275040000005702224585894475926_);}
	.st5{fill:url(#SVGID_00000177479452148695476700000005226347197969499291_);}
	.st6{opacity:0.51;fill:url(#SVGID_00000031904869105349901040000012106608653702678167_);}
</style>
<g>
	<path class="st0" d="M36,52c-7.8-3.4-13.9-8.3-18.5-14.6c-2.6-3.6-4.3-7.2-5.1-10.8c-0.7-3.6-0.4-6.7,0.9-9.4
		c-1.1-1.3-1.7-2.2-2-2.6C9.8,12.5,8.7,10.5,8,8.7C7.3,7,7,5.4,7.2,4C7.4,2.7,8,1.7,9,0.9c1.3-0.9,2.9-1.1,4.9-0.7
		c2,0.4,4.1,1.5,6.2,3.1c2.1,1.6,4.1,3.6,5.8,6c0.8,1.1,1.5,2.3,2.2,3.6c4.5,2,8.1,4.9,10.9,8.8c1.8,2.6,3,5,3.6,7.4
		c0.6,2.4,0.5,4.6-0.2,6.7c1.2,1,2.3,2.1,3.3,3c0.9,1,1.8,2,2.5,2.9c1.6,2.3,2.5,4.4,2.5,6.6c0.1,2.1-0.7,3.7-2.2,4.8
		c-2.2,1.6-5.1,1.6-8.9,0.2c0.5,1.9,1.2,3.9,2.1,5.9s1.8,3.7,2.7,5c1.4,1.9,2.9,3.4,4.7,4.6c1.7,1.1,3.4,1.8,5.1,1.9
		c1.7,0.1,3.2-0.3,4.5-1.2c0.9-0.7,1.5-1.5,1.9-2.6c0.4-1,0.5-2.1,0.2-3.4c-0.2-1.2-0.7-2.4-1.5-3.5c-1.4-1.9-3.1-3-5.1-3.3
		c0.3,1,0,1.8-0.7,2.3c-0.4,0.3-0.9,0.4-1.4,0.4c-0.5-0.1-0.9-0.3-1.2-0.7c-0.3-0.4-0.4-0.9-0.3-1.4c0.1-0.5,0.4-0.9,0.8-1.2
		c0.7-0.5,1.6-0.7,2.7-0.6c1.1,0.1,2.1,0.6,3.2,1.3c1.1,0.7,2,1.6,2.8,2.7c0.9,1.2,1.4,2.5,1.7,3.9c0.3,1.4,0.2,2.7-0.3,3.9
		c-0.5,1.2-1.2,2.2-2.2,2.9c-1.6,1.1-3.4,1.6-5.5,1.4c-2-0.2-4.2-1.1-6.3-2.6c-2.2-1.5-4.2-3.6-6-6.2C39.6,60.3,37.8,56.7,36,52z
		 M25.1,11.9c-0.7-1.5-1.5-2.8-2.4-4c-1.4-2-2.9-3.6-4.6-4.8c-1.6-1.2-3.2-2-4.7-2.3C12,0.6,10.7,0.8,9.7,1.5C8.4,2.5,7.9,4,8.2,6.1
		c0.4,2.1,1.4,4.4,3.3,7c0.7,0.9,1.5,1.9,2.4,3c0.8-1.3,1.6-2.2,2.5-2.9c1.1-0.8,2.5-1.3,4-1.5C21.9,11.5,23.4,11.6,25.1,11.9z
		 M25.4,12.9c-3.5-0.9-6.3-0.6-8.5,1.1c-0.8,0.6-1.6,1.5-2.5,2.8c1.8,1.9,3.8,3.5,6,4.8c0.6-1,1.2-1.7,1.8-2.2
		c1.5-1.1,3.4-1.3,5.7-0.7C27.3,16.7,26.5,14.8,25.4,12.9z M32.6,39.8c-1.8-0.5-3.5-1.4-5.2-2.7c-1.7-1.3-3.2-2.8-4.5-4.6
		c-2.6-3.6-3.5-6.9-2.6-9.9c-2.3-1.4-4.4-3.1-6.2-4.8c-1.1,2.7-1.2,5.7-0.5,9c0.7,3.4,2.3,6.7,4.8,10.1c4.3,5.9,10.1,10.6,17.4,14.1
		C34.7,47.9,33.7,44.1,32.6,39.8z M34.2,29.9c3.1,2.2,5.7,4,7.6,5.6c0.4-1.2,0.6-2.5,0.5-4c-0.1-1.4-0.5-2.9-1.1-4.5
		c-0.6-1.5-1.5-3.1-2.6-4.6c-2.6-3.6-5.8-6.3-9.7-8.3c0.9,1.8,1.7,3.6,2.4,5.5c2,1,3.5,2.4,4.8,4.1c1.2,1.6,1.9,3.4,2.2,5.3
		l-0.7,0.2c-0.4-1.8-1.1-3.4-2.2-4.9c-1-1.4-2.3-2.6-3.7-3.3C32.7,24,33.6,27,34.2,29.9z M30.4,27.8c-0.5-3-1.2-5.7-2-8.1
		c-2.3-0.8-4.2-0.6-5.6,0.4c-0.7,0.5-1.2,1.1-1.6,1.9c0.9,0.6,2.5,1.7,5,3.2C28.8,26.9,30.2,27.7,30.4,27.8z M32.5,38.9
		c-0.2-0.9-0.8-4.1-1.8-9.6c-0.6-0.4-1.2-0.8-1.9-1.2c-0.6-0.4-1.2-0.7-1.9-1.1c-0.6-0.4-1.3-0.8-1.9-1.2c-0.6-0.4-1.2-0.8-1.8-1.1
		c-0.6-0.4-1.4-0.9-2.3-1.6c-0.7,2.4,0.2,5.3,2.6,8.7c1.2,1.6,2.5,3.1,4.1,4.3C29.2,37.4,30.8,38.3,32.5,38.9z M36.3,39.3
		c1.4,0,2.5-0.3,3.4-0.9c0.6-0.4,1.2-1.1,1.7-2c-1.7-1.5-4-3.2-6.8-5c0.1,0.2,0.1,0.5,0.2,0.8c0.1,0.3,0.2,0.6,0.2,0.9
		s0.1,0.6,0.2,1C35.8,36.3,36.2,38,36.3,39.3z M39.3,52.5c1.5,0.6,3,0.9,4.5,0.9c1.4,0,2.6-0.3,3.4-0.9c1.4-1,2-2.5,1.9-4.5
		c-0.1-2-0.9-4-2.4-6.1c-1.4-2-3-3.7-4.6-5.1c-0.6,1-1.2,1.8-1.9,2.3c-0.9,0.6-2.1,1-3.7,1.2C37.5,44.6,38.4,48.7,39.3,52.5z"/>
	<path class="st0" d="M13.6-228.4c1.9-2.6,3.9-4.7,6-6.2c2.2-1.5,4.2-2.4,6.3-2.6c2-0.2,3.9,0.2,5.5,1.3c1,0.7,1.8,1.7,2.2,3
		c0.5,1.2,0.6,2.5,0.3,3.9c-0.2,1.4-0.8,2.7-1.7,3.9c-0.8,1.1-1.7,2-2.8,2.7c-1.1,0.7-2.2,1.1-3.2,1.3c-1.1,0.1-2-0.1-2.7-0.6
		c-0.4-0.3-0.7-0.7-0.8-1.2c-0.1-0.5,0-1,0.3-1.4c0.3-0.4,0.7-0.6,1.2-0.7c0.5-0.1,1,0.1,1.4,0.4c0.8,0.5,1,1.3,0.7,2.3
		c2-0.3,3.7-1.4,5.1-3.3c0.8-1.1,1.3-2.3,1.5-3.5c0.2-1.2,0.1-2.3-0.2-3.4c-0.4-1-1-1.9-1.9-2.6c-1.3-0.9-2.8-1.3-4.5-1.2
		c-1.7,0.1-3.4,0.8-5.1,1.9c-1.7,1.1-3.3,2.7-4.7,4.6c-1,1.3-1.9,3-2.7,5c-0.9,2-1.5,4-2.1,5.9c3.7-1.4,6.7-1.3,8.9,0.2
		c1.5,1.1,2.3,2.7,2.2,4.8c-0.1,2.1-0.9,4.3-2.5,6.6c-0.7,1-1.5,1.9-2.5,2.9c-1,1-2,2-3.3,3c0.7,2,0.8,4.3,0.2,6.7
		c-0.6,2.4-1.8,4.9-3.6,7.4c-2.8,3.9-6.5,6.9-10.9,8.8c-0.7,1.4-1.4,2.5-2.2,3.6c-1.7,2.4-3.6,4.4-5.8,6c-2.2,1.6-4.2,2.6-6.2,3.1
		c-2,0.4-3.6,0.2-4.9-0.7c-1-0.8-1.7-1.8-1.8-3.1c-0.2-1.3,0.1-2.9,0.8-4.7c0.7-1.8,1.8-3.7,3.3-5.8c0.3-0.4,1-1.3,2-2.6
		c-1.3-2.7-1.6-5.8-0.9-9.4c0.7-3.6,2.4-7.2,5.1-10.8c4.6-6.4,10.8-11.2,18.5-14.6C9.8-222.1,11.7-225.7,13.6-228.4z M-7.5-177.1
		c-1.5-0.2-2.8-0.7-4-1.5c-0.9-0.6-1.7-1.6-2.5-2.9c-0.9,1.1-1.7,2-2.4,3c-1.8,2.5-2.9,4.9-3.3,7c-0.4,2.1,0.1,3.6,1.4,4.6
		c1,0.7,2.3,1,3.8,0.7c1.5-0.3,3.1-1,4.7-2.3c1.6-1.2,3.1-2.8,4.6-4.8c0.9-1.2,1.7-2.5,2.4-4C-4.5-177-6-176.9-7.5-177.1z M0.2-184
		c-2.4,0.6-4.3,0.3-5.7-0.7c-0.6-0.4-1.2-1.2-1.8-2.2c-2.2,1.3-4.2,2.9-6.1,4.8c0.8,1.3,1.7,2.2,2.5,2.8c2.2,1.6,5.1,1.9,8.5,1.1
		C-1.5-180.2-0.6-182.1,0.2-184z M7.7-216.4c-7.3,3.5-13.1,8.1-17.4,14.1c-2.4,3.4-4,6.8-4.8,10.1c-0.7,3.4-0.6,6.4,0.5,9
		c1.8-1.8,3.8-3.4,6.2-4.8c-0.8-2.9,0-6.2,2.6-9.9c1.3-1.8,2.8-3.3,4.6-4.6c1.7-1.3,3.5-2.2,5.2-2.7C5.8-209.5,6.8-213.3,7.7-216.4z
		 M3.7-186.4c1.4-0.8,2.7-1.9,3.7-3.4c1.1-1.5,1.8-3.1,2.2-4.9l0.7,0.2c-0.3,1.9-1,3.7-2.2,5.3c-1.2,1.7-2.8,3.1-4.8,4.1
		c-0.7,1.9-1.5,3.8-2.4,5.5c3.9-2,7.2-4.8,9.7-8.3c1.1-1.5,1.9-3,2.6-4.6c0.6-1.5,1-3,1.1-4.5c0.1-1.5-0.1-2.8-0.5-4
		c-1.9,1.5-4.4,3.4-7.6,5.6C5.7-192.4,4.8-189.4,3.7-186.4z M-1.7-190.7c-2.5,1.5-4.1,2.6-5,3.2c0.4,0.8,0.9,1.5,1.6,1.9
		c1.4,1,3.3,1.2,5.6,0.4c0.8-2.4,1.5-5.1,2-8.1C2.3-193.1,0.9-192.3-1.7-190.7z M-0.3-201.5c-1.6,1.2-2.9,2.6-4.1,4.3
		c-2.4,3.4-3.3,6.3-2.6,8.7c1-0.7,1.8-1.2,2.3-1.6c0.6-0.3,1.2-0.7,1.8-1.1c0.6-0.4,1.3-0.8,1.9-1.2c0.6-0.4,1.3-0.8,1.9-1.1
		c0.6-0.4,1.2-0.8,1.9-1.2c1-5.5,1.6-8.7,1.8-9.6C2.9-203.7,1.3-202.8-0.3-201.5z M7.3-199.4c-0.1,0.4-0.1,0.7-0.2,1
		c-0.1,0.3-0.1,0.6-0.2,0.9c-0.1,0.3-0.2,0.6-0.2,0.8c2.8-1.8,5.1-3.5,6.8-5c-0.5-0.9-1-1.6-1.7-2c-0.8-0.6-2-0.9-3.4-0.9
		C8.3-203.4,7.9-201.7,7.3-199.4z M8.6-205.6c1.6,0.2,2.8,0.5,3.7,1.2c0.7,0.5,1.3,1.3,1.9,2.3c1.7-1.4,3.2-3.1,4.6-5.1
		c1.5-2.1,2.3-4.1,2.4-6.1c0.1-2-0.5-3.5-1.9-4.5c-0.8-0.6-2-0.9-3.4-0.9c-1.4,0-2.9,0.3-4.5,0.9C10.5-214.1,9.5-210,8.6-205.6z"/>
	<path class="st0" d="M549.7,63c-1.9,2.6-3.9,4.7-6,6.2c-2.2,1.5-4.2,2.4-6.3,2.6c-2,0.2-3.9-0.2-5.5-1.4c-1-0.7-1.8-1.7-2.2-2.9
		s-0.6-2.5-0.3-3.9c0.2-1.4,0.8-2.7,1.7-3.9c0.8-1.1,1.7-2,2.8-2.7c1.1-0.7,2.2-1.1,3.2-1.3c1.1-0.1,2,0.1,2.7,0.6
		c0.4,0.3,0.7,0.7,0.8,1.2c0.1,0.5,0,1-0.3,1.4c-0.3,0.4-0.7,0.6-1.2,0.7c-0.5,0.1-1-0.1-1.4-0.4c-0.8-0.5-1-1.3-0.7-2.3
		c-2,0.3-3.7,1.4-5.1,3.3c-0.8,1.1-1.3,2.3-1.5,3.5s-0.1,2.3,0.2,3.4c0.4,1,1,1.9,1.9,2.6c1.3,0.9,2.8,1.3,4.5,1.2
		c1.7-0.1,3.4-0.8,5.1-1.9c1.7-1.1,3.3-2.7,4.7-4.6c1-1.3,1.9-3,2.7-5s1.5-4,2.1-5.9c-3.7,1.4-6.7,1.3-8.8-0.2
		c-1.5-1.1-2.3-2.7-2.2-4.8c0.1-2.1,0.9-4.3,2.5-6.6c0.7-1,1.5-1.9,2.5-2.9c1-1,2-2,3.3-3c-0.7-2.1-0.8-4.3-0.2-6.7
		c0.6-2.4,1.8-4.9,3.6-7.4c2.8-3.9,6.5-6.9,10.9-8.8c0.7-1.3,1.4-2.5,2.2-3.6c1.7-2.4,3.6-4.4,5.8-6s4.2-2.6,6.2-3.1
		c2-0.4,3.6-0.2,4.9,0.7c1,0.8,1.7,1.8,1.8,3.1s-0.1,2.9-0.8,4.7c-0.7,1.8-1.8,3.7-3.3,5.8c-0.3,0.4-1,1.3-2,2.6
		c1.3,2.7,1.6,5.8,0.9,9.4c-0.7,3.6-2.4,7.2-5,10.8c-4.6,6.4-10.8,11.2-18.5,14.6C553.4,56.7,551.6,60.3,549.7,63z M570.8,11.7
		c1.5,0.2,2.8,0.7,4,1.5c0.9,0.6,1.7,1.6,2.5,2.9c0.9-1.1,1.7-2,2.4-3c1.8-2.5,2.9-4.9,3.3-7c0.3-2.1-0.1-3.6-1.4-4.6
		c-1-0.7-2.3-1-3.8-0.7c-1.5,0.3-3.1,1-4.7,2.3c-1.6,1.2-3.1,2.8-4.6,4.8c-0.9,1.2-1.7,2.5-2.4,4C567.7,11.6,569.3,11.5,570.8,11.7z
		 M563.1,18.6c2.3-0.6,4.3-0.3,5.7,0.7c0.6,0.4,1.2,1.2,1.8,2.2c2.2-1.3,4.2-2.9,6-4.8c-0.8-1.3-1.7-2.2-2.5-2.8
		c-2.2-1.6-5.1-2-8.5-1.1C564.7,14.8,563.8,16.7,563.1,18.6z M555.5,51c7.3-3.5,13.2-8.1,17.4-14.1c2.4-3.4,4-6.7,4.8-10.1
		c0.7-3.3,0.6-6.3-0.5-9c-1.8,1.8-3.8,3.4-6.2,4.8c0.8,2.9,0,6.2-2.7,9.9c-1.3,1.8-2.8,3.4-4.5,4.6c-1.7,1.3-3.5,2.2-5.2,2.7
		C557.5,44.1,556.5,47.9,555.5,51z M559.5,21c-1.4,0.8-2.7,1.9-3.7,3.3c-1.1,1.5-1.8,3.1-2.2,4.9L553,29c0.3-1.9,1-3.7,2.2-5.3
		c1.2-1.7,2.8-3.1,4.8-4.1c0.7-1.9,1.5-3.8,2.4-5.5c-3.9,2-7.2,4.8-9.7,8.3c-1.1,1.5-1.9,3-2.6,4.6c-0.6,1.5-1,3-1.1,4.5
		c-0.1,1.5,0.1,2.8,0.5,4c1.9-1.5,4.4-3.4,7.6-5.6C557.6,27,558.4,24,559.5,21z M565,25.2c2.5-1.5,4.1-2.6,5-3.2
		c-0.4-0.8-0.9-1.5-1.6-1.9c-1.4-1-3.3-1.2-5.6-0.4c-0.8,2.4-1.5,5.2-2,8.1C561,27.7,562.4,26.9,565,25.2z M563.5,36.1
		c1.6-1.2,2.9-2.6,4.1-4.3c2.4-3.4,3.3-6.3,2.6-8.7c-1,0.7-1.8,1.2-2.3,1.6c-0.6,0.3-1.2,0.7-1.8,1.1c-0.6,0.4-1.3,0.8-1.9,1.2
		c-0.7,0.4-1.3,0.8-1.9,1.1c-0.6,0.4-1.2,0.8-1.8,1.2c-1,5.5-1.6,8.7-1.8,9.6C560.3,38.3,562,37.4,563.5,36.1z M556,34
		c0.1-0.4,0.1-0.7,0.2-1s0.1-0.6,0.2-0.9c0.1-0.3,0.2-0.6,0.2-0.8c-2.8,1.8-5.1,3.5-6.8,5c0.5,0.9,1,1.6,1.7,2
		c0.8,0.6,2,0.9,3.4,0.9C555,38,555.4,36.3,556,34z M554.6,40.2c-1.6-0.2-2.8-0.5-3.7-1.2c-0.7-0.5-1.3-1.3-1.9-2.3
		c-1.7,1.4-3.2,3.1-4.6,5.1c-1.5,2.1-2.3,4.1-2.4,6.1c-0.1,2,0.5,3.5,1.9,4.5c0.8,0.6,2,0.9,3.4,0.9c1.4,0,2.9-0.3,4.5-0.9
		C552.8,48.7,553.7,44.6,554.6,40.2z"/>
	<path class="st0" d="M527.3-217.5c7.8,3.4,13.9,8.3,18.5,14.6c2.6,3.6,4.3,7.2,5,10.8c0.7,3.6,0.5,6.7-0.9,9.4
		c1.1,1.3,1.7,2.2,2,2.6c1.5,2.1,2.6,4.1,3.3,5.8c0.7,1.8,0.9,3.4,0.8,4.7c-0.2,1.3-0.8,2.4-1.8,3.1c-1.3,0.9-2.9,1.1-4.9,0.7
		c-2-0.4-4.1-1.5-6.2-3.1c-2.2-1.6-4.1-3.6-5.8-6c-0.8-1.1-1.5-2.3-2.2-3.6c-4.5-2-8.1-4.9-10.9-8.8c-1.8-2.6-3-5-3.6-7.5
		c-0.6-2.4-0.5-4.6,0.2-6.7c-1.2-1-2.3-2-3.3-3c-0.9-1-1.8-2-2.5-2.9c-1.6-2.3-2.5-4.4-2.5-6.6c-0.1-2.1,0.7-3.7,2.2-4.8
		c2.2-1.6,5.1-1.6,8.8-0.2c-0.5-1.9-1.2-3.9-2.1-5.9c-0.9-2-1.8-3.7-2.7-5c-1.4-1.9-2.9-3.4-4.7-4.6c-1.7-1.2-3.4-1.8-5.1-1.9
		c-1.7-0.1-3.2,0.3-4.5,1.2c-0.9,0.7-1.5,1.5-1.9,2.6c-0.4,1-0.5,2.1-0.2,3.4c0.2,1.2,0.7,2.4,1.5,3.5c1.4,1.9,3.1,3,5.1,3.3
		c-0.3-1,0-1.8,0.7-2.3c0.4-0.3,0.9-0.4,1.4-0.4c0.5,0.1,0.9,0.3,1.2,0.7c0.3,0.4,0.4,0.9,0.3,1.4c-0.1,0.5-0.4,0.9-0.8,1.2
		c-0.7,0.5-1.6,0.7-2.7,0.6c-1.1-0.1-2.1-0.6-3.2-1.3c-1.1-0.7-2-1.6-2.8-2.7c-0.9-1.2-1.4-2.5-1.7-3.9c-0.3-1.4-0.2-2.7,0.3-3.9
		c0.5-1.2,1.2-2.2,2.2-3c1.6-1.1,3.4-1.6,5.5-1.3c2,0.2,4.2,1.1,6.3,2.6c2.2,1.5,4.2,3.6,6,6.2C523.7-225.7,525.5-222.1,527.3-217.5
		z M538.2-177.3c0.7,1.5,1.5,2.8,2.4,4c1.4,2,2.9,3.6,4.6,4.8c1.6,1.2,3.2,2,4.7,2.3c1.5,0.3,2.8,0.1,3.8-0.7
		c1.3-0.9,1.8-2.5,1.4-4.6c-0.4-2.1-1.5-4.4-3.3-7c-0.7-0.9-1.5-1.9-2.4-3c-0.8,1.3-1.6,2.2-2.5,2.9c-1.1,0.8-2.5,1.3-4,1.5
		C541.4-176.9,539.8-177,538.2-177.3z M537.8-178.3c3.5,0.9,6.3,0.6,8.5-1.1c0.8-0.6,1.6-1.5,2.5-2.8c-1.8-1.9-3.8-3.5-6-4.8
		c-0.6,1-1.2,1.7-1.8,2.2c-1.5,1.1-3.4,1.3-5.7,0.7C535.9-182.1,536.8-180.2,537.8-178.3z M530.6-205.2c1.8,0.5,3.5,1.4,5.2,2.7
		c1.7,1.3,3.2,2.8,4.5,4.6c2.6,3.6,3.5,6.9,2.7,9.9c2.3,1.4,4.4,3.1,6.2,4.8c1.1-2.7,1.2-5.7,0.5-9c-0.7-3.4-2.3-6.7-4.8-10.1
		c-4.3-5.9-10.1-10.6-17.4-14.1C528.6-213.3,529.6-209.5,530.6-205.2z M529.1-195.3c-3.1-2.2-5.7-4-7.6-5.6c-0.4,1.2-0.6,2.5-0.5,4
		s0.5,2.9,1.1,4.5c0.6,1.5,1.5,3.1,2.6,4.6c2.6,3.6,5.8,6.3,9.7,8.3c-0.9-1.8-1.7-3.6-2.4-5.5c-2-1-3.5-2.4-4.8-4.1
		c-1.2-1.6-1.9-3.4-2.2-5.3l0.7-0.2c0.4,1.8,1.1,3.4,2.2,4.9c1,1.5,2.3,2.6,3.7,3.4C530.5-189.4,529.7-192.4,529.1-195.3z
		 M532.8-193.3c0.5,3,1.2,5.7,2,8.1c2.3,0.8,4.2,0.6,5.6-0.4c0.7-0.5,1.2-1.1,1.6-1.9c-0.8-0.6-2.5-1.7-5-3.2
		C534.5-192.3,533.1-193.1,532.8-193.3z M530.8-204.3c0.2,0.9,0.8,4.1,1.8,9.6c0.6,0.4,1.2,0.8,1.8,1.2c0.6,0.4,1.2,0.7,1.9,1.1
		c0.7,0.4,1.3,0.8,1.9,1.2c0.6,0.4,1.2,0.8,1.8,1.1c0.6,0.4,1.4,0.9,2.3,1.6c0.7-2.4-0.2-5.3-2.6-8.7c-1.2-1.6-2.5-3.1-4.1-4.3
		C534-202.8,532.4-203.7,530.8-204.3z M526.9-204.7c-1.4,0-2.5,0.3-3.4,0.9c-0.6,0.4-1.2,1.1-1.7,2c1.7,1.5,4,3.2,6.8,5
		c-0.1-0.2-0.1-0.5-0.2-0.8c-0.1-0.3-0.2-0.6-0.2-0.9s-0.1-0.6-0.2-1C527.5-201.7,527.1-203.4,526.9-204.7z M523.9-217.9
		c-1.5-0.6-3-0.9-4.5-0.9c-1.4,0-2.6,0.3-3.4,0.9c-1.4,1-2,2.5-1.9,4.5c0.1,2,0.9,4,2.4,6.1c1.4,2,3,3.7,4.6,5.1
		c0.6-1,1.2-1.8,1.9-2.3c0.9-0.6,2.1-1,3.7-1.2C525.8-210,524.9-214.1,523.9-217.9z"/>
	<path class="st0" d="M38.1-242.4c-0.3-0.5-0.2-1.2,0.4-1.5l0,0c8.3-5,17.5-5.8,23.5-5.8l0,0l412.8,0c6,0,15.3,0.7,23.5,5.8l0,0
		c0.5,0.3,0.7,1,0.4,1.5l0,0c-0.3,0.5-1,0.7-1.5,0.4l0,0c-7.7-4.7-16.5-5.4-22.3-5.4l0,0H62c-5.8,0-14.7,0.8-22.3,5.4l0,0
		c-0.2,0.1-0.4,0.2-0.6,0.2l0,0C38.7-241.9,38.3-242.1,38.1-242.4L38.1-242.4z"/>
	<path class="st0" d="M66.4,79c-0.5-0.3-0.7-1-0.4-1.5l0,0c0.3-0.5,1-0.7,1.5-0.4l0,0c7.7,4.7,16.5,5.4,22.3,5.4l0,0l412.8,0
		c5.8,0,14.7-0.7,22.4-5.4l0,0c0.5-0.3,1.2-0.2,1.5,0.4l0,0c0.3,0.5,0.2,1.2-0.4,1.5l0,0c-8.2,5-17.5,5.8-23.5,5.8l0,0l-412.8,0
		C83.9,84.7,74.7,84,66.4,79L66.4,79z"/>
</g>
<g>
	
		<linearGradient id="SVGID_1_" gradientUnits="userSpaceOnUse" x1="7.1636" y1="-52.2365" x2="61.9483" y2="-52.2365" gradientTransform="matrix(1 0 0 -1 0 -16.2835)">
		<stop  offset="0" style="stop-color:#914F23"/>
		<stop  offset="0.4286" style="stop-color:#F6E296"/>
		<stop  offset="0.8187" style="stop-color:#FBCA60"/>
		<stop  offset="1" style="stop-color:#914F23"/>
	</linearGradient>
	<path class="st1" d="M36,52c-7.8-3.4-13.9-8.3-18.5-14.6c-2.6-3.6-4.3-7.2-5.1-10.8c-0.7-3.6-0.4-6.7,0.9-9.4
		c-1.1-1.3-1.7-2.2-2-2.6C9.8,12.5,8.7,10.5,8,8.7C7.3,7,7,5.4,7.2,4C7.4,2.7,8,1.7,9,0.9c1.3-0.9,2.9-1.1,4.9-0.7
		c2,0.4,4.1,1.5,6.2,3.1c2.1,1.6,4.1,3.6,5.8,6c0.8,1.1,1.5,2.3,2.2,3.6c4.5,2,8.1,4.9,10.9,8.8c1.8,2.6,3,5,3.6,7.4
		c0.6,2.4,0.5,4.6-0.2,6.7c1.2,1,2.3,2.1,3.3,3c0.9,1,1.8,2,2.5,2.9c1.6,2.3,2.5,4.4,2.5,6.6c0.1,2.1-0.7,3.7-2.2,4.8
		c-2.2,1.6-5.1,1.6-8.9,0.2c0.5,1.9,1.2,3.9,2.1,5.9s1.8,3.7,2.7,5c1.4,1.9,2.9,3.4,4.7,4.6c1.7,1.1,3.4,1.8,5.1,1.9
		c1.7,0.1,3.2-0.3,4.5-1.2c0.9-0.7,1.5-1.5,1.9-2.6c0.4-1,0.5-2.1,0.2-3.4c-0.2-1.2-0.7-2.4-1.5-3.5c-1.4-1.9-3.1-3-5.1-3.3
		c0.3,1,0,1.8-0.7,2.3c-0.4,0.3-0.9,0.4-1.4,0.4c-0.5-0.1-0.9-0.3-1.2-0.7c-0.3-0.4-0.4-0.9-0.3-1.4c0.1-0.5,0.4-0.9,0.8-1.2
		c0.7-0.5,1.6-0.7,2.7-0.6c1.1,0.1,2.1,0.6,3.2,1.3c1.1,0.7,2,1.6,2.8,2.7c0.9,1.2,1.4,2.5,1.7,3.9c0.3,1.4,0.2,2.7-0.3,3.9
		c-0.5,1.2-1.2,2.2-2.2,2.9c-1.6,1.1-3.4,1.6-5.5,1.4c-2-0.2-4.2-1.1-6.3-2.6c-2.2-1.5-4.2-3.6-6-6.2C39.6,60.3,37.8,56.7,36,52z
		 M25.1,11.9c-0.7-1.5-1.5-2.8-2.4-4c-1.4-2-2.9-3.6-4.6-4.8c-1.6-1.2-3.2-2-4.7-2.3C12,0.6,10.7,0.8,9.7,1.5C8.4,2.5,7.9,4,8.2,6.1
		c0.4,2.1,1.4,4.4,3.3,7c0.7,0.9,1.5,1.9,2.4,3c0.8-1.3,1.6-2.2,2.5-2.9c1.1-0.8,2.5-1.3,4-1.5C21.9,11.5,23.4,11.6,25.1,11.9z
		 M25.4,12.9c-3.5-0.9-6.3-0.6-8.5,1.1c-0.8,0.6-1.6,1.5-2.5,2.8c1.8,1.9,3.8,3.5,6,4.8c0.6-1,1.2-1.7,1.8-2.2
		c1.5-1.1,3.4-1.3,5.7-0.7C27.3,16.7,26.5,14.8,25.4,12.9z M32.6,39.8c-1.8-0.5-3.5-1.4-5.2-2.7c-1.7-1.3-3.2-2.8-4.5-4.6
		c-2.6-3.6-3.5-6.9-2.6-9.9c-2.3-1.4-4.4-3.1-6.2-4.8c-1.1,2.7-1.2,5.7-0.5,9c0.7,3.4,2.3,6.7,4.8,10.1c4.3,5.9,10.1,10.6,17.4,14.1
		C34.7,47.9,33.7,44.1,32.6,39.8z M34.2,29.9c3.1,2.2,5.7,4,7.6,5.6c0.4-1.2,0.6-2.5,0.5-4c-0.1-1.4-0.5-2.9-1.1-4.5
		c-0.6-1.5-1.5-3.1-2.6-4.6c-2.6-3.6-5.8-6.3-9.7-8.3c0.9,1.8,1.7,3.6,2.4,5.5c2,1,3.5,2.4,4.8,4.1c1.2,1.6,1.9,3.4,2.2,5.3
		l-0.7,0.2c-0.4-1.8-1.1-3.4-2.2-4.9c-1-1.4-2.3-2.6-3.7-3.3C32.7,24,33.6,27,34.2,29.9z M30.4,27.8c-0.5-3-1.2-5.7-2-8.1
		c-2.3-0.8-4.2-0.6-5.6,0.4c-0.7,0.5-1.2,1.1-1.6,1.9c0.9,0.6,2.5,1.7,5,3.2C28.8,26.9,30.2,27.7,30.4,27.8z M32.5,38.9
		c-0.2-0.9-0.8-4.1-1.8-9.6c-0.6-0.4-1.2-0.8-1.9-1.2c-0.6-0.4-1.2-0.7-1.9-1.1c-0.6-0.4-1.3-0.8-1.9-1.2c-0.6-0.4-1.2-0.8-1.8-1.1
		c-0.6-0.4-1.4-0.9-2.3-1.6c-0.7,2.4,0.2,5.3,2.6,8.7c1.2,1.6,2.5,3.1,4.1,4.3C29.2,37.4,30.8,38.3,32.5,38.9z M36.3,39.3
		c1.4,0,2.5-0.3,3.4-0.9c0.6-0.4,1.2-1.1,1.7-2c-1.7-1.5-4-3.2-6.8-5c0.1,0.2,0.1,0.5,0.2,0.8c0.1,0.3,0.2,0.6,0.2,0.9
		s0.1,0.6,0.2,1C35.8,36.3,36.2,38,36.3,39.3z M39.3,52.5c1.5,0.6,3,0.9,4.5,0.9c1.4,0,2.6-0.3,3.4-0.9c1.4-1,2-2.5,1.9-4.5
		c-0.1-2-0.9-4-2.4-6.1c-1.4-2-3-3.7-4.6-5.1c-0.6,1-1.2,1.8-1.9,2.3c-0.9,0.6-2.1,1-3.7,1.2C37.5,44.6,38.4,48.7,39.3,52.5z"/>
	
		<linearGradient id="SVGID_00000088836015227721218050000001018741785320145084_" gradientUnits="userSpaceOnUse" x1="-9.2684" y1="199.4447" x2="45.5163" y2="199.4447" gradientTransform="matrix(1 0 0 -1 0 -16.2835)">
		<stop  offset="0" style="stop-color:#914F23"/>
		<stop  offset="0.4286" style="stop-color:#F6E296"/>
		<stop  offset="0.8187" style="stop-color:#FBCA60"/>
		<stop  offset="1" style="stop-color:#914F23"/>
	</linearGradient>
	<path style="fill:url(#SVGID_00000088836015227721218050000001018741785320145084_);" d="M25.1-242.8c1.9-2.6,3.9-4.7,6-6.2
		c2.2-1.5,4.2-2.4,6.3-2.6c2-0.2,3.9,0.2,5.5,1.4c1,0.7,1.8,1.7,2.2,2.9s0.6,2.5,0.3,3.9c-0.2,1.4-0.8,2.7-1.7,3.9
		c-0.8,1.1-1.7,2-2.8,2.7c-1.1,0.7-2.2,1.1-3.2,1.3c-1.1,0.1-2-0.1-2.7-0.6c-0.4-0.3-0.7-0.7-0.8-1.2c-0.1-0.5,0-1,0.3-1.4
		c0.3-0.4,0.7-0.6,1.2-0.7s1,0.1,1.4,0.4c0.8,0.5,1,1.3,0.7,2.3c2-0.3,3.7-1.4,5.1-3.3c0.8-1.1,1.3-2.3,1.5-3.5
		c0.2-1.2,0.1-2.3-0.2-3.4c-0.4-1-1-1.9-1.9-2.6c-1.3-0.9-2.8-1.3-4.5-1.2c-1.7,0.1-3.4,0.8-5.1,1.9c-1.7,1.2-3.3,2.7-4.7,4.6
		c-1,1.3-1.9,3-2.7,5c-0.9,2-1.5,4-2.1,5.9c3.7-1.4,6.7-1.3,8.9,0.2c1.5,1.1,2.3,2.7,2.2,4.8c-0.1,2.1-0.9,4.3-2.5,6.6
		c-0.7,1-1.5,1.9-2.5,2.9c-1,1-2,2-3.3,3c0.7,2.1,0.8,4.3,0.2,6.7c-0.6,2.4-1.8,4.9-3.6,7.5c-2.8,3.9-6.5,6.9-10.9,8.8
		c-0.7,1.3-1.4,2.5-2.2,3.6c-1.7,2.4-3.6,4.4-5.8,6c-2.2,1.6-4.2,2.6-6.2,3.1c-2,0.4-3.6,0.2-4.9-0.7c-1-0.8-1.6-1.8-1.8-3.1
		c-0.2-1.3,0.1-2.9,0.8-4.7c0.7-1.8,1.8-3.7,3.3-5.8c0.3-0.4,1-1.3,2-2.6c-1.3-2.7-1.6-5.8-0.9-9.4c0.7-3.6,2.4-7.2,5.1-10.8
		c4.6-6.4,10.8-11.2,18.5-14.6C21.3-236.4,23.2-240.1,25.1-242.8z M3.9-191.4c-1.5-0.2-2.8-0.7-4-1.5c-0.9-0.6-1.7-1.6-2.5-2.9
		c-0.9,1.1-1.7,2-2.4,3c-1.8,2.5-2.9,4.9-3.3,7c-0.3,2.1,0.1,3.6,1.4,4.6c1,0.7,2.3,1,3.8,0.7c1.5-0.3,3.1-1,4.7-2.3
		c1.6-1.2,3.1-2.8,4.6-4.8c0.9-1.2,1.7-2.5,2.4-4C7-191.3,5.4-191.2,3.9-191.4z M11.6-198.4c-2.4,0.6-4.3,0.3-5.7-0.7
		c-0.6-0.4-1.2-1.2-1.8-2.2c-2.2,1.3-4.2,2.9-6.1,4.8c0.8,1.3,1.7,2.2,2.5,2.8c2.2,1.6,5.1,1.9,8.5,1.1
		C10-194.5,10.9-196.4,11.6-198.4z M19.2-230.7c-7.3,3.5-13.2,8.2-17.4,14.1c-2.4,3.4-4,6.8-4.8,10.1c-0.7,3.3-0.6,6.3,0.5,9
		c1.8-1.8,3.8-3.4,6.2-4.8c-0.8-2.9,0-6.2,2.6-9.9c1.3-1.8,2.8-3.4,4.6-4.6c1.7-1.3,3.5-2.2,5.3-2.7
		C17.2-223.9,18.2-227.6,19.2-230.7z M15.2-200.7c1.4-0.8,2.7-1.9,3.7-3.3c1.1-1.5,1.8-3.1,2.2-4.9l0.7,0.2c-0.3,1.9-1,3.7-2.2,5.3
		c-1.2,1.7-2.8,3.1-4.8,4.1c-0.7,1.9-1.5,3.8-2.4,5.5c3.9-2,7.2-4.8,9.7-8.4c1.1-1.5,1.9-3,2.6-4.6c0.6-1.5,1-3,1.1-4.5
		c0.1-1.5-0.1-2.8-0.5-4c-1.9,1.5-4.4,3.4-7.6,5.6C17.2-206.7,16.3-203.8,15.2-200.7z M9.8-205c-2.5,1.5-4.1,2.6-5,3.2
		c0.4,0.8,0.9,1.5,1.6,1.9c1.4,1,3.3,1.2,5.6,0.4c0.8-2.4,1.5-5.2,2-8.1C13.7-207.5,12.3-206.6,9.8-205z M11.2-215.9
		c-1.6,1.2-2.9,2.7-4.1,4.3c-2.4,3.4-3.3,6.3-2.6,8.7c1-0.7,1.8-1.2,2.3-1.6c0.6-0.3,1.2-0.7,1.8-1.1c0.6-0.4,1.3-0.8,1.9-1.2
		c0.6-0.4,1.3-0.8,1.9-1.1c0.6-0.4,1.2-0.8,1.9-1.2c1-5.5,1.6-8.7,1.8-9.6C14.4-218,12.8-217.1,11.2-215.9z M18.8-213.8
		c-0.1,0.4-0.1,0.7-0.2,1c-0.1,0.3-0.1,0.6-0.2,0.9c-0.1,0.3-0.2,0.6-0.2,0.8c2.8-1.8,5.1-3.5,6.8-5c-0.5-0.9-1-1.6-1.7-2
		c-0.8-0.6-2-0.9-3.4-0.9C19.7-217.8,19.3-216,18.8-213.8z M20.1-219.9c1.6,0.2,2.8,0.5,3.7,1.2c0.7,0.5,1.3,1.3,1.9,2.3
		c1.7-1.4,3.2-3.1,4.6-5.1c1.5-2.1,2.3-4.1,2.4-6.1c0.1-2-0.5-3.5-1.9-4.5c-0.8-0.6-2-0.9-3.4-0.9c-1.4,0-2.9,0.3-4.5,0.9
		C22-228.4,21-224.3,20.1-219.9z"/>
	
		<linearGradient id="SVGID_00000171681847997065068260000012171971709320400559_" gradientUnits="userSpaceOnUse" x1="529.2216" y1="-52.2354" x2="584.0063" y2="-52.2354" gradientTransform="matrix(1 0 0 -1 0 -16.2835)">
		<stop  offset="0" style="stop-color:#914F23"/>
		<stop  offset="0.4286" style="stop-color:#F6E296"/>
		<stop  offset="0.8187" style="stop-color:#FBCA60"/>
		<stop  offset="1" style="stop-color:#914F23"/>
	</linearGradient>
	<path style="opacity:0.51;fill:url(#SVGID_00000171681847997065068260000012171971709320400559_);" d="M549.7,63
		c-1.9,2.6-3.9,4.7-6,6.2c-2.2,1.5-4.2,2.4-6.3,2.6c-2,0.2-3.9-0.2-5.5-1.4c-1-0.7-1.8-1.7-2.2-2.9s-0.6-2.5-0.3-3.9
		c0.2-1.4,0.8-2.7,1.7-3.9c0.8-1.1,1.7-2,2.8-2.7c1.1-0.7,2.2-1.1,3.2-1.3c1.1-0.1,2,0.1,2.7,0.6c0.4,0.3,0.7,0.7,0.8,1.2
		c0.1,0.5,0,1-0.3,1.4c-0.3,0.4-0.7,0.6-1.2,0.7c-0.5,0.1-1-0.1-1.4-0.4c-0.8-0.5-1-1.3-0.7-2.3c-2,0.3-3.7,1.4-5.1,3.3
		c-0.8,1.1-1.3,2.3-1.5,3.5s-0.1,2.3,0.2,3.4c0.4,1,1,1.9,1.9,2.6c1.3,0.9,2.8,1.3,4.5,1.2c1.7-0.1,3.4-0.8,5.1-1.9
		c1.7-1.1,3.3-2.7,4.7-4.6c1-1.3,1.9-3,2.7-5s1.5-4,2.1-5.9c-3.7,1.4-6.7,1.3-8.8-0.2c-1.5-1.1-2.3-2.7-2.2-4.8
		c0.1-2.1,0.9-4.3,2.5-6.6c0.7-1,1.5-1.9,2.5-2.9c1-1,2-2,3.3-3c-0.7-2.1-0.8-4.3-0.2-6.7c0.6-2.4,1.8-4.9,3.6-7.4
		c2.8-3.9,6.5-6.9,10.9-8.8c0.7-1.3,1.4-2.5,2.2-3.6c1.7-2.4,3.6-4.4,5.8-6s4.2-2.6,6.2-3.1c2-0.4,3.6-0.2,4.9,0.7
		c1,0.8,1.7,1.8,1.8,3.1s-0.1,2.9-0.8,4.7c-0.7,1.8-1.8,3.7-3.3,5.8c-0.3,0.4-1,1.3-2,2.6c1.3,2.7,1.6,5.8,0.9,9.4
		c-0.7,3.6-2.4,7.2-5,10.8c-4.6,6.4-10.8,11.2-18.5,14.6C553.4,56.7,551.6,60.3,549.7,63z M570.8,11.7c1.5,0.2,2.8,0.7,4,1.5
		c0.9,0.6,1.7,1.6,2.5,2.9c0.9-1.1,1.7-2,2.4-3c1.8-2.5,2.9-4.9,3.3-7c0.3-2.1-0.1-3.6-1.4-4.6c-1-0.7-2.3-1-3.8-0.7
		c-1.5,0.3-3.1,1-4.7,2.3c-1.6,1.2-3.1,2.8-4.6,4.8c-0.9,1.2-1.7,2.5-2.4,4C567.7,11.6,569.3,11.5,570.8,11.7z M563.1,18.6
		c2.3-0.6,4.3-0.3,5.7,0.7c0.6,0.4,1.2,1.2,1.8,2.2c2.2-1.3,4.2-2.9,6-4.8c-0.8-1.3-1.7-2.2-2.5-2.8c-2.2-1.6-5.1-2-8.5-1.1
		C564.7,14.8,563.8,16.7,563.1,18.6z M555.5,51c7.3-3.5,13.2-8.1,17.4-14.1c2.4-3.4,4-6.7,4.8-10.1c0.7-3.3,0.6-6.3-0.5-9
		c-1.8,1.8-3.8,3.4-6.2,4.8c0.8,2.9,0,6.2-2.7,9.9c-1.3,1.8-2.8,3.4-4.5,4.6c-1.7,1.3-3.5,2.2-5.2,2.7
		C557.5,44.1,556.5,47.9,555.5,51z M559.5,21c-1.4,0.8-2.7,1.9-3.7,3.3c-1.1,1.5-1.8,3.1-2.2,4.9L553,29c0.3-1.9,1-3.7,2.2-5.3
		c1.2-1.7,2.8-3.1,4.8-4.1c0.7-1.9,1.5-3.8,2.4-5.5c-3.9,2-7.2,4.8-9.7,8.3c-1.1,1.5-1.9,3-2.6,4.6c-0.6,1.5-1,3-1.1,4.5
		c-0.1,1.5,0.1,2.8,0.5,4c1.9-1.5,4.4-3.4,7.6-5.6C557.6,27,558.4,24,559.5,21z M565,25.2c2.5-1.5,4.1-2.6,5-3.2
		c-0.4-0.8-0.9-1.5-1.6-1.9c-1.4-1-3.3-1.2-5.6-0.4c-0.8,2.4-1.5,5.2-2,8.1C561,27.7,562.4,26.9,565,25.2z M563.5,36.1
		c1.6-1.2,2.9-2.6,4.1-4.3c2.4-3.4,3.3-6.3,2.6-8.7c-1,0.7-1.8,1.2-2.3,1.6c-0.6,0.3-1.2,0.7-1.8,1.1c-0.6,0.4-1.3,0.8-1.9,1.2
		c-0.7,0.4-1.3,0.8-1.9,1.1c-0.6,0.4-1.2,0.8-1.8,1.2c-1,5.5-1.6,8.7-1.8,9.6C560.3,38.3,562,37.4,563.5,36.1z M556,34
		c0.1-0.4,0.1-0.7,0.2-1s0.1-0.6,0.2-0.9c0.1-0.3,0.2-0.6,0.2-0.8c-2.8,1.8-5.1,3.5-6.8,5c0.5,0.9,1,1.6,1.7,2
		c0.8,0.6,2,0.9,3.4,0.9C555,38,555.4,36.3,556,34z M554.6,40.2c-1.6-0.2-2.8-0.5-3.7-1.2c-0.7-0.5-1.3-1.3-1.9-2.3
		c-1.7,1.4-3.2,3.1-4.6,5.1c-1.5,2.1-2.3,4.1-2.4,6.1c-0.1,2,0.5,3.5,1.9,4.5c0.8,0.6,2,0.9,3.4,0.9c1.4,0,2.9-0.3,4.5-0.9
		C552.8,48.7,553.7,44.6,554.6,40.2z"/>
	
		<linearGradient id="SVGID_00000120544834224942851780000009616001791669381779_" gradientUnits="userSpaceOnUse" x1="512.7897" y1="199.4457" x2="567.5744" y2="199.4457" gradientTransform="matrix(1 0 0 -1 0 -16.2835)">
		<stop  offset="0" style="stop-color:#914F23"/>
		<stop  offset="0.4286" style="stop-color:#F6E296"/>
		<stop  offset="0.8187" style="stop-color:#FBCA60"/>
		<stop  offset="1" style="stop-color:#914F23"/>
	</linearGradient>
	<path style="fill:url(#SVGID_00000120544834224942851780000009616001791669381779_);" d="M538.7-231.8c7.8,3.4,13.9,8.3,18.5,14.6
		c2.6,3.6,4.3,7.2,5,10.8c0.7,3.6,0.5,6.7-0.9,9.4c1.1,1.3,1.7,2.2,2,2.6c1.5,2.1,2.6,4.1,3.3,5.8c0.7,1.8,0.9,3.4,0.8,4.7
		c-0.2,1.4-0.8,2.4-1.8,3.1c-1.3,0.9-2.9,1.1-4.9,0.7c-2-0.4-4.1-1.5-6.2-3.1c-2.2-1.6-4.1-3.6-5.8-6c-0.8-1.1-1.5-2.3-2.2-3.6
		c-4.5-2-8.1-4.9-10.9-8.8c-1.8-2.6-3-5-3.6-7.4c-0.6-2.4-0.5-4.6,0.2-6.7c-1.2-1-2.3-2.1-3.3-3c-0.9-1-1.8-2-2.5-2.9
		c-1.6-2.3-2.5-4.4-2.5-6.5c-0.1-2.1,0.7-3.7,2.2-4.8c2.2-1.6,5.1-1.6,8.8-0.2c-0.5-1.9-1.2-3.9-2.1-5.9c-0.9-2-1.8-3.7-2.7-5
		c-1.4-1.9-2.9-3.4-4.7-4.6c-1.7-1.1-3.4-1.8-5.1-1.9c-1.7-0.1-3.2,0.3-4.5,1.2c-0.9,0.7-1.5,1.5-1.9,2.6c-0.4,1-0.5,2.1-0.2,3.4
		c0.2,1.2,0.7,2.4,1.5,3.5c1.4,1.9,3.1,3,5.1,3.3c-0.3-1,0-1.8,0.7-2.3c0.4-0.3,0.9-0.4,1.4-0.4c0.5,0.1,0.9,0.3,1.2,0.7
		c0.3,0.4,0.4,0.9,0.3,1.4c-0.1,0.5-0.4,0.9-0.8,1.2c-0.7,0.5-1.6,0.7-2.7,0.6c-1.1-0.1-2.1-0.6-3.2-1.3c-1.1-0.7-2-1.6-2.8-2.7
		c-0.9-1.2-1.4-2.5-1.7-3.9c-0.3-1.4-0.2-2.7,0.3-3.9c0.5-1.2,1.2-2.2,2.2-2.9c1.6-1.1,3.4-1.6,5.5-1.4c2,0.2,4.2,1.1,6.3,2.6
		c2.2,1.5,4.2,3.6,6,6.2C535.1-240.1,537-236.4,538.7-231.8z M549.7-191.7c0.7,1.5,1.5,2.8,2.4,4c1.4,2,2.9,3.6,4.6,4.8
		c1.6,1.2,3.2,2,4.7,2.3c1.5,0.3,2.8,0.1,3.8-0.7c1.3-0.9,1.8-2.5,1.4-4.6c-0.4-2.1-1.5-4.4-3.3-7c-0.7-0.9-1.5-1.9-2.4-3
		c-0.8,1.3-1.6,2.2-2.5,2.9c-1.1,0.8-2.5,1.3-4,1.5C552.9-191.2,551.3-191.3,549.7-191.7z M549.3-192.6c3.5,0.9,6.3,0.6,8.5-1.1
		c0.8-0.6,1.6-1.5,2.5-2.8c-1.8-1.9-3.8-3.5-6-4.8c-0.6,1-1.2,1.7-1.8,2.2c-1.5,1.1-3.4,1.3-5.7,0.7
		C547.4-196.4,548.3-194.5,549.3-192.6z M542.1-219.5c1.8,0.5,3.5,1.4,5.2,2.7s3.2,2.8,4.5,4.6c2.6,3.6,3.5,6.9,2.7,9.9
		c2.3,1.4,4.4,3,6.2,4.8c1.1-2.7,1.2-5.7,0.5-9c-0.7-3.4-2.3-6.7-4.8-10.1c-4.3-5.9-10.1-10.6-17.4-14.1
		C540.1-227.6,541.1-223.9,542.1-219.5z M540.5-209.6c-3.1-2.2-5.7-4-7.6-5.6c-0.4,1.2-0.6,2.5-0.5,4c0.1,1.5,0.5,3,1.1,4.5
		c0.6,1.5,1.5,3.1,2.6,4.6c2.6,3.6,5.8,6.4,9.7,8.4c-0.9-1.8-1.7-3.6-2.4-5.5c-2-1-3.5-2.4-4.8-4.1c-1.2-1.6-1.9-3.4-2.2-5.3
		l0.7-0.2c0.4,1.8,1.1,3.4,2.2,4.9c1,1.4,2.3,2.6,3.7,3.3C542-203.8,541.1-206.7,540.5-209.6z M544.3-207.6c0.5,3,1.2,5.7,2,8.1
		c2.3,0.8,4.2,0.6,5.6-0.4c0.7-0.5,1.2-1.1,1.6-1.9c-0.8-0.6-2.5-1.7-5-3.2C546-206.6,544.6-207.5,544.3-207.6z M542.3-218.6
		c0.2,0.9,0.8,4.1,1.8,9.6c0.6,0.4,1.2,0.8,1.8,1.2c0.6,0.4,1.2,0.7,1.9,1.1c0.7,0.4,1.3,0.8,1.9,1.2c0.6,0.4,1.2,0.8,1.8,1.1
		c0.6,0.4,1.4,0.9,2.3,1.6c0.7-2.4-0.2-5.3-2.6-8.7c-1.2-1.6-2.5-3.1-4.1-4.3C545.5-217.1,543.9-218,542.3-218.6z M538.4-219.1
		c-1.4,0-2.5,0.3-3.4,1c-0.6,0.4-1.2,1.1-1.7,2c1.7,1.5,4,3.2,6.8,5c-0.1-0.2-0.1-0.5-0.2-0.8c-0.1-0.3-0.2-0.6-0.2-0.9
		c-0.1-0.3-0.1-0.6-0.2-1C539-216,538.6-217.8,538.4-219.1z M535.4-232.2c-1.5-0.6-3-0.9-4.5-0.9c-1.4,0-2.6,0.3-3.4,0.9
		c-1.4,1-2,2.5-1.9,4.5c0.1,2,0.9,4,2.4,6.1c1.4,2,3,3.7,4.6,5.1c0.6-1,1.2-1.8,1.9-2.3c0.9-0.6,2.1-1,3.7-1.2
		C537.3-224.3,536.3-228.4,535.4-232.2z"/>
	
		<linearGradient id="SVGID_00000118366175016204827690000000288696741960986260_" gradientUnits="userSpaceOnUse" x1="49.4592" y1="243.8861" x2="510.3171" y2="243.8861" gradientTransform="matrix(1 0 0 -1 0 -16.2835)">
		<stop  offset="0" style="stop-color:#914F23"/>
		<stop  offset="0.4286" style="stop-color:#F6E296"/>
		<stop  offset="0.8187" style="stop-color:#FBCA60"/>
		<stop  offset="1" style="stop-color:#914F23"/>
	</linearGradient>
	<path style="fill:url(#SVGID_00000118366175016204827690000000288696741960986260_);" d="M49.6-256.8c-0.3-0.5-0.2-1.2,0.4-1.5l0,0
		c8.3-5,17.5-5.8,23.5-5.8l0,0l412.8,0c6,0,15.3,0.7,23.5,5.8l0,0c0.5,0.3,0.7,1,0.4,1.5l0,0c-0.3,0.5-1,0.7-1.5,0.4l0,0
		c-7.7-4.7-16.5-5.4-22.3-5.4l0,0H73.5c-5.8,0-14.7,0.8-22.3,5.4l0,0c-0.2,0.1-0.4,0.2-0.6,0.2l0,0
		C50.2-256.2,49.8-256.4,49.6-256.8L49.6-256.8z"/>
	
		<linearGradient id="SVGID_00000103964124373647765200000011975450535415490220_" gradientUnits="userSpaceOnUse" x1="65.8957" y1="-97.0936" x2="526.7443" y2="-97.0936" gradientTransform="matrix(1 0 0 -1 0 -16.2835)">
		<stop  offset="0" style="stop-color:#914F23"/>
		<stop  offset="0.4286" style="stop-color:#F6E296"/>
		<stop  offset="0.8187" style="stop-color:#FBCA60"/>
		<stop  offset="1" style="stop-color:#914F23"/>
	</linearGradient>
	<path style="opacity:0.51;fill:url(#SVGID_00000103964124373647765200000011975450535415490220_);" d="M66.4,79
		c-0.5-0.3-0.7-1-0.4-1.5l0,0c0.3-0.5,1-0.7,1.5-0.4l0,0c7.7,4.7,16.5,5.4,22.3,5.4l0,0l412.8,0c5.8,0,14.7-0.7,22.4-5.4l0,0
		c0.5-0.3,1.2-0.2,1.5,0.4l0,0c0.3,0.5,0.2,1.2-0.4,1.5l0,0c-8.2,5-17.5,5.8-23.5,5.8l0,0l-412.8,0C83.9,84.7,74.7,84,66.4,79
		L66.4,79z"/>
</g>
</svg>
